<svg id="Слой_1" data-name="Слой 1" xmlns="http://www.w3.org/2000/svg" viewBox="0 0 88 88"><defs><style>.cls-1{fill:#fff;}.cls-2{fill:none;stroke:#fff;stroke-linecap:round;stroke-linejoin:round;stroke-width:3px;}</style></defs><title>instagram_icon_redondo-tiza</title><path class="cls-1" d="M91.89,44.88a44,44,0,0,0-.67-5.17,43.22,43.22,0,0,0-2.43-8.24,38.33,38.33,0,0,1,1.51,5.59,39.21,39.21,0,0,1,.6,4.64,26.21,26.21,0,0,1,.1,2.8v0.12A39.53,39.53,0,1,1,51.38,5H51.5a24.09,24.09,0,0,1,2.84.11,38.38,38.38,0,0,1,4.59.6,39.33,39.33,0,0,1,5.45,1.45,43.39,43.39,0,0,0-8.1-2.37,42.9,42.9,0,0,0-5.12-.67A27.73,27.73,0,0,0,48,4H47.87A44,44,0,1,0,92,48.13V48A30,30,0,0,0,91.89,44.88Z" transform="translate(-4 -4)"/><path class="cls-2" d="M74.66,21.93a36.47,36.47,0,0,1,3,3.52" transform="translate(-4 -4)"/><path class="cls-2" d="M58,12a38.11,38.11,0,0,1,11.78,5.76" transform="translate(-4 -4)"/><path class="cls-1" d="M30,40V62a8,8,0,0,0,8,8H60a8,8,0,0,0,8-8V40a8,8,0,0,0-8-8H38A8,8,0,0,0,30,40ZM57.32,66H40.68A6.68,6.68,0,0,1,34,59.32h0V42.68A6.68,6.68,0,0,1,40.68,36H57.32A6.68,6.68,0,0,1,64,42.68h0V59.32A6.68,6.68,0,0,1,57.32,66h0Z" transform="translate(-4 -4)"/><path class="cls-1" d="M49,42a9,9,0,1,0,9,9h0A9,9,0,0,0,49,42Zm0,14a5,5,0,1,1,5-5A5,5,0,0,1,49,56Z" transform="translate(-4 -4)"/><circle class="cls-1" cx="55" cy="37" r="2"/></svg>