<svg id="Capa_3_copia" data-name="Capa 3 copia" xmlns="http://www.w3.org/2000/svg" xmlns:xlink="http://www.w3.org/1999/xlink" viewBox="0 0 157.66 175.45"><defs><style>.cls-1{fill:none;clip-rule:evenodd;}.cls-2{fill:#231f20;}.cls-2,.cls-3,.cls-5{fill-rule:evenodd;}.cls-3{fill:#ec008c;}.cls-4{clip-path:url(#clip-path);}.cls-5,.cls-6{fill:#fff;}</style><clipPath id="clip-path" transform="translate(519.97 -338.69)"><path class="cls-1" d="M-422.25,354.13c17.61,14.09,23.66,36.67,25.11,59.61s3.07,46.16-25.86,47c-41.81,1.14-55.45-6.35-55.45-6.35h0A58.06,58.06,0,0,1-514,400.55c0-46.75,54.49-76.26,91.79-46.41"/></clipPath></defs><title>LOGO Q TORTAS-GLOBO</title><path class="cls-2" d="M-422.25,354.13c17.61,14.09,23.66,36.67,25.11,59.61s3.07,46.16-25.86,47c-41.81,1.14-55.45-6.35-55.45-6.35h0A58.06,58.06,0,0,1-514,400.55c0-46.75,54.49-76.26,91.79-46.41m-58.82,109.79C-504.76,453.83-520,430.06-520,404a65.49,65.49,0,0,1,49.56-63.51,58.66,58.66,0,0,1,51.77,11.75c19.42,15.77,25.8,40.62,27.31,64.8,0.83,13.32,2.41,31.07-5.79,42.43-6.11,8.47-15.8,11.25-25.72,11.53-14.55.4-30.37,0-44.69-2.86C-471.51,467.29-477.35,465.91-481.07,463.92Z" transform="translate(519.97 -338.69)"/><path class="cls-3" d="M-422.25,354.13c17.61,14.09,23.66,36.67,25.11,59.61s3.07,46.16-25.86,47c-41.81,1.14-55.45-6.35-55.45-6.35h0A58.06,58.06,0,0,1-514,400.55c0-46.75,54.49-76.26,91.79-46.41" transform="translate(519.97 -338.69)"/><g class="cls-4"><path class="cls-5" d="M-414.28,436.25a9.45,9.45,0,0,1,9.45,9.45c0,0.09,0,.18,0,0.27a27.31,27.31,0,0,1-4.2-1.59,9,9,0,0,1-1.61-1,4.29,4.29,0,0,0-3.57-1.9,4.3,4.3,0,0,0-4.3,4.3c0,2.37,1.95,4,4.3,4.3s3.49-1.07,5.86-.3q1.1,0.36,2.19.75a9.45,9.45,0,0,1-8.12,4.61,9.45,9.45,0,0,1-9.45-9.45,9.45,9.45,0,0,1,9.45-9.45" transform="translate(519.97 -338.69)"/><path class="cls-6" d="M-426.42,379.19c0.32,5.76.35,12-.09,13.63-0.76,2.77,4.2,4.39,9.74-4.2s7.38-19.29,3.72-22.24c-1.54-1.24-6.57-1.42-10.27-.52-6.33,1.54-3.4,7.8-3.1,13.33m-17.63,56a28.11,28.11,0,0,1-5.19,4.34,34.42,34.42,0,0,1-6.67,3.57,27.3,27.3,0,0,1-6.55,1.74,33,33,0,0,1-15.05-1.48,28.89,28.89,0,0,1-12.06-7.94,29.24,29.24,0,0,1-6.78-12.83,44.5,44.5,0,0,1-.91-14.37,56.09,56.09,0,0,1,3.35-15.24c0.59-1.43,1.31-3,2.2-4.69a28.26,28.26,0,0,1,2.89-4.52,43.52,43.52,0,0,1,3.54-3.88,50.26,50.26,0,0,1,8.71-6.66,59.71,59.71,0,0,1,10.28-5.06A45,45,0,0,1-456,365.51a12.92,12.92,0,0,1,5,.07,2.78,2.78,0,0,1,1.92,2.1,4.08,4.08,0,0,1-.83,3.24c-0.86,1.18-3.07,2.5-6.6,4a40.86,40.86,0,0,0-11,6.09,21.52,21.52,0,0,0-6.1,7.82,39,39,0,0,0-3.06,12.44,38.87,38.87,0,0,0,.84,12.82,25.17,25.17,0,0,0,7.3,12.75q5.39,5,11.35,4.23a12.59,12.59,0,0,0,6.76-3.17c-4.52-7-11.48-5.87-13.71-9.06-2.54-3.64,3.25-8.69,11.33-6a37.42,37.42,0,0,1,8.95,4.6c0.18-2.14.26-3.3,0.26-3.46a23.55,23.55,0,0,0-.86-7.25,32.82,32.82,0,0,0-2.14-6.16,30.72,30.72,0,0,0-3.11-5.11,41.42,41.42,0,0,0-4.8-5.09c-2-1.74-3.08-3.12-3.34-4.16q-0.92-3.71,3.95-7.94c2.53-2.18,4.88-3.4,7-3.67q5.09-.63,9.06,3.66t6,12.46a45.71,45.71,0,0,1,.44,20.19,79.71,79.71,0,0,1-3.94,11.94c3.22,3.6,8.62,4.89,13.68,4.25C-417.84,444-434.18,445.58-444,435.15Z" transform="translate(519.97 -338.69)"/></g><path class="cls-2" d="M-414.21,441.5a4.29,4.29,0,0,1,3.57,1.9,9,9,0,0,0,1.61,1,28.38,28.38,0,0,0,4.57,1.7C-398,448-379,457.25-382.09,469.57s-24.53,7.93-28.06,15.7c-3.82,8.4,6.53,13.51,22,18.47s25.78,3.05,25.78,3.05,1.94,10.31-15.43,6.49-41.65-13.18-39.74-26.54,27.11-11.26,30-18.9c2.53-6.73-8.46-14.06-20.77-18.06-2.37-.77-3.64.61-5.86,0.3s-4.3-1.92-4.3-4.3a4.3,4.3,0,0,1,4.3-4.3" transform="translate(519.97 -338.69)"/></svg>