<svg id="Capa_1" data-name="Capa 1" xmlns="http://www.w3.org/2000/svg" xmlns:xlink="http://www.w3.org/1999/xlink" viewBox="0 0 489.97 425.55"><defs><style>.cls-1,.cls-2{fill:none;}.cls-2{clip-rule:evenodd;}.cls-3,.cls-7{fill:#ec008c;}.cls-4{clip-path:url(#clip-path);}.cls-5,.cls-9{fill:#fff;}.cls-5,.cls-6,.cls-7{fill-rule:evenodd;}.cls-6{fill:#231f20;}.cls-8{clip-path:url(#clip-path-2);}</style><clipPath id="clip-path" transform="translate(540 -183.22)"><path class="cls-1" d="M-193.57,480.56a4.5,4.5,0,0,1-1.76-3.64,7.63,7.63,0,0,1,1.46-4l0.1-.16,0.11-.15a11.77,11.77,0,0,0,2-3.8,39.55,39.55,0,0,0-5.49,7.25c-1.09,1.89-2.35,4.51-2.3,6.75a3.37,3.37,0,0,0,.3,1.47,28.68,28.68,0,0,0,3.56-2.23q1-.73,2-1.5m53.79,11.68c-0.15.29-.32,0.57-0.49,0.85a12.91,12.91,0,0,0-.9,1.7h0A4,4,0,0,0-139.78,492.24Zm4.43-20.66c0.1-.44.23-0.87,0.37-1.28a25.74,25.74,0,0,0,.8-3.61,11,11,0,0,0-.74,1.44l0,0,0,0a8.13,8.13,0,0,0-.83,3.17Zm-194.51,3.29a21.23,21.23,0,0,0-3.06,5.44,19.27,19.27,0,0,0-1.25,7.26,7.4,7.4,0,0,0,1.81,5.21,5.23,5.23,0,0,0,4.27,1.51,5.77,5.77,0,0,0,4.29-2.43,8.66,8.66,0,0,0,2.06-5.9,10.44,10.44,0,0,0-1.52-5.29,11.83,11.83,0,0,0-4.36-4.13l0,0,0,0A11.19,11.19,0,0,1-329.86,474.87Zm167.7,7.09c0,0.25,0,.49,0,0.74,0,1,0,2,.11,2.95,0.05,0.72.14,1.44,0.24,2.16v0.09a17.63,17.63,0,0,0,.29,1.8,15,15,0,0,0,.61,2,22.59,22.59,0,0,1,5.08-4.15,14.65,14.65,0,0,1-3.55-2.27A11.33,11.33,0,0,1-162.16,482Zm-240.3-18.15a159,159,0,0,0,8.21,16.46q0.27-.73.55-1.45c0.89-2.28,1.84-4.54,2.82-6.79s2.11-4.65,3.23-6.94q-3.33.34-6.67,0.5C-397.1,465.71-400.18,465.41-402.46,463.82ZM-96.11,401A159.59,159.59,0,0,0-255.71,241.41,159.59,159.59,0,0,0-415.3,401a159.23,159.23,0,0,0,9.84,55.29c0.61-3.23,3.21-6.11,5.48-8.26l0,0,0,0a25,25,0,0,1,6.63-4.54,21.38,21.38,0,0,1,7.64-1.62c2.17-.1,4.34-0.14,6.51-0.17,3.8-.06,7.62,0,11.42.06l1.63,0,1.46,0.07a62.71,62.71,0,0,1,8.56.34,11.57,11.57,0,0,1,5.21,2l0.18,0.13,0.16,0.15a7.41,7.41,0,0,1,2.54,5.42,11.73,11.73,0,0,1-.95,4.75,10,10,0,0,1-2.74,3.89c-1.7,1.55-4.65,2.43-7.25,3a31.48,31.48,0,0,1-1.64,6.22l-0.06.19-0.08.18c-0.26.59-.47,1.34-0.67,2-0.49,1.53-1,3.07-1.42,4.61l-0.76,2.74-0.51,1.91-0.53,2c-0.16.62-.31,1.25-0.49,1.87-0.11.36-.2,0.73-0.29,1.09s-0.2.78-.3,1.16c-1,4-2.15,8.1-3.48,12.05a34.47,34.47,0,0,1-3.15,7.32l0,0.05,0,0a13.32,13.32,0,0,1-2.26,2.51,159.18,159.18,0,0,0,118.9,53.15,159.14,159.14,0,0,0,116.14-50.15,48.25,48.25,0,0,1-7.26.85c-4,.18-8.3-0.21-11.88-2.1a10.21,10.21,0,0,1-5.84-8.62,26.58,26.58,0,0,1-4.06,2.37,20.58,20.58,0,0,1-7.77,1.94,12.07,12.07,0,0,1-7.38-1.88,12.39,12.39,0,0,1-4.87-7.17c-1.16,1.05-2.35,2.07-3.56,3a47.26,47.26,0,0,1-8.63,5.7,21.21,21.21,0,0,1-8.32,2.32A19.11,19.11,0,0,1-222.27,503a14.84,14.84,0,0,1-5.46-8.76,10.13,10.13,0,0,1-2.88,4.2,28.23,28.23,0,0,1-4.83,3.86,28.57,28.57,0,0,1-6.19,2.88,23.53,23.53,0,0,1-6.36,1.28,17.53,17.53,0,0,1-12.45-3.87,15,15,0,0,1-5.28-11.64,29.73,29.73,0,0,1,1-7.16c0.8-3.38,1.79-6.75,2.8-10.08l-0.45-.29q-0.23-.17-0.45-0.35-0.26,1.7-.68,3.38a27.64,27.64,0,0,1-3.17,7.91c-1.5,2.4-3.66,4.52-6.67,4.66a5.26,5.26,0,0,1-1.73-.21l-0.28-.09c0,0.74-.11,1.47-0.18,2.18l0,0.24-0.17.75a21.79,21.79,0,0,1-.2,2.25,29.47,29.47,0,0,1-.62,4.25v0.09a10.59,10.59,0,0,1-1.87,3.94,18.36,18.36,0,0,1-2.65,2.74l-0.06,0a17.84,17.84,0,0,1-10.58,4.43,9.83,9.83,0,0,1-8.4-3.36c-2-2.5-2.58-6-2.64-9.08,0-.19,0-0.39,0-0.58a24.1,24.1,0,0,1-3.55,3.88,44.1,44.1,0,0,1-12.28,7.4,41.36,41.36,0,0,1-13.9,3.26,44.58,44.58,0,0,1-12.7-1.29,28.65,28.65,0,0,1-10.66-4.76c-4.33-3.35-6.15-8.21-6.26-13.58a25.94,25.94,0,0,1,3.47-13,41.85,41.85,0,0,1,9.31-11.31A50.13,50.13,0,0,1-336.48,459a40.87,40.87,0,0,1,14.62-3.47,37.86,37.86,0,0,1,7,.17c2.83,0.43,5.59,1.93,5.66,5.17a6.5,6.5,0,0,1-.06,1,15,15,0,0,1,1.74.64,16,16,0,0,1,5.46,4,18.31,18.31,0,0,1,3.53,5.87l0.19,0.52a50.16,50.16,0,0,1,3.3-8.32,20.57,20.57,0,0,1,5.12-6.36l0.09-.07,0.1-.07a13,13,0,0,1,7.14-2.45,8.91,8.91,0,0,1,5.69,1.55,10.53,10.53,0,0,1,1-.73,8.21,8.21,0,0,1,4.15-1.3,8.27,8.27,0,0,1,4.47,1,8.82,8.82,0,0,1,4,5.27,15.37,15.37,0,0,1,1.9-2.36,16.73,16.73,0,0,1,6.09-4,61.08,61.08,0,0,1,6.05-12,16,16,0,0,1,4.7-4.26l0,0,0,0a21.68,21.68,0,0,1,9.93-3.21,9.73,9.73,0,0,1,5.89,1.37,6.87,6.87,0,0,1,3.09,5.75c0,2-1.14,4.55-2,6.34s-1.57,3.42-2.24,5.19a10.84,10.84,0,0,1,2.41.7l0.07,0a6.05,6.05,0,0,1,3.48,5.56,12,12,0,0,1-2.13,7,13,13,0,0,1-5.67,4.7,18.66,18.66,0,0,1-4.41,1.17c-0.2.69-.37,1.38-0.55,2.07-0.39,2.42-.64,4.9-0.89,7.34v0.13l0,0.13a14.35,14.35,0,0,0-.22,2.64,3.61,3.61,0,0,0,.55,2.12c0.71,0.77,2.79.78,3.71,0.74l0.51,0a5.09,5.09,0,0,1,4.85,2.29,24.81,24.81,0,0,1,2.16-9.17,44.22,44.22,0,0,1,5.88-10A56.61,56.61,0,0,1-204.45,458c5.91-3.59,12.45-6.13,19.43-6.43,4.64-.2,9.5.28,13.73,2.33,3.95,1.91,7,5.05,7.06,9.62a11.31,11.31,0,0,1-.31,2.82h0a5.83,5.83,0,0,1,2.51,3.83,26,26,0,0,1,4-6.52,41.07,41.07,0,0,1,13-10.33,38.66,38.66,0,0,1,16.23-4.52,20,20,0,0,1,8.45,1.4,16.69,16.69,0,0,1,6.63,4.66,11.84,11.84,0,0,1,2.91,7.52,13.93,13.93,0,0,1-2.59,8,21.86,21.86,0,0,1-4.81,5.15l0.22,0.09a16.32,16.32,0,0,1,2.62,1.52A158.89,158.89,0,0,0-96.11,401Z"/></clipPath><clipPath id="clip-path-2" transform="translate(540 -183.22)"><path class="cls-2" d="M-442.27,354.13c17.61,14.09,23.66,36.67,25.11,59.61s3.07,46.16-25.86,47c-41.81,1.14-55.45-6.35-55.45-6.35h0a58.06,58.06,0,0,1-35.6-53.79c0-46.75,54.49-76.26,91.79-46.41"/></clipPath></defs><title>LOGO Q TORTAS</title><path class="cls-3" d="M-193.57,480.56a4.5,4.5,0,0,1-1.76-3.64,7.63,7.63,0,0,1,1.46-4l0.1-.16,0.11-.15a11.77,11.77,0,0,0,2-3.8,39.55,39.55,0,0,0-5.49,7.25c-1.09,1.89-2.35,4.51-2.3,6.75a3.37,3.37,0,0,0,.3,1.47,28.68,28.68,0,0,0,3.56-2.23q1-.73,2-1.5m53.79,11.68c-0.15.29-.32,0.57-0.49,0.85a12.91,12.91,0,0,0-.9,1.7h0A4,4,0,0,0-139.78,492.24Zm4.43-20.66c0.1-.44.23-0.87,0.37-1.28a25.74,25.74,0,0,0,.8-3.61,11,11,0,0,0-.74,1.44l0,0,0,0a8.13,8.13,0,0,0-.83,3.17Zm-194.51,3.29a21.23,21.23,0,0,0-3.06,5.44,19.27,19.27,0,0,0-1.25,7.26,7.4,7.4,0,0,0,1.81,5.21,5.23,5.23,0,0,0,4.27,1.51,5.77,5.77,0,0,0,4.29-2.43,8.66,8.66,0,0,0,2.06-5.9,10.44,10.44,0,0,0-1.52-5.29,11.83,11.83,0,0,0-4.36-4.13l0,0,0,0A11.19,11.19,0,0,1-329.86,474.87Zm167.7,7.09c0,0.25,0,.49,0,0.74,0,1,0,2,.11,2.95,0.05,0.72.14,1.44,0.24,2.16v0.09a17.63,17.63,0,0,0,.29,1.8,15,15,0,0,0,.61,2,22.59,22.59,0,0,1,5.08-4.15,14.65,14.65,0,0,1-3.55-2.27A11.33,11.33,0,0,1-162.16,482Zm-240.3-18.15a159,159,0,0,0,8.21,16.46q0.27-.73.55-1.45c0.89-2.28,1.84-4.54,2.82-6.79s2.11-4.65,3.23-6.94q-3.33.34-6.67,0.5C-397.1,465.71-400.18,465.41-402.46,463.82ZM-96.11,401A159.59,159.59,0,0,0-255.71,241.41,159.59,159.59,0,0,0-415.3,401a159.23,159.23,0,0,0,9.84,55.29c0.61-3.23,3.21-6.11,5.48-8.26l0,0,0,0a25,25,0,0,1,6.63-4.54,21.38,21.38,0,0,1,7.64-1.62c2.17-.1,4.34-0.14,6.51-0.17,3.8-.06,7.62,0,11.42.06l1.63,0,1.46,0.07a62.71,62.71,0,0,1,8.56.34,11.57,11.57,0,0,1,5.21,2l0.18,0.13,0.16,0.15a7.41,7.41,0,0,1,2.54,5.42,11.73,11.73,0,0,1-.95,4.75,10,10,0,0,1-2.74,3.89c-1.7,1.55-4.65,2.43-7.25,3a31.48,31.48,0,0,1-1.64,6.22l-0.06.19-0.08.18c-0.26.59-.47,1.34-0.67,2-0.49,1.53-1,3.07-1.42,4.61l-0.76,2.74-0.51,1.91-0.53,2c-0.16.62-.31,1.25-0.49,1.87-0.11.36-.2,0.73-0.29,1.09s-0.2.78-.3,1.16c-1,4-2.15,8.1-3.48,12.05a34.47,34.47,0,0,1-3.15,7.32l0,0.05,0,0a13.32,13.32,0,0,1-2.26,2.51,159.18,159.18,0,0,0,118.9,53.15,159.14,159.14,0,0,0,116.14-50.15,48.25,48.25,0,0,1-7.26.85c-4,.18-8.3-0.21-11.88-2.1a10.21,10.21,0,0,1-5.84-8.62,26.58,26.58,0,0,1-4.06,2.37,20.58,20.58,0,0,1-7.77,1.94,12.07,12.07,0,0,1-7.38-1.88,12.39,12.39,0,0,1-4.87-7.17c-1.16,1.05-2.35,2.07-3.56,3a47.26,47.26,0,0,1-8.63,5.7,21.21,21.21,0,0,1-8.32,2.32A19.11,19.11,0,0,1-222.27,503a14.84,14.84,0,0,1-5.46-8.76,10.13,10.13,0,0,1-2.88,4.2,28.23,28.23,0,0,1-4.83,3.86,28.57,28.57,0,0,1-6.19,2.88,23.53,23.53,0,0,1-6.36,1.28,17.53,17.53,0,0,1-12.45-3.87,15,15,0,0,1-5.28-11.64,29.73,29.73,0,0,1,1-7.16c0.8-3.38,1.79-6.75,2.8-10.08l-0.45-.29q-0.23-.17-0.45-0.35-0.26,1.7-.68,3.38a27.64,27.64,0,0,1-3.17,7.91c-1.5,2.4-3.66,4.52-6.67,4.66a5.26,5.26,0,0,1-1.73-.21l-0.28-.09c0,0.74-.11,1.47-0.18,2.18l0,0.24-0.17.75a21.79,21.79,0,0,1-.2,2.25,29.47,29.47,0,0,1-.62,4.25v0.09a10.59,10.59,0,0,1-1.87,3.94,18.36,18.36,0,0,1-2.65,2.74l-0.06,0a17.84,17.84,0,0,1-10.58,4.43,9.83,9.83,0,0,1-8.4-3.36c-2-2.5-2.58-6-2.64-9.08,0-.19,0-0.39,0-0.58a24.1,24.1,0,0,1-3.55,3.88,44.1,44.1,0,0,1-12.28,7.4,41.36,41.36,0,0,1-13.9,3.26,44.58,44.58,0,0,1-12.7-1.29,28.65,28.65,0,0,1-10.66-4.76c-4.33-3.35-6.15-8.21-6.26-13.58a25.94,25.94,0,0,1,3.47-13,41.85,41.85,0,0,1,9.31-11.31A50.13,50.13,0,0,1-336.48,459a40.87,40.87,0,0,1,14.62-3.47,37.86,37.86,0,0,1,7,.17c2.83,0.43,5.59,1.93,5.66,5.17a6.5,6.5,0,0,1-.06,1,15,15,0,0,1,1.74.64,16,16,0,0,1,5.46,4,18.31,18.31,0,0,1,3.53,5.87l0.19,0.52a50.16,50.16,0,0,1,3.3-8.32,20.57,20.57,0,0,1,5.12-6.36l0.09-.07,0.1-.07a13,13,0,0,1,7.14-2.45,8.91,8.91,0,0,1,5.69,1.55,10.53,10.53,0,0,1,1-.73,8.21,8.21,0,0,1,4.15-1.3,8.27,8.27,0,0,1,4.47,1,8.82,8.82,0,0,1,4,5.27,15.37,15.37,0,0,1,1.9-2.36,16.73,16.73,0,0,1,6.09-4,61.08,61.08,0,0,1,6.05-12,16,16,0,0,1,4.7-4.26l0,0,0,0a21.68,21.68,0,0,1,9.93-3.21,9.73,9.73,0,0,1,5.89,1.37,6.87,6.87,0,0,1,3.09,5.75c0,2-1.14,4.55-2,6.34s-1.57,3.42-2.24,5.19a10.84,10.84,0,0,1,2.41.7l0.07,0a6.05,6.05,0,0,1,3.48,5.56,12,12,0,0,1-2.13,7,13,13,0,0,1-5.67,4.7,18.66,18.66,0,0,1-4.41,1.17c-0.2.69-.37,1.38-0.55,2.07-0.39,2.42-.64,4.9-0.89,7.34v0.13l0,0.13a14.35,14.35,0,0,0-.22,2.64,3.61,3.61,0,0,0,.55,2.12c0.71,0.77,2.79.78,3.71,0.74l0.51,0a5.09,5.09,0,0,1,4.85,2.29,24.81,24.81,0,0,1,2.16-9.17,44.22,44.22,0,0,1,5.88-10A56.61,56.61,0,0,1-204.45,458c5.91-3.59,12.45-6.13,19.43-6.43,4.64-.2,9.5.28,13.73,2.33,3.95,1.91,7,5.05,7.06,9.62a11.31,11.31,0,0,1-.31,2.82h0a5.83,5.83,0,0,1,2.51,3.83,26,26,0,0,1,4-6.52,41.07,41.07,0,0,1,13-10.33,38.66,38.66,0,0,1,16.23-4.52,20,20,0,0,1,8.45,1.4,16.69,16.69,0,0,1,6.63,4.66,11.84,11.84,0,0,1,2.91,7.52,13.93,13.93,0,0,1-2.59,8,21.86,21.86,0,0,1-4.81,5.15l0.22,0.09a16.32,16.32,0,0,1,2.62,1.52A158.89,158.89,0,0,0-96.11,401Z" transform="translate(540 -183.22)"/><g class="cls-4"><path class="cls-5" d="M-189.24,412.57c-25.49-1.07-56.88,1.1-94.49,9.55a319.6,319.6,0,0,1-47.75,7.33c-2.27-6.67-6.91-22.08-8.38-29.46-0.71-3.58-1.09-3.91,2.61-5.57,15.15-6.8,85-29.57,148.18-4.16,2.15,0.86,2,.94,2,3.21,0,4.41-.81,13.95-2.21,19.1m-15.47-32.68A221.94,221.94,0,0,0-323.46,385c-4.6-9.58-6.54-14.3-7.17-16.65-0.41-1.55-.23-2.35,1.74-3,59-20.56,122.29-5.09,124.53-4.57s2.06,1.06,1.85,3.06S-204.1,375.7-204.71,379.89Zm-22.58-28c-28.88-4.27-57.48-1.27-78.2,2.59-1-4.1-3.58-14.69-3.83-16s8.62-8.89,36.48-11.82,44.92,4.9,45.92,5.59S-226.79,347.12-227.29,351.91Zm-39.15-92.2c1.52,12.9-8.31,14-2.11,23.37C-269.19,270.26-257.14,270.09-266.44,259.71Zm163.11,174.89s-24.87-17.75-77.81-21.56c1.43-6.81,4.08-22.23,2.83-24.09-0.38-.56-7.26-3.83-19.08-7.15a174.47,174.47,0,0,0,3.52-17.44c0.4-3.33.57-3.59-2.43-4.69a150.61,150.61,0,0,0-23.34-6.44c0.93-5.4,1.28-22,.17-22.83-2-1.45-8.66-2-9.32-2.13s0.47-8.79-1.55-11.54c-1.27-1.74-9.63-2.35-11.49-2.47a195.54,195.54,0,0,0-28.73.06,159.83,159.83,0,0,1-.59-18.22c0.12-2.53.14-3.79,0.81-4.34,3.31-2.76,8.59-6.71,8.59-6.71-0.35.25-6.06,1.52-9.94,3.72-3.17,1.8-3,4.33-3.06,8.46-0.08,5.7.12,13.57,0.06,17.43-20.79,2.41-31.89,8.37-31.81,10.42,0.12,3.19.56,4.59-.39,5.1s-2.93,1.53-5.71,3.08c-6.23,3.48-4.58,3.3-4.12,6.87,0.38,2.94,3.61,12.4,4.74,15.66-9,1.9-16.07,3.84-20.29,5.11-5.62,1.7-5.28,2.16-4.75,4.79,1.17,5.73,6.7,17,8.7,21q-6.43,2.24-13,4.95c-5.93,2.47-5.25,2.07-4.33,7.87,0.83,5.26,2.79,14.66,7.46,30.38-74.27,3-84.87-34.84-84.87-34.84s16.32,57.47,124.48,35.29S-150.66,416.71-103.33,434.59Z" transform="translate(540 -183.22)"/><path class="cls-5" d="M-355.74,413a19.94,19.94,0,0,1,12.4,6.46,24.91,24.91,0,0,1,23.6-16.94,24.9,24.9,0,0,1,24.9,24.9,24.9,24.9,0,0,1-24.9,24.9,24.87,24.87,0,0,1-20.47-10.73,20,20,0,0,1-18,11.24,20,20,0,0,1-20-20,19.9,19.9,0,0,1,2.4-9.51,15.5,15.5,0,0,1-10.36-14.63,15.5,15.5,0,0,1,15.5-15.5,15.5,15.5,0,0,1,15.5,15.5,15.5,15.5,0,0,1-.6,4.3" transform="translate(540 -183.22)"/></g><path class="cls-3" d="M-416.15,479.16a188.87,188.87,0,0,0,15.84,26.66q-1.17-.24-2.4-0.54a190.4,190.4,0,0,1-15.12-25.75l1.68-.37m-6.28-14.34q1.78,4.6,3.8,9.07l-1.62.47q-1.89-4.22-3.59-8.55Q-423.11,465.34-422.42,464.82ZM-246.52,208c-91.18,0-167.44,65-184.88,151.15q-0.68-.77-1.4-1.53c18.05-86.28,94.71-151.29,186.28-151.29,104.94,0,190.31,85.37,190.31,190.31S-141.58,587-246.52,587a190.08,190.08,0,0,1-150.1-73.45q1.29,0.25,2.43.39a188.38,188.38,0,0,0,147.66,71.39c104,0,188.64-84.62,188.64-188.64S-142.5,208-246.52,208Z" transform="translate(540 -183.22)"/><path class="cls-3" d="M-273.49,216.55c-82.59,0-152.94,53.36-178.42,127.41l-1.53-.67c25.75-74.63,96.68-128.4,180-128.4,104.94,0,190.31,85.37,190.31,190.31S-168.55,595.5-273.49,595.5c-81.78,0-151.66-51.86-178.53-124.41h1.77c26.79,71.62,95.91,122.75,176.76,122.75,104,0,188.64-84.62,188.64-188.64s-84.62-188.64-188.64-188.64" transform="translate(540 -183.22)"/><path class="cls-3" d="M-421.56,480.37a187.78,187.78,0,0,0,10.16,22.31h-0.26l-0.07,0h0l-0.07,0h-0.47l-0.07,0h-1l-0.21-.08h-0.14a189.39,189.39,0,0,1-9.47-21.08h0.1l0.07,0h0l0.1,0h1.33Zm-7.93-22.46h0m3.46,9.18q1.22,4.14,2.63,8.2h-0.77l-0.1,0h-0.55l-0.1,0H-425q-1.37-3.95-2.56-8H-427l0.09,0h0.71l0.09,0h0Zm180.94-242c-87,0-160.39,59.19-182.1,139.41l0,0,0,0,0,0-0.31-.43,0,0,0,0,0,0,0,0,0,0-0.1-.13,0,0,0,0,0,0,0,0-0.44-.59,0,0,0,0-0.1-.13,0,0,0,0c22.33-80.28,96.07-139.37,183.36-139.36,104.94,0,190.31,85.37,190.31,190.31S-140.16,604-245.1,604A190.39,190.39,0,0,1-409,510.29h0.33l0.07,0h0l0.07,0h0l0.11,0h0.44l0.07,0h0l0.19,0.06h0.33l0.15,0h0.48A188.71,188.71,0,0,0-245.1,602.35c104,0,188.64-84.62,188.64-188.64S-141.08,225.07-245.1,225.07Z" transform="translate(540 -183.22)"/><path class="cls-3" d="M-419.85,480a189.73,189.73,0,0,0,19.11,25.75q-1.35-.29-2.79-0.65a191.35,191.35,0,0,1-18-24.7l1.72-.4m-12-21.11,0.58-.21Zm-1,.31,0.51-.16Zm5.87,8.36q2,3.84,4.14,7.57l-1.63.51q-2.1-3.65-4-7.4Q-427.67,467.89-426.92,467.53Zm167.63-275.11c-92.63,0-169.88,67.12-185.67,155.28q-0.76-.47-1.52-0.92c16.19-88.63,94-156,187.2-156C-154.36,190.75-69,276.13-69,381.07s-85.37,190.31-190.31,190.31A189.74,189.74,0,0,1-395.6,513.72c1,0.16,1.84.27,2.66,0.33a188,188,0,0,0,133.65,55.65c104,0,188.64-84.62,188.64-188.64S-155.28,192.42-259.29,192.42Z" transform="translate(540 -183.22)"/><path class="cls-3" d="M-245.25,199a7.19,7.19,0,0,0-8.57-5.68c-3.58.61-5.53,4.36-5.53,4.36s-2.79-3.18-6.42-2.91a7.19,7.19,0,0,0-7,7.57c0.22,3.61,3.13,6.54,5.44,8.49a46.63,46.63,0,0,0,10.3,6.3,46.66,46.66,0,0,0,8.49-8.58c1.77-2.44,3.9-6,3.25-9.54" transform="translate(540 -183.22)"/><path class="cls-3" d="M-180.32,580a5.77,5.77,0,0,0,4.34-7c-0.58-2.85-3.63-4.33-3.63-4.33s2.48-2.32,2.18-5.21a5.77,5.77,0,0,0-6.23-5.39c-2.89.26-5.16,2.67-6.67,4.56a37.38,37.38,0,0,0-4.8,8.4,37.44,37.44,0,0,0,7.08,6.59c2,1.36,4.89,3,7.73,2.37" transform="translate(540 -183.22)"/><path class="cls-3" d="M-327.25,198.2a3.08,3.08,0,0,0-1.14-4.26,3.78,3.78,0,0,0-3-.17,3.79,3.79,0,0,0-1.23-2.76,3.08,3.08,0,0,0-4.38.45c-1,1.22-.85,3-0.67,4.27a19.94,19.94,0,0,0,1.52,4.94,20,20,0,0,0,5.16-.34c1.26-.28,3-0.81,3.75-2.14" transform="translate(540 -183.22)"/><path class="cls-3" d="M-262.68,603a4.35,4.35,0,0,0-.77-6.17,5.34,5.34,0,0,0-4.18-.82,5.34,5.34,0,0,0-1.19-4.09,4.35,4.35,0,0,0-6.21-.22c-1.57,1.52-1.77,4-1.75,5.84a28.21,28.21,0,0,0,1.16,7.21,28.23,28.23,0,0,0,7.28.52c1.82-.15,4.28-0.56,5.66-2.26" transform="translate(540 -183.22)"/><path class="cls-3" d="M-424.67,381.28a2.21,2.21,0,0,0-2.48-1.95,2.71,2.71,0,0,0-1.8,1.2,2.72,2.72,0,0,0-1.89-1,2.21,2.21,0,0,0-2.31,2.15,4.08,4.08,0,0,0,1.46,2.73,14.28,14.28,0,0,0,3,2.18,14.37,14.37,0,0,0,2.81-2.42,4.07,4.07,0,0,0,1.22-2.84" transform="translate(540 -183.22)"/><path class="cls-3" d="M-63.15,484.77a4.81,4.81,0,0,0-2.74-6.3,5.9,5.9,0,0,0-4.69.44,5.91,5.91,0,0,0-2.54-4,4.81,4.81,0,0,0-6.66,1.71c-1.19,2.11-.62,4.81,0,6.74a31.12,31.12,0,0,0,3.48,7.28,31.2,31.2,0,0,0,7.88-1.72c1.88-.73,4.37-1.94,5.29-4.17" transform="translate(540 -183.22)"/><path class="cls-3" d="M-86.4,264.25a2.48,2.48,0,0,0-3.48-.62A3,3,0,0,0-91,265.76a3,3,0,0,0-2.42,0,2.48,2.48,0,0,0-1.17,3.34A4.56,4.56,0,0,0-91.75,271a16,16,0,0,0,4.11.58,16,16,0,0,0,1.51-3.87,4.56,4.56,0,0,0-.28-3.46" transform="translate(540 -183.22)"/><path class="cls-3" d="M-443.05,429.45a3.45,3.45,0,0,0,1.67,4.63A4.24,4.24,0,0,0-438,434a4.23,4.23,0,0,0,1.63,3,3.44,3.44,0,0,0,4.84-.91c0.95-1.45.67-3.41,0.34-4.82a22.43,22.43,0,0,0-2.15-5.37,22.37,22.37,0,0,0-5.72.87c-1.38.43-3.21,1.18-4,2.74" transform="translate(540 -183.22)"/><path class="cls-3" d="M-112.38,294.34a3,3,0,0,0-3.35-2.6,3.64,3.64,0,0,0-2.41,1.62,3.64,3.64,0,0,0-2.55-1.39,3,3,0,0,0-3.09,2.9c0,1.49,1.09,2.78,2,3.66a19.22,19.22,0,0,0,4,2.91,19.22,19.22,0,0,0,3.75-3.27c0.8-1,1.79-2.34,1.63-3.82" transform="translate(540 -183.22)"/><path class="cls-3" d="M-411.67,535.75a1.8,1.8,0,0,0-1.7-1.93,2.21,2.21,0,0,0-1.62.69,2.21,2.21,0,0,0-1.36-1.12,1.8,1.8,0,0,0-2.18,1.37,3.32,3.32,0,0,0,.76,2.41,11.7,11.7,0,0,0,2.07,2.19,11.56,11.56,0,0,0,2.61-1.52,3.31,3.31,0,0,0,1.41-2.09" transform="translate(540 -183.22)"/><path class="cls-3" d="M-438.47,476.8a5,5,0,0,0-6.77-2.07c-2.24,1.1-2.8,4-2.8,4s-2.47-1.55-4.81-.66A5,5,0,0,0-456,484.4c0.85,2.34,3.35,3.7,5.26,4.54a32.07,32.07,0,0,0,8,2.14,32.15,32.15,0,0,0,3.92-7.33c0.69-2,1.4-4.72.27-6.94" transform="translate(540 -183.22)"/><path class="cls-3" d="M-470.21,437.3a2.32,2.32,0,0,0-2.12-2.56,2.85,2.85,0,0,0-2.12.83,2.85,2.85,0,0,0-1.71-1.5,2.32,2.32,0,0,0-2.86,1.69,4.28,4.28,0,0,0,.89,3.13,15.11,15.11,0,0,0,2.6,2.91,15.1,15.1,0,0,0,3.42-1.86,4.28,4.28,0,0,0,1.89-2.65" transform="translate(540 -183.22)"/><polygon class="cls-3" points="402.94 41.01 405.7 41.3 407.5 39.19 408.08 41.91 410.64 42.97 408.23 44.35 408.01 47.12 405.95 45.26 403.25 45.91 404.38 43.37 402.94 41.01"/><polygon class="cls-3" points="336.27 417.1 340.27 417.32 342.72 414.15 343.74 418.03 347.51 419.38 344.15 421.55 344.03 425.55 340.93 423.02 337.08 424.14 338.53 420.41 336.27 417.1"/><polygon class="cls-3" points="328.07 7.9 325.64 6.41 323.04 7.56 323.71 4.8 321.81 2.68 324.64 2.46 326.07 0 327.16 2.63 329.94 3.22 327.77 5.07 328.07 7.9"/><polygon class="cls-3" points="212.79 377.01 216.17 381.95 222.16 381.97 218.5 386.71 220.33 392.4 214.7 390.39 209.84 393.89 210.01 387.91 205.19 384.38 210.93 382.7 212.79 377.01"/><polygon class="cls-3" points="474.16 187.77 479.75 187.85 482.98 183.29 484.64 188.63 489.98 190.29 485.41 193.51 485.48 199.1 481 195.76 475.7 197.55 477.5 192.26 474.16 187.77"/><polygon class="cls-3" points="359.05 37.94 361 40.82 364.47 40.85 362.33 43.59 363.38 46.91 360.11 45.72 357.28 47.74 357.4 44.27 354.6 42.2 357.95 41.24 359.05 37.94"/><polygon class="cls-3" points="193.23 61.87 193.26 65.21 196.03 67.07 192.87 68.14 191.96 71.35 189.97 68.67 186.63 68.79 188.56 66.07 187.42 62.93 190.6 63.93 193.23 61.87"/><polygon class="cls-3" points="247.06 44.84 244.85 47.94 246.16 51.52 242.53 50.38 239.53 52.73 239.49 48.92 236.33 46.8 239.94 45.58 240.98 41.92 243.25 44.98 247.06 44.84"/><polygon class="cls-3" points="68.27 187.9 70.01 193.48 75.59 195.22 70.82 198.6 70.89 204.45 66.2 200.95 60.66 202.83 62.54 197.29 59.04 192.6 64.89 192.67 68.27 187.9"/><polygon class="cls-3" points="383.11 84.85 385.66 85.65 387.77 83.99 387.8 86.67 390.02 88.16 387.48 89.01 386.75 91.59 385.15 89.44 382.48 89.54 384.03 87.36 383.11 84.85"/><path class="cls-3" d="M-415,262.89a4.62,4.62,0,0,1,2.32,6.1,4.62,4.62,0,0,1-6.1,2.32,4.62,4.62,0,0,1-2.32-6.1,4.62,4.62,0,0,1,6.1-2.32" transform="translate(540 -183.22)"/><path class="cls-3" d="M-286.69,573.5a5,5,0,0,1-4-5.8,5,5,0,0,1,5.8-4,5,5,0,0,1,4,5.8,5,5,0,0,1-5.8,4" transform="translate(540 -183.22)"/><path class="cls-3" d="M-378.56,509.76a4.14,4.14,0,0,1,5.43,2.19,4.14,4.14,0,0,1-2.19,5.43,4.14,4.14,0,0,1-5.43-2.19,4.14,4.14,0,0,1,2.19-5.43" transform="translate(540 -183.22)"/><path class="cls-3" d="M-379.82,232.28a5.92,5.92,0,0,1-6.94,4.7,5.93,5.93,0,0,1-4.7-6.94,5.93,5.93,0,0,1,6.94-4.7,5.93,5.93,0,0,1,4.7,6.94" transform="translate(540 -183.22)"/><path class="cls-3" d="M-218.1,241.81a1.67,1.67,0,0,1-1.92,1.38,1.67,1.67,0,0,1-1.38-1.92,1.67,1.67,0,0,1,1.92-1.38,1.67,1.67,0,0,1,1.38,1.92" transform="translate(540 -183.22)"/><path class="cls-3" d="M-99.76,537.79a2.11,2.11,0,0,1-1.2-2.73,2.11,2.11,0,0,1,2.73-1.2,2.11,2.11,0,0,1,1.2,2.73,2.11,2.11,0,0,1-2.73,1.2" transform="translate(540 -183.22)"/><path class="cls-3" d="M-410.48,472.9a1.88,1.88,0,0,1,2.26-1.42,1.88,1.88,0,0,1,1.42,2.26,1.88,1.88,0,0,1-2.26,1.42,1.88,1.88,0,0,1-1.42-2.26" transform="translate(540 -183.22)"/><path class="cls-3" d="M-238.16,566.64a2.34,2.34,0,0,1-2.17-2.5,2.34,2.34,0,0,1,2.5-2.17,2.34,2.34,0,0,1,2.17,2.5,2.34,2.34,0,0,1-2.5,2.17" transform="translate(540 -183.22)"/><path class="cls-3" d="M-146.35,548.93a1.88,1.88,0,0,1,2.54-.76,1.88,1.88,0,0,1,.76,2.54,1.88,1.88,0,0,1-2.54.75,1.87,1.87,0,0,1-.76-2.54" transform="translate(540 -183.22)"/><polygon class="cls-3" points="460.06 226.13 466.27 227.93 471.28 223.84 471.48 230.3 476.92 233.8 470.83 235.99 469.19 242.24 465.23 237.13 458.77 237.5 462.41 232.15 460.06 226.13"/><polygon class="cls-3" points="112.34 116.11 110.86 125.09 117.42 131.42 108.41 132.78 104.42 140.98 100.34 132.83 91.32 131.57 97.81 125.17 96.22 116.2 104.3 120.39 112.34 116.11"/><path class="cls-3" d="M-102.57,493.68a1.88,1.88,0,0,1,2.54-.76,1.88,1.88,0,0,1,.76,2.54,1.88,1.88,0,0,1-2.54.75,1.87,1.87,0,0,1-.76-2.54" transform="translate(540 -183.22)"/><path class="cls-3" d="M-391,309.78a2.75,2.75,0,0,1-3.16,2.26,2.75,2.75,0,0,1-2.26-3.16,2.75,2.75,0,0,1,3.16-2.27,2.75,2.75,0,0,1,2.27,3.16" transform="translate(540 -183.22)"/><path class="cls-3" d="M-89,343.12a4.62,4.62,0,0,1,2.32,6.1,4.62,4.62,0,0,1-6.1,2.32,4.62,4.62,0,0,1-2.32-6.1,4.62,4.62,0,0,1,6.1-2.32" transform="translate(540 -183.22)"/><path class="cls-6" d="M-442.27,354.13c17.61,14.09,23.66,36.67,25.11,59.61s3.07,46.16-25.86,47c-41.81,1.14-55.45-6.35-55.45-6.35h0a58.06,58.06,0,0,1-35.6-53.79c0-46.75,54.49-76.26,91.79-46.41m-58.82,109.79C-524.78,453.83-540,430.06-540,404a65.49,65.49,0,0,1,49.56-63.51,58.66,58.66,0,0,1,51.77,11.75c19.42,15.77,25.8,40.62,27.31,64.8,0.83,13.32,2.41,31.07-5.79,42.43-6.11,8.47-15.8,11.25-25.72,11.53-14.55.4-30.37,0-44.69-2.86C-491.53,467.29-497.37,465.91-501.09,463.92Z" transform="translate(540 -183.22)"/><path class="cls-7" d="M-442.27,354.13c17.61,14.09,23.66,36.67,25.11,59.61s3.07,46.16-25.86,47c-41.81,1.14-55.45-6.35-55.45-6.35h0a58.06,58.06,0,0,1-35.6-53.79c0-46.75,54.49-76.26,91.79-46.41" transform="translate(540 -183.22)"/><g class="cls-8"><path class="cls-5" d="M-434.31,436.25a9.45,9.45,0,0,1,9.45,9.45c0,0.09,0,.18,0,0.27a27.31,27.31,0,0,1-4.2-1.59,9,9,0,0,1-1.61-1,4.29,4.29,0,0,0-3.57-1.9,4.3,4.3,0,0,0-4.3,4.3c0,2.37,1.95,4,4.3,4.3s3.49-1.07,5.86-.3q1.1,0.36,2.19.75a9.45,9.45,0,0,1-8.12,4.61,9.45,9.45,0,0,1-9.45-9.45,9.45,9.45,0,0,1,9.45-9.45" transform="translate(540 -183.22)"/><path class="cls-9" d="M-446.44,379.19c0.32,5.76.35,12-.09,13.63-0.76,2.77,4.2,4.39,9.74-4.2s7.38-19.29,3.72-22.24c-1.54-1.24-6.57-1.42-10.27-.52-6.33,1.54-3.4,7.8-3.1,13.33m-17.63,56a28.11,28.11,0,0,1-5.19,4.34,34.42,34.42,0,0,1-6.67,3.57,27.3,27.3,0,0,1-6.55,1.74,33,33,0,0,1-15.05-1.48,28.89,28.89,0,0,1-12.06-7.94,29.24,29.24,0,0,1-6.78-12.83,44.5,44.5,0,0,1-.91-14.37,56.09,56.09,0,0,1,3.35-15.24c0.59-1.43,1.31-3,2.2-4.69a28.26,28.26,0,0,1,2.89-4.52,43.52,43.52,0,0,1,3.54-3.88,50.26,50.26,0,0,1,8.71-6.66,59.71,59.71,0,0,1,10.28-5.06A45,45,0,0,1-476,365.51a12.92,12.92,0,0,1,5,.07,2.78,2.78,0,0,1,1.92,2.1,4.08,4.08,0,0,1-.83,3.24c-0.86,1.18-3.07,2.5-6.6,4a40.86,40.86,0,0,0-11,6.09,21.52,21.52,0,0,0-6.1,7.82,39,39,0,0,0-3.06,12.44,38.87,38.87,0,0,0,.84,12.82,25.17,25.17,0,0,0,7.3,12.75q5.39,5,11.35,4.23a12.59,12.59,0,0,0,6.76-3.17c-4.52-7-11.48-5.87-13.71-9.06-2.54-3.64,3.25-8.69,11.33-6a37.42,37.42,0,0,1,8.95,4.6c0.18-2.14.26-3.3,0.26-3.46a23.55,23.55,0,0,0-.86-7.25,32.82,32.82,0,0,0-2.14-6.16,30.72,30.72,0,0,0-3.11-5.11,41.42,41.42,0,0,0-4.8-5.09c-2-1.74-3.08-3.12-3.34-4.16q-0.92-3.71,3.95-7.94c2.53-2.18,4.88-3.4,7-3.67q5.09-.63,9.06,3.66t6,12.46a45.71,45.71,0,0,1,.44,20.19,79.71,79.71,0,0,1-3.94,11.94c3.22,3.6,8.62,4.89,13.68,4.25C-437.87,444-454.21,445.58-464.07,435.15Z" transform="translate(540 -183.22)"/></g><path class="cls-6" d="M-434.24,441.5a4.29,4.29,0,0,1,3.57,1.9,9,9,0,0,0,1.61,1,28.38,28.38,0,0,0,4.57,1.7C-418,448-399,457.25-402.11,469.57s-24.53,7.93-28.06,15.7c-3.82,8.4,6.53,13.51,22,18.47s25.78,3.05,25.78,3.05,1.94,10.31-15.43,6.49-41.65-13.18-39.74-26.54,27.11-11.26,30-18.9c2.53-6.73-8.46-14.06-20.77-18.06-2.37-.77-3.64.61-5.86,0.3s-4.3-1.92-4.3-4.3a4.3,4.3,0,0,1,4.3-4.3" transform="translate(540 -183.22)"/><path class="cls-6" d="M-193.57,480.56a4.5,4.5,0,0,1-1.76-3.64,7.63,7.63,0,0,1,1.46-4l0.1-.16,0.11-.15a11.77,11.77,0,0,0,2-3.8,39.55,39.55,0,0,0-5.49,7.25c-1.09,1.89-2.35,4.51-2.3,6.75a3.37,3.37,0,0,0,.3,1.47,28.68,28.68,0,0,0,3.56-2.23q1-.73,2-1.5m-194.08-15.47q-3.33.34-6.67,0.5c-3.71.16-7.93-.43-10.11-3.82a7.53,7.53,0,0,1-1.16-4c-0.07-3.84,3-7.29,5.61-9.78l0,0,0,0a25,25,0,0,1,6.63-4.54,21.38,21.38,0,0,1,7.64-1.62c2.17-.1,4.34-0.14,6.51-0.17,3.8-.06,7.62,0,11.42.06l1.63,0,1.46,0.07a62.71,62.71,0,0,1,8.56.34,11.57,11.57,0,0,1,5.21,2l0.18,0.13,0.16,0.15a7.41,7.41,0,0,1,2.54,5.42,11.73,11.73,0,0,1-.95,4.75,10,10,0,0,1-2.74,3.89c-1.7,1.55-4.65,2.43-7.25,3a31.48,31.48,0,0,1-1.64,6.22l-0.06.19-0.08.18c-0.26.59-.47,1.34-0.67,2-0.49,1.53-1,3.07-1.42,4.61l-0.76,2.74-0.51,1.91-0.53,2c-0.16.62-.31,1.25-0.49,1.87-0.11.36-.2,0.73-0.29,1.09s-0.2.78-.3,1.16c-1,4-2.15,8.1-3.48,12.05a34.47,34.47,0,0,1-3.15,7.32l0,0.05,0,0a14.9,14.9,0,0,1-4.53,4.18l-0.07,0c-3.68,2.18-8.54,4.68-12.89,4.87a10.93,10.93,0,0,1-7.58-2.44,9.41,9.41,0,0,1-3.52-7.26c-0.1-5.21,2.94-13.62,4.7-18.52,0.84-2.33,1.64-4.69,2.54-7s1.84-4.54,2.82-6.79S-388.77,467.38-387.65,465.09Zm247.87,27.15c-0.15.29-.32,0.57-0.49,0.85a12.91,12.91,0,0,0-.9,1.7h0A4,4,0,0,0-139.78,492.24Zm4.43-20.66c0.1-.44.23-0.87,0.37-1.28a25.74,25.74,0,0,0,.8-3.61,11,11,0,0,0-.74,1.44l0,0,0,0a8.13,8.13,0,0,0-.83,3.17Zm-194.51,3.29a21.23,21.23,0,0,0-3.06,5.44,19.27,19.27,0,0,0-1.25,7.26,7.4,7.4,0,0,0,1.81,5.21,5.23,5.23,0,0,0,4.27,1.51,5.77,5.77,0,0,0,4.29-2.43,8.66,8.66,0,0,0,2.06-5.9,10.44,10.44,0,0,0-1.52-5.29,11.83,11.83,0,0,0-4.36-4.13l0,0,0,0A11.19,11.19,0,0,1-329.86,474.87Zm167.7,7.09c0,0.25,0,.49,0,0.74,0,1,0,2,.11,2.95,0.05,0.72.14,1.44,0.24,2.16v0.09a17.63,17.63,0,0,0,.29,1.8,15,15,0,0,0,.61,2,22.59,22.59,0,0,1,5.08-4.15,14.65,14.65,0,0,1-3.55-2.27A11.33,11.33,0,0,1-162.16,482Zm15.9,17.84a9.31,9.31,0,0,0,5.88-2.93,7.72,7.72,0,0,0,2.58-5.62,3.75,3.75,0,0,0-1.65-3.18c-1.17-.92-3.74-1.75-7.74-2.5-5.9-1.17-9.75-2.58-11.56-4.28a6.34,6.34,0,0,1-2.59-5q-0.1-5.33,4.42-10.89a36.91,36.91,0,0,1,11.64-9.27,34.28,34.28,0,0,1,14.42-4,15.77,15.77,0,0,1,6.68,1.1,12.4,12.4,0,0,1,5,3.48,7.65,7.65,0,0,1,1.93,4.91,9.85,9.85,0,0,1-1.88,5.57,17.88,17.88,0,0,1-4.93,4.93,11.13,11.13,0,0,1-5.69,2.14,6,6,0,0,1-2.69-.44,1.56,1.56,0,0,1-1.16-1.15,6.31,6.31,0,0,1,.42-1.94,24.12,24.12,0,0,0,1.11-7,8.39,8.39,0,0,0-2.22-5.44,16.67,16.67,0,0,0-3.48,2.66,15.22,15.22,0,0,0-3.18,4.77,11.85,11.85,0,0,0-1.19,5.07,3.63,3.63,0,0,0,1,2.62,6.79,6.79,0,0,0,3,1.56,50.75,50.75,0,0,0,6.32,1.26,48.22,48.22,0,0,1,10,2.35,14.92,14.92,0,0,1,2.08,1.26,6.2,6.2,0,0,1,2.19,4.84,11.29,11.29,0,0,1-2.26,6.59,31.87,31.87,0,0,1-7.24,7.08,38.31,38.31,0,0,1-10.46,5.86,39.46,39.46,0,0,1-11.6,2.15c-4.08.18-7.32-.36-9.69-1.62a6,6,0,0,1-3.62-5.42,7.88,7.88,0,0,1,2.23-5.19,18.51,18.51,0,0,1,5.68-4.46,16,16,0,0,1,6.73-1.93c1.66-.07,2.5.21,2.51,0.82a3.54,3.54,0,0,1-.67,1.55,11.47,11.47,0,0,0-2,6.1A5.16,5.16,0,0,0-146.26,499.81Zm-41-13.7v0.19l-0.23-.18a98,98,0,0,1-9.29,8.71,42.86,42.86,0,0,1-7.82,5.2,17,17,0,0,1-6.64,1.9,14.78,14.78,0,0,1-10.3-3,10.79,10.79,0,0,1-4.21-8.63,20.36,20.36,0,0,1,1.83-7.89,41.69,41.69,0,0,1,5.31-9.06,52.76,52.76,0,0,1,14.39-12.62q9-5.47,17.37-5.83,7.08-.31,11.68,1.91c3.07,1.5,4.64,3.48,4.69,5.95a10.12,10.12,0,0,1-2.16,5.89c2-.09,3.25,0,3.77.37s0.8,1.14.82,2.45c0-.13-0.08.51-0.23,1.91-0.15,3.07-.19,5.94-0.14,8.61,0,1.39.07,2.46,0.12,3.17s0.14,1.53.27,2.45,0.24,1.67.36,2.22a19.37,19.37,0,0,0,1.52,4.26,26.36,26.36,0,0,1-6.29,4.29,16,16,0,0,1-6.17,1.56q-8.53.38-8.75-11.61A16.67,16.67,0,0,1-187.29,486.11Zm3.08-10.77-1.05.32a29.27,29.27,0,0,1-5.72,1.19c-1.44.06-2.16-.22-2.17-0.84a5.88,5.88,0,0,1,.85-1.75c2-2.74,3-5.26,2.94-7.59a8,8,0,0,0-.9-3.62c-0.57-1.07-1.18-1.6-1.86-1.57s-1.48.59-2.67,1.71a46.07,46.07,0,0,0-8,10q-2.94,5.06-2.85,8.92a6.79,6.79,0,0,0,1.33,4.18,3.67,3.67,0,0,0,3.17,1.53c1.06,0,3-1.09,5.93-3.13a100.7,100.7,0,0,0,9.75-8l1.47-1.08Zm-69.69-17.7,0.22-.56c2.33-5.88,4.35-10,6.08-12.45a11.74,11.74,0,0,1,3.48-3.12,17.35,17.35,0,0,1,8-2.64,5.62,5.62,0,0,1,3.38.68,2.72,2.72,0,0,1,1.22,2.36,13.67,13.67,0,0,1-1.58,4.46,59.1,59.1,0,0,0-4,10.54,16.2,16.2,0,0,1,1.82.2,15.69,15.69,0,0,1,4.38.74,1.91,1.91,0,0,1,1.08,1.87,7.75,7.75,0,0,1-1.41,4.58,8.8,8.8,0,0,1-3.85,3.2,21.58,21.58,0,0,1-5.89,1.18,51.71,51.71,0,0,0-1.47,5c-0.3,1.87-.61,4.45-0.95,7.75a18.45,18.45,0,0,0-.27,3.41q0.14,7.32,8.6,6.95h0.51c0.66,0,1,.05,1,0.24,0,0.49-.6,1.34-1.82,2.57a24.84,24.84,0,0,1-4.1,3.29,24.72,24.72,0,0,1-5.27,2.45,19.34,19.34,0,0,1-5.2,1.07,13.22,13.22,0,0,1-9.53-2.88A10.89,10.89,0,0,1-263.3,490a26.05,26.05,0,0,1,.85-6.13c0.59-2.53,1.55-5.94,2.83-10.2,0.21-.76.42-1.54,0.67-2.38s0.39-1.32.42-1.48a5.43,5.43,0,0,1-3.21-.65,2.83,2.83,0,0,1-1-2.37,7.89,7.89,0,0,1,2.6-5.65A12.31,12.31,0,0,1-253.9,457.64Zm-27.54,32-0.21.95a16.19,16.19,0,0,1-.18,2.28,26.15,26.15,0,0,1-.53,3.75,6.46,6.46,0,0,1-1.13,2.43,14.25,14.25,0,0,1-2.06,2.12,13.57,13.57,0,0,1-8.06,3.47,5.67,5.67,0,0,1-5-1.83c-1.06-1.32-1.63-3.48-1.69-6.52a52.16,52.16,0,0,1,.79-9,73.4,73.4,0,0,1,2.18-9.65l0.41-1.22a4.5,4.5,0,0,1,.32-1.17,56.11,56.11,0,0,1,3.58-9.52,16.5,16.5,0,0,1,4.06-5.08,8.7,8.7,0,0,1,4.85-1.66q3.94-.17,4.84,3.78a11.28,11.28,0,0,0,1.47-1.37,15.09,15.09,0,0,1,2.43-2.27,4,4,0,0,1,2-.63q4.73-.21,4.89,7.68a31.88,31.88,0,0,1-1,8.4,23.79,23.79,0,0,1-2.65,6.72c-1.1,1.75-2.2,2.65-3.29,2.7s-1.87-1.85-1.94-5.72a21.12,21.12,0,0,0-.51-4.78,5.8,5.8,0,0,0-1.34-2.65q-1.62,2.67-1.94,12C-281.22,486.43-281.34,488.7-281.44,489.62Zm-41.8-30.72c5.5-.24,8.26.17,8.28,1.25,0,1.24-1.21,2-3.68,2.16a21.83,21.83,0,0,0-8.33,2.51,24,24,0,0,0-6.79,5.52,25.62,25.62,0,0,0-4.58,7.66,23.46,23.46,0,0,0-1.51,8.82,11.35,11.35,0,0,0,3,8,9.3,9.3,0,0,0,7.42,2.77,9.82,9.82,0,0,0,7.32-4,12.86,12.86,0,0,0,3-8.62,14.63,14.63,0,0,0-2.11-7.35,15.9,15.9,0,0,0-5.83-5.6c-1.09-.67-1.63-1.15-1.63-1.47s0.73-1.14,2.23-2.1a29,29,0,0,1,5.66-2.68,18.86,18.86,0,0,1,5.29-1.22,10.45,10.45,0,0,1,4.74.88,11.91,11.91,0,0,1,4,2.95A14.41,14.41,0,0,1-304,473a16.82,16.82,0,0,1,1,5.57,23.53,23.53,0,0,1-2,9.85,22.35,22.35,0,0,1-5.67,8.06,40,40,0,0,1-11.08,6.68,36.84,36.84,0,0,1-12.44,2.95A39.61,39.61,0,0,1-345.7,505a24.65,24.65,0,0,1-9.07-4q-4.49-3.54-4.62-10.36a21.71,21.71,0,0,1,2.95-10.93,37.43,37.43,0,0,1,8.37-10.18A45.4,45.4,0,0,1-336.31,462,36.25,36.25,0,0,1-323.24,458.9Zm-46.26,18.53-0.53,2c-0.18.69-.32,1.27-0.46,1.76s-0.25.9-.34,1.27-0.18.72-.28,1.11q-3.72,14.47-6.08,18.16a10.68,10.68,0,0,1-3.27,3c-4.62,2.74-8.24,4.17-10.9,4.29a6.7,6.7,0,0,1-4.72-1.49,5.27,5.27,0,0,1-2-4.12q-0.09-4.57,4.44-17c0.91-2.64,1.74-4.95,2.5-6.9s1.68-4.17,2.75-6.63,2.3-5.1,3.69-7.89l2.89-5.9a117.9,117.9,0,0,1-14,1.51q-6.8.3-6.88-3.69,0-2.54,4.3-6.68a20.77,20.77,0,0,1,5.47-3.8,17.05,17.05,0,0,1,6.12-1.27c1.55-.07,3.68-0.13,6.37-0.17s6.45,0,11.25.06l1.55,0,1.5,0.08a66.72,66.72,0,0,1,8,.29,7.28,7.28,0,0,1,3.33,1.28,3.26,3.26,0,0,1,1.16,2.41,7.62,7.62,0,0,1-.62,3.06,5.88,5.88,0,0,1-1.64,2.37c-0.91.91-3.46,1.74-7.7,2.51a7.73,7.73,0,0,0-1.17.15l-1.09.24a3.11,3.11,0,0,1,1.37,2.41,23,23,0,0,1-1.46,5.7c-0.33.73-1.07,3.09-2.28,7.11l-0.78,2.83Zm207.49-7.3a26,26,0,0,1,4-6.52,41.07,41.07,0,0,1,13-10.33,38.66,38.66,0,0,1,16.23-4.52,20,20,0,0,1,8.45,1.4,16.69,16.69,0,0,1,6.63,4.66,11.84,11.84,0,0,1,2.91,7.52,13.93,13.93,0,0,1-2.59,8,21.86,21.86,0,0,1-4.81,5.15l0.22,0.09a17.34,17.34,0,0,1,2.8,1.65l0.18,0.12,0.17,0.14a10.34,10.34,0,0,1,3.68,7.94,15.44,15.44,0,0,1-3,9,36.78,36.78,0,0,1-8.19,8A43.63,43.63,0,0,1-134,508.92a44.2,44.2,0,0,1-12.86,2.39c-4,.18-8.3-0.21-11.88-2.1a10.21,10.21,0,0,1-5.84-8.62,26.58,26.58,0,0,1-4.06,2.37,20.58,20.58,0,0,1-7.77,1.94,12.07,12.07,0,0,1-7.38-1.88,12.39,12.39,0,0,1-4.87-7.17c-1.16,1.05-2.35,2.07-3.56,3a47.26,47.26,0,0,1-8.63,5.7,21.21,21.21,0,0,1-8.32,2.32A19.11,19.11,0,0,1-222.27,503a14.84,14.84,0,0,1-5.46-8.76,10.13,10.13,0,0,1-2.88,4.2,28.23,28.23,0,0,1-4.83,3.86,28.57,28.57,0,0,1-6.19,2.88,23.53,23.53,0,0,1-6.36,1.28,17.53,17.53,0,0,1-12.45-3.87,15,15,0,0,1-5.28-11.64,29.73,29.73,0,0,1,1-7.16c0.8-3.38,1.79-6.75,2.8-10.08l-0.45-.29q-0.23-.17-0.45-0.35-0.26,1.7-.68,3.38a27.64,27.64,0,0,1-3.17,7.91c-1.5,2.4-3.66,4.52-6.67,4.66a5.26,5.26,0,0,1-1.73-.21l-0.28-.09c0,0.74-.11,1.47-0.18,2.18l0,0.24-0.17.75a21.79,21.79,0,0,1-.2,2.25,29.47,29.47,0,0,1-.62,4.25v0.09a10.59,10.59,0,0,1-1.87,3.94,18.36,18.36,0,0,1-2.65,2.74l-0.06,0a17.84,17.84,0,0,1-10.58,4.43,9.83,9.83,0,0,1-8.4-3.36c-2-2.5-2.58-6-2.64-9.08,0-.19,0-0.39,0-0.58a24.1,24.1,0,0,1-3.55,3.88,44.1,44.1,0,0,1-12.28,7.4,41.36,41.36,0,0,1-13.9,3.26,44.58,44.58,0,0,1-12.7-1.29,28.65,28.65,0,0,1-10.66-4.76c-4.33-3.35-6.15-8.21-6.26-13.58a25.94,25.94,0,0,1,3.47-13,41.85,41.85,0,0,1,9.31-11.31A50.13,50.13,0,0,1-336.48,459a40.87,40.87,0,0,1,14.62-3.47,37.86,37.86,0,0,1,7,.17c2.83,0.43,5.59,1.93,5.66,5.17a6.5,6.5,0,0,1-.06,1,15,15,0,0,1,1.74.64,16,16,0,0,1,5.46,4,18.31,18.31,0,0,1,3.53,5.87l0.19,0.52a50.16,50.16,0,0,1,3.3-8.32,20.57,20.57,0,0,1,5.12-6.36l0.09-.07,0.1-.07a13,13,0,0,1,7.14-2.45,8.91,8.91,0,0,1,5.69,1.55,10.53,10.53,0,0,1,1-.73,8.21,8.21,0,0,1,4.15-1.3,8.27,8.27,0,0,1,4.47,1,8.82,8.82,0,0,1,4,5.27,15.37,15.37,0,0,1,1.9-2.36,16.73,16.73,0,0,1,6.09-4,61.08,61.08,0,0,1,6.05-12,16,16,0,0,1,4.7-4.26l0,0,0,0a21.68,21.68,0,0,1,9.93-3.21,9.73,9.73,0,0,1,5.89,1.37,6.87,6.87,0,0,1,3.09,5.75c0,2-1.14,4.55-2,6.34s-1.57,3.42-2.24,5.19a10.84,10.84,0,0,1,2.41.7l0.07,0a6.05,6.05,0,0,1,3.48,5.56,12,12,0,0,1-2.13,7,13,13,0,0,1-5.67,4.7,18.66,18.66,0,0,1-4.41,1.17c-0.2.69-.37,1.38-0.55,2.07-0.39,2.42-.64,4.9-0.89,7.34v0.13l0,0.13a14.35,14.35,0,0,0-.22,2.64,3.61,3.61,0,0,0,.55,2.12c0.71,0.77,2.79.78,3.71,0.74l0.51,0a5.09,5.09,0,0,1,4.85,2.29,24.81,24.81,0,0,1,2.16-9.17,44.22,44.22,0,0,1,5.88-10A56.61,56.61,0,0,1-204.45,458c5.91-3.59,12.45-6.13,19.43-6.43,4.64-.2,9.5.28,13.73,2.33,3.95,1.91,7,5.05,7.06,9.62a11.31,11.31,0,0,1-.31,2.82h0A5.83,5.83,0,0,1-162,470.13Z" transform="translate(540 -183.22)"/><path class="cls-9" d="M-146.26,499.81a9.31,9.31,0,0,0,5.88-2.93,7.71,7.71,0,0,0,2.58-5.62,3.75,3.75,0,0,0-1.65-3.18c-1.17-.92-3.74-1.75-7.74-2.5-5.9-1.17-9.75-2.58-11.56-4.28a6.33,6.33,0,0,1-2.59-5q-0.1-5.33,4.42-10.89a36.92,36.92,0,0,1,11.64-9.27,34.29,34.29,0,0,1,14.42-4,15.78,15.78,0,0,1,6.68,1.1,12.41,12.41,0,0,1,5,3.48,7.65,7.65,0,0,1,1.93,4.91,9.85,9.85,0,0,1-1.88,5.57,17.88,17.88,0,0,1-4.93,4.93,11.13,11.13,0,0,1-5.69,2.14,6,6,0,0,1-2.69-.44,1.56,1.56,0,0,1-1.16-1.15,6.33,6.33,0,0,1,.42-1.94,24.13,24.13,0,0,0,1.11-7,8.38,8.38,0,0,0-2.22-5.44,16.68,16.68,0,0,0-3.48,2.66,15.23,15.23,0,0,0-3.18,4.77,11.85,11.85,0,0,0-1.19,5.07,3.62,3.62,0,0,0,1,2.62,6.77,6.77,0,0,0,3,1.56,50.79,50.79,0,0,0,6.32,1.26,48.2,48.2,0,0,1,10,2.35,14.88,14.88,0,0,1,2.08,1.26,6.19,6.19,0,0,1,2.19,4.84,11.29,11.29,0,0,1-2.26,6.59,31.86,31.86,0,0,1-7.24,7.08,38.31,38.31,0,0,1-10.46,5.86,39.46,39.46,0,0,1-11.6,2.15c-4.08.18-7.32-.36-9.69-1.62a6,6,0,0,1-3.62-5.42,7.88,7.88,0,0,1,2.23-5.19,18.49,18.49,0,0,1,5.68-4.46,16,16,0,0,1,6.73-1.93c1.66-.07,2.5.21,2.51,0.82a3.55,3.55,0,0,1-.67,1.55,11.47,11.47,0,0,0-2,6.1,5.17,5.17,0,0,0,1.77,3.63m-41-13.7v0.19l-0.23-.18a98,98,0,0,1-9.29,8.71,42.86,42.86,0,0,1-7.82,5.2,17,17,0,0,1-6.64,1.9,14.78,14.78,0,0,1-10.3-3,10.79,10.79,0,0,1-4.21-8.63,20.35,20.35,0,0,1,1.83-7.89,41.72,41.72,0,0,1,5.31-9.06,52.76,52.76,0,0,1,14.39-12.61q9-5.47,17.37-5.83,7.08-.31,11.68,1.91c3.07,1.5,4.64,3.48,4.69,5.95a10.12,10.12,0,0,1-2.16,5.89c2-.09,3.25,0,3.77.37s0.8,1.14.82,2.45c0-.13-0.08.51-0.23,1.91-0.15,3.07-.19,5.94-0.14,8.61,0,1.39.07,2.46,0.12,3.17s0.14,1.53.27,2.45,0.24,1.67.36,2.22a19.37,19.37,0,0,0,1.52,4.26,26.38,26.38,0,0,1-6.29,4.29,16.05,16.05,0,0,1-6.17,1.56q-8.53.38-8.75-11.61A16.62,16.62,0,0,1-187.29,486.11Zm3.08-10.77-1.05.32a29.26,29.26,0,0,1-5.72,1.19c-1.44.06-2.16-.22-2.17-0.84a5.89,5.89,0,0,1,.86-1.75c2-2.74,3-5.26,2.94-7.59a8,8,0,0,0-.9-3.62c-0.57-1.07-1.18-1.6-1.86-1.57s-1.48.59-2.67,1.7a46.07,46.07,0,0,0-8,10q-2.94,5.06-2.85,8.92a6.79,6.79,0,0,0,1.33,4.18,3.67,3.67,0,0,0,3.17,1.53c1.06,0,3-1.09,5.93-3.13a100.76,100.76,0,0,0,9.75-8l1.47-1.08Zm-69.69-17.7,0.22-.57c2.33-5.88,4.35-10,6.08-12.45a11.74,11.74,0,0,1,3.48-3.12,17.35,17.35,0,0,1,8-2.64,5.63,5.63,0,0,1,3.38.68,2.72,2.72,0,0,1,1.22,2.36,13.68,13.68,0,0,1-1.58,4.46,59,59,0,0,0-4,10.54,16.21,16.21,0,0,1,1.82.2,15.71,15.71,0,0,1,4.38.74,1.91,1.91,0,0,1,1.08,1.87,7.75,7.75,0,0,1-1.41,4.58,8.8,8.8,0,0,1-3.85,3.2,21.58,21.58,0,0,1-5.89,1.18,51.61,51.61,0,0,0-1.47,5c-0.3,1.87-.61,4.45-0.95,7.75a18.47,18.47,0,0,0-.27,3.41q0.14,7.32,8.6,6.95l0.34,0h0.17c0.66,0,1,.05,1,0.24,0,0.49-.6,1.34-1.82,2.57a24.86,24.86,0,0,1-4.1,3.29,24.75,24.75,0,0,1-5.27,2.45,19.33,19.33,0,0,1-5.2,1.07,13.22,13.22,0,0,1-9.53-2.88A10.89,10.89,0,0,1-263.3,490a26,26,0,0,1,.85-6.13c0.59-2.53,1.55-5.94,2.83-10.2,0.21-.75.42-1.54,0.67-2.38s0.39-1.32.43-1.48a5.43,5.43,0,0,1-3.21-.65,2.83,2.83,0,0,1-1-2.37,7.89,7.89,0,0,1,2.6-5.65A12.31,12.31,0,0,1-253.9,457.64Zm-27.54,32-0.21.95a16.31,16.31,0,0,1-.18,2.28,26.18,26.18,0,0,1-.53,3.75,6.45,6.45,0,0,1-1.13,2.43,14.25,14.25,0,0,1-2.06,2.12,13.57,13.57,0,0,1-8.06,3.47,5.67,5.67,0,0,1-4.95-1.83c-1.07-1.32-1.64-3.48-1.69-6.52a52.16,52.16,0,0,1,.79-9,73.38,73.38,0,0,1,2.18-9.65l0.41-1.22a4.5,4.5,0,0,1,.32-1.17,56.1,56.1,0,0,1,3.58-9.52,16.5,16.5,0,0,1,4.06-5.08,8.7,8.7,0,0,1,4.85-1.66q3.94-.17,4.84,3.78a11.32,11.32,0,0,0,1.47-1.37,15,15,0,0,1,2.43-2.27,4,4,0,0,1,2-.63q4.73-.21,4.89,7.68a31.86,31.86,0,0,1-1,8.4,23.8,23.8,0,0,1-2.65,6.72c-1.1,1.75-2.2,2.65-3.29,2.7s-1.87-1.85-1.94-5.72a21.14,21.14,0,0,0-.51-4.78,5.8,5.8,0,0,0-1.34-2.65q-1.62,2.67-1.95,12C-281.22,486.43-281.34,488.7-281.44,489.62Zm-41.8-30.72c5.5-.24,8.26.17,8.28,1.25,0,1.24-1.21,2-3.68,2.16a21.83,21.83,0,0,0-8.33,2.51,24,24,0,0,0-6.79,5.52,25.62,25.62,0,0,0-4.58,7.66,23.46,23.46,0,0,0-1.51,8.82,11.36,11.36,0,0,0,3,8,9.3,9.3,0,0,0,7.43,2.77,9.82,9.82,0,0,0,7.32-4,12.86,12.86,0,0,0,3-8.62,14.63,14.63,0,0,0-2.11-7.35,15.9,15.9,0,0,0-5.83-5.6c-1.09-.67-1.63-1.15-1.63-1.47s0.73-1.14,2.23-2.1a29,29,0,0,1,5.66-2.68,18.89,18.89,0,0,1,5.29-1.22,10.46,10.46,0,0,1,4.74.88,11.9,11.9,0,0,1,4,2.95A14.4,14.4,0,0,1-304,473a16.83,16.83,0,0,1,1,5.57,23.54,23.54,0,0,1-2,9.85,22.35,22.35,0,0,1-5.67,8.06,40,40,0,0,1-11.08,6.68,36.83,36.83,0,0,1-12.44,2.95A39.6,39.6,0,0,1-345.7,505a24.65,24.65,0,0,1-9.07-4q-4.49-3.54-4.62-10.36a21.72,21.72,0,0,1,2.95-10.93,37.43,37.43,0,0,1,8.37-10.17A45.41,45.41,0,0,1-336.31,462,36.27,36.27,0,0,1-323.24,458.9Zm-46.26,18.53-0.53,2c-0.18.69-.32,1.27-0.46,1.77s-0.25.9-.33,1.27-0.18.72-.28,1.11q-3.72,14.47-6.08,18.16a10.69,10.69,0,0,1-3.27,3c-4.62,2.74-8.24,4.17-10.9,4.29a6.7,6.7,0,0,1-4.72-1.49,5.28,5.28,0,0,1-2-4.12q-0.09-4.57,4.44-17c0.91-2.64,1.74-4.95,2.5-6.9s1.68-4.17,2.75-6.63,2.3-5.1,3.69-7.89l2.89-5.9a118,118,0,0,1-14,1.51q-6.8.3-6.88-3.69,0-2.54,4.3-6.68a20.77,20.77,0,0,1,5.47-3.8,17.06,17.06,0,0,1,6.12-1.27c1.55-.07,3.68-0.13,6.37-0.17s6.45,0,11.25.06l1.55,0,1.49,0.08a66.72,66.72,0,0,1,8,.29,7.28,7.28,0,0,1,3.33,1.28,3.26,3.26,0,0,1,1.16,2.41,7.62,7.62,0,0,1-.62,3.06,5.88,5.88,0,0,1-1.64,2.37c-0.91.91-3.46,1.74-7.7,2.51a7.73,7.73,0,0,0-1.17.15l-1.09.24a3.11,3.11,0,0,1,1.37,2.41,23,23,0,0,1-1.46,5.7c-0.33.73-1.08,3.09-2.28,7.11l-0.78,2.83Z" transform="translate(540 -183.22)"/><path class="cls-3" d="M-107.94,558.63l-2.5-2.59,0.73,4.3Zm-4.82-5,1.46-1.41,4.81,5,0.69-.66,1.31,1.36-0.69.66,1.53,1.58-1.44,1.39-1.53-1.58-3.38,3.26-1.3-1.35Zm-3,10.9,2.78-2.45,1.23,1.39-2.78,2.45Zm-2.91,3.45-2.25-2.81,0.33,4.35Zm-4.34-5.39,1.58-1.27,4.32,5.4,0.75-.6,1.18,1.47-0.75.6,1.37,1.72-1.56,1.25-1.37-1.72-3.67,2.93-1.17-1.47Zm-3.1,10.37a1.8,1.8,0,0,0-.75,1.09,1.39,1.39,0,0,0,.21,1.16,1.45,1.45,0,0,0,1,.61,1.74,1.74,0,0,0,1.28-.37,1.8,1.8,0,0,0,.77-1.07,1.4,1.4,0,0,0-.26-1.15,1.46,1.46,0,0,0-1-.62A1.7,1.7,0,0,0-126.12,573Zm-2.59-3.44a1.1,1.1,0,0,0-.48.75,1.16,1.16,0,0,0,.23.88,1.19,1.19,0,0,0,.78.5,1.14,1.14,0,0,0,.89-0.21,1.13,1.13,0,0,0,.49-0.77,1.22,1.22,0,0,0-.25-0.91,1.12,1.12,0,0,0-.76-0.49A1.21,1.21,0,0,0-128.71,569.57Zm3.73,1.27a3.25,3.25,0,0,1,1.61.31,3.29,3.29,0,0,1,1.25,1.06,3.31,3.31,0,0,1,.63,1.66,3,3,0,0,1-.32,1.69,4.37,4.37,0,0,1-1.39,1.49,4.66,4.66,0,0,1-1.9.9,2.91,2.91,0,0,1-1.67-.22,3.39,3.39,0,0,1-1.4-1.15,3.23,3.23,0,0,1-.6-1.47,3.73,3.73,0,0,1,.17-1.66,3.54,3.54,0,0,1-1.2-.42,2.85,2.85,0,0,1-.88-0.8,2.94,2.94,0,0,1-.56-1.48,2.77,2.77,0,0,1,.3-1.53,3.56,3.56,0,0,1,1.14-1.3,3.44,3.44,0,0,1,1.57-.66,2.84,2.84,0,0,1,1.56.23,3,3,0,0,1,1.23,1,2.67,2.67,0,0,1,.45,1A4.21,4.21,0,0,1-125,570.85Zm-7.79,7.11a1.26,1.26,0,0,0-.57.87,1.45,1.45,0,0,0,.24,1.08,1.45,1.45,0,0,0,.91.65,1.26,1.26,0,0,0,1-.16,1.32,1.32,0,0,0,.59-0.88,1.44,1.44,0,0,0-.24-1.1,1.42,1.42,0,0,0-.9-0.65A1.32,1.32,0,0,0-132.78,578Zm-3.32-5.53,1.92-.23,0.44,4.08a3.13,3.13,0,0,1,2.48-.46,3.34,3.34,0,0,1,2.13,1.51,3.21,3.21,0,0,1,.48,2.52,3.24,3.24,0,0,1-1.45,2.12,3.21,3.21,0,0,1-2.58.48,3.25,3.25,0,0,1-2.08-1.41,3.49,3.49,0,0,1-.42-0.92,10.28,10.28,0,0,1-.27-1.67Zm-3.67,10.12a1.26,1.26,0,0,0-.57.87,1.45,1.45,0,0,0,.24,1.08,1.45,1.45,0,0,0,.91.65,1.27,1.27,0,0,0,1-.16,1.32,1.32,0,0,0,.59-0.88,1.44,1.44,0,0,0-.24-1.1,1.42,1.42,0,0,0-.9-0.65A1.32,1.32,0,0,0-139.77,582.55ZM-143.1,577l1.92-.23,0.44,4.08a3.14,3.14,0,0,1,2.48-.46,3.34,3.34,0,0,1,2.13,1.51,3.22,3.22,0,0,1,.48,2.52,3.24,3.24,0,0,1-1.45,2.12,3.21,3.21,0,0,1-2.58.48,3.25,3.25,0,0,1-2.08-1.41,3.49,3.49,0,0,1-.42-0.92,10.3,10.3,0,0,1-.27-1.67Zm-5.86,5.73a1.39,1.39,0,0,0-.62.75,2.15,2.15,0,0,0,.05,1.29,10,10,0,0,0,1,2.14,5.74,5.74,0,0,0,1.84,2.17,1.44,1.44,0,0,0,1.47,0,1.31,1.31,0,0,0,.64-1.23,6.11,6.11,0,0,0-1.05-2.83,6.21,6.21,0,0,0-1.89-2.26A1.4,1.4,0,0,0-149,582.76Zm-1-1.64a3.52,3.52,0,0,1,2-.53,3.65,3.65,0,0,1,2,.85,9.37,9.37,0,0,1,2.08,2.61,9.34,9.34,0,0,1,1.29,3.11,3.73,3.73,0,0,1-.2,2.15,3.41,3.41,0,0,1-1.44,1.5,3.52,3.52,0,0,1-2,.55,3.67,3.67,0,0,1-2-.81A9,9,0,0,1-150.3,588a7.74,7.74,0,0,1-1.39-4.15A3.24,3.24,0,0,1-150,581.11Zm-8.24,4.68,2.72-1.41,4.95,9.53-1.8.94-4.06-7.83-2,1Zm-4.81,4.13a1.39,1.39,0,0,0-.69.68,2.15,2.15,0,0,0-.08,1.29,10,10,0,0,0,.8,2.24,5.74,5.74,0,0,0,1.61,2.35,1.43,1.43,0,0,0,1.46.18,1.31,1.31,0,0,0,.76-1.16,6.11,6.11,0,0,0-.76-2.92,6.22,6.22,0,0,0-1.65-2.44A1.4,1.4,0,0,0-163.06,589.92Zm-0.87-1.74a3.52,3.52,0,0,1,2.08-.32,3.65,3.65,0,0,1,1.93,1.05,9.38,9.38,0,0,1,1.8,2.81,9.37,9.37,0,0,1,1,3.22,3.73,3.73,0,0,1-.42,2.12,3.41,3.41,0,0,1-1.59,1.35,3.53,3.53,0,0,1-2.08.34,3.67,3.67,0,0,1-1.89-1,9,9,0,0,1-1.79-2.77,7.74,7.74,0,0,1-1-4.27A3.24,3.24,0,0,1-163.93,588.18Zm-3.81,9.23-1.34-3.34-0.94,4.26Zm-2.59-6.42,1.88-.75,2.57,6.43,0.89-.36,0.7,1.75-0.89.36,0.82,2-1.86.74-0.82-2-4.36,1.74-0.7-1.74Zm-6.83,9.21,3.49-1.24,0.62,1.75-3.49,1.24Zm-6.27-4,1.93-.69,2.38,6.71a7.31,7.31,0,0,1,.55,2.34,2.27,2.27,0,0,1-.47,1.32,2.64,2.64,0,0,1-1.26.88,3.74,3.74,0,0,1-3.36-.46l0.92-1.79a3.49,3.49,0,0,0,1,.43,1.36,1.36,0,0,0,.69,0,0.53,0.53,0,0,0,.37-0.42,2.9,2.9,0,0,0-.26-1.2Z" transform="translate(540 -183.22)"/></svg>