<svg id="Capa_3" data-name="Capa 3" xmlns="http://www.w3.org/2000/svg" xmlns:xlink="http://www.w3.org/1999/xlink" viewBox="0 0 429.2 175.45"><defs><style>.cls-1{fill:none;clip-rule:evenodd;}.cls-2{fill:#231f20;}.cls-2,.cls-3,.cls-5{fill-rule:evenodd;}.cls-3{fill:#ec008c;}.cls-4{clip-path:url(#clip-path);}.cls-5,.cls-6{fill:#fff;}</style><clipPath id="clip-path" transform="translate(519.97 -338.69)"><path class="cls-1" d="M-422.25,354.13c17.61,14.09,23.66,36.67,25.11,59.61s3.07,46.16-25.86,47c-41.81,1.14-55.45-6.35-55.45-6.35h0A58.06,58.06,0,0,1-514,400.55c0-46.75,54.49-76.26,91.79-46.41"/></clipPath></defs><title>LOGO Q TORTAS-LETRAS</title><path class="cls-2" d="M-422.25,354.13c17.61,14.09,23.66,36.67,25.11,59.61s3.07,46.16-25.86,47c-41.81,1.14-55.45-6.35-55.45-6.35h0A58.06,58.06,0,0,1-514,400.55c0-46.75,54.49-76.26,91.79-46.41m-58.82,109.79C-504.76,453.83-520,430.06-520,404a65.49,65.49,0,0,1,49.56-63.51,58.66,58.66,0,0,1,51.77,11.75c19.42,15.77,25.8,40.62,27.31,64.8,0.83,13.32,2.41,31.07-5.79,42.43-6.11,8.47-15.8,11.25-25.72,11.53-14.55.4-30.37,0-44.69-2.86C-471.51,467.29-477.35,465.91-481.07,463.92Z" transform="translate(519.97 -338.69)"/><path class="cls-3" d="M-422.25,354.13c17.61,14.09,23.66,36.67,25.11,59.61s3.07,46.16-25.86,47c-41.81,1.14-55.45-6.35-55.45-6.35h0A58.06,58.06,0,0,1-514,400.55c0-46.75,54.49-76.26,91.79-46.41" transform="translate(519.97 -338.69)"/><g class="cls-4"><path class="cls-5" d="M-414.28,436.25a9.45,9.45,0,0,1,9.45,9.45c0,0.09,0,.18,0,0.27a27.31,27.31,0,0,1-4.2-1.59,9,9,0,0,1-1.61-1,4.29,4.29,0,0,0-3.57-1.9,4.3,4.3,0,0,0-4.3,4.3c0,2.37,1.95,4,4.3,4.3s3.49-1.07,5.86-.3q1.1,0.36,2.19.75a9.45,9.45,0,0,1-8.12,4.61,9.45,9.45,0,0,1-9.45-9.45,9.45,9.45,0,0,1,9.45-9.45" transform="translate(519.97 -338.69)"/><path class="cls-6" d="M-426.42,379.19c0.32,5.76.35,12-.09,13.63-0.76,2.77,4.2,4.39,9.74-4.2s7.38-19.29,3.72-22.24c-1.54-1.24-6.57-1.42-10.27-.52-6.33,1.54-3.4,7.8-3.1,13.33m-17.63,56a28.11,28.11,0,0,1-5.19,4.34,34.42,34.42,0,0,1-6.67,3.57,27.3,27.3,0,0,1-6.55,1.74,33,33,0,0,1-15.05-1.48,28.89,28.89,0,0,1-12.06-7.94,29.24,29.24,0,0,1-6.78-12.83,44.5,44.5,0,0,1-.91-14.37,56.09,56.09,0,0,1,3.35-15.24c0.59-1.43,1.31-3,2.2-4.69a28.26,28.26,0,0,1,2.89-4.52,43.52,43.52,0,0,1,3.54-3.88,50.26,50.26,0,0,1,8.71-6.66,59.71,59.71,0,0,1,10.28-5.06A45,45,0,0,1-456,365.51a12.92,12.92,0,0,1,5,.07,2.78,2.78,0,0,1,1.92,2.1,4.08,4.08,0,0,1-.83,3.24c-0.86,1.18-3.07,2.5-6.6,4a40.86,40.86,0,0,0-11,6.09,21.52,21.52,0,0,0-6.1,7.82,39,39,0,0,0-3.06,12.44,38.87,38.87,0,0,0,.84,12.82,25.17,25.17,0,0,0,7.3,12.75q5.39,5,11.35,4.23a12.59,12.59,0,0,0,6.76-3.17c-4.52-7-11.48-5.87-13.71-9.06-2.54-3.64,3.25-8.69,11.33-6a37.42,37.42,0,0,1,8.95,4.6c0.18-2.14.26-3.3,0.26-3.46a23.55,23.55,0,0,0-.86-7.25,32.82,32.82,0,0,0-2.14-6.16,30.72,30.72,0,0,0-3.11-5.11,41.42,41.42,0,0,0-4.8-5.09c-2-1.74-3.08-3.12-3.34-4.16q-0.92-3.71,3.95-7.94c2.53-2.18,4.88-3.4,7-3.67q5.09-.63,9.06,3.66t6,12.46a45.71,45.71,0,0,1,.44,20.19,79.71,79.71,0,0,1-3.94,11.94c3.22,3.6,8.62,4.89,13.68,4.25C-417.84,444-434.18,445.58-444,435.15Z" transform="translate(519.97 -338.69)"/></g><path class="cls-2" d="M-414.21,441.5a4.29,4.29,0,0,1,3.57,1.9,9,9,0,0,0,1.61,1,28.38,28.38,0,0,0,4.57,1.7C-398,448-379,457.25-382.09,469.57s-24.53,7.93-28.06,15.7c-3.82,8.4,6.53,13.51,22,18.47s25.78,3.05,25.78,3.05,1.94,10.31-15.43,6.49-41.65-13.18-39.74-26.54,27.11-11.26,30-18.9c2.53-6.73-8.46-14.06-20.77-18.06-2.37-.77-3.64.61-5.86,0.3s-4.3-1.92-4.3-4.3a4.3,4.3,0,0,1,4.3-4.3" transform="translate(519.97 -338.69)"/><path class="cls-2" d="M-173.54,480.56a4.5,4.5,0,0,1-1.76-3.64,7.63,7.63,0,0,1,1.46-4l0.1-.16,0.11-.15a11.77,11.77,0,0,0,2-3.8,39.55,39.55,0,0,0-5.49,7.25c-1.09,1.89-2.35,4.51-2.3,6.75a3.37,3.37,0,0,0,.3,1.47,28.68,28.68,0,0,0,3.56-2.23q1-.73,2-1.5m-194.08-15.47q-3.33.34-6.67,0.5c-3.71.16-7.93-.43-10.11-3.82a7.53,7.53,0,0,1-1.16-4c-0.07-3.84,3-7.29,5.61-9.78l0,0,0,0a25,25,0,0,1,6.63-4.54,21.38,21.38,0,0,1,7.64-1.62c2.17-.1,4.34-0.14,6.51-0.17,3.8-.06,7.62,0,11.42.06l1.63,0,1.46,0.07a62.71,62.71,0,0,1,8.56.34,11.57,11.57,0,0,1,5.21,2l0.18,0.13,0.16,0.15a7.41,7.41,0,0,1,2.54,5.42,11.73,11.73,0,0,1-.95,4.75,10,10,0,0,1-2.74,3.89c-1.7,1.55-4.65,2.43-7.25,3a31.48,31.48,0,0,1-1.64,6.22l-0.06.19-0.08.18c-0.26.59-.47,1.34-0.67,2-0.49,1.53-1,3.07-1.42,4.61l-0.76,2.74-0.51,1.91-0.53,2c-0.16.62-.31,1.25-0.49,1.87-0.11.36-.2,0.73-0.29,1.09s-0.2.78-.3,1.16c-1,4-2.15,8.1-3.48,12.05a34.47,34.47,0,0,1-3.15,7.32l0,0.05,0,0a14.9,14.9,0,0,1-4.53,4.18l-0.07,0c-3.68,2.18-8.54,4.68-12.89,4.87a10.93,10.93,0,0,1-7.58-2.44,9.41,9.41,0,0,1-3.52-7.26c-0.1-5.21,2.94-13.62,4.7-18.52,0.84-2.33,1.64-4.69,2.54-7s1.84-4.54,2.82-6.79S-368.74,467.38-367.62,465.09Zm247.87,27.15c-0.15.29-.32,0.57-0.49,0.85a12.91,12.91,0,0,0-.9,1.7h0A4,4,0,0,0-119.75,492.24Zm4.43-20.66c0.1-.44.23-0.87,0.37-1.28a25.74,25.74,0,0,0,.8-3.61,11,11,0,0,0-.74,1.44l0,0,0,0a8.13,8.13,0,0,0-.83,3.17Zm-194.51,3.29a21.23,21.23,0,0,0-3.06,5.44,19.27,19.27,0,0,0-1.25,7.26,7.4,7.4,0,0,0,1.81,5.21,5.23,5.23,0,0,0,4.27,1.51,5.77,5.77,0,0,0,4.29-2.43,8.66,8.66,0,0,0,2.06-5.9,10.44,10.44,0,0,0-1.52-5.29,11.83,11.83,0,0,0-4.36-4.13l0,0,0,0A11.19,11.19,0,0,1-309.83,474.87Zm167.7,7.09c0,0.25,0,.49,0,0.74,0,1,0,2,.11,2.95,0.05,0.72.14,1.44,0.24,2.16v0.09a17.63,17.63,0,0,0,.29,1.8,15,15,0,0,0,.61,2,22.59,22.59,0,0,1,5.08-4.15,14.65,14.65,0,0,1-3.55-2.27A11.33,11.33,0,0,1-142.13,482Zm15.9,17.84a9.31,9.31,0,0,0,5.88-2.93,7.72,7.72,0,0,0,2.58-5.62,3.75,3.75,0,0,0-1.65-3.18c-1.17-.92-3.74-1.75-7.74-2.5-5.9-1.17-9.75-2.58-11.56-4.28a6.34,6.34,0,0,1-2.59-5q-0.1-5.33,4.42-10.89a36.91,36.91,0,0,1,11.64-9.27,34.28,34.28,0,0,1,14.42-4,15.77,15.77,0,0,1,6.68,1.1,12.4,12.4,0,0,1,5,3.48,7.65,7.65,0,0,1,1.93,4.91,9.85,9.85,0,0,1-1.88,5.57,17.88,17.88,0,0,1-4.93,4.93,11.13,11.13,0,0,1-5.69,2.14,6,6,0,0,1-2.69-.44,1.56,1.56,0,0,1-1.16-1.15,6.31,6.31,0,0,1,.42-1.94,24.12,24.12,0,0,0,1.11-7,8.39,8.39,0,0,0-2.22-5.44,16.67,16.67,0,0,0-3.48,2.66,15.22,15.22,0,0,0-3.18,4.77,11.85,11.85,0,0,0-1.19,5.07,3.63,3.63,0,0,0,1,2.62,6.79,6.79,0,0,0,3,1.56,50.75,50.75,0,0,0,6.32,1.26,48.22,48.22,0,0,1,10,2.35,14.92,14.92,0,0,1,2.08,1.26,6.2,6.2,0,0,1,2.19,4.84,11.29,11.29,0,0,1-2.26,6.59,31.87,31.87,0,0,1-7.24,7.08,38.31,38.31,0,0,1-10.46,5.86,39.46,39.46,0,0,1-11.6,2.15c-4.08.18-7.32-.36-9.69-1.62a6,6,0,0,1-3.62-5.42,7.88,7.88,0,0,1,2.23-5.19,18.51,18.51,0,0,1,5.68-4.46,16,16,0,0,1,6.73-1.93c1.66-.07,2.5.21,2.51,0.82a3.54,3.54,0,0,1-.67,1.55,11.47,11.47,0,0,0-2,6.1A5.16,5.16,0,0,0-126.23,499.81Zm-41-13.7v0.19l-0.23-.18a98,98,0,0,1-9.29,8.71,42.86,42.86,0,0,1-7.82,5.2,17,17,0,0,1-6.64,1.9,14.78,14.78,0,0,1-10.3-3,10.79,10.79,0,0,1-4.21-8.63,20.36,20.36,0,0,1,1.83-7.89,41.69,41.69,0,0,1,5.31-9.06,52.76,52.76,0,0,1,14.39-12.62q9-5.47,17.37-5.83,7.08-.31,11.68,1.91c3.07,1.5,4.64,3.48,4.69,5.95a10.12,10.12,0,0,1-2.16,5.89c2-.09,3.25,0,3.77.37s0.8,1.14.82,2.45c0-.13-0.08.51-0.23,1.91-0.15,3.07-.19,5.94-0.14,8.61,0,1.39.07,2.46,0.12,3.17s0.14,1.53.27,2.45,0.24,1.67.36,2.22a19.37,19.37,0,0,0,1.52,4.26,26.36,26.36,0,0,1-6.29,4.29,16,16,0,0,1-6.17,1.56q-8.53.38-8.75-11.61A16.67,16.67,0,0,1-167.27,486.11Zm3.08-10.77-1.05.32a29.27,29.27,0,0,1-5.72,1.19c-1.44.06-2.16-.22-2.17-0.84a5.88,5.88,0,0,1,.85-1.75c2-2.74,3-5.26,2.94-7.59a8,8,0,0,0-.9-3.62c-0.57-1.07-1.18-1.6-1.86-1.57s-1.48.59-2.67,1.71a46.07,46.07,0,0,0-8,10q-2.94,5.06-2.85,8.92a6.79,6.79,0,0,0,1.33,4.18,3.67,3.67,0,0,0,3.17,1.53c1.06,0,3-1.09,5.93-3.13a100.7,100.7,0,0,0,9.75-8l1.47-1.08Zm-69.69-17.7,0.22-.56c2.33-5.88,4.35-10,6.08-12.45a11.74,11.74,0,0,1,3.48-3.12,17.35,17.35,0,0,1,8-2.64,5.62,5.62,0,0,1,3.38.68,2.72,2.72,0,0,1,1.22,2.36,13.67,13.67,0,0,1-1.58,4.46,59.1,59.1,0,0,0-4,10.54,16.2,16.2,0,0,1,1.82.2,15.69,15.69,0,0,1,4.38.74,1.91,1.91,0,0,1,1.08,1.87,7.75,7.75,0,0,1-1.41,4.58,8.8,8.8,0,0,1-3.85,3.2,21.58,21.58,0,0,1-5.89,1.18,51.71,51.71,0,0,0-1.47,5c-0.3,1.87-.61,4.45-0.95,7.75a18.45,18.45,0,0,0-.27,3.41q0.14,7.32,8.6,6.95h0.51c0.66,0,1,.05,1,0.24,0,0.49-.6,1.34-1.82,2.57a24.84,24.84,0,0,1-4.1,3.29,24.72,24.72,0,0,1-5.27,2.45,19.34,19.34,0,0,1-5.2,1.07,13.22,13.22,0,0,1-9.53-2.88,10.89,10.89,0,0,1-3.79-8.54,26.05,26.05,0,0,1,.85-6.13c0.59-2.53,1.55-5.94,2.83-10.2,0.21-.76.42-1.54,0.67-2.38s0.39-1.32.42-1.48a5.43,5.43,0,0,1-3.21-.65,2.83,2.83,0,0,1-1-2.37,7.89,7.89,0,0,1,2.6-5.65A12.31,12.31,0,0,1-233.88,457.64Zm-27.54,32-0.21.95a16.19,16.19,0,0,1-.18,2.28,26.15,26.15,0,0,1-.53,3.75,6.46,6.46,0,0,1-1.13,2.43,14.25,14.25,0,0,1-2.06,2.12,13.57,13.57,0,0,1-8.06,3.47,5.67,5.67,0,0,1-5-1.83c-1.06-1.32-1.63-3.48-1.69-6.52a52.16,52.16,0,0,1,.79-9,73.4,73.4,0,0,1,2.18-9.65l0.41-1.22a4.5,4.5,0,0,1,.32-1.17,56.11,56.11,0,0,1,3.58-9.52,16.5,16.5,0,0,1,4.06-5.08A8.7,8.7,0,0,1-264,459q3.94-.17,4.84,3.78a11.28,11.28,0,0,0,1.47-1.37,15.09,15.09,0,0,1,2.43-2.27,4,4,0,0,1,2-.63q4.73-.21,4.89,7.68a31.88,31.88,0,0,1-1,8.4,23.79,23.79,0,0,1-2.65,6.72c-1.1,1.75-2.2,2.65-3.29,2.7s-1.87-1.85-1.94-5.72a21.12,21.12,0,0,0-.51-4.78,5.8,5.8,0,0,0-1.34-2.65q-1.62,2.67-1.94,12C-261.19,486.43-261.32,488.7-261.41,489.62Zm-41.8-30.72c5.5-.24,8.26.17,8.28,1.25,0,1.24-1.21,2-3.68,2.16a21.83,21.83,0,0,0-8.33,2.51,24,24,0,0,0-6.79,5.52,25.62,25.62,0,0,0-4.58,7.66,23.46,23.46,0,0,0-1.51,8.82,11.35,11.35,0,0,0,3,8,9.3,9.3,0,0,0,7.42,2.77,9.82,9.82,0,0,0,7.32-4,12.86,12.86,0,0,0,3-8.62,14.63,14.63,0,0,0-2.11-7.35,15.9,15.9,0,0,0-5.83-5.6c-1.09-.67-1.63-1.15-1.63-1.47s0.73-1.14,2.23-2.1a29,29,0,0,1,5.66-2.68,18.86,18.86,0,0,1,5.29-1.22,10.45,10.45,0,0,1,4.74.88,11.91,11.91,0,0,1,4,2.95A14.41,14.41,0,0,1-284,473a16.82,16.82,0,0,1,1,5.57,23.53,23.53,0,0,1-2,9.85,22.35,22.35,0,0,1-5.67,8.06,40,40,0,0,1-11.08,6.68,36.84,36.84,0,0,1-12.44,2.95A39.61,39.61,0,0,1-325.68,505a24.65,24.65,0,0,1-9.07-4q-4.49-3.54-4.62-10.36a21.71,21.71,0,0,1,2.95-10.93,37.43,37.43,0,0,1,8.37-10.18A45.4,45.4,0,0,1-316.29,462,36.25,36.25,0,0,1-303.21,458.9Zm-46.26,18.53-0.53,2c-0.18.69-.32,1.27-0.46,1.76s-0.25.9-.34,1.27-0.18.72-.28,1.11q-3.72,14.47-6.08,18.16a10.68,10.68,0,0,1-3.27,3c-4.62,2.74-8.24,4.17-10.9,4.29a6.7,6.7,0,0,1-4.72-1.49,5.27,5.27,0,0,1-2-4.12q-0.09-4.57,4.44-17c0.91-2.64,1.74-4.95,2.5-6.9s1.68-4.17,2.75-6.63,2.3-5.1,3.69-7.89l2.89-5.9a117.9,117.9,0,0,1-14,1.51q-6.8.3-6.88-3.69,0-2.54,4.3-6.68a20.77,20.77,0,0,1,5.47-3.8,17.05,17.05,0,0,1,6.12-1.27c1.55-.07,3.68-0.13,6.37-0.17s6.45,0,11.25.06l1.55,0,1.5,0.08a66.72,66.72,0,0,1,8,.29,7.28,7.28,0,0,1,3.33,1.28,3.26,3.26,0,0,1,1.16,2.41,7.62,7.62,0,0,1-.62,3.06,5.88,5.88,0,0,1-1.64,2.37c-0.91.91-3.46,1.74-7.7,2.51a7.73,7.73,0,0,0-1.17.15l-1.09.24a3.11,3.11,0,0,1,1.37,2.41,23,23,0,0,1-1.46,5.7c-0.33.73-1.07,3.09-2.28,7.11l-0.78,2.83Zm207.49-7.3a26,26,0,0,1,4-6.52,41.07,41.07,0,0,1,13-10.33,38.66,38.66,0,0,1,16.23-4.52,20,20,0,0,1,8.45,1.4,16.69,16.69,0,0,1,6.63,4.66,11.84,11.84,0,0,1,2.91,7.52,13.93,13.93,0,0,1-2.59,8,21.86,21.86,0,0,1-4.81,5.15l0.22,0.09a17.34,17.34,0,0,1,2.8,1.65l0.18,0.12,0.17,0.14a10.34,10.34,0,0,1,3.68,7.94,15.44,15.44,0,0,1-3,9,36.78,36.78,0,0,1-8.19,8,43.63,43.63,0,0,1-11.62,6.46,44.2,44.2,0,0,1-12.86,2.39c-4,.18-8.3-0.21-11.88-2.1a10.21,10.21,0,0,1-5.84-8.62,26.58,26.58,0,0,1-4.06,2.37,20.58,20.58,0,0,1-7.77,1.94,12.07,12.07,0,0,1-7.38-1.88,12.39,12.39,0,0,1-4.87-7.17c-1.16,1.05-2.35,2.07-3.56,3a47.26,47.26,0,0,1-8.63,5.7,21.21,21.21,0,0,1-8.32,2.32A19.11,19.11,0,0,1-202.25,503a14.84,14.84,0,0,1-5.46-8.76,10.13,10.13,0,0,1-2.88,4.2,28.23,28.23,0,0,1-4.83,3.86,28.57,28.57,0,0,1-6.19,2.88,23.53,23.53,0,0,1-6.36,1.28,17.53,17.53,0,0,1-12.45-3.87,15,15,0,0,1-5.28-11.64,29.73,29.73,0,0,1,1-7.16c0.8-3.38,1.79-6.75,2.8-10.08l-0.45-.29q-0.23-.17-0.45-0.35-0.26,1.7-.68,3.38a27.64,27.64,0,0,1-3.17,7.91c-1.5,2.4-3.66,4.52-6.67,4.66a5.26,5.26,0,0,1-1.73-.21l-0.28-.09c0,0.74-.11,1.47-0.18,2.18l0,0.24-0.17.75a21.79,21.79,0,0,1-.2,2.25,29.47,29.47,0,0,1-.62,4.25v0.09a10.59,10.59,0,0,1-1.87,3.94,18.36,18.36,0,0,1-2.65,2.74l-0.06,0a17.84,17.84,0,0,1-10.58,4.43,9.83,9.83,0,0,1-8.4-3.36c-2-2.5-2.58-6-2.64-9.08,0-.19,0-0.39,0-0.58a24.1,24.1,0,0,1-3.55,3.88,44.1,44.1,0,0,1-12.28,7.4,41.36,41.36,0,0,1-13.9,3.26,44.58,44.58,0,0,1-12.7-1.29,28.65,28.65,0,0,1-10.66-4.76c-4.33-3.35-6.15-8.21-6.26-13.58a25.94,25.94,0,0,1,3.47-13,41.85,41.85,0,0,1,9.31-11.31A50.13,50.13,0,0,1-316.46,459a40.87,40.87,0,0,1,14.62-3.47,37.86,37.86,0,0,1,7,.17c2.83,0.43,5.59,1.93,5.66,5.17a6.5,6.5,0,0,1-.06,1,15,15,0,0,1,1.74.64,16,16,0,0,1,5.46,4,18.31,18.31,0,0,1,3.53,5.87l0.19,0.52a50.16,50.16,0,0,1,3.3-8.32,20.57,20.57,0,0,1,5.12-6.36l0.09-.07,0.1-.07a13,13,0,0,1,7.14-2.45,8.91,8.91,0,0,1,5.69,1.55,10.53,10.53,0,0,1,1-.73,8.21,8.21,0,0,1,4.15-1.3,8.27,8.27,0,0,1,4.47,1,8.82,8.82,0,0,1,4,5.27,15.37,15.37,0,0,1,1.9-2.36,16.73,16.73,0,0,1,6.09-4,61.08,61.08,0,0,1,6.05-12,16,16,0,0,1,4.7-4.26l0,0,0,0a21.68,21.68,0,0,1,9.93-3.21,9.73,9.73,0,0,1,5.89,1.37,6.87,6.87,0,0,1,3.09,5.75c0,2-1.14,4.55-2,6.34s-1.57,3.42-2.24,5.19a10.84,10.84,0,0,1,2.41.7l0.07,0a6.05,6.05,0,0,1,3.48,5.56,12,12,0,0,1-2.13,7,13,13,0,0,1-5.67,4.7,18.66,18.66,0,0,1-4.41,1.17c-0.2.69-.37,1.38-0.55,2.07-0.39,2.42-.64,4.9-0.89,7.34v0.13l0,0.13a14.35,14.35,0,0,0-.22,2.64,3.61,3.61,0,0,0,.55,2.12c0.71,0.77,2.79.78,3.71,0.74l0.51,0a5.09,5.09,0,0,1,4.85,2.29,24.81,24.81,0,0,1,2.16-9.17,44.22,44.22,0,0,1,5.88-10A56.61,56.61,0,0,1-184.42,458c5.91-3.59,12.45-6.13,19.43-6.43,4.64-.2,9.5.28,13.73,2.33,3.95,1.91,7,5.05,7.06,9.62a11.31,11.31,0,0,1-.31,2.82h0A5.83,5.83,0,0,1-142,470.13Z" transform="translate(519.97 -338.69)"/><path class="cls-6" d="M-126.23,499.81a9.31,9.31,0,0,0,5.88-2.93,7.71,7.71,0,0,0,2.58-5.62,3.75,3.75,0,0,0-1.65-3.18c-1.17-.92-3.74-1.75-7.74-2.5-5.9-1.17-9.75-2.58-11.56-4.28a6.33,6.33,0,0,1-2.59-5q-0.1-5.33,4.42-10.89a36.92,36.92,0,0,1,11.64-9.27,34.29,34.29,0,0,1,14.42-4,15.78,15.78,0,0,1,6.68,1.1,12.41,12.41,0,0,1,5,3.48,7.65,7.65,0,0,1,1.93,4.91,9.85,9.85,0,0,1-1.88,5.57,17.88,17.88,0,0,1-4.93,4.93,11.13,11.13,0,0,1-5.69,2.14,6,6,0,0,1-2.69-.44,1.56,1.56,0,0,1-1.16-1.15,6.33,6.33,0,0,1,.42-1.94,24.13,24.13,0,0,0,1.11-7,8.38,8.38,0,0,0-2.22-5.44,16.68,16.68,0,0,0-3.48,2.66,15.23,15.23,0,0,0-3.18,4.77,11.85,11.85,0,0,0-1.19,5.07,3.62,3.62,0,0,0,1,2.62,6.77,6.77,0,0,0,3,1.56,50.79,50.79,0,0,0,6.32,1.26,48.2,48.2,0,0,1,10,2.35,14.88,14.88,0,0,1,2.08,1.26,6.19,6.19,0,0,1,2.19,4.84,11.29,11.29,0,0,1-2.26,6.59,31.86,31.86,0,0,1-7.24,7.08,38.31,38.31,0,0,1-10.46,5.86,39.46,39.46,0,0,1-11.6,2.15c-4.08.18-7.32-.36-9.69-1.62a6,6,0,0,1-3.62-5.42,7.88,7.88,0,0,1,2.23-5.19,18.49,18.49,0,0,1,5.68-4.46,16,16,0,0,1,6.73-1.93c1.66-.07,2.5.21,2.51,0.82a3.55,3.55,0,0,1-.67,1.55,11.47,11.47,0,0,0-2,6.1,5.17,5.17,0,0,0,1.77,3.63m-41-13.7v0.19l-0.23-.18a98,98,0,0,1-9.29,8.71,42.86,42.86,0,0,1-7.82,5.2,17,17,0,0,1-6.64,1.9,14.78,14.78,0,0,1-10.3-3,10.79,10.79,0,0,1-4.21-8.63,20.35,20.35,0,0,1,1.83-7.89,41.72,41.72,0,0,1,5.31-9.06,52.76,52.76,0,0,1,14.39-12.61q9-5.47,17.37-5.83,7.08-.31,11.68,1.91c3.07,1.5,4.64,3.48,4.69,5.95a10.12,10.12,0,0,1-2.16,5.89c2-.09,3.25,0,3.77.37s0.8,1.14.82,2.45c0-.13-0.08.51-0.23,1.91-0.15,3.07-.19,5.94-0.14,8.61,0,1.39.07,2.46,0.12,3.17s0.14,1.53.27,2.45,0.24,1.67.36,2.22a19.37,19.37,0,0,0,1.52,4.26,26.38,26.38,0,0,1-6.29,4.29,16.05,16.05,0,0,1-6.17,1.56q-8.53.38-8.75-11.61A16.62,16.62,0,0,1-167.27,486.11Zm3.08-10.77-1.05.32a29.26,29.26,0,0,1-5.72,1.19c-1.44.06-2.16-.22-2.17-0.84a5.89,5.89,0,0,1,.86-1.75c2-2.74,3-5.26,2.94-7.59a8,8,0,0,0-.9-3.62c-0.57-1.07-1.18-1.6-1.86-1.57s-1.48.59-2.67,1.7a46.07,46.07,0,0,0-8,10q-2.94,5.06-2.85,8.92a6.79,6.79,0,0,0,1.33,4.18,3.67,3.67,0,0,0,3.17,1.53c1.06,0,3-1.09,5.93-3.13a100.76,100.76,0,0,0,9.75-8l1.47-1.08Zm-69.69-17.7,0.22-.57c2.33-5.88,4.35-10,6.08-12.45a11.74,11.74,0,0,1,3.48-3.12,17.35,17.35,0,0,1,8-2.64,5.63,5.63,0,0,1,3.38.68,2.72,2.72,0,0,1,1.22,2.36,13.68,13.68,0,0,1-1.58,4.46,59,59,0,0,0-4,10.54,16.21,16.21,0,0,1,1.82.2,15.71,15.71,0,0,1,4.38.74,1.91,1.91,0,0,1,1.08,1.87,7.75,7.75,0,0,1-1.41,4.58,8.8,8.8,0,0,1-3.85,3.2,21.58,21.58,0,0,1-5.89,1.18,51.61,51.61,0,0,0-1.47,5c-0.3,1.87-.61,4.45-0.95,7.75a18.47,18.47,0,0,0-.27,3.41q0.14,7.32,8.6,6.95l0.34,0h0.17c0.66,0,1,.05,1,0.24,0,0.49-.6,1.34-1.82,2.57a24.86,24.86,0,0,1-4.1,3.29,24.75,24.75,0,0,1-5.27,2.45,19.33,19.33,0,0,1-5.2,1.07,13.22,13.22,0,0,1-9.53-2.88,10.89,10.89,0,0,1-3.79-8.54,26,26,0,0,1,.85-6.13c0.59-2.53,1.55-5.94,2.83-10.2,0.21-.75.42-1.54,0.67-2.38s0.39-1.32.43-1.48a5.43,5.43,0,0,1-3.21-.65,2.83,2.83,0,0,1-1-2.37,7.89,7.89,0,0,1,2.6-5.65A12.31,12.31,0,0,1-233.88,457.64Zm-27.54,32-0.21.95a16.31,16.31,0,0,1-.18,2.28,26.18,26.18,0,0,1-.53,3.75,6.45,6.45,0,0,1-1.13,2.43,14.25,14.25,0,0,1-2.06,2.12,13.57,13.57,0,0,1-8.06,3.47,5.67,5.67,0,0,1-4.95-1.83c-1.07-1.32-1.64-3.48-1.69-6.52a52.16,52.16,0,0,1,.79-9,73.38,73.38,0,0,1,2.18-9.65l0.41-1.22a4.5,4.5,0,0,1,.32-1.17,56.1,56.1,0,0,1,3.58-9.52,16.5,16.5,0,0,1,4.06-5.08A8.7,8.7,0,0,1-264,459q3.94-.17,4.84,3.78a11.32,11.32,0,0,0,1.47-1.37,15,15,0,0,1,2.43-2.27,4,4,0,0,1,2-.63q4.73-.21,4.89,7.68a31.86,31.86,0,0,1-1,8.4,23.8,23.8,0,0,1-2.65,6.72c-1.1,1.75-2.2,2.65-3.29,2.7s-1.87-1.85-1.94-5.72a21.14,21.14,0,0,0-.51-4.78,5.8,5.8,0,0,0-1.34-2.65q-1.62,2.67-1.95,12C-261.19,486.43-261.32,488.7-261.41,489.62Zm-41.8-30.72c5.5-.24,8.26.17,8.28,1.25,0,1.24-1.21,2-3.68,2.16a21.83,21.83,0,0,0-8.33,2.51,24,24,0,0,0-6.79,5.52,25.62,25.62,0,0,0-4.58,7.66,23.46,23.46,0,0,0-1.51,8.82,11.36,11.36,0,0,0,3,8,9.3,9.3,0,0,0,7.43,2.77,9.82,9.82,0,0,0,7.32-4,12.86,12.86,0,0,0,3-8.62,14.63,14.63,0,0,0-2.11-7.35,15.9,15.9,0,0,0-5.83-5.6c-1.09-.67-1.63-1.15-1.63-1.47s0.73-1.14,2.23-2.1a29,29,0,0,1,5.66-2.68,18.89,18.89,0,0,1,5.29-1.22,10.46,10.46,0,0,1,4.74.88,11.9,11.9,0,0,1,4,2.95A14.4,14.4,0,0,1-284,473a16.83,16.83,0,0,1,1,5.57,23.54,23.54,0,0,1-2,9.85,22.35,22.35,0,0,1-5.67,8.06,40,40,0,0,1-11.08,6.68,36.83,36.83,0,0,1-12.44,2.95A39.6,39.6,0,0,1-325.68,505a24.65,24.65,0,0,1-9.07-4q-4.49-3.54-4.62-10.36a21.72,21.72,0,0,1,2.95-10.93,37.43,37.43,0,0,1,8.37-10.17A45.41,45.41,0,0,1-316.29,462,36.27,36.27,0,0,1-303.21,458.9Zm-46.26,18.53-0.53,2c-0.18.69-.32,1.27-0.46,1.77s-0.25.9-.33,1.27-0.18.72-.28,1.11q-3.72,14.47-6.08,18.16a10.69,10.69,0,0,1-3.27,3c-4.62,2.74-8.24,4.17-10.9,4.29a6.7,6.7,0,0,1-4.72-1.49,5.28,5.28,0,0,1-2-4.12q-0.09-4.57,4.44-17c0.91-2.64,1.74-4.95,2.5-6.9s1.68-4.17,2.75-6.63,2.3-5.1,3.69-7.89l2.89-5.9a118,118,0,0,1-14,1.51q-6.8.3-6.88-3.69,0-2.54,4.3-6.68a20.77,20.77,0,0,1,5.47-3.8,17.06,17.06,0,0,1,6.12-1.27c1.55-.07,3.68-0.13,6.37-0.17s6.45,0,11.25.06l1.55,0,1.49,0.08a66.72,66.72,0,0,1,8,.29,7.28,7.28,0,0,1,3.33,1.28,3.26,3.26,0,0,1,1.16,2.41,7.62,7.62,0,0,1-.62,3.06,5.88,5.88,0,0,1-1.64,2.37c-0.91.91-3.46,1.74-7.7,2.51a7.73,7.73,0,0,0-1.17.15l-1.09.24a3.11,3.11,0,0,1,1.37,2.41,23,23,0,0,1-1.46,5.7c-0.33.73-1.08,3.09-2.28,7.11l-0.78,2.83Z" transform="translate(519.97 -338.69)"/></svg>