<svg id="Слой_1" data-name="Слой 1" xmlns="http://www.w3.org/2000/svg" viewBox="0 0 88 88"><defs><style>.cls-1{fill:#fff;}.cls-2{fill:none;stroke:#fff;stroke-linecap:round;stroke-linejoin:round;stroke-width:3px;}</style></defs><title>telefono_icon_redondo-tiza</title><path class="cls-1" d="M91.89,44.88a44,44,0,0,0-.67-5.17,43.22,43.22,0,0,0-2.43-8.24,38.33,38.33,0,0,1,1.51,5.59,39.21,39.21,0,0,1,.6,4.64,26.21,26.21,0,0,1,.1,2.8v0.12A39.53,39.53,0,1,1,51.38,5H51.5a24.09,24.09,0,0,1,2.84.11,38.38,38.38,0,0,1,4.59.6,39.33,39.33,0,0,1,5.45,1.45,43.39,43.39,0,0,0-8.1-2.37,42.9,42.9,0,0,0-5.12-.67A27.73,27.73,0,0,0,48,4H47.87A44,44,0,1,0,92,48.13V48A30,30,0,0,0,91.89,44.88Z" transform="translate(-4 -4)"/><path class="cls-2" d="M74.66,21.93a36.47,36.47,0,0,1,3,3.52" transform="translate(-4 -4)"/><path class="cls-2" d="M58,12a38.11,38.11,0,0,1,11.78,5.76" transform="translate(-4 -4)"/><path class="cls-1" d="M59.67,26.5H40.33A3.3,3.3,0,0,0,37,29.8V68.2a3.3,3.3,0,0,0,3.3,3.3H59.67A3.3,3.3,0,0,0,63,68.2V29.8A3.3,3.3,0,0,0,59.67,26.5Zm2,35.77H43a0.66,0.66,0,1,0,0,1.32H61.65V68.2a2,2,0,0,1-2,2H40.33a2,2,0,0,1-2-2V63.59h2a0.66,0.66,0,1,0,0-1.32h-2V33.09H61.65V62.27Zm0-30.5H38.35v-2a2,2,0,0,1,2-2H59.67a2,2,0,0,1,2,2v2Z" transform="translate(-4 -4)"/><path class="cls-1" d="M52.64,29.14H50a0.66,0.66,0,1,0,0,1.32h2.64A0.66,0.66,0,1,0,52.64,29.14Z" transform="translate(-4 -4)"/><path class="cls-1" d="M50,64.91a2,2,0,1,0,2,2A2,2,0,0,0,50,64.91Zm0,2.64a0.66,0.66,0,1,1,.66-0.66A0.66,0.66,0,0,1,50,67.54Z" transform="translate(-4 -4)"/><circle class="cls-1" cx="43.36" cy="25.8" r="0.66"/></svg>