<svg id="Capa_1_copia" data-name="Capa 1 copia" xmlns="http://www.w3.org/2000/svg" viewBox="0 0 64.04 69.98"><defs><style>.cls-1{fill:#bc082f;}.cls-2{fill:#aa0521;}.cls-3{fill:#930214;}.cls-4{fill:#ce0530;}.cls-5{fill:none;stroke:#fff;stroke-linecap:round;stroke-linejoin:round;stroke-width:3px;}.cls-6{fill:#fff;}</style></defs><title>telefono_icon_globo</title><path class="cls-1" d="M40.46,68.11c-0.14-.28-2.19-0.16-2.38-0.43a1.38,1.38,0,0,1-.88.33A1.41,1.41,0,0,1,36.26,68c-0.11.28-2.11,0.7-2.17,1a0.68,0.68,0,0,0-.41.53c0.07,0.48,1.75.66,3.76,0.38S41,69,41,68.45A0.59,0.59,0,0,0,40.46,68.11Zm-3,1.5c-1.51.21-2.78,0.09-2.83-.27s1.13-.83,2.64-1,2.78-.09,2.83.27-1.16.79-2.68,1h0Z" transform="translate(0.06 -0.02)"/><ellipse class="cls-2" cx="37.33" cy="68.96" rx="2.76" ry="0.66" transform="translate(-9.19 5.86) rotate(-8.02)"/><path class="cls-3" d="M37.2,68a1.38,1.38,0,0,0,.88-0.33h0a1.28,1.28,0,0,0-1-.08,1.27,1.27,0,0,0-.89.34h0A1.41,1.41,0,0,0,37.2,68Z" transform="translate(0.06 -0.02)"/><path class="cls-1" d="M63.44,25.46a32.09,32.09,0,0,0-.93-3.69A31.55,31.55,0,0,0,59.95,16,32.23,32.23,0,0,0,39.81.91,31.57,31.57,0,0,0,33.71,0,31,31,0,0,0,30,.22a20.27,20.27,0,0,0-2.3.41H27.61A32.07,32.07,0,0,0,29.4,64.36a8.85,8.85,0,0,1,5,2L36.25,68a1.24,1.24,0,0,1,.89-0.36,1.29,1.29,0,0,1,1,.07l1.18-1.88a8.91,8.91,0,0,1,4.37-3.54,32,32,0,0,0,20-34.41V27.73A21.39,21.39,0,0,0,63.44,25.46Z" transform="translate(0.06 -0.02)"/><path class="cls-4" d="M62.92,25.25v0.09A28.9,28.9,0,1,1,30.2.67h0.09A17.59,17.59,0,0,1,32.36.44a28,28,0,0,1,3.38,0,28.72,28.72,0,0,1,4.09.49A32.27,32.27,0,0,1,60,16,28.08,28.08,0,0,1,61.66,20h0a28.74,28.74,0,0,1,.91,3.3A19.21,19.21,0,0,1,62.92,25.25Z" transform="translate(0.06 -0.02)"/><path class="cls-5" d="M48.79,10.56a26.68,26.68,0,0,1,2.53,2.24" transform="translate(0.06 -0.02)"/><path class="cls-5" d="M35.71,5.06a27.84,27.84,0,0,1,9.12,3" transform="translate(0.06 -0.02)"/><path class="cls-6" d="M37.2,15.72l-14,2.62a2.43,2.43,0,0,0-2,2.81v0l5.21,27.74a2.43,2.43,0,0,0,2.83,1.94h0l14-2.63a2.43,2.43,0,0,0,2-2.81v0L40.05,17.65a2.43,2.43,0,0,0-2.83-1.94h0Zm6.3,25.57L30,43.83a0.49,0.49,0,0,0,.18,1h0l13.47-2.53,0.63,3.33a1.47,1.47,0,0,1-1.17,1.72l-14,2.62a1.47,1.47,0,0,1-1.72-1.17l-0.63-3.33,1.44-.27a0.49,0.49,0,0,0-.18-1h0l-1.44.27-4-21.08,16.85-3.16,4,21.08h0Zm-4.14-22L22.51,22.42,22.24,21a1.47,1.47,0,0,1,1.17-1.72l14-2.62a1.47,1.47,0,0,1,1.72,1.17Z" transform="translate(0.06 -0.02)"/><path class="cls-6" d="M32.48,18.58l-1.91.36a0.49,0.49,0,0,0,.18,1h0l1.91-.36a0.49,0.49,0,0,0-.18-1h0Z" transform="translate(0.06 -0.02)"/><path class="cls-6" d="M35.43,44.78A1.47,1.47,0,1,0,37.14,46,1.47,1.47,0,0,0,35.43,44.78Zm0.36,1.91a0.49,0.49,0,1,1,.39-0.57,0.49,0.49,0,0,1-.39.57h0Z" transform="translate(0.06 -0.02)"/><circle class="cls-6" cx="28.76" cy="19.78" r="0.49" transform="translate(-3.09 5.63) rotate(-10.64)"/></svg>