<?xml version="1.0" encoding="utf-8"?>
<!-- Generator: Adobe Illustrator 19.2.1, SVG Export Plug-In . SVG Version: 6.00 Build 0)  -->
<svg version="1.1" id="Capa_1" xmlns="http://www.w3.org/2000/svg" xmlns:xlink="http://www.w3.org/1999/xlink" x="0px" y="0px"
	 viewBox="0 0 138.3 298.3" style="enable-background:new 0 0 138.3 298.3;" xml:space="preserve">
<style type="text/css">
	.st0{fill:#FFFFFF;}
	.st1{fill:#C6C6C5;}
	.st2{fill:#E30613;}
	.st3{fill:#E7E7E7;}
	.st4{opacity:0.5;}
	.st5{fill:#A9AAAA;}
	.st6{opacity:0.7;fill:url(#SVGID_1_);enable-background:new    ;}
	.st7{fill:#1D1D1B;}
	.st8{opacity:0.7;fill:url(#SVGID_2_);enable-background:new    ;}
</style>
<title>termometro-caliente2</title>
<g>
	<g id="Layer_1">
		<path class="st0" d="M69.2,297.8c-38-0.1-68.7-30.9-68.6-68.8c0-29.9,19.4-56.3,48-65.4V21.1c-0.3-11.4,8.7-20.8,20.1-21
			s20.8,8.8,21.1,20.2c0,0.3,0,0.6,0,0.9v142.5c36.2,11.4,56.2,50,44.8,86.2C125.5,278.3,99.1,297.7,69.2,297.8z"/>
		<path class="st1" d="M69.2,298.3C31,298.3,0.1,267.2,0.1,229c0-30,19.4-56.5,47.9-65.7V21.1C47.8,9.5,57-0.2,68.7-0.5
			s21.3,9,21.6,20.7c0,0.3,0,0.6,0,0.9v142.2c36.4,11.7,56.4,50.6,44.8,87C125.9,278.9,99.2,298.3,69.2,298.3z M69.2,1
			C58.1,1,49.1,10,49,21.1V164l-0.3,0.1c-35.9,11.3-55.9,49.6-44.6,85.5s49.6,55.9,85.5,44.6s55.9-49.6,44.6-85.5
			c-6.7-21.2-23.3-37.9-44.6-44.6l-0.3-0.1V21.1C89.3,10,80.3,1,69.2,1L69.2,1z"/>
		<path class="st2" d="M84.8,167.4V21.1c0.2-8.6-6.6-15.8-15.2-16s-15.8,6.6-16,15.2c0,0.3,0,0.5,0,0.8v146.3
			C19.5,176-1.1,210.7,7.5,244.7s43.3,54.7,77.3,46.1s54.7-43.3,46.1-77.3C125.2,190.9,107.5,173.2,84.8,167.4z"/>
		<path class="st3" d="M84.8,26.3v-5.1c0.2-8.6-6.6-15.8-15.2-16s-15.8,6.6-16,15.2c0,0.3,0,0.5,0,0.8v5.1
			C53.6,26.3,84.8,26.3,84.8,26.3z"/>
		<path class="st2" d="M84.8,167.4V27.3H53.5v140.2c-34.1,8.6-54.7,43.3-46.1,77.3s43.3,54.7,77.3,46.1s54.7-43.3,46.1-77.3
			C125.2,190.9,107.5,173.2,84.8,167.4z"/>
		<g class="st4">
			<path class="st5" d="M84.8,167.4V21.1c0.2-8.6-6.6-15.8-15.2-16s-15.8,6.6-16,15.2c0,0.3,0,0.5,0,0.8v146.3
				C19.5,176-1.1,210.7,7.5,244.7s43.3,54.7,77.3,46.1s54.7-43.3,46.1-77.3C125.2,190.9,107.5,173.2,84.8,167.4z M69.2,287.6
				c-31.9,0-57.8-25.9-57.8-57.9c0-27.5,19.4-51.2,46.4-56.7V25.2c0-6.3,5.1-11.4,11.4-11.4s11.4,5.1,11.4,11.4l0,0v147.9
				c31.3,6.3,51.6,36.8,45.3,68.1C120.4,268.2,96.7,287.6,69.2,287.6z"/>
		</g>
		
			<linearGradient id="SVGID_1_" gradientUnits="userSpaceOnUse" x1="67.63" y1="-220.65" x2="67.63" y2="-100.44" gradientTransform="matrix(1 0 0 1 -4.13 243.79)">
			<stop  offset="0" style="stop-color:#FFFFFF"/>
			<stop  offset="1" style="stop-color:#720613"/>
		</linearGradient>
		<path class="st6" d="M65.1,156.8c0,1.6-0.7,2.9-1.6,2.9l0,0c-0.9,0-1.6-1.3-1.6-2.9V24.9c0-1.6,0.7-2.9,1.6-2.9l0,0
			c0.9,0,1.6,1.3,1.6,2.9V156.8z"/>
		<path class="st7" d="M83.9,159.3h-7.3c-0.3-0.2-0.7-0.1-0.9,0.2c-0.2,0.3-0.1,0.7,0.2,0.9c0.2,0.1,0.5,0.1,0.7,0h7.3
			c0.3,0.2,0.7,0.1,0.9-0.2c0.2-0.3,0.1-0.7-0.2-0.9C84.4,159.1,84.1,159.1,83.9,159.3z"/>
		<path class="st7" d="M79.1,157.4h4.7c0.2,0.1,0.4,0.1,0.5-0.1c0.1-0.2,0.1-0.4-0.1-0.5c-0.1-0.1-0.3-0.1-0.4,0h-4.7
			c-0.2-0.1-0.4-0.1-0.5,0.1c-0.1,0.2-0.1,0.4,0.1,0.5C78.9,157.5,79,157.5,79.1,157.4z"/>
		<path class="st7" d="M79.1,154.8h4.7c0.2,0,0.5-0.1,0.6-0.3c-0.1-0.2-0.3-0.3-0.6-0.3h-4.7c-0.2,0-0.5,0.1-0.6,0.3
			C78.7,154.7,78.9,154.8,79.1,154.8z"/>
		<path class="st7" d="M79.1,152.1h4.7c0.2,0.1,0.4,0.1,0.5-0.1c0.1-0.2,0.1-0.4-0.1-0.5c-0.1-0.1-0.3-0.1-0.4,0h-4.7
			c-0.2-0.1-0.4-0.1-0.5,0.1c-0.1,0.2-0.1,0.4,0.1,0.5C78.8,152.2,79,152.2,79.1,152.1z"/>
		<path class="st7" d="M79.1,149.5h4.7c0.2,0.1,0.4,0.1,0.5-0.1c0.1-0.2,0.1-0.4-0.1-0.5c-0.1-0.1-0.3-0.1-0.4,0h-4.7
			c-0.2-0.1-0.4-0.1-0.5,0.1c-0.1,0.2-0.1,0.4,0.1,0.5C78.9,149.6,79,149.6,79.1,149.5z"/>
		<path class="st7" d="M83.9,146h-7.3c-0.3-0.2-0.7-0.1-0.9,0.2c-0.2,0.3-0.1,0.7,0.2,0.9c0.2,0.1,0.5,0.1,0.7,0h7.3
			c0.3,0.2,0.7,0.1,0.9-0.2c0.2-0.3,0.1-0.7-0.2-0.9C84.4,145.8,84.1,145.8,83.9,146z"/>
		<path class="st7" d="M79.1,144.2h4.7c0.2,0.1,0.4,0.1,0.5-0.1c0.1-0.2,0.1-0.4-0.1-0.5c-0.1-0.1-0.3-0.1-0.4,0h-4.7
			c-0.2-0.1-0.4-0.1-0.5,0.1c-0.1,0.2-0.1,0.4,0.1,0.5C78.9,144.2,79,144.2,79.1,144.2z"/>
		<path class="st7" d="M79.1,141.5h4.7c0.2,0.1,0.4,0.1,0.5-0.1c0.1-0.2,0.1-0.4-0.1-0.5c-0.1-0.1-0.3-0.1-0.4,0h-4.7
			c-0.2-0.1-0.4-0.1-0.5,0.1c-0.1,0.2-0.1,0.4,0.1,0.5C78.9,141.6,79,141.6,79.1,141.5z"/>
		<path class="st7" d="M79.1,138.8h4.7c0.2,0.1,0.4,0.1,0.5-0.1c0.1-0.2,0.1-0.4-0.1-0.5c-0.1-0.1-0.3-0.1-0.4,0h-4.7
			c-0.2-0.1-0.4-0.1-0.5,0.1c-0.1,0.2-0.1,0.4,0.1,0.5C78.9,138.9,79,138.9,79.1,138.8z"/>
		<path class="st7" d="M79.1,136.2h4.7c0.2,0.1,0.4,0.1,0.5-0.1c0.1-0.2,0.1-0.4-0.1-0.5c-0.1-0.1-0.3-0.1-0.4,0h-4.7
			c-0.2-0.1-0.4-0.1-0.5,0.1c-0.1,0.2-0.1,0.4,0.1,0.5C78.8,136.3,79,136.3,79.1,136.2z"/>
		<path class="st7" d="M83.9,132.7h-7.3c-0.3-0.2-0.7-0.1-0.9,0.2c-0.2,0.3-0.1,0.7,0.2,0.9c0.2,0.1,0.5,0.1,0.7,0h7.3
			c0.3,0.2,0.7,0.1,0.9-0.2s0.1-0.7-0.2-0.9C84.4,132.5,84.1,132.5,83.9,132.7z"/>
		<path class="st7" d="M79.1,130.9h4.7c0.2,0.1,0.4,0.1,0.5-0.1c0.1-0.2,0.1-0.4-0.1-0.5c-0.1-0.1-0.3-0.1-0.4,0h-4.7
			c-0.2-0.1-0.4-0.1-0.5,0.1c-0.1,0.2-0.1,0.4,0.1,0.5C78.9,130.9,79,130.9,79.1,130.9z"/>
		<path class="st7" d="M79.1,128.2h4.7c0.2,0.1,0.4,0.1,0.5-0.1c0.1-0.2,0.1-0.4-0.1-0.5c-0.1-0.1-0.3-0.1-0.4,0h-4.7
			c-0.2-0.1-0.4-0.1-0.5,0.1s-0.1,0.4,0.1,0.5C78.9,128.3,79,128.3,79.1,128.2z"/>
		<path class="st7" d="M79.1,125.5h4.7c0.2,0.1,0.4,0.1,0.5-0.1s0.1-0.4-0.1-0.5c-0.1-0.1-0.3-0.1-0.4,0h-4.7
			c-0.2-0.1-0.4-0.1-0.5,0.1s-0.1,0.4,0.1,0.5C78.8,125.6,79,125.6,79.1,125.5z"/>
		<path class="st7" d="M79.1,122.9h4.7c0.2,0.1,0.4,0.1,0.5-0.1s0.1-0.4-0.1-0.5c-0.1-0.1-0.3-0.1-0.4,0h-4.7
			c-0.2-0.1-0.4-0.1-0.5,0.1s-0.1,0.4,0.1,0.5C78.8,123,79,123,79.1,122.9z"/>
		<path class="st7" d="M83.9,119.4h-7.3c-0.3-0.2-0.7-0.1-0.9,0.2c-0.2,0.3-0.1,0.7,0.2,0.9c0.2,0.1,0.5,0.1,0.7,0h7.3
			c0.3,0.2,0.7,0.1,0.9-0.2c0.2-0.3,0.1-0.7-0.2-0.9C84.4,119.2,84.1,119.2,83.9,119.4z"/>
		<path class="st7" d="M79.1,117.6h4.7c0.2,0.1,0.4,0.1,0.5-0.1s0.1-0.4-0.1-0.5c-0.1-0.1-0.3-0.1-0.4,0h-4.7
			c-0.2-0.1-0.4-0.1-0.5,0.1s-0.1,0.4,0.1,0.5C78.9,117.6,79,117.6,79.1,117.6z"/>
		<path class="st7" d="M79.1,114.9h4.7c0.2,0.1,0.4,0.1,0.5-0.1s0.1-0.4-0.1-0.5c-0.1-0.1-0.3-0.1-0.4,0h-4.7
			c-0.2-0.1-0.4-0.1-0.5,0.1s-0.1,0.4,0.1,0.5C78.9,115,79,115,79.1,114.9z"/>
		<path class="st7" d="M79.1,112.2h4.7c0.2,0.1,0.4,0.1,0.5-0.1s0.1-0.4-0.1-0.5c-0.1-0.1-0.3-0.1-0.4,0h-4.7
			c-0.2-0.1-0.4-0.1-0.5,0.1s-0.1,0.4,0.1,0.5C78.9,112.3,79,112.3,79.1,112.2z"/>
		<path class="st7" d="M79.1,109.6h4.7c0.2,0.1,0.4,0.1,0.5-0.1s0.1-0.4-0.1-0.5c-0.1-0.1-0.3-0.1-0.4,0h-4.7
			c-0.2-0.1-0.4-0.1-0.5,0.1s-0.1,0.4,0.1,0.5C78.9,109.7,79,109.7,79.1,109.6z"/>
		<path class="st7" d="M83.9,106.1h-7.3c-0.3-0.2-0.7-0.1-0.9,0.2c-0.2,0.3-0.1,0.7,0.2,0.9c0.2,0.1,0.5,0.1,0.7,0h7.3
			c0.3,0.2,0.7,0.1,0.9-0.2c0.2-0.3,0.1-0.7-0.2-0.9C84.4,105.9,84.1,105.9,83.9,106.1z"/>
		<path class="st7" d="M79.1,104.3h4.7c0.2,0.1,0.4,0.1,0.5-0.1s0.1-0.4-0.1-0.5c-0.1-0.1-0.3-0.1-0.4,0h-4.7
			c-0.2-0.1-0.4-0.1-0.5,0.1s-0.1,0.4,0.1,0.5C78.9,104.3,79,104.3,79.1,104.3z"/>
		<path class="st7" d="M79.1,101.6h4.7c0.2,0.1,0.4,0.1,0.5-0.1s0.1-0.4-0.1-0.5c-0.1-0.1-0.3-0.1-0.4,0h-4.7
			c-0.2-0.1-0.4-0.1-0.5,0.1s-0.1,0.4,0.1,0.5C78.9,101.7,79,101.7,79.1,101.6z"/>
		<path class="st7" d="M79.1,98.9h4.7c0.2,0.1,0.4,0.1,0.5-0.1s0.1-0.4-0.1-0.5c-0.1-0.1-0.3-0.1-0.4,0h-4.7
			c-0.2-0.1-0.4-0.1-0.5,0.1s-0.1,0.4,0.1,0.5C78.8,99,79,99,79.1,98.9z"/>
		<path class="st7" d="M79.1,96.3h4.7c0.2,0.1,0.4,0.1,0.5-0.1s0.1-0.4-0.1-0.5c-0.1-0.1-0.3-0.1-0.4,0h-4.7
			c-0.2-0.1-0.4-0.1-0.5,0.1s-0.1,0.4,0.1,0.5C78.9,96.4,79,96.4,79.1,96.3z"/>
		<path class="st7" d="M83.9,92.8h-7.3c-0.3-0.2-0.7-0.1-0.9,0.2c-0.2,0.3-0.1,0.7,0.2,0.9c0.2,0.1,0.5,0.1,0.7,0h7.3
			c0.3,0.2,0.7,0.1,0.9-0.2c0.2-0.3,0.1-0.7-0.2-0.9C84.4,92.7,84.1,92.7,83.9,92.8z"/>
		<path class="st7" d="M79.1,91h4.7c0.2,0.1,0.4,0.1,0.5-0.1s0.1-0.4-0.1-0.5c-0.1-0.1-0.3-0.1-0.4,0h-4.7c-0.2-0.1-0.4-0.1-0.5,0.1
			s-0.1,0.4,0.1,0.5C78.9,91,79,91,79.1,91z"/>
		<path class="st7" d="M79.1,88.3h4.7c0.2,0.1,0.4,0.1,0.5-0.1s0.1-0.4-0.1-0.5c-0.1-0.1-0.3-0.1-0.4,0h-4.7
			c-0.2-0.1-0.4-0.1-0.5,0.1s-0.1,0.4,0.1,0.5C78.9,88.4,79,88.4,79.1,88.3z"/>
		<path class="st7" d="M79.1,85.6h4.7c0.2,0.1,0.4,0.1,0.5-0.1s0.1-0.4-0.1-0.5c-0.1-0.1-0.3-0.1-0.4,0h-4.7c-0.1,0-0.3,0-0.4,0.2
			c-0.1,0.2-0.1,0.4,0.1,0.5C78.9,85.7,79,85.7,79.1,85.6z"/>
		<path class="st7" d="M79.1,83h4.7c0.2,0.1,0.4,0.1,0.5-0.1s0.1-0.4-0.1-0.5c-0.1-0.1-0.3-0.1-0.4,0h-4.7c-0.2-0.1-0.4-0.1-0.5,0.1
			s-0.1,0.4,0.1,0.5C78.9,83.1,79,83.1,79.1,83z"/>
		<path class="st7" d="M83.9,79.5h-7.3c-0.3-0.2-0.7-0.1-0.9,0.2c-0.2,0.3-0.1,0.7,0.2,0.9c0.2,0.1,0.5,0.1,0.7,0h7.3
			c0.3,0.2,0.7,0.1,0.9-0.2c0.2-0.3,0.1-0.7-0.2-0.9C84.4,79.3,84.1,79.3,83.9,79.5z"/>
		<path class="st7" d="M83.9,77.1h-4.7C79,77,78.8,77,78.7,77.2c-0.1,0.2-0.1,0.4,0.1,0.5c0.1,0.1,0.3,0.1,0.4,0h4.7
			c0.2,0.1,0.4,0.1,0.5-0.1s0.1-0.4-0.1-0.5C84.2,77,84,77,83.9,77.1z"/>
		<path class="st7" d="M83.9,74.4h-4.7c-0.2-0.1-0.4-0.1-0.5,0.1s-0.1,0.4,0.1,0.5c0.1,0.1,0.3,0.1,0.4,0h4.7
			c0.2,0.1,0.4,0.1,0.5-0.1s0.1-0.4-0.1-0.5C84.2,74.4,84,74.4,83.9,74.4z"/>
		<path class="st7" d="M83.9,71.8h-4.7c-0.2-0.1-0.4-0.1-0.5,0.1s-0.1,0.4,0.1,0.5c0.1,0.1,0.3,0.1,0.4,0h4.7
			c0.2,0.1,0.4,0.1,0.5-0.1s0.1-0.4-0.1-0.5C84.2,71.7,84,71.7,83.9,71.8z"/>
		<path class="st7" d="M83.9,69.1h-4.7C79,69,78.8,69,78.7,69.2c-0.1,0.2-0.1,0.4,0.1,0.5c0.1,0.1,0.3,0.1,0.4,0h4.7
			c0.2,0.1,0.4,0.1,0.5-0.1s0.1-0.4-0.1-0.5C84.2,69,84,69,83.9,69.1z"/>
		<path class="st7" d="M79.1,64.4h4.7c0.2,0.1,0.4,0.1,0.5-0.1s0.1-0.4-0.1-0.5c-0.1-0.1-0.3-0.1-0.4,0h-4.7
			c-0.2-0.1-0.4-0.1-0.5,0.1s-0.1,0.4,0.1,0.5C78.9,64.5,79,64.5,79.1,64.4z"/>
		<path class="st7" d="M79.1,61.7h4.7c0.2,0.1,0.4,0.1,0.5-0.1c0.1-0.2,0.1-0.4-0.1-0.5c-0.1-0.1-0.3-0.1-0.4,0h-4.7
			c-0.2-0.1-0.4-0.1-0.5,0.1c-0.1,0.2-0.1,0.4,0.1,0.5C78.9,61.8,79,61.8,79.1,61.7z"/>
		<path class="st7" d="M79.1,59h4.7c0.2,0.1,0.4,0.1,0.5-0.1c0.1-0.2,0.1-0.4-0.1-0.5c-0.1-0.1-0.3-0.1-0.4,0h-4.7
			c-0.2-0.1-0.4-0.1-0.5,0.1c-0.1,0.2-0.1,0.4,0.1,0.5C78.8,59.1,79,59.1,79.1,59z"/>
		<path class="st7" d="M79.1,56.4h4.7c0.2,0.1,0.4,0,0.5-0.1s0-0.4-0.1-0.5s-0.2-0.1-0.4,0h-4.7c-0.2-0.1-0.4,0-0.5,0.1
			s0,0.4,0.1,0.5C78.9,56.5,79,56.5,79.1,56.4z"/>
		<path class="st7" d="M83.9,52.9h-7.3c-0.4-0.1-0.8,0.2-1,0.5c0.2,0.4,0.6,0.6,1,0.6h7.3c0.4,0.1,0.8-0.2,1-0.6
			C84.7,53.1,84.3,52.8,83.9,52.9z"/>
		<path class="st7" d="M83.9,66.2h-7.3c-0.3-0.2-0.7-0.1-0.9,0.2c-0.2,0.3-0.1,0.7,0.2,0.9c0.2,0.1,0.5,0.1,0.7,0h7.3
			c0.3,0.2,0.7,0.1,0.9-0.2c0.2-0.3,0.1-0.7-0.2-0.9C84.4,66,84.1,66,83.9,66.2z"/>
		<path class="st7" d="M79.1,51.1h4.7c0.2,0.1,0.5-0.1,0.6-0.3c-0.1-0.2-0.3-0.3-0.6-0.3h-4.7c-0.2,0-0.5,0.1-0.6,0.3
			C78.7,51,78.9,51.1,79.1,51.1z"/>
		<path class="st7" d="M79.1,48.4h4.7c0.2,0.1,0.4,0.1,0.5-0.1c0.1-0.2,0.1-0.4-0.1-0.5c-0.1-0.1-0.3-0.1-0.4,0h-4.7
			c-0.2-0.1-0.4-0.1-0.5,0.1c-0.1,0.2-0.1,0.4,0.1,0.5C78.9,48.5,79,48.5,79.1,48.4z"/>
		<path class="st7" d="M79.1,45.8h4.7c0.2,0.1,0.4,0.1,0.5-0.1c0.1-0.2,0.1-0.4-0.1-0.5c-0.1-0.1-0.3-0.1-0.4,0h-4.7
			c-0.2-0.1-0.4-0.1-0.5,0.1c-0.1,0.2-0.1,0.4,0.1,0.5C78.9,45.9,79,45.9,79.1,45.8z"/>
		<path class="st7" d="M79.1,43.1h4.7c0.2,0.1,0.4,0.1,0.5-0.1c0.1-0.2,0.1-0.4-0.1-0.5c-0.1-0.1-0.3-0.1-0.4,0h-4.7
			c-0.2-0.1-0.4-0.1-0.5,0.1c-0.1,0.2-0.1,0.4,0.1,0.5C78.9,43.2,79,43.2,79.1,43.1z"/>
		<path class="st7" d="M79.1,35.1h4.7c0.2,0,0.5-0.1,0.6-0.3c-0.1-0.2-0.3-0.3-0.6-0.2h-4.7c-0.2,0-0.5,0.1-0.6,0.3
			C78.7,35.1,78.9,35.2,79.1,35.1z"/>
		<path class="st7" d="M79.1,29.8h4.7c0.2,0,0.5-0.1,0.6-0.3c-0.1-0.2-0.3-0.3-0.6-0.3h-4.7c-0.2,0-0.5,0.1-0.6,0.3
			C78.7,29.7,78.9,29.8,79.1,29.8z"/>
		<path class="st7" d="M83.9,39.6h-7.3c-0.4-0.1-0.8,0.2-1,0.5c0.2,0.4,0.6,0.6,1,0.5h7.3c0.4,0.1,0.8-0.2,1-0.5
			C84.7,39.8,84.3,39.5,83.9,39.6z"/>
		<path class="st7" d="M83.9,26.3h-7.3c-0.4-0.1-0.8,0.2-1,0.5c0.2,0.4,0.6,0.6,1,0.5h7.3c0.4,0.1,0.8-0.2,1-0.5
			C84.7,26.5,84.3,26.2,83.9,26.3z"/>
		<path class="st7" d="M79.1,37.8h4.7c0.2,0.1,0.4,0.1,0.5-0.1c0.1-0.2,0.1-0.4-0.1-0.5c-0.1-0.1-0.3-0.1-0.4,0h-4.7
			c-0.2-0.1-0.4-0.1-0.5,0.1c-0.1,0.2-0.1,0.4,0.1,0.5C78.8,37.9,79,37.9,79.1,37.8z"/>
		<path class="st7" d="M79.1,32.5h4.7c0.2,0,0.5-0.1,0.6-0.3c-0.1-0.2-0.3-0.3-0.6-0.3h-4.7c-0.2,0-0.5,0.1-0.6,0.3
			C78.7,32.4,78.9,32.5,79.1,32.5z"/>
		
			<linearGradient id="SVGID_2_" gradientUnits="userSpaceOnUse" x1="18.6518" y1="-5.1806" x2="50.3889" y2="-5.1806" gradientTransform="matrix(1 0 0 1 -4.13 243.79)">
			<stop  offset="0" style="stop-color:#FFFFFF"/>
			<stop  offset="1" style="stop-color:#720613"/>
		</linearGradient>
		<path class="st8" d="M37,270.4c-5-4.8-9.2-10.3-12.4-16.4c-0.7-1.2-1.2-2.5-1.7-3.9c-7.9-15.6-6.6-34.9,1.2-50.2
			c0.1-0.3-0.2-0.4-0.4-0.1c-4.9,8.2-8.5,15.9-9.1,25.6c-0.5,9.5,1.4,19,5.6,27.6c5.5,11,14.7,19.8,26,24.6
			C42.9,275.6,39.8,273.1,37,270.4z"/>
		<path class="st0" d="M90.8,218.2c-5.7-12-20-17.1-32-11.5c-0.3,0.1-0.6,0.3-0.9,0.5c-12.2,6.5-17.1,21.4-11.2,33.9
			c5.7,12,20,17.1,32,11.5c0.3-0.1,0.6-0.3,0.9-0.5C91.8,245.6,96.7,230.6,90.8,218.2z"/>
		<path class="st0" d="M71,195.9c0,0.9-0.7,1.6-1.6,1.6l0,0c-0.9,0-1.7-0.7-1.7-1.6v-9.5c0-0.9,0.7-1.6,1.7-1.6l0,0
			c0.9,0,1.6,0.7,1.6,1.6l0,0V195.9z"/>
		<path class="st0" d="M71,271.7c0,0.9-0.7,1.6-1.6,1.6l0,0l0,0c-0.9,0-1.7-0.7-1.7-1.6v-9.5c0-0.9,0.7-1.6,1.7-1.6l0,0
			c0.9,0,1.6,0.7,1.6,1.6V271.7z"/>
		<path class="st0" d="M86.4,200.4c-0.4,0.8-1.4,1.1-2.2,0.7l0,0l0,0c-0.8-0.4-1.1-1.4-0.7-2.2l4.4-8.4c0.4-0.8,1.4-1.1,2.2-0.7l0,0
			l0,0c0.8,0.4,1.1,1.4,0.7,2.2L86.4,200.4z"/>
		<path class="st0" d="M50.9,267.5c-0.4,0.8-1.4,1.1-2.2,0.7l0,0c-0.8-0.4-1.1-1.4-0.7-2.2l0,0l4.4-8.4c0.4-0.8,1.4-1.1,2.2-0.7l0,0
			c0.8,0.4,1.1,1.4,0.7,2.2l0,0L50.9,267.5z"/>
		<path class="st0" d="M96,209.1c-0.7,0.6-1.7,0.5-2.3-0.2l0,0l0,0c-0.6-0.7-0.5-1.7,0.2-2.3l7.3-6c0.7-0.6,1.7-0.5,2.3,0.2l0,0
			c0.6,0.7,0.5,1.7-0.2,2.3L96,209.1z"/>
		<path class="st0" d="M37.5,257.4c-0.7,0.6-1.7,0.5-2.3-0.2l0,0l0,0c-0.6-0.7-0.5-1.7,0.2-2.3l7.3-6c0.7-0.6,1.7-0.5,2.3,0.2l0,0
			c0.6,0.7,0.5,1.7-0.2,2.3l0,0L37.5,257.4z"/>
		<path class="st0" d="M102.3,224.7c-0.9,0.2-1.7-0.4-1.9-1.3l0,0l0,0c-0.2-0.9,0.4-1.7,1.3-1.9l9.3-1.7c0.9-0.2,1.7,0.4,1.9,1.3
			l0,0l0,0c0.2,0.9-0.4,1.7-1.3,1.9l0,0L102.3,224.7z"/>
		<path class="st0" d="M27.7,238.2c-0.9,0.2-1.7-0.4-1.9-1.3l0,0l0,0c-0.2-0.9,0.4-1.7,1.3-1.9l0,0l9.3-1.7c0.9-0.2,1.7,0.4,1.9,1.3
			l0,0c0.2,0.9-0.4,1.7-1.3,1.9l0,0L27.7,238.2z"/>
		<path class="st0" d="M100.3,241.3c-0.9-0.3-1.3-1.2-1-2.1l0,0c0.3-0.9,1.2-1.3,2.1-1l8.9,3.1c0.9,0.3,1.3,1.2,1,2.1l0,0
			c-0.3,0.9-1.2,1.3-2.1,1L100.3,241.3z"/>
		<path class="st0" d="M28.5,216.7c-0.9-0.3-1.3-1.2-1-2.1l0,0c0.3-0.9,1.2-1.3,2.1-1l9,3.1c0.8,0.3,1.3,1.2,1,2.1l0,0
			c-0.3,0.9-1.2,1.3-2.1,1L28.5,216.7z"/>
		<path class="st0" d="M87.4,256.9c-0.5-0.7-0.4-1.8,0.4-2.3l0,0l0,0c0.7-0.5,1.8-0.4,2.3,0.4l0,0l5.5,7.7c0.5,0.7,0.4,1.8-0.4,2.3
			l0,0l0,0c-0.7,0.5-1.8,0.4-2.3-0.4l0,0L87.4,256.9z"/>
		<path class="st0" d="M43.1,195.3c-0.5-0.7-0.4-1.8,0.4-2.3l0,0c0.7-0.5,1.8-0.4,2.3,0.4l0,0l5.5,7.7c0.5,0.7,0.4,1.8-0.4,2.3l0,0
			c-0.7,0.5-1.8,0.4-2.3-0.4l0,0L43.1,195.3z"/>
	</g>
</g>
<path class="st2" d="M22.9,51.6c-1.8-3.9-6.4-5.5-10.3-3.7c-0.1,0-0.2,0.1-0.3,0.1c-3.9,2.1-5.5,7-3.6,11c1.8,3.9,6.4,5.5,10.3,3.7
	c0.1,0,0.2-0.1,0.3-0.1C23.3,60.4,24.9,55.6,22.9,51.6z"/>
<path class="st2" d="M16.6,44.4c0,0.3-0.2,0.5-0.5,0.5l0,0c-0.3,0-0.5-0.2-0.5-0.5v-3c0-0.3,0.2-0.5,0.5-0.5l0,0
	c0.3,0,0.5,0.2,0.5,0.5l0,0V44.4z"/>
<path class="st2" d="M16.6,68.9c0,0.3-0.2,0.5-0.5,0.5l0,0l0,0c-0.3,0-0.5-0.2-0.5-0.5v-3c0-0.3,0.2-0.5,0.5-0.5l0,0
	c0.3,0,0.5,0.2,0.5,0.5V68.9z"/>
<path class="st2" d="M21.5,45.9c-0.1,0.3-0.5,0.4-0.7,0.2l0,0l0,0c-0.3-0.1-0.4-0.5-0.2-0.7l1.4-2.7c0.1-0.3,0.5-0.4,0.7-0.2l0,0
	l0,0c0.3,0.1,0.4,0.5,0.2,0.7L21.5,45.9z"/>
<path class="st2" d="M10.1,67.5c-0.1,0.3-0.5,0.4-0.7,0.2l0,0C9.1,67.6,9,67.2,9.1,67l0,0l1.4-2.7c0.1-0.3,0.5-0.4,0.7-0.2l0,0
	c0.3,0.1,0.4,0.5,0.2,0.7l0,0L10.1,67.5z"/>
<path class="st2" d="M24.6,48.7c-0.2,0.2-0.6,0.2-0.7-0.1l0,0l0,0c-0.2-0.2-0.2-0.6,0.1-0.7l2.3-1.9c0.2-0.2,0.6-0.2,0.7,0.1l0,0
	c0.2,0.2,0.2,0.6-0.1,0.7L24.6,48.7z"/>
<path class="st2" d="M5.8,64.2c-0.2,0.2-0.6,0.2-0.7-0.1l0,0l0,0c-0.2-0.2-0.2-0.6,0.1-0.7l2.3-1.9c0.2-0.2,0.6-0.2,0.7,0.1l0,0
	c0.2,0.2,0.2,0.6-0.1,0.7l0,0L5.8,64.2z"/>
<path class="st2" d="M26.7,53.7c-0.3,0.1-0.6-0.1-0.6-0.4l0,0l0,0c-0.1-0.3,0.1-0.6,0.4-0.6l3-0.6c0.3-0.1,0.6,0.1,0.6,0.4l0,0l0,0
	c0.1,0.3-0.1,0.6-0.4,0.6l0,0L26.7,53.7z"/>
<path class="st2" d="M2.6,58C2.3,58.1,2,57.9,2,57.6l0,0l0,0c0-0.3,0.1-0.5,0.4-0.6l0,0l3-0.5C5.7,56.4,6,56.6,6,56.9l0,0
	c0.1,0.3-0.1,0.6-0.4,0.6l0,0L2.6,58z"/>
<path class="st2" d="M26,59.1c-0.3-0.1-0.4-0.4-0.3-0.7l0,0c0.1-0.3,0.4-0.4,0.7-0.3l2.9,1c0.3,0.1,0.4,0.4,0.3,0.7l0,0
	c-0.1,0.3-0.4,0.4-0.7,0.3L26,59.1z"/>
<path class="st2" d="M2.9,51.1c-0.3-0.1-0.4-0.4-0.3-0.7l0,0C2.7,50.2,3,50,3.2,50.1l2.9,1c0.3,0.1,0.4,0.4,0.3,0.7l0,0
	c-0.1,0.3-0.4,0.4-0.7,0.3L2.9,51.1z"/>
<path class="st2" d="M21.9,64.1c-0.2-0.2-0.1-0.6,0.1-0.7l0,0l0,0c0.2-0.2,0.6-0.1,0.7,0.1l0,0l1.8,2.5c0.2,0.2,0.1,0.6-0.1,0.7l0,0
	l0,0c-0.2,0.2-0.6,0.1-0.7-0.1l0,0L21.9,64.1z"/>
<path class="st2" d="M7.6,44.2c-0.2-0.2-0.1-0.6,0.1-0.7l0,0c0.2-0.2,0.6-0.1,0.7,0.1l0,0l1.8,2.5c0.2,0.2,0.1,0.6-0.1,0.7l0,0
	C9.9,47,9.5,47,9.4,46.7l0,0L7.6,44.2z"/>
<path class="st2" d="M126.5,110.8c-2.4-5.1-8.5-7.3-13.7-4.9c-0.1,0.1-0.3,0.1-0.4,0.2c-5.2,2.8-7.3,9.1-4.8,14.5
	c2.4,5.1,8.5,7.3,13.7,4.9c0.1-0.1,0.3-0.1,0.4-0.2C127,122.5,129.1,116.1,126.5,110.8z"/>
<path class="st2" d="M118.1,101.3c0,0.4-0.3,0.7-0.7,0.7l0,0c-0.4,0-0.7-0.3-0.7-0.7v-4c0-0.4,0.3-0.7,0.7-0.7l0,0
	c0.4,0,0.7,0.3,0.7,0.7l0,0V101.3z"/>
<path class="st2" d="M118.1,133.7c0,0.4-0.3,0.7-0.7,0.7l0,0l0,0c-0.4,0-0.7-0.3-0.7-0.7v-4c0-0.4,0.3-0.7,0.7-0.7l0,0
	c0.4,0,0.7,0.3,0.7,0.7V133.7z"/>
<path class="st2" d="M124.7,103.2c-0.2,0.3-0.6,0.5-0.9,0.3l0,0l0,0c-0.3-0.2-0.5-0.6-0.3-0.9l1.9-3.6c0.2-0.3,0.6-0.5,0.9-0.3l0,0
	l0,0c0.3,0.2,0.5,0.6,0.3,0.9L124.7,103.2z"/>
<path class="st2" d="M109.5,131.9c-0.2,0.3-0.6,0.5-0.9,0.3l0,0c-0.3-0.2-0.5-0.6-0.3-0.9l0,0l1.9-3.6c0.2-0.3,0.6-0.5,0.9-0.3l0,0
	c0.3,0.2,0.5,0.6,0.3,0.9l0,0L109.5,131.9z"/>
<path class="st2" d="M128.8,106.9c-0.3,0.2-0.7,0.2-1-0.1l0,0l0,0c-0.2-0.3-0.2-0.7,0.1-1l3.1-2.6c0.3-0.2,0.7-0.2,1,0.1l0,0
	c0.2,0.3,0.2,0.7-0.1,1L128.8,106.9z"/>
<path class="st2" d="M103.8,127.6c-0.3,0.2-0.7,0.2-1-0.1l0,0l0,0c-0.2-0.3-0.2-0.7,0.1-1l3.1-2.6c0.3-0.2,0.7-0.2,1,0.1l0,0
	c0.2,0.3,0.2,0.7-0.1,1l0,0L103.8,127.6z"/>
<path class="st2" d="M131.5,113.6c-0.4,0.1-0.7-0.2-0.8-0.6l0,0l0,0c-0.1-0.4,0.2-0.7,0.6-0.8l4-0.7c0.4-0.1,0.7,0.2,0.8,0.6l0,0
	l0,0c0.1,0.4-0.2,0.7-0.6,0.8l0,0L131.5,113.6z"/>
<path class="st2" d="M99.6,119.3c-0.4,0.1-0.7-0.2-0.8-0.6l0,0l0,0c-0.1-0.4,0.2-0.7,0.6-0.8l0,0l4-0.7c0.4-0.1,0.7,0.2,0.8,0.6l0,0
	c0.1,0.4-0.2,0.7-0.6,0.8l0,0L99.6,119.3z"/>
<path class="st2" d="M130.6,120.7c-0.4-0.1-0.6-0.5-0.4-0.9l0,0c0.1-0.4,0.5-0.6,0.9-0.4l3.8,1.3c0.4,0.1,0.6,0.5,0.4,0.9l0,0
	c-0.1,0.4-0.5,0.6-0.9,0.4L130.6,120.7z"/>
<path class="st2" d="M99.9,110.2c-0.4-0.1-0.6-0.5-0.4-0.9l0,0c0.1-0.4,0.5-0.6,0.9-0.4l3.8,1.3c0.4,0.1,0.6,0.5,0.4,0.9l0,0
	c-0.1,0.4-0.5,0.6-0.9,0.4L99.9,110.2z"/>
<path class="st2" d="M125.1,127.3c-0.2-0.3-0.2-0.8,0.2-1l0,0l0,0c0.3-0.2,0.8-0.2,1,0.2l0,0l2.4,3.3c0.2,0.3,0.2,0.8-0.2,1l0,0l0,0
	c-0.3,0.2-0.8,0.2-1-0.2l0,0L125.1,127.3z"/>
<path class="st2" d="M106.2,101c-0.2-0.3-0.2-0.8,0.2-1l0,0c0.3-0.2,0.8-0.2,1,0.2l0,0l2.4,3.3c0.2,0.3,0.2,0.8-0.2,1l0,0
	c-0.3,0.2-0.8,0.2-1-0.2l0,0L106.2,101z"/>
<path class="st2" d="M113.4,57.9c-0.7-1.4-2.4-2-3.8-1.4c0,0-0.1,0-0.1,0.1c-1.4,0.8-2,2.5-1.3,4c0.7,1.4,2.4,2,3.8,1.4
	c0,0,0.1,0,0.1-0.1C113.5,61.1,114.1,59.3,113.4,57.9z"/>
<path class="st2" d="M111.1,55.2c0,0.1-0.1,0.2-0.2,0.2l0,0c-0.1,0-0.2-0.1-0.2-0.2v-1.1c0-0.1,0.1-0.2,0.2-0.2l0,0
	c0.1,0,0.2,0.1,0.2,0.2l0,0V55.2z"/>
<path class="st2" d="M111.1,64.2c0,0.1-0.1,0.2-0.2,0.2l0,0l0,0c-0.1,0-0.2-0.1-0.2-0.2v-1.1c0-0.1,0.1-0.2,0.2-0.2l0,0
	c0.1,0,0.2,0.1,0.2,0.2V64.2z"/>
<path class="st2" d="M112.9,55.8c-0.1,0.1-0.2,0.1-0.3,0.1l0,0l0,0c-0.1-0.1-0.1-0.2-0.1-0.3l0.5-1c0-0.1,0.2-0.1,0.3-0.1l0,0l0,0
	c0.1,0.1,0.1,0.2,0.1,0.3L112.9,55.8z"/>
<path class="st2" d="M108.7,63.7c-0.1,0.1-0.2,0.1-0.3,0.1l0,0c-0.1-0.1-0.1-0.2-0.1-0.3l0,0l0.5-1c0.1-0.1,0.2-0.1,0.3-0.1l0,0
	c0.1,0.1,0.1,0.2,0.1,0.3l0,0L108.7,63.7z"/>
<path class="st2" d="M114,56.8c-0.1,0.1-0.2,0.1-0.3,0l0,0l0,0c-0.1-0.1-0.1-0.2,0-0.3l0.9-0.7c0.1-0.1,0.2-0.1,0.3,0l0,0
	c0.1,0.1,0.1,0.2,0,0.3L114,56.8z"/>
<path class="st2" d="M107.1,62.5c-0.1,0.1-0.2,0.1-0.3,0l0,0l0,0c-0.1-0.1-0.1-0.2,0-0.3l0.9-0.7c0.1-0.1,0.2-0.1,0.3,0l0,0
	c0.1,0.1,0.1,0.2,0,0.3l0,0L107.1,62.5z"/>
<path class="st2" d="M114.8,58.6c-0.1,0-0.2-0.1-0.2-0.2l0,0l0,0c0-0.1,0.1-0.2,0.2-0.2l1.1-0.2c0.1,0,0.2,0.1,0.2,0.2l0,0l0,0
	c0,0.1-0.1,0.2-0.2,0.2l0,0L114.8,58.6z"/>
<path class="st2" d="M106,60.2c-0.1,0-0.2-0.1-0.2-0.2l0,0l0,0c0-0.1,0.1-0.2,0.2-0.2l0,0l1.1-0.2c0.1,0,0.2,0.1,0.2,0.2l0,0
	c0,0.1-0.1,0.2-0.2,0.2l0,0L106,60.2z"/>
<path class="st2" d="M114.5,60.6c-0.1,0-0.2-0.1-0.1-0.2l0,0c0-0.1,0.1-0.2,0.2-0.1l1.1,0.4c0.1,0,0.2,0.1,0.1,0.2l0,0
	c0,0.1-0.1,0.2-0.2,0.1L114.5,60.6z"/>
<path class="st2" d="M106.1,57.7c-0.1,0-0.2-0.1-0.1-0.2l0,0c0-0.1,0.1-0.2,0.2-0.1l1.1,0.4c0.1,0,0.2,0.1,0.1,0.2l0,0
	c0,0.1-0.1,0.2-0.2,0.1L106.1,57.7z"/>
<path class="st2" d="M113,62.4c-0.1-0.1,0-0.2,0-0.3l0,0l0,0c0.1-0.1,0.2,0,0.3,0l0,0L114,63c0.1,0.1,0,0.2,0,0.3l0,0l0,0
	c-0.1,0.1-0.2,0-0.3,0l0,0L113,62.4z"/>
<path class="st2" d="M107.8,55.2c-0.1-0.1,0-0.2,0-0.3l0,0c0.1-0.1,0.2,0,0.3,0l0,0l0.7,0.9c0.1,0.1,0,0.2,0,0.3l0,0
	c-0.1,0.1-0.2,0-0.3,0l0,0L107.8,55.2z"/>
<path class="st2" d="M107.5,151.1c-1.4-2.9-4.8-4.1-7.7-2.8c-0.1,0-0.1,0.1-0.2,0.1c-2.9,1.6-4.1,5.2-2.7,8.2
	c1.4,2.9,4.8,4.1,7.7,2.8c0.1,0,0.1-0.1,0.2-0.1C107.7,157.7,108.9,154.1,107.5,151.1z"/>
<path class="st2" d="M102.7,145.7c0,0.2-0.2,0.4-0.4,0.4l0,0c-0.2,0-0.4-0.2-0.4-0.4v-2.3c0-0.2,0.2-0.4,0.4-0.4l0,0
	c0.2,0,0.4,0.2,0.4,0.4l0,0V145.7z"/>
<path class="st2" d="M102.7,164c0,0.2-0.2,0.4-0.4,0.4l0,0l0,0c-0.2,0-0.4-0.2-0.4-0.4v-2.3c0-0.2,0.2-0.4,0.4-0.4l0,0
	c0.2,0,0.4,0.2,0.4,0.4V164z"/>
<path class="st2" d="M106.4,146.8c-0.1,0.2-0.3,0.3-0.5,0.2l0,0l0,0c-0.2-0.1-0.3-0.3-0.2-0.5l1.1-2c0.1-0.2,0.3-0.3,0.5-0.2l0,0
	l0,0c0.2,0.1,0.3,0.3,0.2,0.5L106.4,146.8z"/>
<path class="st2" d="M97.8,163c-0.1,0.2-0.3,0.3-0.5,0.2l0,0c-0.2-0.1-0.3-0.3-0.2-0.5l0,0l1.1-2c0.1-0.2,0.3-0.3,0.5-0.2l0,0
	c0.2,0.1,0.3,0.3,0.2,0.5l0,0L97.8,163z"/>
<path class="st2" d="M108.7,148.9c-0.2,0.1-0.4,0.1-0.6-0.1l0,0l0,0c-0.1-0.2-0.1-0.4,0.1-0.6l1.8-1.4c0.2-0.1,0.4-0.1,0.6,0.1l0,0
	c0.1,0.2,0.1,0.4-0.1,0.6L108.7,148.9z"/>
<path class="st2" d="M94.6,160.5c-0.2,0.1-0.4,0.1-0.6-0.1l0,0l0,0c-0.1-0.2-0.1-0.4,0.1-0.6l1.8-1.4c0.2-0.1,0.4-0.1,0.6,0.1l0,0
	c0.1,0.2,0.1,0.4-0.1,0.6l0,0L94.6,160.5z"/>
<path class="st2" d="M110.2,152.7c-0.2,0-0.4-0.1-0.5-0.3l0,0l0,0c0-0.2,0.1-0.4,0.3-0.5l2.2-0.4c0.2,0,0.4,0.1,0.5,0.3l0,0l0,0
	c0,0.2-0.1,0.4-0.3,0.5l0,0L110.2,152.7z"/>
<path class="st2" d="M92.2,155.9c-0.2,0-0.4-0.1-0.5-0.3l0,0l0,0c0-0.2,0.1-0.4,0.3-0.5l0,0l2.2-0.4c0.2,0,0.4,0.1,0.5,0.3l0,0
	c0,0.2-0.1,0.4-0.3,0.5l0,0L92.2,155.9z"/>
<path class="st2" d="M109.7,156.6c-0.2-0.1-0.3-0.3-0.2-0.5l0,0c0.1-0.2,0.3-0.3,0.5-0.2l2.2,0.7c0.2,0.1,0.3,0.3,0.2,0.5l0,0
	c-0.1,0.2-0.3,0.3-0.5,0.2L109.7,156.6z"/>
<path class="st2" d="M92.4,150.7c-0.2-0.1-0.3-0.3-0.2-0.5l0,0c0.1-0.2,0.3-0.3,0.5-0.2l2.2,0.7c0.2,0.1,0.3,0.3,0.2,0.5l0,0
	c-0.1,0.2-0.3,0.3-0.5,0.2L92.4,150.7z"/>
<path class="st2" d="M106.7,160.4c-0.1-0.2-0.1-0.4,0.1-0.6l0,0l0,0c0.2-0.1,0.4-0.1,0.6,0.1l0,0l1.3,1.9c0.1,0.2,0.1,0.4-0.1,0.6
	l0,0l0,0c-0.2,0.1-0.4,0.1-0.6-0.1l0,0L106.7,160.4z"/>
<path class="st2" d="M96,145.6c-0.1-0.2-0.1-0.4,0.1-0.6l0,0c0.2-0.1,0.4-0.1,0.6,0.1l0,0L98,147c0.1,0.2,0.1,0.4-0.1,0.6l0,0
	c-0.2,0.1-0.4,0.1-0.6-0.1l0,0L96,145.6z"/>
<path class="st2" d="M38.4,146.9c-0.7-1.4-2.4-2-3.8-1.4c0,0-0.1,0-0.1,0.1c-1.4,0.8-2,2.5-1.3,4c0.7,1.4,2.4,2,3.8,1.4
	c0,0,0.1,0,0.1-0.1C38.5,150.1,39.1,148.3,38.4,146.9z"/>
<path class="st2" d="M36.1,144.2c0,0.1-0.1,0.2-0.2,0.2l0,0c-0.1,0-0.2-0.1-0.2-0.2v-1.1c0-0.1,0.1-0.2,0.2-0.2l0,0
	c0.1,0,0.2,0.1,0.2,0.2l0,0V144.2z"/>
<path class="st2" d="M36.1,153.2c0,0.1-0.1,0.2-0.2,0.2l0,0l0,0c-0.1,0-0.2-0.1-0.2-0.2v-1.1c0-0.1,0.1-0.2,0.2-0.2l0,0
	c0.1,0,0.2,0.1,0.2,0.2V153.2z"/>
<path class="st2" d="M37.9,144.8c-0.1,0.1-0.2,0.1-0.3,0.1l0,0l0,0c-0.1-0.1-0.1-0.2-0.1-0.3l0.5-1c0-0.1,0.2-0.1,0.3-0.1l0,0l0,0
	c0.1,0.1,0.1,0.2,0.1,0.3L37.9,144.8z"/>
<path class="st2" d="M33.7,152.7c-0.1,0.1-0.2,0.1-0.3,0.1l0,0c-0.1-0.1-0.1-0.2-0.1-0.3l0,0l0.5-1c0.1-0.1,0.2-0.1,0.3-0.1l0,0
	c0.1,0.1,0.1,0.2,0.1,0.3l0,0L33.7,152.7z"/>
<path class="st2" d="M39,145.8c-0.1,0.1-0.2,0.1-0.3,0l0,0l0,0c-0.1-0.1-0.1-0.2,0-0.3l0.9-0.7c0.1-0.1,0.2-0.1,0.3,0l0,0
	c0.1,0.1,0.1,0.2,0,0.3L39,145.8z"/>
<path class="st2" d="M32.1,151.5c-0.1,0.1-0.2,0.1-0.3,0l0,0l0,0c-0.1-0.1-0.1-0.2,0-0.3l0.9-0.7c0.1-0.1,0.2-0.1,0.3,0l0,0
	c0.1,0.1,0.1,0.2,0,0.3l0,0L32.1,151.5z"/>
<path class="st2" d="M39.8,147.6c-0.1,0-0.2-0.1-0.2-0.2l0,0l0,0c0-0.1,0.1-0.2,0.2-0.2l1.1-0.2c0.1,0,0.2,0.1,0.2,0.2l0,0l0,0
	c0,0.1-0.1,0.2-0.2,0.2l0,0L39.8,147.6z"/>
<path class="st2" d="M31,149.2c-0.1,0-0.2-0.1-0.2-0.2l0,0l0,0c0-0.1,0.1-0.2,0.2-0.2l0,0l1.1-0.2c0.1,0,0.2,0.1,0.2,0.2l0,0
	c0,0.1-0.1,0.2-0.2,0.2l0,0L31,149.2z"/>
<path class="st2" d="M39.5,149.6c-0.1,0-0.2-0.1-0.1-0.2l0,0c0-0.1,0.1-0.2,0.2-0.1l1.1,0.4c0.1,0,0.2,0.1,0.1,0.2l0,0
	c0,0.1-0.1,0.2-0.2,0.1L39.5,149.6z"/>
<path class="st2" d="M31.1,146.7c-0.1,0-0.2-0.1-0.1-0.2l0,0c0-0.1,0.1-0.2,0.2-0.1l1.1,0.4c0.1,0,0.2,0.1,0.1,0.2l0,0
	c0,0.1-0.1,0.2-0.2,0.1L31.1,146.7z"/>
<path class="st2" d="M38,151.4c-0.1-0.1,0-0.2,0-0.3l0,0l0,0c0.1-0.1,0.2,0,0.3,0l0,0L39,152c0.1,0.1,0,0.2,0,0.3l0,0l0,0
	c-0.1,0.1-0.2,0-0.3,0l0,0L38,151.4z"/>
<path class="st2" d="M32.8,144.2c-0.1-0.1,0-0.2,0-0.3l0,0c0.1-0.1,0.2,0,0.3,0l0,0l0.7,0.9c0.1,0.1,0,0.2,0,0.3l0,0
	c-0.1,0.1-0.2,0-0.3,0l0,0L32.8,144.2z"/>
<path class="st2" d="M18.4,126.9c-0.7-1.4-2.4-2-3.8-1.4c0,0-0.1,0-0.1,0.1c-1.4,0.8-2,2.5-1.3,4c0.7,1.4,2.4,2,3.8,1.4
	c0,0,0.1,0,0.1-0.1C18.5,130.1,19.1,128.3,18.4,126.9z"/>
<path class="st2" d="M16.1,124.2c0,0.1-0.1,0.2-0.2,0.2l0,0c-0.1,0-0.2-0.1-0.2-0.2v-1.1c0-0.1,0.1-0.2,0.2-0.2l0,0
	c0.1,0,0.2,0.1,0.2,0.2l0,0V124.2z"/>
<path class="st2" d="M16.1,133.2c0,0.1-0.1,0.2-0.2,0.2l0,0l0,0c-0.1,0-0.2-0.1-0.2-0.2v-1.1c0-0.1,0.1-0.2,0.2-0.2l0,0
	c0.1,0,0.2,0.1,0.2,0.2V133.2z"/>
<path class="st2" d="M17.9,124.8c-0.1,0.1-0.2,0.1-0.3,0.1l0,0l0,0c-0.1-0.1-0.1-0.2-0.1-0.3l0.5-1c0-0.1,0.2-0.1,0.3-0.1l0,0l0,0
	c0.1,0.1,0.1,0.2,0.1,0.3L17.9,124.8z"/>
<path class="st2" d="M13.7,132.7c-0.1,0.1-0.2,0.1-0.3,0.1l0,0c-0.1-0.1-0.1-0.2-0.1-0.3l0,0l0.5-1c0.1-0.1,0.2-0.1,0.3-0.1l0,0
	c0.1,0.1,0.1,0.2,0.1,0.3l0,0L13.7,132.7z"/>
<path class="st2" d="M19,125.8c-0.1,0.1-0.2,0.1-0.3,0l0,0l0,0c-0.1-0.1-0.1-0.2,0-0.3l0.9-0.7c0.1-0.1,0.2-0.1,0.3,0l0,0
	c0.1,0.1,0.1,0.2,0,0.3L19,125.8z"/>
<path class="st2" d="M12.1,131.5c-0.1,0.1-0.2,0.1-0.3,0l0,0l0,0c-0.1-0.1-0.1-0.2,0-0.3l0.9-0.7c0.1-0.1,0.2-0.1,0.3,0l0,0
	c0.1,0.1,0.1,0.2,0,0.3l0,0L12.1,131.5z"/>
<path class="st2" d="M19.8,127.6c-0.1,0-0.2-0.1-0.2-0.2l0,0l0,0c0-0.1,0.1-0.2,0.2-0.2l1.1-0.2c0.1,0,0.2,0.1,0.2,0.2l0,0l0,0
	c0,0.1-0.1,0.2-0.2,0.2l0,0L19.8,127.6z"/>
<path class="st2" d="M11,129.2c-0.1,0-0.2-0.1-0.2-0.2l0,0l0,0c0-0.1,0.1-0.2,0.2-0.2l0,0l1.1-0.2c0.1,0,0.2,0.1,0.2,0.2l0,0
	c0,0.1-0.1,0.2-0.2,0.2l0,0L11,129.2z"/>
<path class="st2" d="M19.5,129.6c-0.1,0-0.2-0.1-0.1-0.2l0,0c0-0.1,0.1-0.2,0.2-0.1l1.1,0.4c0.1,0,0.2,0.1,0.1,0.2l0,0
	c0,0.1-0.1,0.2-0.2,0.1L19.5,129.6z"/>
<path class="st2" d="M11.1,126.7c-0.1,0-0.2-0.1-0.1-0.2l0,0c0-0.1,0.1-0.2,0.2-0.1l1.1,0.4c0.1,0,0.2,0.1,0.1,0.2l0,0
	c0,0.1-0.1,0.2-0.2,0.1L11.1,126.7z"/>
<path class="st2" d="M18,131.4c-0.1-0.1,0-0.2,0-0.3l0,0l0,0c0.1-0.1,0.2,0,0.3,0l0,0L19,132c0.1,0.1,0,0.2,0,0.3l0,0l0,0
	c-0.1,0.1-0.2,0-0.3,0l0,0L18,131.4z"/>
<path class="st2" d="M12.8,124.2c-0.1-0.1,0-0.2,0-0.3l0,0c0.1-0.1,0.2,0,0.3,0l0,0l0.7,0.9c0.1,0.1,0,0.2,0,0.3l0,0
	c-0.1,0.1-0.2,0-0.3,0l0,0L12.8,124.2z"/>
<path class="st2" d="M98.4,26.9c-0.7-1.4-2.4-2-3.8-1.4c0,0-0.1,0-0.1,0.1c-1.4,0.8-2,2.5-1.3,4c0.7,1.4,2.4,2,3.8,1.4
	c0,0,0.1,0,0.1-0.1C98.5,30.1,99.1,28.3,98.4,26.9z"/>
<path class="st2" d="M96.1,24.2c0,0.1-0.1,0.2-0.2,0.2l0,0c-0.1,0-0.2-0.1-0.2-0.2v-1.1c0-0.1,0.1-0.2,0.2-0.2l0,0
	c0.1,0,0.2,0.1,0.2,0.2l0,0V24.2z"/>
<path class="st2" d="M96.1,33.2c0,0.1-0.1,0.2-0.2,0.2l0,0l0,0c-0.1,0-0.2-0.1-0.2-0.2v-1.1c0-0.1,0.1-0.2,0.2-0.2l0,0
	c0.1,0,0.2,0.1,0.2,0.2V33.2z"/>
<path class="st2" d="M97.9,24.8c-0.1,0.1-0.2,0.1-0.3,0.1l0,0l0,0c-0.1-0.1-0.1-0.2-0.1-0.3l0.5-1c0-0.1,0.2-0.1,0.3-0.1l0,0l0,0
	c0.1,0.1,0.1,0.2,0.1,0.3L97.9,24.8z"/>
<path class="st2" d="M93.7,32.7c-0.1,0.1-0.2,0.1-0.3,0.1l0,0c-0.1-0.1-0.1-0.2-0.1-0.3l0,0l0.5-1c0.1-0.1,0.2-0.1,0.3-0.1l0,0
	c0.1,0.1,0.1,0.2,0.1,0.3l0,0L93.7,32.7z"/>
<path class="st2" d="M99,25.8c-0.1,0.1-0.2,0.1-0.3,0l0,0l0,0c-0.1-0.1-0.1-0.2,0-0.3l0.9-0.7c0.1-0.1,0.2-0.1,0.3,0l0,0
	c0.1,0.1,0.1,0.2,0,0.3L99,25.8z"/>
<path class="st2" d="M92.1,31.5c-0.1,0.1-0.2,0.1-0.3,0l0,0l0,0c-0.1-0.1-0.1-0.2,0-0.3l0.9-0.7c0.1-0.1,0.2-0.1,0.3,0l0,0
	c0.1,0.1,0.1,0.2,0,0.3l0,0L92.1,31.5z"/>
<path class="st2" d="M99.8,27.6c-0.1,0-0.2-0.1-0.2-0.2l0,0l0,0c0-0.1,0.1-0.2,0.2-0.2l1.1-0.2c0.1,0,0.2,0.1,0.2,0.2l0,0l0,0
	c0,0.1-0.1,0.2-0.2,0.2l0,0L99.8,27.6z"/>
<path class="st2" d="M91,29.2c-0.1,0-0.2-0.1-0.2-0.2l0,0l0,0c0-0.1,0.1-0.2,0.2-0.2l0,0l1.1-0.2c0.1,0,0.2,0.1,0.2,0.2l0,0
	c0,0.1-0.1,0.2-0.2,0.2l0,0L91,29.2z"/>
<path class="st2" d="M99.5,29.6c-0.1,0-0.2-0.1-0.1-0.2l0,0c0-0.1,0.1-0.2,0.2-0.1l1.1,0.4c0.1,0,0.2,0.1,0.1,0.2l0,0
	c0,0.1-0.1,0.2-0.2,0.1L99.5,29.6z"/>
<path class="st2" d="M91.1,26.7c-0.1,0-0.2-0.1-0.1-0.2l0,0c0-0.1,0.1-0.2,0.2-0.1l1.1,0.4c0.1,0,0.2,0.1,0.1,0.2l0,0
	c0,0.1-0.1,0.2-0.2,0.1L91.1,26.7z"/>
<path class="st2" d="M98,31.4c-0.1-0.1,0-0.2,0-0.3l0,0l0,0c0.1-0.1,0.2,0,0.3,0l0,0L99,32c0.1,0.1,0,0.2,0,0.3l0,0l0,0
	c-0.1,0.1-0.2,0-0.3,0l0,0L98,31.4z"/>
<path class="st2" d="M92.8,24.2c-0.1-0.1,0-0.2,0-0.3l0,0c0.1-0.1,0.2,0,0.3,0l0,0l0.7,0.9c0.1,0.1,0,0.2,0,0.3l0,0
	c-0.1,0.1-0.2,0-0.3,0l0,0L92.8,24.2z"/>
<path class="st2" d="M18.4,26.9c-0.7-1.4-2.4-2-3.8-1.4c0,0-0.1,0-0.1,0.1c-1.4,0.8-2,2.5-1.3,4c0.7,1.4,2.4,2,3.8,1.4
	c0,0,0.1,0,0.1-0.1C18.5,30.1,19.1,28.3,18.4,26.9z"/>
<path class="st2" d="M16.1,24.2c0,0.1-0.1,0.2-0.2,0.2l0,0c-0.1,0-0.2-0.1-0.2-0.2v-1.1c0-0.1,0.1-0.2,0.2-0.2l0,0
	c0.1,0,0.2,0.1,0.2,0.2l0,0V24.2z"/>
<path class="st2" d="M16.1,33.2c0,0.1-0.1,0.2-0.2,0.2l0,0l0,0c-0.1,0-0.2-0.1-0.2-0.2v-1.1c0-0.1,0.1-0.2,0.2-0.2l0,0
	c0.1,0,0.2,0.1,0.2,0.2V33.2z"/>
<path class="st2" d="M17.9,24.8c-0.1,0.1-0.2,0.1-0.3,0.1l0,0l0,0c-0.1-0.1-0.1-0.2-0.1-0.3l0.5-1c0-0.1,0.2-0.1,0.3-0.1l0,0l0,0
	c0.1,0.1,0.1,0.2,0.1,0.3L17.9,24.8z"/>
<path class="st2" d="M13.7,32.7c-0.1,0.1-0.2,0.1-0.3,0.1l0,0c-0.1-0.1-0.1-0.2-0.1-0.3l0,0l0.5-1c0.1-0.1,0.2-0.1,0.3-0.1l0,0
	c0.1,0.1,0.1,0.2,0.1,0.3l0,0L13.7,32.7z"/>
<path class="st2" d="M19,25.8c-0.1,0.1-0.2,0.1-0.3,0l0,0l0,0c-0.1-0.1-0.1-0.2,0-0.3l0.9-0.7c0.1-0.1,0.2-0.1,0.3,0l0,0
	c0.1,0.1,0.1,0.2,0,0.3L19,25.8z"/>
<path class="st2" d="M12.1,31.5c-0.1,0.1-0.2,0.1-0.3,0l0,0l0,0c-0.1-0.1-0.1-0.2,0-0.3l0.9-0.7c0.1-0.1,0.2-0.1,0.3,0l0,0
	c0.1,0.1,0.1,0.2,0,0.3l0,0L12.1,31.5z"/>
<path class="st2" d="M19.8,27.6c-0.1,0-0.2-0.1-0.2-0.2l0,0l0,0c0-0.1,0.1-0.2,0.2-0.2l1.1-0.2c0.1,0,0.2,0.1,0.2,0.2l0,0l0,0
	c0,0.1-0.1,0.2-0.2,0.2l0,0L19.8,27.6z"/>
<path class="st2" d="M11,29.2c-0.1,0-0.2-0.1-0.2-0.2l0,0l0,0c0-0.1,0.1-0.2,0.2-0.2l0,0l1.1-0.2c0.1,0,0.2,0.1,0.2,0.2l0,0
	c0,0.1-0.1,0.2-0.2,0.2l0,0L11,29.2z"/>
<path class="st2" d="M19.5,29.6c-0.1,0-0.2-0.1-0.1-0.2l0,0c0-0.1,0.1-0.2,0.2-0.1l1.1,0.4c0.1,0,0.2,0.1,0.1,0.2l0,0
	c0,0.1-0.1,0.2-0.2,0.1L19.5,29.6z"/>
<path class="st2" d="M11.1,26.7c-0.1,0-0.2-0.1-0.1-0.2l0,0c0-0.1,0.1-0.2,0.2-0.1l1.1,0.4c0.1,0,0.2,0.1,0.1,0.2l0,0
	c0,0.1-0.1,0.2-0.2,0.1L11.1,26.7z"/>
<path class="st2" d="M18,31.4c-0.1-0.1,0-0.2,0-0.3l0,0l0,0c0.1-0.1,0.2,0,0.3,0l0,0L19,32c0.1,0.1,0,0.2,0,0.3l0,0l0,0
	c-0.1,0.1-0.2,0-0.3,0l0,0L18,31.4z"/>
<path class="st2" d="M12.8,24.2c-0.1-0.1,0-0.2,0-0.3l0,0c0.1-0.1,0.2,0,0.3,0l0,0l0.7,0.9c0.1,0.1,0,0.2,0,0.3l0,0
	c-0.1,0.1-0.2,0-0.3,0l0,0L12.8,24.2z"/>
<path class="st2" d="M18.4,96.9c-0.7-1.4-2.4-2-3.8-1.4c0,0-0.1,0-0.1,0.1c-1.4,0.8-2,2.5-1.3,4c0.7,1.4,2.4,2,3.8,1.4
	c0,0,0.1,0,0.1-0.1C18.5,100.1,19.1,98.3,18.4,96.9z"/>
<path class="st2" d="M16.1,94.2c0,0.1-0.1,0.2-0.2,0.2l0,0c-0.1,0-0.2-0.1-0.2-0.2v-1.1c0-0.1,0.1-0.2,0.2-0.2l0,0
	c0.1,0,0.2,0.1,0.2,0.2l0,0V94.2z"/>
<path class="st2" d="M16.1,103.2c0,0.1-0.1,0.2-0.2,0.2l0,0l0,0c-0.1,0-0.2-0.1-0.2-0.2v-1.1c0-0.1,0.1-0.2,0.2-0.2l0,0
	c0.1,0,0.2,0.1,0.2,0.2V103.2z"/>
<path class="st2" d="M17.9,94.8c-0.1,0.1-0.2,0.1-0.3,0.1l0,0l0,0c-0.1-0.1-0.1-0.2-0.1-0.3l0.5-1c0-0.1,0.2-0.1,0.3-0.1l0,0l0,0
	c0.1,0.1,0.1,0.2,0.1,0.3L17.9,94.8z"/>
<path class="st2" d="M13.7,102.7c-0.1,0.1-0.2,0.1-0.3,0.1l0,0c-0.1-0.1-0.1-0.2-0.1-0.3l0,0l0.5-1c0.1-0.1,0.2-0.1,0.3-0.1l0,0
	c0.1,0.1,0.1,0.2,0.1,0.3l0,0L13.7,102.7z"/>
<path class="st2" d="M19,95.8c-0.1,0.1-0.2,0.1-0.3,0l0,0l0,0c-0.1-0.1-0.1-0.2,0-0.3l0.9-0.7c0.1-0.1,0.2-0.1,0.3,0l0,0
	c0.1,0.1,0.1,0.2,0,0.3L19,95.8z"/>
<path class="st2" d="M12.1,101.5c-0.1,0.1-0.2,0.1-0.3,0l0,0l0,0c-0.1-0.1-0.1-0.2,0-0.3l0.9-0.7c0.1-0.1,0.2-0.1,0.3,0l0,0
	c0.1,0.1,0.1,0.2,0,0.3l0,0L12.1,101.5z"/>
<path class="st2" d="M19.8,97.6c-0.1,0-0.2-0.1-0.2-0.2l0,0l0,0c0-0.1,0.1-0.2,0.2-0.2l1.1-0.2c0.1,0,0.2,0.1,0.2,0.2l0,0l0,0
	c0,0.1-0.1,0.2-0.2,0.2l0,0L19.8,97.6z"/>
<path class="st2" d="M11,99.2c-0.1,0-0.2-0.1-0.2-0.2l0,0l0,0c0-0.1,0.1-0.2,0.2-0.2l0,0l1.1-0.2c0.1,0,0.2,0.1,0.2,0.2l0,0
	c0,0.1-0.1,0.2-0.2,0.2l0,0L11,99.2z"/>
<path class="st2" d="M19.5,99.6c-0.1,0-0.2-0.1-0.1-0.2l0,0c0-0.1,0.1-0.2,0.2-0.1l1.1,0.4c0.1,0,0.2,0.1,0.1,0.2l0,0
	c0,0.1-0.1,0.2-0.2,0.1L19.5,99.6z"/>
<path class="st2" d="M11.1,96.7c-0.1,0-0.2-0.1-0.1-0.2l0,0c0-0.1,0.1-0.2,0.2-0.1l1.1,0.4c0.1,0,0.2,0.1,0.1,0.2l0,0
	c0,0.1-0.1,0.2-0.2,0.1L11.1,96.7z"/>
<path class="st2" d="M18,101.4c-0.1-0.1,0-0.2,0-0.3l0,0l0,0c0.1-0.1,0.2,0,0.3,0l0,0L19,102c0.1,0.1,0,0.2,0,0.3l0,0l0,0
	c-0.1,0.1-0.2,0-0.3,0l0,0L18,101.4z"/>
<path class="st2" d="M12.8,94.2c-0.1-0.1,0-0.2,0-0.3l0,0c0.1-0.1,0.2,0,0.3,0l0,0l0.7,0.9c0.1,0.1,0,0.2,0,0.3l0,0
	c-0.1,0.1-0.2,0-0.3,0l0,0L12.8,94.2z"/>
<path class="st2" d="M38.4,66.9c-0.7-1.4-2.4-2-3.8-1.4c0,0-0.1,0-0.1,0.1c-1.4,0.8-2,2.5-1.3,4c0.7,1.4,2.4,2,3.8,1.4
	c0,0,0.1,0,0.1-0.1C38.5,70.1,39.1,68.3,38.4,66.9z"/>
<path class="st2" d="M36.1,64.2c0,0.1-0.1,0.2-0.2,0.2l0,0c-0.1,0-0.2-0.1-0.2-0.2v-1.1c0-0.1,0.1-0.2,0.2-0.2l0,0
	c0.1,0,0.2,0.1,0.2,0.2l0,0V64.2z"/>
<path class="st2" d="M36.1,73.2c0,0.1-0.1,0.2-0.2,0.2l0,0l0,0c-0.1,0-0.2-0.1-0.2-0.2v-1.1c0-0.1,0.1-0.2,0.2-0.2l0,0
	c0.1,0,0.2,0.1,0.2,0.2V73.2z"/>
<path class="st2" d="M37.9,64.8c-0.1,0.1-0.2,0.1-0.3,0.1l0,0l0,0c-0.1-0.1-0.1-0.2-0.1-0.3l0.5-1c0-0.1,0.2-0.1,0.3-0.1l0,0l0,0
	c0.1,0.1,0.1,0.2,0.1,0.3L37.9,64.8z"/>
<path class="st2" d="M33.7,72.7c-0.1,0.1-0.2,0.1-0.3,0.1l0,0c-0.1-0.1-0.1-0.2-0.1-0.3l0,0l0.5-1c0.1-0.1,0.2-0.1,0.3-0.1l0,0
	c0.1,0.1,0.1,0.2,0.1,0.3l0,0L33.7,72.7z"/>
<path class="st2" d="M39,65.8c-0.1,0.1-0.2,0.1-0.3,0l0,0l0,0c-0.1-0.1-0.1-0.2,0-0.3l0.9-0.7c0.1-0.1,0.2-0.1,0.3,0l0,0
	c0.1,0.1,0.1,0.2,0,0.3L39,65.8z"/>
<path class="st2" d="M32.1,71.5c-0.1,0.1-0.2,0.1-0.3,0l0,0l0,0c-0.1-0.1-0.1-0.2,0-0.3l0.9-0.7c0.1-0.1,0.2-0.1,0.3,0l0,0
	c0.1,0.1,0.1,0.2,0,0.3l0,0L32.1,71.5z"/>
<path class="st2" d="M39.8,67.6c-0.1,0-0.2-0.1-0.2-0.2l0,0l0,0c0-0.1,0.1-0.2,0.2-0.2l1.1-0.2c0.1,0,0.2,0.1,0.2,0.2l0,0l0,0
	c0,0.1-0.1,0.2-0.2,0.2l0,0L39.8,67.6z"/>
<path class="st2" d="M31,69.2c-0.1,0-0.2-0.1-0.2-0.2l0,0l0,0c0-0.1,0.1-0.2,0.2-0.2l0,0l1.1-0.2c0.1,0,0.2,0.1,0.2,0.2l0,0
	c0,0.1-0.1,0.2-0.2,0.2l0,0L31,69.2z"/>
<path class="st2" d="M39.5,69.6c-0.1,0-0.2-0.1-0.1-0.2l0,0c0-0.1,0.1-0.2,0.2-0.1l1.1,0.4c0.1,0,0.2,0.1,0.1,0.2l0,0
	c0,0.1-0.1,0.2-0.2,0.1L39.5,69.6z"/>
<path class="st2" d="M31.1,66.7c-0.1,0-0.2-0.1-0.1-0.2l0,0c0-0.1,0.1-0.2,0.2-0.1l1.1,0.4c0.1,0,0.2,0.1,0.1,0.2l0,0
	c0,0.1-0.1,0.2-0.2,0.1L31.1,66.7z"/>
<path class="st2" d="M38,71.4c-0.1-0.1,0-0.2,0-0.3l0,0l0,0c0.1-0.1,0.2,0,0.3,0l0,0L39,72c0.1,0.1,0,0.2,0,0.3l0,0l0,0
	c-0.1,0.1-0.2,0-0.3,0l0,0L38,71.4z"/>
<path class="st2" d="M32.8,64.2c-0.1-0.1,0-0.2,0-0.3l0,0c0.1-0.1,0.2,0,0.3,0l0,0l0.7,0.9c0.1,0.1,0,0.2,0,0.3l0,0
	c-0.1,0.1-0.2,0-0.3,0l0,0L32.8,64.2z"/>
<path class="st2" d="M40.5,108.1c-1.4-2.9-4.8-4.1-7.7-2.8c-0.1,0-0.1,0.1-0.2,0.1c-2.9,1.6-4.1,5.2-2.7,8.2
	c1.4,2.9,4.8,4.1,7.7,2.8c0.1,0,0.1-0.1,0.2-0.1C40.7,114.7,41.9,111.1,40.5,108.1z"/>
<path class="st2" d="M35.7,102.7c0,0.2-0.2,0.4-0.4,0.4l0,0c-0.2,0-0.4-0.2-0.4-0.4v-2.3c0-0.2,0.2-0.4,0.4-0.4l0,0
	c0.2,0,0.4,0.2,0.4,0.4l0,0V102.7z"/>
<path class="st2" d="M35.7,121c0,0.2-0.2,0.4-0.4,0.4l0,0l0,0c-0.2,0-0.4-0.2-0.4-0.4v-2.3c0-0.2,0.2-0.4,0.4-0.4l0,0
	c0.2,0,0.4,0.2,0.4,0.4V121z"/>
<path class="st2" d="M39.4,103.8c-0.1,0.2-0.3,0.3-0.5,0.2l0,0l0,0c-0.2-0.1-0.3-0.3-0.2-0.5l1.1-2c0.1-0.2,0.3-0.3,0.5-0.2l0,0l0,0
	c0.2,0.1,0.3,0.3,0.2,0.5L39.4,103.8z"/>
<path class="st2" d="M30.8,120c-0.1,0.2-0.3,0.3-0.5,0.2l0,0c-0.2-0.1-0.3-0.3-0.2-0.5l0,0l1.1-2c0.1-0.2,0.3-0.3,0.5-0.2l0,0
	c0.2,0.1,0.3,0.3,0.2,0.5l0,0L30.8,120z"/>
<path class="st2" d="M41.7,105.9c-0.2,0.1-0.4,0.1-0.6-0.1l0,0l0,0c-0.1-0.2-0.1-0.4,0.1-0.6l1.8-1.4c0.2-0.1,0.4-0.1,0.6,0.1l0,0
	c0.1,0.2,0.1,0.4-0.1,0.6L41.7,105.9z"/>
<path class="st2" d="M27.6,117.5c-0.2,0.1-0.4,0.1-0.6-0.1l0,0l0,0c-0.1-0.2-0.1-0.4,0.1-0.6l1.8-1.4c0.2-0.1,0.4-0.1,0.6,0.1l0,0
	c0.1,0.2,0.1,0.4-0.1,0.6l0,0L27.6,117.5z"/>
<path class="st2" d="M43.2,109.7c-0.2,0-0.4-0.1-0.5-0.3l0,0l0,0c0-0.2,0.1-0.4,0.3-0.5l2.2-0.4c0.2,0,0.4,0.1,0.5,0.3l0,0l0,0
	c0,0.2-0.1,0.4-0.3,0.5l0,0L43.2,109.7z"/>
<path class="st2" d="M25.2,112.9c-0.2,0-0.4-0.1-0.5-0.3l0,0l0,0c0-0.2,0.1-0.4,0.3-0.5l0,0l2.2-0.4c0.2,0,0.4,0.1,0.5,0.3l0,0
	c0,0.2-0.1,0.4-0.3,0.5l0,0L25.2,112.9z"/>
<path class="st2" d="M42.7,113.6c-0.2-0.1-0.3-0.3-0.2-0.5l0,0c0.1-0.2,0.3-0.3,0.5-0.2l2.2,0.7c0.2,0.1,0.3,0.3,0.2,0.5l0,0
	c-0.1,0.2-0.3,0.3-0.5,0.2L42.7,113.6z"/>
<path class="st2" d="M25.4,107.7c-0.2-0.1-0.3-0.3-0.2-0.5l0,0c0.1-0.2,0.3-0.3,0.5-0.2l2.2,0.7c0.2,0.1,0.3,0.3,0.2,0.5l0,0
	c-0.1,0.2-0.3,0.3-0.5,0.2L25.4,107.7z"/>
<path class="st2" d="M39.7,117.4c-0.1-0.2-0.1-0.4,0.1-0.6l0,0l0,0c0.2-0.1,0.4-0.1,0.6,0.1l0,0l1.3,1.9c0.1,0.2,0.1,0.4-0.1,0.6
	l0,0l0,0c-0.2,0.1-0.4,0.1-0.6-0.1l0,0L39.7,117.4z"/>
<path class="st2" d="M29,102.6c-0.1-0.2-0.1-0.4,0.1-0.6l0,0c0.2-0.1,0.4-0.1,0.6,0.1l0,0L31,104c0.1,0.2,0.1,0.4-0.1,0.6l0,0
	c-0.2,0.1-0.4,0.1-0.6-0.1l0,0L29,102.6z"/>
<path class="st2" d="M105.4,80.9c-0.7-1.4-2.4-2-3.8-1.4c0,0-0.1,0-0.1,0.1c-1.4,0.8-2,2.5-1.3,4c0.7,1.4,2.4,2,3.8,1.4
	c0,0,0.1,0,0.1-0.1C105.5,84.1,106.1,82.3,105.4,80.9z"/>
<path class="st2" d="M103.1,78.2c0,0.1-0.1,0.2-0.2,0.2l0,0c-0.1,0-0.2-0.1-0.2-0.2v-1.1c0-0.1,0.1-0.2,0.2-0.2l0,0
	c0.1,0,0.2,0.1,0.2,0.2l0,0V78.2z"/>
<path class="st2" d="M103.1,87.2c0,0.1-0.1,0.2-0.2,0.2l0,0l0,0c-0.1,0-0.2-0.1-0.2-0.2v-1.1c0-0.1,0.1-0.2,0.2-0.2l0,0
	c0.1,0,0.2,0.1,0.2,0.2V87.2z"/>
<path class="st2" d="M104.9,78.8c-0.1,0.1-0.2,0.1-0.3,0.1l0,0l0,0c-0.1-0.1-0.1-0.2-0.1-0.3l0.5-1c0-0.1,0.2-0.1,0.3-0.1l0,0l0,0
	c0.1,0.1,0.1,0.2,0.1,0.3L104.9,78.8z"/>
<path class="st2" d="M100.7,86.7c-0.1,0.1-0.2,0.1-0.3,0.1l0,0c-0.1-0.1-0.1-0.2-0.1-0.3l0,0l0.5-1c0.1-0.1,0.2-0.1,0.3-0.1l0,0
	c0.1,0.1,0.1,0.2,0.1,0.3l0,0L100.7,86.7z"/>
<path class="st2" d="M106,79.8c-0.1,0.1-0.2,0.1-0.3,0l0,0l0,0c-0.1-0.1-0.1-0.2,0-0.3l0.9-0.7c0.1-0.1,0.2-0.1,0.3,0l0,0
	c0.1,0.1,0.1,0.2,0,0.3L106,79.8z"/>
<path class="st2" d="M99.1,85.5c-0.1,0.1-0.2,0.1-0.3,0l0,0l0,0c-0.1-0.1-0.1-0.2,0-0.3l0.9-0.7c0.1-0.1,0.2-0.1,0.3,0l0,0
	c0.1,0.1,0.1,0.2,0,0.3l0,0L99.1,85.5z"/>
<path class="st2" d="M106.8,81.6c-0.1,0-0.2-0.1-0.2-0.2l0,0l0,0c0-0.1,0.1-0.2,0.2-0.2l1.1-0.2c0.1,0,0.2,0.1,0.2,0.2l0,0l0,0
	c0,0.1-0.1,0.2-0.2,0.2l0,0L106.8,81.6z"/>
<path class="st2" d="M98,83.2c-0.1,0-0.2-0.1-0.2-0.2l0,0l0,0c0-0.1,0.1-0.2,0.2-0.2l0,0l1.1-0.2c0.1,0,0.2,0.1,0.2,0.2l0,0
	c0,0.1-0.1,0.2-0.2,0.2l0,0L98,83.2z"/>
<path class="st2" d="M106.5,83.6c-0.1,0-0.2-0.1-0.1-0.2l0,0c0-0.1,0.1-0.2,0.2-0.1l1.1,0.4c0.1,0,0.2,0.1,0.1,0.2l0,0
	c0,0.1-0.1,0.2-0.2,0.1L106.5,83.6z"/>
<path class="st2" d="M98.1,80.7c-0.1,0-0.2-0.1-0.1-0.2l0,0c0-0.1,0.1-0.2,0.2-0.1l1.1,0.4c0.1,0,0.2,0.1,0.1,0.2l0,0
	c0,0.1-0.1,0.2-0.2,0.1L98.1,80.7z"/>
<path class="st2" d="M105,85.4c-0.1-0.1,0-0.2,0-0.3l0,0l0,0c0.1-0.1,0.2,0,0.3,0l0,0L106,86c0.1,0.1,0,0.2,0,0.3l0,0l0,0
	c-0.1,0.1-0.2,0-0.3,0l0,0L105,85.4z"/>
<path class="st2" d="M99.8,78.2c-0.1-0.1,0-0.2,0-0.3l0,0c0.1-0.1,0.2,0,0.3,0l0,0l0.7,0.9c0.1,0.1,0,0.2,0,0.3l0,0
	c-0.1,0.1-0.2,0-0.3,0l0,0L99.8,78.2z"/>
</svg>
