<svg id="Слой_1" data-name="Слой 1" xmlns="http://www.w3.org/2000/svg" viewBox="0 0 88 88"><defs><style>.cls-1{fill:#fff;}.cls-2{fill:none;stroke:#fff;stroke-linecap:round;stroke-linejoin:round;stroke-width:3px;}</style></defs><title>whatsapp_icon_redondo-tiza</title><path class="cls-1" d="M91.89,44.88a44,44,0,0,0-.67-5.17,43.22,43.22,0,0,0-2.43-8.24,38.33,38.33,0,0,1,1.51,5.59,39.21,39.21,0,0,1,.6,4.64,26.21,26.21,0,0,1,.1,2.8v0.12A39.53,39.53,0,1,1,51.38,5H51.5a24.09,24.09,0,0,1,2.84.11,38.38,38.38,0,0,1,4.59.6,39.33,39.33,0,0,1,5.45,1.45,43.39,43.39,0,0,0-8.1-2.37,42.9,42.9,0,0,0-5.12-.67A27.73,27.73,0,0,0,48,4H47.87A44,44,0,1,0,92,48.13V48A30,30,0,0,0,91.89,44.88Z" transform="translate(-4 -4)"/><path class="cls-2" d="M74.66,21.93a36.47,36.47,0,0,1,3,3.52" transform="translate(-4 -4)"/><path class="cls-2" d="M58,12a38.11,38.11,0,0,1,11.78,5.76" transform="translate(-4 -4)"/><path class="cls-1" d="M48.36,26.74A19.86,19.86,0,0,0,33.37,57L29.84,67.35l10.8-3.41A19.89,19.89,0,1,0,48.36,26.74Zm2.8,35.94A16,16,0,0,1,42,60.42a1,1,0,0,0-.82-0.09l-6.21,2,2-6a1,1,0,0,0-.13-0.87,16.15,16.15,0,1,1,14.3,7.14Z" transform="translate(-4 -4)"/><path class="cls-1" d="M56.07,49.26l4,2.09c0.41,0.2.69,0.35,0.41,1.45S60.13,54.64,59,55.32a6.18,6.18,0,0,1-2.13,1c-0.55.1-1.11,0.56-3.56-.36a19.08,19.08,0,0,1-9-6.19c-3.53-4.15-4.59-7.33-3.61-9.86a7.06,7.06,0,0,1,1.17-2A2.47,2.47,0,0,1,43.74,37c0.76-.12,1.5-0.57,2.2,1.44s1.13,3,1.26,3.28a1.29,1.29,0,0,1-.4,1.55,12.33,12.33,0,0,0-1.1,1.19,0.89,0.89,0,0,0,0,1.1,15,15,0,0,0,3.38,4.15,19.35,19.35,0,0,0,3.17,1.87c0.36,0.16.6,0.4,1.26-.28s1-1.2,1.41-1.64S55.65,49,56.07,49.26Z" transform="translate(-4 -4)"/></svg>