<?xml version="1.0" encoding="utf-8"?>
<!-- Generator: Adobe Illustrator 19.2.1, SVG Export Plug-In . SVG Version: 6.00 Build 0)  -->
<svg version="1.1" id="Capa_1" xmlns="http://www.w3.org/2000/svg" xmlns:xlink="http://www.w3.org/1999/xlink" x="0px" y="0px"
	 viewBox="0 0 512 512" style="enable-background:new 0 0 512 512;" xml:space="preserve">
<style type="text/css">
	.st0{fill:#FF6A47;}
	.st1{fill:#FD3501;}
	.st2{fill:#EEEEEE;}
	.st3{fill:#FEEF8F;}
	.st4{fill:#A8E1F8;}
	.st5{fill:#E0E0E0;}
	.st6{fill:#FEE95D;}
	.st7{fill:#75D2F5;}
	.st8{fill:#FFFFFF;}
</style>
<path class="st0" d="M47.4,464.6l120.5-304.8l184.3,184.3L47.4,464.6z"/>
<path class="st1" d="M62.6,426.3l-15.2,38.3l304.8-120.5L329,320.9L62.6,426.3z"/>
<path class="st2" d="M92.9,349.5l28.8,85.7l60.9-24.1l-52.4-156.1L92.9,349.5z"/>
<path class="st2" d="M352.2,344.1L167.9,159.8l-0.3,0.8l76,226.4L352.2,344.1z"/>
<path class="st3" d="M486.8,25.2l-11.2,33.1l20.9,28l-35-0.4l-20.2,28.6l-10.4-33.4l-33.4-10.4L426,50.5l-0.4-35l28,20.9L486.8,25.2
	z"/>
<path class="st4" d="M346.1,37.6c0,16.6-13.5,30.1-30.1,30.1c-16.6,0-30.1-13.5-30.1-30.1C286,21,299.4,7.5,316,7.5
	C332.6,7.5,346.1,21,346.1,37.6z"/>
<path class="st4" d="M504.5,196c0,16.6-13.5,30.1-30.1,30.1c-16.6,0-30.1-13.5-30.1-30.1c0-16.6,13.5-30.1,30.1-30.1
	C491,165.9,504.5,179.4,504.5,196z"/>
<path class="st5" d="M121.7,435.2l60.9-24.1l-9.6-28.5l-60.9,24.1L121.7,435.2z"/>
<path class="st5" d="M243.6,387l108.6-42.9L329,320.9l-95,37.6L243.6,387z"/>
<path class="st3" d="M155.9,190.3l165.9,165.9l30.5-12L167.9,159.8L155.9,190.3z"/>
<path class="st6" d="M298.5,333l23.2,23.2l30.5-12L329,320.9L298.5,333z"/>
<path class="st7" d="M316,37.6c-11.1,0-20.8-6-26-15c-2.6,4.4-4,9.6-4,15c0,16.6,13.5,30.1,30.1,30.1c16.6,0,30.1-13.5,30.1-30.1
	c0-5.5-1.5-10.6-4-15C336.9,31.5,327.2,37.6,316,37.6z"/>
<path class="st7" d="M474.4,196c-11.1,0-20.8-6.1-26-15c-2.6,4.4-4,9.6-4,15c0,16.6,13.5,30.1,30.1,30.1c16.6,0,30.1-13.5,30.1-30.1
	c0-5.5-1.5-10.6-4-15C495.3,189.9,485.5,196,474.4,196z"/>
<path class="st8" d="M201.4,379.6l-4.8-14.3l14.3-4.8l4.8,14.3L201.4,379.6z M191.9,351.1l-4.8-14.3l14.3-4.8l4.8,14.3L191.9,351.1z
	 M182.3,322.6l-22-65.4l14.3-4.8l22,65.4L182.3,322.6z"/>
<path class="st8" d="M140.4,403.3l-4.8-14.3l14.3-4.8l4.8,14.3L140.4,403.3z M130.8,374.8l-10.6-31.6l14.3-4.8L145,370L130.8,374.8z
	"/>
<path d="M424.9,87.1l13.7,44.2l26.7-37.8l46.3,0.6L483.9,57l14.9-43.8L455,28.1L417.9,0.4l0.6,46.3l-37.8,26.7L424.9,87.1z
	 M433.3,30.7l19,14.2l22.5-7.6l-7.6,22.5l14.2,19l-23.7-0.3l-13.7,19.4l-7-22.6l-22.6-7l19.4-13.7L433.3,30.7z"/>
<path d="M294.9,206.5l10.6-10.6l10.6,10.6l-10.6,10.6L294.9,206.5z"/>
<path d="M273.6,227.7l10.6-10.6l10.6,10.6l-10.6,10.6L273.6,227.7z"/>
<path d="M316.2,185.2l77.8-77.8l10.6,10.6l-77.8,77.8L316.2,185.2z"/>
<path d="M238.6,192.6l10.6-10.6l10.6,10.6l-10.6,10.6L238.6,192.6z"/>
<path d="M259.8,171.4l10.6-10.6l10.6,10.6L270.4,182L259.8,171.4z"/>
<path d="M308.6,74.4c-0.5,27.7-10.5,54.6-28.3,75.8l11.5,9.6c20.1-24,31.3-54.3,31.8-85.5c17.1-3.5,30-18.7,30-36.8
	C353.6,16.9,336.8,0,316,0s-37.6,16.9-37.6,37.6C278.5,55.8,291.4,71,308.6,74.4z M316,15c12.4,0,22.6,10.1,22.6,22.6
	c0,12.4-10.1,22.6-22.6,22.6c-12.4,0-22.6-10.1-22.6-22.6C293.5,25.2,303.6,15,316,15z"/>
<path d="M365.6,346.9L239.2,220.4l-10.6,10.6l110.2,110.2l-15.2,6L285.2,309l-10.6,10.6l33.7,33.7l-60.1,23.8l-42.4-126.3l58.2,58.2
	l10.6-10.6L164.7,188.5l6-15.2l47.2,47.2l10.6-10.6l-63.4-63.4l-60.2,152.3l14,5.5l10.8-27.3l28.5,85l14.3-4.8l-34.2-101.9
	l20.4-51.6l23.3,23.3l52.3,155.7l-46.9,18.6l-10-29.8l-14.3,4.8l10.2,30.5l-46.9,18.6l-25.4-75.6l12.4-31.5l-14-5.5L41,460.4l-41,41
	L10.6,512l41-41L365.6,346.9z M112.3,430.8l-50.6,20l-0.6-0.6l31.2-78.9L112.3,430.8z"/>
<path d="M195.3,0h15v15h-15V0z"/>
<path d="M195.3,50.1h15v15h-15V50.1z"/>
<path d="M170.2,25.1h15v15h-15V25.1z"/>
<path d="M220.3,25.1h15v15h-15V25.1z"/>
<path d="M198.5,152.6l10.6-10.6l10.6,10.6l-10.6,10.6L198.5,152.6z"/>
<path d="M234.1,138.2c11.4-11.4,17.6-26.5,17.6-42.5c0-14.8-5.4-29-15.3-40l-11.2,10c7.4,8.3,11.4,18.9,11.4,30
	c0,12.1-4.7,23.4-13.2,31.9l-3.7,3.7l10.6,10.6L234.1,138.2z"/>
<path d="M330,241.6l10.6-10.6l10.6,10.6l-10.6,10.6L330,241.6z"/>
<path d="M308.7,262.8l10.6-10.6l10.6,10.6l-10.6,10.6L308.7,262.8z"/>
<path d="M512,196c0-20.7-16.9-37.6-37.6-37.6c-18.1,0-33.3,12.9-36.8,30c-31.2,0.5-61.5,11.8-85.5,31.8l9.6,11.5
	c21.3-17.8,48.1-27.8,75.8-28.3c3.5,17.2,18.7,30.1,36.8,30.1C495.1,233.5,512,216.7,512,196z M451.9,196
	c0-12.4,10.1-22.6,22.6-22.6c12.4,0,22.6,10.1,22.6,22.6c0,12.4-10.1,22.6-22.6,22.6C462,218.5,451.9,208.4,451.9,196z"/>
<path d="M497,301.7h15v15h-15V301.7z"/>
<path d="M446.8,301.7h15v15h-15V301.7z"/>
<path d="M471.9,326.8h15v15h-15V326.8z"/>
<path d="M471.9,276.6h15v15h-15V276.6z"/>
<path d="M416.3,260.3c-16.1,0-31.2,6.3-42.5,17.6l-3.7,3.7l10.6,10.6l3.7-3.7c8.5-8.5,19.8-13.2,31.9-13.2c11.1,0,21.7,4.1,30,11.4
	l10-11.2C445.3,265.7,431.1,260.3,416.3,260.3z"/>
<path d="M348.8,302.9l10.6-10.6l10.6,10.6l-10.6,10.6L348.8,302.9z"/>
<path d="M445.1,380.2c2,4.4,2.3,9.2,0.9,13.5c-1.3,4-4,7.1-7.5,8.6c-3.5,1.6-7.6,1.5-11.4-0.2c-4.1-1.8-7.5-5.3-9.4-9.7l-13.7,6.1
	c3.9,8.8,1,18.8-6.6,22.1c-7.6,3.4-16.9-1.1-20.9-9.9l-13.7,6.1c2,4.4,2.3,9.2,0.9,13.5c-1.3,4-4,7.1-7.5,8.6
	c-7.6,3.4-16.9-1.1-20.9-9.9l-13.7,6.1c5.5,12.4,17.3,20,29.3,20c3.8,0,7.7-0.8,11.4-2.4c7.5-3.3,13-9.6,15.7-17.7
	c0.2-0.5,0.3-1,0.5-1.5c7.8,3.9,16.9,4.6,25.1,0.9c8.2-3.6,13.8-10.8,16.1-19.2c0.5,0.2,0.9,0.5,1.4,0.7c7.8,3.5,16.2,3.6,23.7,0.2
	s13-9.6,15.7-17.7c2.5-7.8,2-16.4-1.4-24.3L445.1,380.2z"/>
<path d="M76.8,190.5l6.1-13.7c-8.8-3.9-13.3-13.3-9.9-20.9c1.6-3.5,4.6-6.2,8.6-7.5c4.3-1.4,9.1-1.1,13.5,0.9l6.1-13.7
	c-8.8-3.9-13.3-13.3-9.9-20.9s13.3-10.5,22.1-6.6l6.1-13.7c-4.4-2-7.9-5.3-9.7-9.4c-1.7-3.8-1.8-7.9-0.2-11.4
	c1.6-3.5,4.6-6.2,8.6-7.5c4.3-1.4,9.1-1.1,13.5,0.9l6.1-13.7c-7.8-3.5-16.4-4-24.3-1.4c-8.1,2.6-14.4,8.2-17.7,15.7
	s-3.2,15.9,0.2,23.7c0.2,0.5,0.4,1,0.7,1.4c-8.4,2.3-15.6,7.9-19.2,16.1s-3,17.3,0.9,25.1c-0.5,0.1-1,0.3-1.5,0.5
	c-8.1,2.6-14.4,8.2-17.7,15.7C52.6,165,60.4,183.2,76.8,190.5z"/>
</svg>
