<?xml version="1.0" encoding="utf-8"?>
<!-- Generator: Adobe Illustrator 19.2.1, SVG Export Plug-In . SVG Version: 6.00 Build 0)  -->
<svg version="1.1" xmlns="http://www.w3.org/2000/svg" xmlns:xlink="http://www.w3.org/1999/xlink" x="0px" y="0px"
	 viewBox="0 0 96 96" style="enable-background:new 0 0 96 96;" xml:space="preserve">
<style type="text/css">
	.st0{fill:#FFFFFF;}
	.st1{fill:none;stroke:#FFFFFF;stroke-width:3;stroke-linecap:round;stroke-linejoin:round;}
</style>
<g id="Capa_2">
</g>
<g id="Слой_1">
	<title></title>
	<path class="st0" d="M91.9,44.9c-0.1-1.7-0.3-3.5-0.7-5.2c-0.5-2.8-1.3-5.6-2.4-8.2c0.6,1.8,1.1,3.7,1.5,5.6
		c0.3,1.5,0.5,3.1,0.6,4.6c0.1,0.9,0.1,1.9,0.1,2.8v0.1c0,21.8-17.8,39.5-39.6,39.4c-21.8,0-39.5-17.8-39.4-39.6
		C12,22.7,29.6,5,51.4,5h0.1c1,0,1.9,0,2.8,0.1c1.5,0.1,3.1,0.3,4.6,0.6c1.8,0.4,3.7,0.8,5.5,1.4c-2.6-1.1-5.3-1.8-8.1-2.4
		c-1.7-0.3-3.4-0.5-5.1-0.7C50.1,4,49.1,4,48,4h-0.1C23.7,4.1,4.1,23.7,4,47.9C3.9,72.2,23.6,91.9,47.9,92S91.9,72.4,92,48.1V48
		C92,47,92,45.9,91.9,44.9z"/>
	<path class="st1" d="M74.7,21.9c1.1,1.1,2.1,2.3,3,3.5"/>
	<path class="st1" d="M58,12c4.2,1.2,8.2,3.2,11.8,5.8"/>
	<path class="st0" d="M57,35.4v-6.7h-7.3c-3.7,0-6.7,2.9-6.7,6.6c0,0,0,0,0,0.1l0,0v6h-4V48h4v19.2h8V48h5.3l0.7-6.6h-5.9v-4
		c0-1.1,0.9-2,2-2L57,35.4z"/>
</g>
</svg>
