<svg id="Capa_1_copia" data-name="Capa 1 copia" xmlns="http://www.w3.org/2000/svg" viewBox="0 0 64 69.96"><defs><style>.cls-1{fill:#9c2275;}.cls-2{fill:#871767;}.cls-3{fill:#5e0d4b;}.cls-4{fill:#c04181;}.cls-5{fill:none;stroke:#fff;stroke-linecap:round;stroke-linejoin:round;stroke-width:3px;}.cls-6{fill:#fff;}</style></defs><title>instagram_icon_globo</title><path class="cls-1" d="M40.46,68.15c-0.14-.28-2.19-0.16-2.38-0.43a1.38,1.38,0,0,1-.88.33A1.41,1.41,0,0,1,36.26,68c-0.11.28-2.11,0.7-2.17,1a0.68,0.68,0,0,0-.41.53c0.07,0.48,1.75.66,3.76,0.38S41,69,41,68.49A0.59,0.59,0,0,0,40.46,68.15Zm-3,1.5c-1.51.21-2.78,0.09-2.83-.27s1.13-.83,2.64-1,2.78-.09,2.83.27S38.94,69.44,37.42,69.65Z" transform="translate(0 -0.04)"/><ellipse class="cls-2" cx="37.33" cy="69" rx="2.76" ry="0.66" transform="translate(-9.26 5.84) rotate(-8.02)"/><path class="cls-3" d="M37.2,68.05a1.38,1.38,0,0,0,.88-0.33,0.11,0.11,0,0,0,0,0h0a1.28,1.28,0,0,0-1-.08,1.27,1.27,0,0,0-.89.34h0l0,0A1.41,1.41,0,0,0,37.2,68.05Z" transform="translate(0 -0.04)"/><path class="cls-1" d="M63.44,25.5a32.09,32.09,0,0,0-.93-3.69,31.55,31.55,0,0,0-2.56-5.73A32.23,32.23,0,0,0,39.81.95a31.57,31.57,0,0,0-6.1-.89A31,31,0,0,0,30,.26,20.27,20.27,0,0,0,27.7.67H27.61A32.07,32.07,0,0,0,29.4,64.4a8.85,8.85,0,0,1,5,2L36.25,68a1.24,1.24,0,0,1,.89-0.36,1.29,1.29,0,0,1,.95.07l1.18-1.88a8.91,8.91,0,0,1,4.37-3.54,32,32,0,0,0,20-34.41V27.77A21.39,21.39,0,0,0,63.44,25.5Z" transform="translate(0 -0.04)"/><path class="cls-4" d="M62.92,25.29v0.09A28.9,28.9,0,1,1,30.2.71h0.09A17.59,17.59,0,0,1,32.36.48a28,28,0,0,1,3.38,0,28.72,28.72,0,0,1,4.09.49A32.27,32.27,0,0,1,60,16.07,28.08,28.08,0,0,1,61.66,20h0a28.74,28.74,0,0,1,.91,3.3A19.21,19.21,0,0,1,62.92,25.29Z" transform="translate(0 -0.04)"/><path class="cls-5" d="M48.79,10.6a26.68,26.68,0,0,1,2.53,2.24" transform="translate(0 -0.04)"/><path class="cls-5" d="M35.71,5.1a27.84,27.84,0,0,1,9.12,3" transform="translate(0 -0.04)"/><path class="cls-6" d="M19.71,24.16V40.26a5.85,5.85,0,0,0,5.85,5.86H41.64a5.85,5.85,0,0,0,5.85-5.86V24.16a5.85,5.85,0,0,0-5.85-5.86H25.56A5.85,5.85,0,0,0,19.71,24.16Zm20,19H27.52a4.89,4.89,0,0,1-4.88-4.89h0V26.12a4.89,4.89,0,0,1,4.88-4.89H39.68a4.89,4.89,0,0,1,4.88,4.89h0V38.3a4.89,4.89,0,0,1-4.88,4.89h0Z" transform="translate(0 -0.04)"/><path class="cls-6" d="M33.6,25.62a6.59,6.59,0,1,0,6.58,6.59h0A6.58,6.58,0,0,0,33.6,25.62Zm0,10.25a3.66,3.66,0,1,1,3.66-3.66A3.66,3.66,0,0,1,33.6,35.87Z" transform="translate(0 -0.04)"/><circle class="cls-6" cx="40.91" cy="24.85" r="1.46"/></svg>