<svg id="Capa_5" data-name="Capa 5" xmlns="http://www.w3.org/2000/svg" viewBox="0 0 319.73 193.09"><defs><style>.cls-1{fill:#fff;fill-rule:evenodd;}</style></defs><title>LOGO Q TORTAS-BORDE</title><path class="cls-1" d="M-169.21,573.57c-25.49-1.07-56.88,1.1-94.49,9.55a319.6,319.6,0,0,1-47.75,7.33c-2.27-6.67-6.91-22.08-8.38-29.46-0.71-3.58-1.09-3.91,2.61-5.57,15.15-6.8,85-29.57,148.18-4.16,2.15,0.86,2,.94,2,3.21,0,4.41-.81,13.95-2.21,19.1m-15.47-32.68A221.94,221.94,0,0,0-303.44,546c-4.6-9.58-6.54-14.3-7.17-16.65-0.41-1.55-.23-2.35,1.74-3,59-20.56,122.29-5.09,124.53-4.57s2.06,1.06,1.85,3.06S-184.07,536.7-184.68,540.89Zm-22.58-28c-28.88-4.27-57.48-1.27-78.2,2.59-1-4.1-3.58-14.69-3.83-16s8.62-8.89,36.48-11.82,44.92,4.9,45.92,5.59S-206.77,508.12-207.27,512.91Zm-39.15-92.2c1.52,12.9-8.31,14-2.11,23.37C-249.17,431.26-237.11,431.09-246.42,420.71ZM-83.31,595.59s-24.87-17.75-77.81-21.56c1.43-6.81,4.08-22.23,2.83-24.09-0.38-.56-7.26-3.83-19.08-7.15a174.47,174.47,0,0,0,3.52-17.44c0.4-3.33.57-3.59-2.43-4.69a150.61,150.61,0,0,0-23.34-6.44c0.93-5.4,1.28-22,.17-22.83-2-1.45-8.66-2-9.32-2.13s0.47-8.79-1.55-11.54c-1.27-1.74-9.63-2.35-11.49-2.47a195.54,195.54,0,0,0-28.73.06,159.83,159.83,0,0,1-.59-18.22c0.12-2.53.14-3.79,0.81-4.34,3.31-2.76,8.59-6.71,8.59-6.71-0.35.25-6.06,1.52-9.94,3.72-3.17,1.8-3,4.33-3.06,8.46-0.08,5.7.12,13.57,0.06,17.43-20.79,2.41-31.89,8.37-31.81,10.42,0.12,3.19.56,4.59-.39,5.1s-2.93,1.53-5.71,3.08c-6.23,3.48-4.58,3.3-4.12,6.87,0.38,2.94,3.61,12.4,4.74,15.66-9,1.9-16.07,3.84-20.29,5.11-5.62,1.7-5.28,2.16-4.75,4.79,1.17,5.73,6.7,17,8.7,21q-6.43,2.24-13,4.95c-5.93,2.47-5.25,2.07-4.33,7.87,0.83,5.26,2.79,14.66,7.46,30.38C-392.44,593.81-403,556-403,556s16.32,57.47,124.48,35.29S-130.63,577.71-83.31,595.59Z" transform="translate(403.03 -420.71)"/><path class="cls-1" d="M-335.71,574a19.94,19.94,0,0,1,12.4,6.46,24.91,24.91,0,0,1,23.6-16.94,24.9,24.9,0,0,1,24.9,24.9,24.9,24.9,0,0,1-24.9,24.9,24.87,24.87,0,0,1-20.47-10.73,20,20,0,0,1-18,11.24,20,20,0,0,1-20-20,19.9,19.9,0,0,1,2.4-9.51,15.5,15.5,0,0,1-10.36-14.63,15.5,15.5,0,0,1,15.5-15.5,15.5,15.5,0,0,1,15.5,15.5,15.5,15.5,0,0,1-.6,4.3" transform="translate(403.03 -420.71)"/></svg>