<svg id="Capa_1" data-name="Capa 1" xmlns="http://www.w3.org/2000/svg" viewBox="0 0 1094.27 57.65"><defs><style>.cls-1{fill:#ce0557;}.cls-2{fill:#f06;}</style></defs><title>splash</title><rect class="cls-1" x="0.16" width="137.17" height="11.19"/><path class="cls-1" d="M0.84-19.72L2,19.63c-0.78,1,2.17,8,3.58,7.71a10.34,10.34,0,0,0,4-1,2.85,2.85,0,0,0,1.21-2.86C10.26,19.88,9,9.51,11,1.88a6.28,6.28,0,0,1,6.26-4.74c3,0.11,6.44-.79,5.46-5.92a7.34,7.34,0,0,1,1.65-6.44,6.78,6.78,0,0,1,5.18-2.11s-1,9.83,3,11.17c0,0,8.67,1.5,8-6.67,0,0,1.83-6.5,3.33-6.33s-0.65,17.27-.37,27c0,0.51.34,1,.41,1.47,0.18,1.45,5.54,8.46,11.71,3.62a6.18,6.18,0,0,0,1.67-2.05C61.07,3.37,61,2,60.25-2.25c2.33-2.67-.25-5.92,1.25-9.92S64.33-18,71.5-17s5.83,1.5,7.33,4S84-2.33,89.83-7.33c2.84-2.43,5.52-5.11,7.53-7.21a4,4,0,0,1,6.71,1.48A17.15,17.15,0,0,1,104.83-7s1.83,9,8.17,3.17c0,0,8.5-9,6.83-11.17v0c-0.42-3,3.81-3.87,4.9-1.38a7.38,7.38,0,0,1,.44,5.24c-0.91,2.84-.5,4.52.48,5.56a2.48,2.48,0,0,0,2.27.68c2.38-.45,6.13,1,6.42-7.41l3.83-7Z" transform="translate(-0.84 30)"/><path class="cls-2" d="M1-30L4.19,20.15A3.39,3.39,0,0,0,5.52,22.5,3.11,3.11,0,0,0,9.09,23a2.85,2.85,0,0,0,1.21-2.86C9.76,16.61,8.48,6.24,10.45-1.4a6.28,6.28,0,0,1,6.26-4.74c3,0.11,6.44-.79,5.46-5.92a7.34,7.34,0,0,1,1.65-6.44A6.78,6.78,0,0,1,29-20.61s-1,9.83,3,11.17c0,0,8.67,1.5,8-6.67,0,0,1.83-6.5,3.33-6.33S42.69-5.17,43,4.57c0,0.51.34,1,.41,1.47,0.48,3.88,5.23,8.7,11.7,3.62A6.2,6.2,0,0,0,56.75,7.6c3.83-7.5,3.72-8.91,3-13.13,2.33-2.67-.25-5.92,1.25-9.92s2.83-5.83,10-4.83,5.83,1.5,7.33,4,5.17,10.67,11,5.67c2.84-2.44,5.53-5.11,7.53-7.21a4,4,0,0,1,6.7,1.48,17.15,17.15,0,0,1,.77,6.07s1.83,9,8.17,3.17c0,0,8.5-9,6.83-11.17v0c-0.42-3,3.81-3.87,4.9-1.38a7.38,7.38,0,0,1,.44,5.24c-0.85,2.64-.55,4.28.29,5.34a2.58,2.58,0,0,0,2.49.91c2.38-.44,6.11,1,6.39-7.41L137.67-30H1Z" transform="translate(-0.84 30)"/><rect class="cls-1" x="137.17" y="-30" width="137.17" height="11.19" transform="translate(410.66 -18.81) rotate(-180)"/><path class="cls-1" d="M274.49-19.72l3.52,37c-0.1.93-8.29,10.67-10.34,10.05-1.37-.41-1.85.26-2.92-1a3.69,3.69,0,0,1-1.21-2.86c0.54-3.54,1.82-13.91-.16-21.55a6.28,6.28,0,0,0-6.26-4.74c-3,.11-6.44-0.79-5.46-5.92A7.34,7.34,0,0,0,250-15.22a6.78,6.78,0,0,0-5.18-2.11s1,9.83-3,11.17c0,0-8.67,1.5-8-6.67,0,0-1.83-6.5-3.33-6.33s0.65,17.27.37,27c0,0.51-.34,1-0.41,1.47-0.18,1.45-5.54,8.46-11.71,3.62a6.18,6.18,0,0,1-1.67-2.05c-3.83-7.51-3.72-8.92-3-13.13-2.33-2.67.25-5.92-1.25-9.92S210-18,202.83-17s-5.83,1.5-7.33,4-5.17,10.67-11,5.67c-2.84-2.43-5.52-5.11-7.53-7.21a4,4,0,0,0-6.71,1.48A17.15,17.15,0,0,0,169.5-7s-1.83,9-8.17,3.17c0,0-8.5-9-6.83-11.17v0a2.57,2.57,0,0,0-4.9-1.38,7.38,7.38,0,0,0-.44,5.24c0.91,2.84.5,4.52-.48,5.56a2.48,2.48,0,0,1-2.27.68c-2.38-.45-6.13,1-6.42-7.41l-2.83-7Z" transform="translate(-0.84 30)"/><path class="cls-2" d="M274.33-30L278,14.25c0-12.69-8.26,10.36-9,10.92-0.93.7-3-1.35-4.26-2.16a2.85,2.85,0,0,1-1.21-2.86c0.54-3.54,1.82-13.91-.16-21.55a6.28,6.28,0,0,0-6.26-4.74c-3,.11-6.44-0.79-5.46-5.92A7.34,7.34,0,0,0,250-18.5a6.78,6.78,0,0,0-5.18-2.11s1,9.83-3,11.17c0,0-8.67,1.5-8-6.67,0,0-1.83-6.5-3.33-6.33s0.65,17.27.37,27c0,0.51-.34,1-0.41,1.47-0.48,3.89-5.24,8.7-11.71,3.62a6.18,6.18,0,0,1-1.67-2.05c-3.83-7.51-3.72-8.92-3-13.13-2.33-2.67.25-5.92-1.25-9.92s-2.83-5.83-10-4.83-5.83,1.5-7.33,4-5.17,10.67-11,5.67C181.66-13,179-15.72,177-17.82a4,4,0,0,0-6.71,1.48,17.15,17.15,0,0,0-.77,6.06s-1.83,9-8.17,3.17c0,0-8.5-9-6.83-11.17v0a2.57,2.57,0,0,0-4.9-1.38,7.38,7.38,0,0,0-.44,5.24c0.91,2.84.5,4.52-.48,5.56a2.48,2.48,0,0,1-2.27.68c-2.38-.45-6.13,1-6.42-7.41L137.17-30H274.33Z" transform="translate(-0.84 30)"/><rect class="cls-1" x="273.65" width="137.17" height="11.19"/><path class="cls-1" d="M274.33-19.72l1.16,39.35c-0.78,1,2.17,8,3.58,7.71a10.34,10.34,0,0,0,4-1,2.85,2.85,0,0,0,1.21-2.86c-0.54-3.54-1.82-13.91.16-21.55a6.28,6.28,0,0,1,6.26-4.74c3,0.11,6.44-.79,5.46-5.92a7.34,7.34,0,0,1,1.65-6.44A6.78,6.78,0,0,1,303-17.33s-1,9.83,3,11.17c0,0,8.67,1.5,8-6.67,0,0,1.83-6.5,3.33-6.33s-0.65,17.27-.37,27c0,0.51.34,1,.41,1.47,0.18,1.45,5.54,8.46,11.71,3.62a6.18,6.18,0,0,0,1.67-2.05c3.83-7.51,3.72-8.92,3-13.13,2.33-2.67-.25-5.92,1.25-9.92S337.82-18,345-17s5.83,1.5,7.33,4,5.17,10.67,11,5.67c2.84-2.43,5.52-5.11,7.53-7.21a4,4,0,0,1,6.71,1.48A17.15,17.15,0,0,1,378.32-7s1.83,9,8.17,3.17c0,0,8.5-9,6.83-11.17v0c-0.42-3,3.81-3.87,4.9-1.38a7.38,7.38,0,0,1,.44,5.24c-0.91,2.84-.5,4.52.48,5.56a2.48,2.48,0,0,0,2.27.68c2.38-.45,6.13,1,6.42-7.41l3.83-7Z" transform="translate(-0.84 30)"/><path class="cls-2" d="M267.88-30L275,17.13c1.44,0.44,3.25,4.81,4,5.37a3.11,3.11,0,0,0,3.57.51,2.85,2.85,0,0,0,1.21-2.86c-0.54-3.54-1.82-13.91.16-21.55a6.28,6.28,0,0,1,6.26-4.74c3,0.11,6.44-.79,5.46-5.92a7.34,7.34,0,0,1,1.65-6.44,6.78,6.78,0,0,1,5.18-2.11s-1,9.83,3,11.17c0,0,8.67,1.5,8-6.67,0,0,1.83-6.5,3.33-6.33s-0.65,17.27-.37,27c0,0.51.34,1,.41,1.47,0.48,3.88,5.23,8.7,11.7,3.62a6.2,6.2,0,0,0,1.67-2.06c3.83-7.5,3.72-8.91,3-13.13,2.33-2.67-.25-5.92,1.25-9.92s2.83-5.83,10-4.83,5.83,1.5,7.33,4,5.17,10.67,11,5.67c2.84-2.44,5.53-5.11,7.53-7.21a4,4,0,0,1,6.7,1.48,17.15,17.15,0,0,1,.77,6.07s1.83,9,8.17,3.17c0,0,8.5-9,6.83-11.17v0c-0.42-3,3.81-3.87,4.9-1.38a7.38,7.38,0,0,1,.44,5.24c-0.85,2.64-.55,4.28.29,5.34a2.58,2.58,0,0,0,2.49.91c2.38-.44,6.11,1,6.39-7.41L411.16-30H267.88Z" transform="translate(-0.84 30)"/><rect class="cls-1" x="410.66" y="-30" width="137.17" height="11.19" transform="translate(957.64 -18.81) rotate(-180)"/><path class="cls-1" d="M548-19.72V26.67c-0.1.93-4.76,1.25-6.82,0.64-1.37-.41-1.85.26-2.92-1A3.69,3.69,0,0,1,537,23.42c0.54-3.54,1.82-13.91-.16-21.55a6.28,6.28,0,0,0-6.26-4.74c-3,.11-6.44-0.79-5.46-5.92a7.34,7.34,0,0,0-1.65-6.44,6.78,6.78,0,0,0-5.18-2.11s1,9.83-3,11.17c0,0-8.67,1.5-8-6.67,0,0-1.83-6.5-3.33-6.33s0.65,17.27.37,27c0,0.51-.34,1-0.41,1.47-0.18,1.45-5.54,8.46-11.71,3.62a6.18,6.18,0,0,1-1.67-2.05c-3.83-7.51-3.72-8.92-3-13.13-2.33-2.67.25-5.92-1.25-9.92s-2.83-5.83-10-4.83-5.83,1.5-7.33,4-5.17,10.67-11,5.67c-2.84-2.43-5.52-5.11-7.53-7.21a4,4,0,0,0-6.71,1.48A17.15,17.15,0,0,0,443-7s-1.83,9-8.17,3.17c0,0-8.5-9-6.83-11.17v0a2.57,2.57,0,0,0-4.9-1.38,7.38,7.38,0,0,0-.44,5.24c0.91,2.84.5,4.52-.48,5.56a2.48,2.48,0,0,1-2.27.68c-2.38-.45-6.13,1-6.42-7.41l-2.83-7Z" transform="translate(-0.84 30)"/><path class="cls-2" d="M547.82-30V21.17c-0.1.93-4.58,3.44-5.33,4-0.93.7-3-1.35-4.26-2.16A2.85,2.85,0,0,1,537,20.15c0.54-3.54,1.82-13.91-.16-21.55a6.28,6.28,0,0,0-6.26-4.74c-3,.11-6.44-0.79-5.46-5.92a7.34,7.34,0,0,0-1.65-6.44,6.78,6.78,0,0,0-5.18-2.11s1,9.83-3,11.17c0,0-8.67,1.5-8-6.67,0,0-1.83-6.5-3.33-6.33s0.65,17.27.37,27c0,0.51-.34,1-0.41,1.47-0.48,3.89-5.24,8.7-11.71,3.62a6.18,6.18,0,0,1-1.67-2.05c-3.83-7.51-3.72-8.92-3-13.13-2.33-2.67.25-5.92-1.25-9.92s-2.83-5.83-10-4.83-5.83,1.5-7.33,4-5.17,10.67-11,5.67c-2.84-2.43-5.52-5.11-7.53-7.21a4,4,0,0,0-6.71,1.48,17.15,17.15,0,0,0-.77,6.06s-1.83,9-8.17,3.17c0,0-8.5-9-6.83-11.17v0a2.57,2.57,0,0,0-4.9-1.38,7.38,7.38,0,0,0-.44,5.24c0.91,2.84.5,4.52-.48,5.56a2.48,2.48,0,0,1-2.27.68c-2.38-.45-6.13,1-6.42-7.41L410.66-30H547.82Z" transform="translate(-0.84 30)"/><rect class="cls-1" x="547.29" y="0.04" width="137.17" height="11.19"/><path class="cls-1" d="M548-19.69l-1,39.19c-0.78,1-3.13,8.36-1.72,8.11,1.15-.2,10.19-0.49,11.48-1.3a2.85,2.85,0,0,0,1.21-2.86c-0.54-3.54-1.82-13.91.16-21.55a6.28,6.28,0,0,1,6.26-4.74c3,0.11,6.44-.79,5.46-5.92a7.34,7.34,0,0,1,1.65-6.44,6.78,6.78,0,0,1,5.18-2.11s-1,9.83,3,11.17c0,0,8.67,1.5,8-6.67,0,0,1.83-6.5,3.33-6.33s-0.65,17.27-.37,27c0,0.51.34,1,.41,1.47,0.18,1.45,5.54,8.46,11.71,3.62a6.18,6.18,0,0,0,1.67-2.05c3.83-7.51,3.72-8.92,3-13.13,2.33-2.67-.25-5.92,1.25-9.92s2.83-5.83,10-4.83,5.83,1.5,7.33,4S631.14-2.3,637-7.3c2.84-2.43,5.52-5.11,7.53-7.21A4,4,0,0,1,651.2-13,17.15,17.15,0,0,1,652-7s1.83,9,8.17,3.17c0,0,8.5-9,6.83-11.17v0c-0.42-3,3.81-3.87,4.9-1.38a7.38,7.38,0,0,1,.44,5.24c-0.91,2.84-.5,4.52.48,5.56a2.48,2.48,0,0,0,2.27.68c2.38-.45,6.13,1,6.42-7.41l3.83-7Z" transform="translate(-0.84 30)"/><path class="cls-2" d="M545.75-30L542.9,24.89c0.1,0.93,8.18.47,8.93,1,0.93,0.7,3.11-2.06,4.39-2.87a2.85,2.85,0,0,0,1.21-2.86c-0.54-3.54-1.82-13.91.16-21.55a6.28,6.28,0,0,1,6.26-4.74c3,0.11,6.44-.79,5.46-5.92A7.34,7.34,0,0,1,571-18.47a6.78,6.78,0,0,1,5.18-2.11s-1,9.83,3,11.17c0,0,8.67,1.5,8-6.67,0,0,1.83-6.5,3.33-6.33s-0.65,17.27-.37,27c0,0.51.34,1,.41,1.47,0.48,3.88,5.23,8.7,11.7,3.62a6.2,6.2,0,0,0,1.67-2.06c3.83-7.5,3.72-8.91,3-13.13,2.33-2.67-.25-5.92,1.25-9.92s2.83-5.83,10-4.83,5.83,1.5,7.33,4,5.17,10.67,11,5.67C639.31-13,642-15.68,644-17.79a4,4,0,0,1,6.7,1.48,17.15,17.15,0,0,1,.77,6.07s1.83,9,8.17,3.17c0,0,8.5-9,6.83-11.17v0c-0.42-3,3.81-3.87,4.9-1.38a7.38,7.38,0,0,1,.44,5.24c-0.85,2.64-.55,4.28.29,5.34a2.58,2.58,0,0,0,2.49.91c2.38-.44,6.11,1,6.39-7.41L684.8-30H545.75Z" transform="translate(-0.84 30)"/><rect class="cls-1" x="684.3" y="-29.96" width="137.17" height="11.19" transform="translate(1504.93 -18.73) rotate(-180)"/><path class="cls-1" d="M821.62-19.69l3.52,46.36c-0.1.93-8.29,1.28-10.34,0.67-1.37-.41-1.85.26-2.92-1a3.69,3.69,0,0,1-1.21-2.86c0.54-3.54,1.82-13.91-.16-21.55a6.28,6.28,0,0,0-6.26-4.74c-3,.11-6.44-0.79-5.46-5.92a7.34,7.34,0,0,0-1.65-6.44A6.78,6.78,0,0,0,792-17.3s1,9.83-3,11.17c0,0-8.67,1.5-8-6.67,0,0-1.83-6.5-3.33-6.33s0.65,17.27.37,27c0,0.51-.34,1-0.41,1.47-0.18,1.45-5.54,8.46-11.71,3.62a6.18,6.18,0,0,1-1.67-2.05c-3.83-7.51-3.72-8.92-3-13.13-2.33-2.67.25-5.92-1.25-9.92S757.14-18,750-17s-5.83,1.5-7.33,4-5.17,10.67-11,5.67c-2.84-2.43-5.52-5.11-7.53-7.21A4,4,0,0,0,717.4-13,17.15,17.15,0,0,0,716.64-7s-1.83,9-8.17,3.17c0,0-8.5-9-6.83-11.17v0a2.57,2.57,0,0,0-4.9-1.38,7.38,7.38,0,0,0-.44,5.24c0.91,2.84.5,4.52-.48,5.56a2.48,2.48,0,0,1-2.27.68c-2.38-.45-6.13,1-6.42-7.41l-2.83-7Z" transform="translate(-0.84 30)"/><path class="cls-2" d="M821.47-30l0.92,52.44c-0.1.93-5.5,2.17-6.25,2.73-0.93.7-3-1.35-4.26-2.16a2.85,2.85,0,0,1-1.21-2.86c0.54-3.54,1.82-13.91-.16-21.55a6.28,6.28,0,0,0-6.26-4.74c-3,.11-6.44-0.79-5.46-5.92a7.34,7.34,0,0,0-1.65-6.44A6.78,6.78,0,0,0,792-20.57s1,9.83-3,11.17c0,0-8.67,1.5-8-6.67,0,0-1.83-6.5-3.33-6.33s0.65,17.27.37,27c0,0.51-.34,1-0.41,1.47-0.48,3.89-5.24,8.7-11.71,3.62a6.18,6.18,0,0,1-1.67-2.05c-3.83-7.51-3.72-8.92-3-13.13-2.33-2.67.25-5.92-1.25-9.92s-2.83-5.83-10-4.83-5.83,1.5-7.33,4-5.17,10.67-11,5.67c-2.84-2.43-5.52-5.11-7.53-7.21a4,4,0,0,0-6.71,1.48,17.15,17.15,0,0,0-.77,6.06s-1.83,9-8.17,3.17c0,0-8.5-9-6.83-11.17v0a2.57,2.57,0,0,0-4.9-1.38,7.38,7.38,0,0,0-.44,5.24c0.91,2.84.5,4.52-.48,5.56a2.48,2.48,0,0,1-2.27.68c-2.38-.45-6.13,1-6.42-7.41L684.3-30H821.47Z" transform="translate(-0.84 30)"/><rect class="cls-1" x="820.78" y="0.04" width="137.17" height="11.19"/><path class="cls-1" d="M821.47-19.69l1.16,39.35c-0.78,1,2.17,8,3.58,7.71a10.34,10.34,0,0,0,4-1,2.85,2.85,0,0,0,1.21-2.86c-0.54-3.54-1.82-13.91.16-21.55a6.28,6.28,0,0,1,6.26-4.74c3,0.11,6.44-.79,5.46-5.92a7.34,7.34,0,0,1,1.65-6.44,6.78,6.78,0,0,1,5.18-2.11s-1,9.83,3,11.17c0,0,8.67,1.5,8-6.67,0,0,1.83-6.5,3.33-6.33s-0.65,17.27-.37,27c0,0.51.34,1,.41,1.47,0.18,1.45,5.54,8.46,11.71,3.62a6.18,6.18,0,0,0,1.67-2.05c3.83-7.51,3.72-8.92,3-13.13,2.33-2.67-.25-5.92,1.25-9.92S885-18,892.12-17s5.83,1.5,7.33,4,5.17,10.67,11,5.67C913.3-9.73,916-12.4,918-14.5A4,4,0,0,1,924.69-13,17.15,17.15,0,0,1,925.46-7s1.83,9,8.17,3.17c0,0,8.5-9,6.83-11.17v0c-0.42-3,3.81-3.87,4.9-1.38a7.38,7.38,0,0,1,.44,5.24c-0.91,2.84-.5,4.52.48,5.56a2.48,2.48,0,0,0,2.27.68c2.38-.45,6.13,1,6.42-7.41l3.83-7Z" transform="translate(-0.84 30)"/><path class="cls-2" d="M815-30l5.63,53.53c1.44,0.44,4.75-1.6,5.5-1a3.11,3.11,0,0,0,3.57.51,2.85,2.85,0,0,0,1.21-2.86c-0.54-3.54-1.82-13.91.16-21.55a6.28,6.28,0,0,1,6.26-4.74c3,0.11,6.44-.79,5.46-5.92a7.34,7.34,0,0,1,1.65-6.44,6.78,6.78,0,0,1,5.18-2.11s-1,9.83,3,11.17c0,0,8.67,1.5,8-6.67,0,0,1.83-6.5,3.33-6.33s-0.65,17.27-.37,27c0,0.51.34,1,.41,1.47,0.48,3.88,5.23,8.7,11.7,3.62a6.2,6.2,0,0,0,1.67-2.06c3.83-7.5,3.72-8.91,3-13.13,2.33-2.67-.25-5.92,1.25-9.92s2.83-5.83,10-4.83,5.83,1.5,7.33,4,5.17,10.67,11,5.67c2.84-2.44,5.53-5.11,7.53-7.21a4,4,0,0,1,6.7,1.48,17.15,17.15,0,0,1,.77,6.07s1.83,9,8.17,3.17c0,0,8.5-9,6.83-11.17v0c-0.42-3,3.81-3.87,4.9-1.38a7.38,7.38,0,0,1,.44,5.24c-0.85,2.64-.55,4.28.29,5.34a2.58,2.58,0,0,0,2.49.91c2.38-.44,6.11,1,6.39-7.41L958.29-30H815Z" transform="translate(-0.84 30)"/><rect class="cls-1" x="957.79" y="-29.96" width="137.17" height="11.19" transform="translate(2051.91 -18.73) rotate(-180)"/><path class="cls-1" d="M1095.11-19.69V26.7c-0.1.93-4.76,1.25-6.82,0.64-1.37-.41-1.85.26-2.92-1a3.69,3.69,0,0,1-1.21-2.86c0.54-3.54,1.82-13.91-.16-21.55a6.28,6.28,0,0,0-6.26-4.74c-3,.11-6.44-0.79-5.46-5.92a7.34,7.34,0,0,0-1.65-6.44,6.78,6.78,0,0,0-5.18-2.11s1,9.83-3,11.17c0,0-8.67,1.5-8-6.67,0,0-1.83-6.5-3.33-6.33s0.65,17.27.37,27c0,0.51-.34,1-0.41,1.47-0.18,1.45-5.54,8.46-11.71,3.62a6.18,6.18,0,0,1-1.67-2.05c-3.83-7.51-3.72-8.92-3-13.13-2.33-2.67.25-5.92-1.25-9.92s-2.83-5.83-10-4.83-5.83,1.5-7.33,4-5.17,10.67-11,5.67c-2.84-2.43-5.52-5.11-7.53-7.21A4,4,0,0,0,990.89-13,17.15,17.15,0,0,0,990.12-7S988.29,2,982-3.8c0,0-8.5-9-6.83-11.17v0a2.57,2.57,0,0,0-4.9-1.38,7.38,7.38,0,0,0-.44,5.24c0.91,2.84.5,4.52-.48,5.56a2.48,2.48,0,0,1-2.27.68c-2.38-.45-6.13,1-6.42-7.41l-2.83-7Z" transform="translate(-0.84 30)"/><path class="cls-2" d="M1095-30V21.2c-0.1.93-4.58,3.44-5.33,4-0.93.7-3-1.35-4.26-2.16a2.85,2.85,0,0,1-1.21-2.86c0.54-3.54,1.82-13.91-.16-21.55a6.28,6.28,0,0,0-6.26-4.74c-3,.11-6.44-0.79-5.46-5.92a7.34,7.34,0,0,0-1.65-6.44,6.78,6.78,0,0,0-5.18-2.11s1,9.83-3,11.17c0,0-8.67,1.5-8-6.67,0,0-1.83-6.5-3.33-6.33s0.65,17.27.37,27c0,0.51-.34,1-0.41,1.47-0.48,3.89-5.24,8.7-11.71,3.62a6.18,6.18,0,0,1-1.67-2.05c-3.83-7.51-3.72-8.92-3-13.13-2.33-2.67.25-5.92-1.25-9.92s-2.83-5.83-10-4.83-5.83,1.5-7.33,4-5.17,10.67-11,5.67c-2.84-2.43-5.52-5.11-7.53-7.21a4,4,0,0,0-6.71,1.48,17.15,17.15,0,0,0-.77,6.06s-1.83,9-8.17,3.17c0,0-8.5-9-6.83-11.17v0a2.57,2.57,0,0,0-4.9-1.38,7.38,7.38,0,0,0-.44,5.24c0.91,2.84.5,4.52-.48,5.56a2.48,2.48,0,0,1-2.27.68c-2.38-.45-6.13,1-6.42-7.41L957.79-30H1095Z" transform="translate(-0.84 30)"/></svg>