<svg xmlns="http://www.w3.org/2000/svg" viewBox="0 0 951.68 952.02"><defs><style>.cls-1{isolation:isolate;}.cls-2{fill:#22141a;}.cls-3{fill:#980100;}.cls-32,.cls-4{fill:#fff;}.cls-12,.cls-5{fill:#f28a2c;}.cls-6{fill:#feb546;}.cls-7{fill:#ff5860;}.cls-24,.cls-8{fill:#02ccc0;}.cls-9{fill:#e6f7ff;}.cls-10{fill:#ff5b7e;}.cls-11{fill:#f4a640;}.cls-12,.cls-24,.cls-30,.cls-32{opacity:0.5;}.cls-12,.cls-23,.cls-24,.cls-29,.cls-36,.cls-39{mix-blend-mode:multiply;}.cls-13{fill:#f4aaa6;}.cls-14{fill:#fee4cb;}.cls-15{fill:#e8b891;}.cls-16,.cls-31{fill:#f9537f;}.cls-17{fill:#e0366b;}.cls-18{fill:#ff85a5;}.cls-19{fill:#3d3a55;}.cls-20{fill:#ffc0bb;}.cls-21{fill:#aad9f9;}.cls-22{fill:#333;}.cls-23{fill:#e87b50;}.cls-23,.cls-29,.cls-36,.cls-39{opacity:0.3;}.cls-25{fill:#990d1d;}.cls-26{fill:#5e2f11;}.cls-27,.cls-29{fill:#bc1e2c;}.cls-28{fill:#cf283c;}.cls-30{fill:#fddfeb;mix-blend-mode:color-dodge;}.cls-31{mix-blend-mode:overlay;}.cls-33{fill:#07085b;}.cls-34{fill:#cae7ff;}.cls-35,.cls-36{fill:#f99893;}.cls-37,.cls-43{fill:#fc8d84;}.cls-38{fill:#70c0fd;}.cls-39{fill:#026eaf;}.cls-40{fill:#444;}.cls-41{fill:#040744;}.cls-42{fill:#fffff5;}.cls-43{opacity:0.6;}.cls-44{fill:#010001;}</style></defs><title>7772</title><g class="cls-1"><g id="Layer_1" data-name="Layer 1"><path class="cls-2" d="M463.68,91.87c-1.1,14.79,3,38.4-7,49-10.49,11.09-33,11.41-51.33,7.67-31-1.33-58.91-24.44-61.33-56.67-2.67-35.46,26.48-66.35,60-67S466.53,53.46,463.68,91.87Z"/><path class="cls-3" d="M459,84.87c0,14.91,6.3,38.64-3.67,48s-36.19,4.33-50.83,4.33c-29.27,0-54.5-26.18-54.5-56s23.73-54,53-54S459,55,459,84.87Z"/><path class="cls-4" d="M403.68,69.7s12.67,7.83,11.5,26.83c0,0-18.5-9-21.33,0,0,0-1.67,3.5,7,4.67,0,0,7,3.33,7,6.5S392.18,114,387,98c0,0-8.5-29.83,16.83-40,0,0,12.33-3.67,6.83-9.5,0,0-15.74.31-24.74,7,0,0-16.26,9.35-19.59,27,0,0-4.5,21.17,3.67,29.5,0,0,17,28,46,2.33-0.45,1.35,18,12.83,19.67-.17,0,0,3.5-10.33-4.17-9.33-11.67,2.5-5.5-7.5-5.5-7.5s11.67-31.67-10-40.5C416,56.87,399.34,59.87,403.68,69.7Z"/><path class="cls-4" d="M445.93,49.42c-1.89-.6-5.26-1.1-10.87-0.29a3.39,3.39,0,0,0-2.88,3.6,179.45,179.45,0,0,1,.38,21.69s2.06,4,7.4,0c0,0,8.06-8.33,8.06-13v-9.1A3,3,0,0,0,445.93,49.42Z"/><circle class="cls-4" cx="444.2" cy="125.2" r="9.06"/><circle cx="444.2" cy="125.2" r="5.16"/><circle class="cls-5" cx="239.1" cy="602.1" r="88.14" transform="translate(-381.21 788.97) rotate(-85.11)"/><circle class="cls-6" cx="239.1" cy="602.1" r="83.02" transform="translate(-381.21 788.97) rotate(-85.11)"/><circle class="cls-4" cx="239.1" cy="602.1" r="79.49" transform="translate(-381.21 788.97) rotate(-85.11)"/><path class="cls-7" d="M241.46,525.59a76.25,76.25,0,0,0-48.68,15.56,1.76,1.76,0,0,0-.28,2.54l42,49.86a1.76,1.76,0,0,0,3.1-1l5.57-65.06A1.76,1.76,0,0,0,241.46,525.59Z"/><path class="cls-7" d="M231.24,596.28l-42-49.84a1.76,1.76,0,0,0-2.55-.15,76.25,76.25,0,0,0-23.44,45.33,1.76,1.76,0,0,0,1.6,2l64.88,5.56A1.76,1.76,0,0,0,231.24,596.28Z"/><path class="cls-7" d="M229.38,603.4l-64.88-5.56a1.76,1.76,0,0,0-1.91,1.69A76.25,76.25,0,0,0,178,648.2a1.76,1.76,0,0,0,2.54.29l49.84-42A1.76,1.76,0,0,0,229.38,603.4Z"/><path class="cls-7" d="M247.39,527.84l-5.57,65.09a1.76,1.76,0,0,0,2.89,1.5l50.05-42.16a1.76,1.76,0,0,0,.15-2.56,76.25,76.25,0,0,0-45.53-23.47A1.76,1.76,0,0,0,247.39,527.84Z"/><path class="cls-7" d="M233.1,609.75l-49.86,42a1.76,1.76,0,0,0-.15,2.55,76.25,76.25,0,0,0,45.33,23.61,1.76,1.76,0,0,0,2-1.59L236,611.25A1.76,1.76,0,0,0,233.1,609.75Z"/><path class="cls-7" d="M248.43,600.77l65.27,5.59a1.76,1.76,0,0,0,1.91-1.69,76.25,76.25,0,0,0-15.56-48.88,1.76,1.76,0,0,0-2.54-.28l-50.06,42.17A1.76,1.76,0,0,0,248.43,600.77Z"/><path class="cls-7" d="M246.57,607.89L288.74,658a1.76,1.76,0,0,0,2.55.15,76.25,76.25,0,0,0,23.64-45.52,1.76,1.76,0,0,0-1.6-2L248.07,605A1.76,1.76,0,0,0,246.57,607.89Z"/><path class="cls-7" d="M240.22,611.61l-5.57,65.09a1.76,1.76,0,0,0,1.69,1.91,76.25,76.25,0,0,0,48.85-15.39,1.76,1.76,0,0,0,.29-2.54l-42.16-50.05A1.76,1.76,0,0,0,240.22,611.61Z"/><path class="cls-8" d="M245,896.21s85.45-100.51,47-123.37c0,0-6.26-11.87-38.21,26.31,0,0-18.24,4.45-17.63-16.25s32.27-49.79,15.05-69.13-29.35,12.08-43,17.16-0.93-76.65-18.44-86.9-25,21.8-35.49,24.79-33.06-95.18-83.14-81.2,2.72,54.22,24.33,78.25-25.63,7.86-32.89,35.85,80.58,11.88,70.62,38.87-33.39,9.32-39.6,29.58c-10,32.75,77.73,7.4,74,30.2-3,18.18-32.94,3.72-37.35,17.61S175.39,886.76,245,896.21Z"/><path class="cls-9" d="M294.53,774.64q-0.5-.41-1-0.79c-1.81,4.27-4,8.91-6.59,13.71-9.57,17.64-27,41.11-55.67,53.09a441.82,441.82,0,0,0-22.32-49.84c10.59-41.09,27-63.22,38.95-74.55,1-1,2-1.89,3-2.76q-0.44-.48-0.88-0.92c-1,.84-2,1.73-3,2.68-11.94,11.31-28.34,33.29-39,73.86l-0.11-.22c-9.34-17.84-20.34-36.5-32.87-55.81a302.33,302.33,0,0,1,.67-40.65c1.29-15.12,4.27-34.27,11-49.82a12.47,12.47,0,0,0-1.23-.34c-6.77,15.69-9.76,34.89-11.05,50.05a309.94,309.94,0,0,0-.78,38.64q-14.4-22-31.42-45.11c-31.59-42.83-62.43-78-78.55-95.69l-1.22.55c16,17.59,47,52.86,78.75,95.9,5.34,7.24,10.84,14.89,16.39,22.88a306.27,306.27,0,0,0-37-6.83c-15.45-1.91-36.43-3.31-58-1.16l-0.06.2c-0.1.38-.17,0.74-0.24,1.1,21.57-2.2,42.62-.8,58.1,1.12a295.72,295.72,0,0,1,38.31,7.18c12.28,17.73,24.77,37.08,36.32,57.19-29.66-6.08-78.16.49-102.08,4.46q-0.11.67-.15,1.31c24-4,73.59-10.78,103.08-4.3,16.36,28.66,30.74,58.82,39.79,88.06-25.38,2.11-54.26-11.35-74.11-23.1a304.13,304.13,0,0,1-29.47-20,7.72,7.72,0,0,0-.8,1,305.39,305.39,0,0,0,29.6,20.06c20.09,11.89,49.37,25.52,75.16,23.26a229.53,229.53,0,0,1,8.23,37l0.65,0.1,0.55-.65c-2.19-16.54-6.82-34.49-13.85-53.71q2.81-1.17,5.54-2.51a105.52,105.52,0,0,0,29-21.24,134.75,134.75,0,0,0,21.78-30C290.59,783.41,292.74,778.85,294.53,774.64Z"/><path class="cls-10" d="M239.26,864.82S212,787.41,116,752.58l7.11,29.31-17.89-31.52S48.67,732.47,5.9,730.54c0,0,62.84,75.07,81.56,87.07l30.3,3-22.9,14.19s34,42.59,81.46,56.17S239.26,864.82,239.26,864.82Z"/><path class="cls-6" d="M0,862.65c15.78,23.46,34.22,39.25,53.7,49.47,9.16-7.76,20.25-16.79,20.25-16.79l-6.53,23c77.6,30.25,165.15-17.09,165.15-17.09-33.82-52.17-69.6-75.11-102.68-82.12-4.46,7.36-11,18.38-11,18.38l0.22-20.13a123.2,123.2,0,0,0-46,3.73c-0.05,10.46-.38,22.33-0.38,22.33l-13-18A184.32,184.32,0,0,0,0,862.65Z"/><path class="cls-11" d="M129.89,819.14c-4.46,7.36-11,18.38-11,18.38l0.22-20.13a123.2,123.2,0,0,0-46,3.73c-0.05,10.46-.38,22.33-0.38,22.33l-13-18A184.32,184.32,0,0,0,0,862.65c87.74,43.58,232.57,38.62,232.57,38.62C198.75,849.1,163,826.16,129.89,819.14Z"/><path class="cls-12" d="M246.62,514.28a87.73,87.73,0,0,0-49.28,10.19c-0.44,2.48-.78,5-1,7.57a83,83,0,0,0,130.77,74.77A88.14,88.14,0,0,0,246.62,514.28Z"/><circle class="cls-5" cx="300.53" cy="517.57" r="88.14" transform="translate(-240.79 772.86) rotate(-85.11)"/><circle class="cls-6" cx="300.53" cy="517.57" r="83.02" transform="translate(-240.79 772.86) rotate(-85.11)"/><circle class="cls-4" cx="300.53" cy="517.57" r="79.49" transform="translate(-240.79 772.85) rotate(-85.11)"/><path class="cls-7" d="M302.89,441.05a76.25,76.25,0,0,0-48.68,15.56,1.76,1.76,0,0,0-.28,2.54l42,49.86a1.76,1.76,0,0,0,3.1-1L304.59,443A1.76,1.76,0,0,0,302.89,441.05Z"/><path class="cls-7" d="M292.67,511.75l-42-49.84a1.76,1.76,0,0,0-2.55-.15,76.25,76.25,0,0,0-23.44,45.33,1.76,1.76,0,0,0,1.6,2l64.88,5.56A1.76,1.76,0,0,0,292.67,511.75Z"/><path class="cls-7" d="M290.81,518.87l-64.88-5.55A1.76,1.76,0,0,0,224,515a76.24,76.24,0,0,0,15.39,48.66A1.76,1.76,0,0,0,242,564l49.84-42A1.76,1.76,0,0,0,290.81,518.87Z"/><path class="cls-7" d="M308.83,443.31l-5.57,65.09a1.76,1.76,0,0,0,2.89,1.5l50.05-42.16a1.76,1.76,0,0,0,.15-2.55,76.25,76.25,0,0,0-45.53-23.47A1.76,1.76,0,0,0,308.83,443.31Z"/><path class="cls-7" d="M294.53,525.22l-49.86,42a1.76,1.76,0,0,0-.15,2.55,76.25,76.25,0,0,0,45.33,23.61,1.76,1.76,0,0,0,2-1.6l5.57-65.06A1.76,1.76,0,0,0,294.53,525.22Z"/><path class="cls-6" d="M309.86,516.24l65.27,5.59a1.76,1.76,0,0,0,1.91-1.69,76.25,76.25,0,0,0-15.56-48.88,1.76,1.76,0,0,0-2.54-.28l-50.06,42.17A1.76,1.76,0,0,0,309.86,516.24Z"/><path class="cls-6" d="M308,523.36l42.17,50.06a1.76,1.76,0,0,0,2.55.15,76.25,76.25,0,0,0,23.64-45.52,1.76,1.76,0,0,0-1.6-2l-65.27-5.59A1.76,1.76,0,0,0,308,523.36Z"/><path class="cls-6" d="M301.65,527.08l-5.57,65.09a1.76,1.76,0,0,0,1.69,1.91,76.25,76.25,0,0,0,48.85-15.39,1.76,1.76,0,0,0,.29-2.54L304.75,526.1A1.76,1.76,0,0,0,301.65,527.08Z"/><circle class="cls-5" cx="798.36" cy="511.36" r="88.14" transform="matrix(1, -0.09, 0.09, 1, -40.71, 69.97)"/><circle class="cls-6" cx="798.36" cy="511.36" r="83.02" transform="translate(-40.71 69.97) rotate(-4.89)"/><circle class="cls-4" cx="798.36" cy="511.36" r="79.49" transform="translate(-40.71 69.97) rotate(-4.89)"/><path class="cls-7" d="M796,434.84a76.25,76.25,0,0,1,48.68,15.56,1.76,1.76,0,0,1,.28,2.54L803,502.8a1.76,1.76,0,0,1-3.1-1l-5.57-65.06A1.76,1.76,0,0,1,796,434.84Z"/><path class="cls-7" d="M806.22,505.54l42-49.84a1.76,1.76,0,0,1,2.56-.15,76.24,76.24,0,0,1,23.44,45.33,1.76,1.76,0,0,1-1.6,2l-64.88,5.56A1.76,1.76,0,0,1,806.22,505.54Z"/><path class="cls-7" d="M808.08,512.66L873,507.11a1.76,1.76,0,0,1,1.91,1.69,76.25,76.25,0,0,1-15.39,48.66,1.76,1.76,0,0,1-2.54.29l-49.84-42A1.76,1.76,0,0,1,808.08,512.66Z"/><path class="cls-7" d="M790.07,437.1l5.57,65.09a1.76,1.76,0,0,1-2.89,1.5L742.7,461.52a1.76,1.76,0,0,1-.15-2.55,76.25,76.25,0,0,1,45.53-23.47A1.76,1.76,0,0,1,790.07,437.1Z"/><path class="cls-7" d="M804.36,519l49.86,42a1.76,1.76,0,0,1,.15,2.55A76.25,76.25,0,0,1,809,587.17a1.76,1.76,0,0,1-2-1.59l-5.57-65.07A1.76,1.76,0,0,1,804.36,519Z"/><path class="cls-7" d="M789,510l-65.27,5.59a1.76,1.76,0,0,1-1.91-1.69A76.25,76.25,0,0,1,737.41,465a1.76,1.76,0,0,1,2.54-.28L790,506.93A1.76,1.76,0,0,1,789,510Z"/><path class="cls-7" d="M790.89,517.15l-42.17,50.06a1.76,1.76,0,0,1-2.55.15,76.25,76.25,0,0,1-23.64-45.52,1.76,1.76,0,0,1,1.6-2l65.27-5.59A1.76,1.76,0,0,1,790.89,517.15Z"/><path class="cls-7" d="M797.24,520.87L802.81,586a1.76,1.76,0,0,1-1.69,1.91,76.25,76.25,0,0,1-48.85-15.39,1.76,1.76,0,0,1-.29-2.54l42.16-50.05A1.76,1.76,0,0,1,797.24,520.87Z"/><path class="cls-12" d="M790.85,423.54a87.73,87.73,0,0,1,49.28,10.19c0.44,2.48.78,5,1,7.57a83,83,0,0,1-130.77,74.77A88.14,88.14,0,0,1,790.85,423.54Z"/><path class="cls-13" d="M441.83,179.63l3.76,11.08a9.56,9.56,0,0,0,11.53,6.17l30-8-3.55-4.19s-22.54,3.41-24.37,3.22S456,175.23,456,175.23Z"/><circle class="cls-5" cx="733.91" cy="405.4" r="88.14" transform="translate(-87.76 238.56) rotate(-17.44)"/><circle class="cls-6" cx="733.91" cy="405.4" r="83.02" transform="translate(-87.76 238.56) rotate(-17.44)"/><circle class="cls-4" cx="733.91" cy="405.4" r="79.49" transform="translate(-87.76 238.56) rotate(-17.44)"/><path class="cls-7" d="M715,331.22a76.25,76.25,0,0,1,50.9,4.62,1.76,1.76,0,0,1,.83,2.42L736.55,396a1.76,1.76,0,0,1-3.24-.29l-19.57-62.3A1.76,1.76,0,0,1,715,331.22Z"/><path class="cls-7" d="M740.32,398l30.15-57.77a1.76,1.76,0,0,1,2.46-.7,76.24,76.24,0,0,1,32.73,39.16,1.76,1.76,0,0,1-1.12,2.29L742.4,400.51A1.76,1.76,0,0,1,740.32,398Z"/><path class="cls-7" d="M743.68,404.56L805.8,385a1.76,1.76,0,0,1,2.23,1.24,76.25,76.25,0,0,1-4.46,50.84,1.76,1.76,0,0,1-2.42.83L743.39,407.8A1.76,1.76,0,0,1,743.68,404.56Z"/><path class="cls-7" d="M709.68,334.71L729.26,397a1.76,1.76,0,0,1-2.49,2.09l-58-30.28a1.76,1.76,0,0,1-.7-2.46,76.25,76.25,0,0,1,39.34-32.8A1.76,1.76,0,0,1,709.68,334.71Z"/><path class="cls-7" d="M741.42,411.56l57.79,30.16a1.76,1.76,0,0,1,.7,2.46,76.25,76.25,0,0,1-39.12,32.89,1.76,1.76,0,0,1-2.3-1.12l-19.57-62.3A1.76,1.76,0,0,1,741.42,411.56Z"/><path class="cls-7" d="M724.51,406.13L662,425.76a1.76,1.76,0,0,1-2.23-1.24,76.25,76.25,0,0,1,4.57-51.09,1.76,1.76,0,0,1,2.42-.83l58,30.29A1.76,1.76,0,0,1,724.51,406.13Z"/><path class="cls-7" d="M727.87,412.67l-30.29,58a1.76,1.76,0,0,1-2.46.7,76.25,76.25,0,0,1-33-39.3,1.76,1.76,0,0,1,1.12-2.29l62.5-19.63A1.76,1.76,0,0,1,727.87,412.67Z"/><path class="cls-7" d="M734.88,414.93l19.58,62.32a1.76,1.76,0,0,1-1.23,2.23,76.25,76.25,0,0,1-51-4.41,1.76,1.76,0,0,1-.83-2.42l30.28-58A1.76,1.76,0,0,1,734.88,414.93Z"/><path class="cls-14" d="M855.16,682.86l-41.68-20.51L534.26,702.73,255.05,662.35l-41.68,20.51S197.8,829.2,215.48,896.77c0,0,33.94,48.94,305.91,53.39v0.28q6.52,0,12.87-.11t12.87,0.11v-0.28C819.1,945.7,853,896.77,853,896.77,870.73,829.2,855.16,682.86,855.16,682.86Z"/><path class="cls-15" d="M207.6,770c-1,30.74-.9,64.79,2.19,93.56,278.26,85.74,565.73,21.33,649.06-1,3-28.43,3.07-61.85,2.1-92.12C571.59,866.22,287.26,794.09,207.6,770Z"/><path class="cls-16" d="M200.81,662.35s-17.69,133.38,20.83,144.12S258.26,724.38,293,738.9c0,0,15.58,4.42,16.84,38.52s2.95,62.3,27.78,61.46,19.79-81.25,40-93.88,34.1,6.31,31.15,45S401.61,908.77,442,909.19c32.48,0.34,45.11-60.49,48.82-84.4a73.42,73.42,0,0,1,9.91-27.27c4.86-7.9,11.35-15.22,18.31-14.21,14.52,2.11,10.1,24,25.26,24s18.52-25.26,33.68-24,9.26,86.72,47.57,90.51,30.31-69.88,30.31-69.88-2.53-59.78,10.95-62.3,22.31,39.57,26.1,56.41,10.52,47.57,24.84,48.41,27.36-17.82,24.42-60.69,15.16-49.18,15.16-49.18,15.58-6.74,34.1,28.21,17.26,45,35.78,43.36,48.61-67,39.14-145.8c0,0-444.54,30.45-447.7,30.45S200.81,662.35,200.81,662.35Z"/><path class="cls-17" d="M512.26,772.65c-7-1-13.45,6.32-18.31,14.21A73.42,73.42,0,0,0,484,814.12c-3.71,23.91-16.34,84.73-48.82,84.39a25.11,25.11,0,0,1-19.11-8.67c5.32,11.6,13.52,19.21,25.91,19.34,32.48,0.34,45.11-60.49,48.82-84.4a73.41,73.41,0,0,1,9.91-27.27c4.86-7.9,11.35-15.22,18.31-14.21a11.72,11.72,0,0,1,5.73,2.4C522.13,779.9,519.64,773.72,512.26,772.65Z"/><path class="cls-17" d="M370.81,734.34c-20.21,12.63-15.16,93-40,93.88-6.55.22-11.49-1.58-15.23-5,3.81,10,10.36,16,22,15.64,24.84-.84,19.79-81.25,40-93.88,8.37-5.23,15.65-5,21.1-.28C393.58,730.87,383.43,726.46,370.81,734.34Z"/><path class="cls-17" d="M286.2,728.23c-34.73-14.52-32.84,78.3-71.36,67.57a19.67,19.67,0,0,1-9-5.59c3.72,8.4,8.84,14.33,15.78,16.26,38.52,10.73,36.63-82.09,71.36-67.57a14.7,14.7,0,0,1,5.54,3.72C293.52,730.31,286.2,728.23,286.2,728.23Z"/><path class="cls-17" d="M660,731c-13.47,2.53-10.95,62.3-10.95,62.3s8,73.67-30.31,69.88c-7-.7-12.58-4.15-17-9.33,5.27,10.86,12.68,18.89,23.83,20,38.31,3.79,30.31-69.88,30.31-69.88s-2.53-59.78,10.95-62.3c2.42-.45,4.69.54,6.81,2.57C669.82,735.77,665.27,730,660,731Z"/><path class="cls-17" d="M571.2,772.65c-15.16-1.26-18.52,24-33.68,24a10.89,10.89,0,0,1-6.77-2.08c2.86,6.25,5.31,12.74,13.56,12.74,15.16,0,18.52-25.26,33.68-24a4,4,0,0,1,.69.12C576.73,777.06,574.45,772.92,571.2,772.65Z"/><path class="cls-17" d="M866.36,662.35l-5.71.39c5.57,73.75-22.58,133.14-40.22,134.74-7.13.65-11.32-.45-14.85-4,6,12,9.78,15.78,21.64,14.7C845.74,806.47,875.82,741.14,866.36,662.35Z"/><path class="cls-17" d="M750.53,725.92s-18.1,6.31-15.16,49.18-10.1,61.53-24.42,60.69a12.43,12.43,0,0,1-8.13-4.15c3.76,8.25,8.6,14.45,14.92,14.82,14.31,0.84,27.36-17.82,24.42-60.69s15.16-49.18,15.16-49.18,11.23-4.85,26,15.08C765.37,719.51,750.53,725.92,750.53,725.92Z"/><path class="cls-18" d="M763.71,629.73L533.58,662.05,303.45,629.73s-101.15,8.08-102.65,32.62,240.9,54.37,332.77,53.57c91.87,0.8,334.27-29,332.77-53.57S763.71,629.73,763.71,629.73Z"/><path class="cls-19" d="M813.12,722.58H908a2.26,2.26,0,0,0,2.26-2.26h0a2.26,2.26,0,0,0-2.26-2.26H813.12a2.26,2.26,0,0,0-2.26,2.26h0A2.26,2.26,0,0,0,813.12,722.58Z"/><polygon class="cls-19" points="880.22 742.9 912.25 742.9 911.92 741.11 879.88 741.11 880.22 742.9"/><polygon class="cls-19" points="883.76 761.85 915.8 761.85 915.47 760.05 883.42 760.05 883.76 761.85"/><polygon class="cls-19" points="887.31 780.79 919.35 780.79 919.01 779 886.97 779 887.31 780.79"/><polygon class="cls-19" points="890.85 799.73 922.89 799.73 922.56 797.94 890.52 797.94 890.85 799.73"/><polygon class="cls-19" points="894.4 818.68 926.44 818.68 926.1 816.88 894.06 816.88 894.4 818.68"/><polygon class="cls-19" points="897.94 837.62 929.98 837.62 929.65 835.83 897.61 835.83 897.94 837.62"/><polygon class="cls-19" points="901.49 856.56 933.53 856.56 933.19 854.77 901.15 854.77 901.49 856.56"/><polygon class="cls-19" points="905.03 875.51 937.07 875.51 936.74 873.72 904.7 873.72 905.03 875.51"/><polygon class="cls-19" points="908.58 894.45 940.62 894.45 940.28 892.66 908.24 892.66 908.58 894.45"/><polygon class="cls-19" points="912.13 913.4 944.17 913.4 943.83 911.6 911.79 911.6 912.13 913.4"/><path class="cls-19" d="M875.11,721.68l42,224.45a1.72,1.72,0,0,0,1.62,1.36h0a1.1,1.1,0,0,0,1.11-1.36l-42-224.45a1.72,1.72,0,0,0-1.62-1.36h0A1.1,1.1,0,0,0,875.11,721.68Z"/><path class="cls-19" d="M906.92,721.68l42,224.45a1.72,1.72,0,0,0,1.62,1.36h0a1.1,1.1,0,0,0,1.11-1.36l-42-224.45a1.72,1.72,0,0,0-1.62-1.36h0A1.1,1.1,0,0,0,906.92,721.68Z"/><polygon class="cls-19" points="840.73 742.9 808.69 742.9 809.02 741.11 841.07 741.11 840.73 742.9"/><polygon class="cls-19" points="837.18 761.85 805.14 761.85 805.48 760.05 837.52 760.05 837.18 761.85"/><polygon class="cls-19" points="833.64 780.79 801.6 780.79 801.93 779 833.97 779 833.64 780.79"/><polygon class="cls-19" points="830.09 799.73 798.05 799.73 798.39 797.94 830.43 797.94 830.09 799.73"/><polygon class="cls-19" points="826.55 818.68 794.51 818.68 794.84 816.88 826.88 816.88 826.55 818.68"/><polygon class="cls-19" points="823 837.62 790.96 837.62 791.3 835.83 823.34 835.83 823 837.62"/><polygon class="cls-19" points="819.46 856.56 787.42 856.56 787.75 854.77 819.79 854.77 819.46 856.56"/><polygon class="cls-19" points="815.91 875.51 783.87 875.51 784.21 873.72 816.25 873.72 815.91 875.51"/><polygon class="cls-19" points="812.36 894.45 780.32 894.45 780.66 892.66 812.7 892.66 812.36 894.45"/><polygon class="cls-19" points="808.82 913.4 776.78 913.4 777.11 911.6 809.15 911.6 808.82 913.4"/><path class="cls-19" d="M845.84,721.68l-42,224.45a1.72,1.72,0,0,1-1.62,1.36h0a1.1,1.1,0,0,1-1.11-1.36l42-224.45a1.72,1.72,0,0,1,1.62-1.36h0A1.1,1.1,0,0,1,845.84,721.68Z"/><path class="cls-19" d="M814,721.68L772,946.13a1.72,1.72,0,0,1-1.62,1.36h0a1.1,1.1,0,0,1-1.11-1.36l42-224.45a1.72,1.72,0,0,1,1.62-1.36h0A1.1,1.1,0,0,1,814,721.68Z"/><polygon class="cls-20" points="773.77 945.27 773.77 940.68 779.02 939.23 780.18 939.75 780.38 945.27 778.73 950.09 773.77 945.27"/><rect class="cls-21" x="772.04" y="950.02" width="19.28" height="1.91" rx="0.7" ry="0.7" transform="translate(-9.03 7.5) rotate(-0.55)"/><path class="cls-22" d="M772.86,944.29l-0.59,5.32a1,1,0,0,0,.79,1.24l17-.16a1.24,1.24,0,0,0,1.1-.79,2.3,2.3,0,0,0-.5-2.37c-1.51-2.07-6.36-2.56-8.87-4.26a0.53,0.53,0,0,0-.3-0.09l-7.74.07A1,1,0,0,0,772.86,944.29Z"/><path class="cls-4" d="M780.48,946.28h0a0.36,0.36,0,0,1-.1-0.43,3.28,3.28,0,0,1,3.48-2.17,0.3,0.3,0,0,1,.19.35h0a0.24,0.24,0,0,1-.25.25,2.83,2.83,0,0,0-3,1.88A0.19,0.19,0,0,1,780.48,946.28Z"/><path class="cls-4" d="M782.25,946.95h0a0.36,0.36,0,0,1-.1-0.43,3.28,3.28,0,0,1,3.48-2.17,0.3,0.3,0,0,1,.19.35h0a0.24,0.24,0,0,1-.25.25,2.83,2.83,0,0,0-3,1.88A0.19,0.19,0,0,1,782.25,946.95Z"/><path class="cls-4" d="M783.9,947.57h0a0.36,0.36,0,0,1-.1-0.43,3.28,3.28,0,0,1,3.48-2.17,0.3,0.3,0,0,1,.19.35h0a0.24,0.24,0,0,1-.25.25,2.83,2.83,0,0,0-3,1.88A0.19,0.19,0,0,1,783.9,947.57Z"/><path class="cls-23" d="M777.35,950.11c-1.22-3.17-3-3.87-4.21-3.93a0.52,0.52,0,0,0-.54.46l-0.33,3a1,1,0,0,0,.79,1.24l3.8,0A0.52,0.52,0,0,0,777.35,950.11Z"/><polygon class="cls-20" points="744.13 945.27 744.13 940.68 738.89 939.23 737.72 939.75 737.52 945.27 739.17 950.09 744.13 945.27"/><rect class="cls-21" x="735.27" y="941.34" width="1.91" height="19.28" rx="0.7" ry="0.7" transform="translate(-221.73 1678.1) rotate(-89.45)"/><path class="cls-22" d="M745,944.29l0.59,5.32a1,1,0,0,1-.79,1.24l-17-.16a1.24,1.24,0,0,1-1.1-.79,2.3,2.3,0,0,1,.5-2.37c1.51-2.07,6.36-2.56,8.87-4.26a0.53,0.53,0,0,1,.3-0.09l7.74,0.07A1,1,0,0,1,745,944.29Z"/><path class="cls-4" d="M737.42,946.28h0a0.36,0.36,0,0,0,.1-0.43,3.28,3.28,0,0,0-3.48-2.17,0.3,0.3,0,0,0-.19.35h0a0.24,0.24,0,0,0,.25.25,2.83,2.83,0,0,1,3,1.88A0.19,0.19,0,0,0,737.42,946.28Z"/><path class="cls-4" d="M735.65,946.95h0a0.36,0.36,0,0,0,.1-0.43,3.28,3.28,0,0,0-3.48-2.17,0.3,0.3,0,0,0-.19.35h0a0.24,0.24,0,0,0,.25.25,2.83,2.83,0,0,1,3,1.88A0.19,0.19,0,0,0,735.65,946.95Z"/><path class="cls-4" d="M734,947.57h0a0.36,0.36,0,0,0,.1-0.43,3.28,3.28,0,0,0-3.48-2.17,0.3,0.3,0,0,0-.19.35h0a0.24,0.24,0,0,0,.25.25,2.83,2.83,0,0,1,3,1.88A0.19,0.19,0,0,0,734,947.57Z"/><path class="cls-23" d="M740.55,950.11c1.22-3.17,3-3.87,4.21-3.93a0.52,0.52,0,0,1,.54.46l0.33,3a1,1,0,0,1-.79,1.24l-3.8,0A0.52,0.52,0,0,1,740.55,950.11Z"/><path class="cls-21" d="M784.73,831.39C778.49,840.57,766,853.8,766,853.8h0l5.75,88.92s8.33,0.88,11.19-1.28C783,941.44,785.14,857.14,784.73,831.39Z"/><path class="cls-21" d="M782.37,834.8c0-1.3,2.41,2.53,2.36,1.5-1-21.6-31.24-3.49-31.24-3.49l-6.36-1.31L735.44,942.36s7.6,1.64,12,0L766,854.89S772.68,852.1,782.37,834.8Z"/><path class="cls-20" d="M738.18,786.48l0.67-14.1-3.88.24c-7.79,2-16.11.49-17.64-.39-3.25-1.88.54-21.81,0.54-21.81l-7.21.59s-9.61,25.53-.85,30.78,26.45,5.07,26.45,5.07Z"/><path class="cls-20" d="M825.63,779.8a0.32,0.32,0,0,0,.54.15c1.34-1.41,5.59-5.82,6-5.56s-3.18,4.34-2.92,4.84,3.77-3.53,4.28-3.11-2.82,4-2.67,4.23,3.7-2.82,4.14-2.75-3.19,4-3.09,4.36,3.53-1.64,3.72-1.38S836,781,830,787.09l-3.46,3.56-2.06-.46-2.25-3s1.47-11,1.88-11.17S824.75,776,825.63,779.8Z"/><path class="cls-20" d="M782.05,790.26l10.63-9.3,2.23,3.18c3.28,7.34,9.63,12.92,11.28,13.57,3.49,1.37,16.75-14,16.75-14l4,6s-14,23.41-23.57,19.81S783,792,783,792Z"/><path class="cls-20" d="M760.77,756.8v11.56s11.44-.18,11.49-0.43-0.84-11.56-.84-11.56Z"/><path class="cls-6" d="M780.8,741.22c3.87-.74-3.74-4.79-3.74-4.79s3.31,0.09,3.36-1.39-5.84-1.17-5.84-1.17,4-1.65,3.09-2.52c-0.75-.72-7,0.15-9.14.48,0.54-.61.84-1.29,0.3-1.86-1.33-1.39-9.07,3.6-9.07,3.6h0a10.41,10.41,0,0,0-4.36,4.92s-0.8-1.3-1.22-.9c-0.84.81,0.7,2.06,0.7,2.06a2.64,2.64,0,0,0-1.94-.28,0.29,0.29,0,0,0-.2.24c-0.14,1.1,1.32,1.38,1.32,1.38s-4.45,7.6-.3,6.11c0,0-2.58,6.18.49,5.39,1.5,6.5,7.74,8.17,9.75,7.92a16.27,16.27,0,0,1,4.35.17c10.7,0.3,12.06-9.35,12.06-9.35,2.93,2.09.64-4,.64-4C785.63,748.75,780.8,741.22,780.8,741.22Z"/><path class="cls-11" d="M769.38,754c-3.83,4.09-5.22-.44-5.22-0.44-2.44.7-1.83-3.65-1.83-3.65-6.79-.09-3.39-9.37-3.39-9.37-2.61,0-1-4.1.23-6.6a10.31,10.31,0,0,0-3.77,4.55s-0.8-1.3-1.22-.9c-0.84.81,0.7,2.06,0.7,2.06a2.64,2.64,0,0,0-1.94-.28,0.29,0.29,0,0,0-.2.24c-0.14,1.1,1.32,1.38,1.32,1.38s-4.45,7.6-.3,6.11c0,0-2.58,6.18.49,5.39,1.5,6.5,7.74,8.17,9.75,7.92a16.27,16.27,0,0,1,4.35.17c10.7,0.3,12.06-9.35,12.06-9.35C776.42,760.45,769.38,754,769.38,754Z"/><path class="cls-9" d="M746.29,786.32s-2.56,50.51-2.56,53.26c0,0,24.07,4.4,41.84.92l-4.4-49.11,4.4,5.5S795.82,794,798,788.28c0,0-9.71-18.87-25.1-22.54,0,0-7,3.3-12.64,0,0,0-26.94,6.23-26.94,7s0,8.06,3.85,14.11Z"/><path class="cls-20" d="M719.27,745.86a0.32,0.32,0,0,1-.45-0.33c0.27-1.93,1.08-8,.6-8.18s-1.42,5.19-2,5.3,0.42-5.15-.22-5.28-1.36,4.69-1.65,4.73-0.09-4.65-.42-5-1.15,5-1.49,5.13-0.92-3.78-1.23-3.77-0.53,0-1.57,8.51l-0.64,4.93,1.64,1.33,3.78-.13s7.68-8,7.58-8.42S722.77,744.2,719.27,745.86Z"/><path class="cls-14" d="M534.49,519.92L298,497.05v149s72.09,39.57,236.43,36.63c164.34,2.95,236.43-36.62,236.43-36.62v-149Z"/><path class="cls-15" d="M298,540.13v71.11c186.19,63.83,387.53,25.94,472.85,4.27V545.19C505.63,613,344.3,559.7,298,540.13Z"/><path class="cls-16" d="M299.56,466.94S289.2,574.42,322.88,574s21-46.87,58.09-54.14c0,0,14.31.3,14.73,42s24.42,34.94,24.42,34.94,13.89,1.26,18.94-39.57c0,0,2-25.14,17.4-25.76s3.65,21.83,17.4,27.44c0,0,4.21,1.4,10.95-1.68s13.47,12.91,13.75,31.71,16,46.87,37.33,44.9,34.52-38.45,34.8-66.23,19.65-46.31,27.22-45.47,16.28,2.81,24.7,25,8.7,51.36,23.86,51.08S670.61,582.51,670,553s13.75-32.27,13.75-32.27,14.87-3.37,28.06,22.17S731.23,577.09,745,574s33.89-69.35,22.66-106.67L471.35,492.7l-84.76-11.23s-32.27-6.44-34.52-6.73S299.56,466.94,299.56,466.94Z"/><path class="cls-18" d="M695.45,444.43L533.58,467.16,371.72,444.43s-71.14,5.68-72.2,22.94S469,505.61,533.58,505c64.62,0.56,235.12-20.42,234.06-37.68S695.45,444.43,695.45,444.43Z"/><path class="cls-14" d="M682.4,316s-54.31,2.53-56.41,2.53-92.4,15.58-92.4,15.58-90.3-15.58-92.4-15.58S384.77,316,384.77,316l-13.05,57.46V449.9s45.89,36.2,161.87,32.84c116,3.37,161.87-32.84,161.87-32.84V373.49Z"/><path class="cls-15" d="M371.72,374.81v53.52c162.56,56.71,280.49,18.8,323.73-.15V373.49h0C538.59,415.56,424.54,392,371.72,374.81Z"/><path class="cls-16" d="M703.59,319.54c-0.28-23-8.14-30.45-8.14-30.45S577,297.37,576.17,297.37s-42.59,13.19-42.59,13.19S491.83,297.37,491,297.37s-119.28-8.28-119.28-8.28-7.86,7.44-8.14,30.45,1.12,66.79,13.75,62.87,32-52.2,44.34-51.64,17.4,18,18.8,32,9,57.81,31.15,56.41,26.1-25.26,29.47-37,7.16-38.73,32.49-37.33c25.33-1.4,29.12,25.54,32.49,37.33s7.3,35.64,29.47,37,29.75-42.38,31.15-56.41,6.46-31.43,18.8-32,31.71,47.71,44.34,51.64S703.87,342.55,703.59,319.54Z"/><path class="cls-18" d="M533.58,268.88c-91.56,2.53-161.87,20.21-161.87,20.21,30.73,19.37,161.87,21.47,161.87,21.47s131.13-2.1,161.87-21.47C695.45,289.09,625.14,271.41,533.58,268.88Z"/><path class="cls-8" d="M311.9,413.77s1.27,8,4.57,10.42l-2.28.48s1.24,5.75,5,9.15l-2.16.46s1.93,4.53,5.89,6.48l-2.44.95s4.29,5.75,8.4,6.38l-2.48,1s4.13,3.28,8.38,3l-2,2.16s4.77,2.75,8.95,2.18l-2.2,2.29s14.79,7.09,28.12-6.69l9.15-.9-0.21-1-8-1.87s1-8.4-6.76-15.65l-0.26,3.82s-3.59-8.8-8.4-11.75l-0.18,3.69s-3.17-4.81-7.46-6.8l0.55,3.11s-5.4-5.19-10.25-7.28l0.45,4.12s-4.61-4.53-9.37-5.67l0.37,3.25s-2.13-2.45-7.22-4.16l0.82,3.37S318.48,415.92,311.9,413.77Z"/><path class="cls-24" d="M311.9,413.77s1.27,8,4.57,10.42l-2.28.48s1.24,5.75,5,9.15l-2.16.46s1.93,4.53,5.89,6.48l-2.44.95s4.29,5.75,8.4,6.38l-2.48,1s4.13,3.28,8.38,3l-2,2.16s4.77,2.75,8.95,2.18l-2.2,2.29s14.79,7.09,28.12-6.69l9.15-.9C343.19,448.61,311.9,413.77,311.9,413.77Z"/><path class="cls-8" d="M349.1,397.68s-2.37,5.24-1.35,8l-1.54-.6a14,14,0,0,0-.62,7.37l-1.46-.57a10.11,10.11,0,0,0,1,6.14l-1.82-.39s0.31,5.09,2.5,7.06l-1.85-.4s1.17,3.56,3.79,5.07l-2,.5s1.76,3.49,4.46,4.79l-2.2.5s6,10,19.3,7l5.78,3,0.26-.67-4-4.24a14.11,14.11,0,0,0,2.09-11.92l-1.64,2.16s1.3-6.62-.4-10.25l-1.55,2.12A15.31,15.31,0,0,0,366,415.4l-0.88,2.06a30.78,30.78,0,0,0-3.24-8.31l-1.34,2.62s-1-4.49-3.35-7l-1,2.07a12.28,12.28,0,0,0-2.66-5.29l-0.83,2.32S352.17,401.52,349.1,397.68Z"/><path class="cls-24" d="M349.1,397.68s-2.37,5.24-1.35,8l-1.54-.6a14,14,0,0,0-.62,7.37l-1.46-.57a10.11,10.11,0,0,0,1,6.14l-1.82-.39s0.31,5.09,2.5,7.06l-1.85-.4s1.17,3.56,3.79,5.07l-2,.5s1.76,3.49,4.46,4.79l-2.2.5s6,10,19.3,7l5.78,3C354.08,430.55,349.1,397.68,349.1,397.68Z"/><path class="cls-8" d="M751.9,413.77s-1.27,8-4.57,10.42l2.28,0.48s-1.24,5.75-5,9.15l2.16,0.46s-1.93,4.53-5.89,6.48l2.44,0.95s-4.29,5.75-8.4,6.38l2.48,1s-4.13,3.28-8.38,3l2,2.16s-4.77,2.75-8.95,2.18l2.2,2.29s-14.79,7.09-28.12-6.69l-9.15-.9,0.21-1,8-1.87s-1-8.4,6.76-15.65l0.26,3.82s3.59-8.8,8.4-11.75l0.18,3.69s3.17-4.81,7.46-6.8l-0.55,3.11s5.4-5.19,10.25-7.28l-0.45,4.12s4.61-4.53,9.37-5.67l-0.37,3.25s2.13-2.45,7.22-4.16L743,418.33S745.32,415.92,751.9,413.77Z"/><path class="cls-24" d="M751.9,413.77s-1.27,8-4.57,10.42l2.28,0.48s-1.24,5.75-5,9.15l2.16,0.46s-1.93,4.53-5.89,6.48l2.44,0.95s-4.29,5.75-8.4,6.38l2.48,1s-4.13,3.28-8.38,3l2,2.16s-4.77,2.75-8.95,2.18l2.2,2.29s-14.79,7.09-28.12-6.69l-9.15-.9C720.62,448.61,751.9,413.77,751.9,413.77Z"/><path class="cls-8" d="M714.7,397.68s2.37,5.24,1.35,8l1.54-.6a14,14,0,0,1,.62,7.37l1.46-.57a10.1,10.1,0,0,1-1,6.14l1.82-.39s-0.31,5.09-2.5,7.06l1.85-.4s-1.17,3.56-3.79,5.07l2,0.5s-1.76,3.49-4.46,4.79l2.2,0.5s-6,10-19.3,7l-5.78,3-0.26-.67,4-4.24a14.11,14.11,0,0,1-2.09-11.92l1.64,2.16s-1.3-6.62.4-10.25l1.55,2.12a15.31,15.31,0,0,1,1.78-6.94l0.88,2.06a30.77,30.77,0,0,1,3.24-8.31l1.34,2.62s1-4.49,3.35-7l1,2.07a12.28,12.28,0,0,1,2.66-5.29l0.83,2.32S711.64,401.52,714.7,397.68Z"/><path class="cls-24" d="M714.7,397.68s2.37,5.24,1.35,8l1.54-.6a14,14,0,0,1,.62,7.37l1.46-.57a10.1,10.1,0,0,1-1,6.14l1.82-.39s-0.31,5.09-2.5,7.06l1.85-.4s-1.17,3.56-3.79,5.07l2,0.5s-1.76,3.49-4.46,4.79l2.2,0.5s-6,10-19.3,7l-5.78,3C709.73,430.55,714.7,397.68,714.7,397.68Z"/><path class="cls-8" d="M826.7,609.45s-1.27,8-4.57,10.42l2.28,0.48s-1.24,5.75-5,9.15l2.16,0.46s-1.93,4.53-5.89,6.48l2.44,0.95s-4.29,5.75-8.4,6.38l2.48,1s-4.13,3.28-8.38,3l2,2.16s-4.77,2.75-8.95,2.18l2.2,2.29s-14.79,7.09-28.12-6.69l-9.15-.9,0.21-1,8-1.87s-1-8.39,6.76-15.64l0.26,3.82s3.59-8.8,8.4-11.75l0.18,3.69s3.17-4.81,7.46-6.8l-0.55,3.11s5.4-5.19,10.25-7.28l-0.45,4.12s4.61-4.53,9.37-5.67l-0.37,3.25s2.13-2.45,7.22-4.16L817.78,614S820.12,611.6,826.7,609.45Z"/><path class="cls-24" d="M826.7,609.45s-1.27,8-4.57,10.42l2.28,0.48s-1.24,5.75-5,9.15l2.16,0.46s-1.93,4.53-5.89,6.48l2.44,0.95s-4.29,5.75-8.4,6.38l2.48,1s-4.13,3.28-8.38,3l2,2.16s-4.77,2.75-8.95,2.18l2.2,2.29s-14.79,7.09-28.12-6.69l-9.15-.9C795.41,644.29,826.7,609.45,826.7,609.45Z"/><path class="cls-8" d="M789.5,593.36s2.37,5.24,1.35,8l1.54-.6a14,14,0,0,1,.62,7.37l1.46-.57a10.1,10.1,0,0,1-1,6.14l1.82-.39s-0.31,5.09-2.5,7.06l1.85-.4s-1.17,3.56-3.79,5.07l2,0.5s-1.76,3.49-4.46,4.79l2.2,0.5s-6,10-19.3,7l-5.78,3-0.26-.67,4-4.24A14.11,14.11,0,0,1,767.25,624l1.64,2.16s-1.3-6.62.4-10.25l1.55,2.12a15.31,15.31,0,0,1,1.78-6.94l0.88,2.06a30.77,30.77,0,0,1,3.24-8.31l1.34,2.62s1-4.49,3.35-7l1,2.07a12.28,12.28,0,0,1,2.66-5.29l0.83,2.32S786.43,597.2,789.5,593.36Z"/><path class="cls-24" d="M789.5,593.36s2.37,5.24,1.35,8l1.54-.6a14,14,0,0,1,.62,7.37l1.46-.57a10.1,10.1,0,0,1-1,6.14l1.82-.39s-0.31,5.09-2.5,7.06l1.85-.4s-1.17,3.56-3.79,5.07l2,0.5s-1.76,3.49-4.46,4.79l2.2,0.5s-6,10-19.3,7l-5.78,3C784.52,626.23,789.5,593.36,789.5,593.36Z"/><path class="cls-8" d="M238.44,606s1.27,8,4.57,10.42l-2.28.48s1.24,5.75,5,9.15l-2.16.46s1.93,4.53,5.89,6.48L247,634s4.29,5.75,8.4,6.38l-2.48,1s4.13,3.28,8.38,3l-2,2.16s4.77,2.75,8.95,2.18L266,651s14.79,7.09,28.12-6.69l9.15-.9-0.21-1-8-1.87s1-8.4-6.76-15.64L288,628.71s-3.59-8.8-8.4-11.75l-0.18,3.69s-3.17-4.81-7.46-6.8l0.55,3.11s-5.4-5.19-10.25-7.28l0.45,4.12s-4.61-4.53-9.37-5.67l0.37,3.25s-2.13-2.45-7.22-4.16l0.82,3.37S245,608.2,238.44,606Z"/><path class="cls-24" d="M238.44,606s1.27,8,4.57,10.42l-2.28.48s1.24,5.75,5,9.15l-2.16.46s1.93,4.53,5.89,6.48L247,634s4.29,5.75,8.4,6.38l-2.48,1s4.13,3.28,8.38,3l-2,2.16s4.77,2.75,8.95,2.18L266,651s14.79,7.09,28.12-6.69l9.15-.9C269.72,640.89,238.44,606,238.44,606Z"/><path class="cls-8" d="M275.64,590s-2.37,5.24-1.35,8l-1.54-.6a14,14,0,0,0-.62,7.37l-1.46-.57a10.11,10.11,0,0,0,1,6.14l-1.82-.39s0.31,5.09,2.5,7.06l-1.85-.4s1.17,3.56,3.79,5.07l-2,.5s1.76,3.49,4.46,4.79l-2.2.5s6,10,19.3,7l5.78,3,0.26-.67-4-4.24a14.12,14.12,0,0,0,2.09-11.92l-1.64,2.16s1.3-6.62-.4-10.25l-1.55,2.12a15.32,15.32,0,0,0-1.78-6.94l-0.88,2.06a30.77,30.77,0,0,0-3.24-8.31L287,604s-1-4.49-3.35-7l-1,2.07a12.28,12.28,0,0,0-2.66-5.29l-0.83,2.32S278.7,593.79,275.64,590Z"/><path class="cls-24" d="M275.64,590s-2.37,5.24-1.35,8l-1.54-.6a14,14,0,0,0-.62,7.37l-1.46-.57a10.11,10.11,0,0,0,1,6.14l-1.82-.39s0.31,5.09,2.5,7.06l-1.85-.4s1.17,3.56,3.79,5.07l-2,.5s1.76,3.49,4.46,4.79l-2.2.5s6,10,19.3,7l5.78,3C280.61,622.83,275.64,590,275.64,590Z"/><path class="cls-8" d="M614.58,446s-1.27,8-4.57,10.42l2.28,0.49s-1.24,5.75-5,9.15l2.16,0.46s-1.93,4.53-5.89,6.48l2.44,0.95s-4.29,5.75-8.4,6.38l2.48,1s-4.13,3.28-8.38,3l2,2.16s-4.77,2.75-8.95,2.18L587,491s-14.79,7.09-28.12-6.69l-9.15-.9,0.21-1,8-1.87s-1-8.4,6.76-15.65l0.26,3.82s3.59-8.8,8.4-11.75l0.18,3.69s3.17-4.81,7.46-6.8l-0.55,3.11s5.4-5.19,10.25-7.28l-0.45,4.12s4.61-4.53,9.37-5.67l-0.37,3.25s2.13-2.45,7.22-4.16l-0.82,3.37S608,448.16,614.58,446Z"/><path class="cls-24" d="M614.58,446s-1.27,8-4.57,10.42l2.28,0.49s-1.24,5.75-5,9.15l2.16,0.46s-1.93,4.53-5.89,6.48l2.44,0.95s-4.29,5.75-8.4,6.38l2.48,1s-4.13,3.28-8.38,3l2,2.16s-4.77,2.75-8.95,2.18L587,491s-14.79,7.09-28.12-6.69l-9.15-.9C583.29,480.85,614.58,446,614.58,446Z"/><path class="cls-8" d="M542,439.77s-2.37,5.24-1.35,8l-1.54-.6a14,14,0,0,0-.62,7.37l-1.46-.57a10.1,10.1,0,0,0,1,6.14l-1.82-.39s0.31,5.09,2.5,7.06l-1.85-.4s1.17,3.56,3.79,5.07l-2,.5s1.76,3.49,4.46,4.79l-2.2.5s6,10,19.3,7l5.78,3,0.26-.67-4-4.24a14.11,14.11,0,0,0,2.09-11.92l-1.64,2.16s1.3-6.62-.4-10.25l-1.55,2.12a15.31,15.31,0,0,0-1.78-6.94L558,459.55a30.77,30.77,0,0,0-3.24-8.31l-1.34,2.62s-1-4.49-3.35-7l-1,2.07a12.27,12.27,0,0,0-2.66-5.28l-0.83,2.32S545.09,443.61,542,439.77Z"/><path class="cls-24" d="M542,439.77s-2.37,5.24-1.35,8l-1.54-.6a14,14,0,0,0-.62,7.37l-1.46-.57a10.1,10.1,0,0,0,1,6.14l-1.82-.39s0.31,5.09,2.5,7.06l-1.85-.4s1.17,3.56,3.79,5.07l-2,.5s1.76,3.49,4.46,4.79l-2.2.5s6,10,19.3,7l5.78,3C547,472.64,542,439.77,542,439.77Z"/><path class="cls-25" d="M546.92,223.31c0,0.77-5.59,2.79-9.62,2.7s-9.12-2.1-9.1-2.87,5.33,0.11,9.36.2S546.94,222.54,546.92,223.31Z"/><path class="cls-26" d="M542.72,238.79S522.6,212.22,538,183.66s32.73,2.65,25.86,13.82c0,0-4.56,3.42-4.8-3.81s0-17.37-7-19.27S523.09,198.18,542.72,238.79Z"/><path class="cls-27" d="M573.85,240.17c-6.4-19.2-20.93-21.89-29.31-16.71l-0.08.05a12.87,12.87,0,0,1-14.23-.3l-0.08-.05c-8.15-5.53-22.78-3.46-30,15.45-6.77,17.77,3.92,41.69,33.13,41.65q2.85,0,5.7.12C568.16,281.66,579.86,258.21,573.85,240.17Z"/><path class="cls-28" d="M573.85,240.17c-6.4-19.2-20.93-21.89-29.31-16.71l-0.08.05a12.87,12.87,0,0,1-14.23-.3l-0.08-.05c-8.15-5.53-22.78-3.46-30,15.45-6.77,17.77,3.92,41.69,33.13,41.65q2.85,0,5.7.12C568.16,281.66,579.86,258.21,573.85,240.17Z"/><path class="cls-29" d="M573.85,240.17c-2.77-8.31-7.06-13.52-11.72-16.35v0c6,18-5.69,41.48-34.87,40.21q-2.85-.12-5.7-0.12c-9.25,0-16.64-2.38-22.21-6.22,3.46,12.18,14.67,22.58,33.93,22.55q2.85,0,5.7.12C568.16,281.66,579.86,258.21,573.85,240.17Z"/><ellipse class="cls-30" cx="518.98" cy="237.04" rx="8.28" ry="5.07" transform="translate(-44.98 323.49) rotate(-33.26)"/><circle class="cls-10" cx="369.05" cy="447.52" r="13.61"/><path class="cls-31" d="M375.45,435.5a13.61,13.61,0,0,1-19.12,16.87A13.61,13.61,0,1,0,375.45,435.5Z"/><ellipse class="cls-32" cx="363.55" cy="441.62" rx="4.98" ry="3.19" transform="translate(-208.11 421.54) rotate(-48.53)"/><circle class="cls-10" cx="289.69" cy="640.68" r="13.61"/><path class="cls-31" d="M296.09,628.66A13.61,13.61,0,0,1,277,645.53,13.61,13.61,0,1,0,296.09,628.66Z"/><ellipse class="cls-32" cx="284.19" cy="634.78" rx="4.98" ry="3.19" transform="translate(-379.64 427.3) rotate(-48.52)"/><circle class="cls-10" cx="333.26" cy="656.04" r="13.61"/><path class="cls-31" d="M339.66,644a13.61,13.61,0,0,1-19.12,16.87A13.61,13.61,0,1,0,339.66,644Z"/><ellipse class="cls-32" cx="327.76" cy="650.15" rx="4.98" ry="3.19" transform="translate(-376.43 465.13) rotate(-48.53)"/><circle class="cls-10" cx="376.75" cy="667.55" r="13.61"/><path class="cls-31" d="M383.15,655.54A13.61,13.61,0,0,1,364,672.4,13.61,13.61,0,1,0,383.15,655.54Z"/><ellipse class="cls-32" cx="371.24" cy="661.65" rx="4.98" ry="3.19" transform="translate(-370.37 501.6) rotate(-48.53)"/><circle class="cls-10" cx="429.47" cy="676.07" r="13.61"/><path class="cls-31" d="M435.87,664.05a13.61,13.61,0,0,1-19.12,16.87A13.61,13.61,0,1,0,435.87,664.05Z"/><ellipse class="cls-32" cx="423.97" cy="670.17" rx="4.98" ry="3.19" transform="translate(-358.95 544) rotate(-48.53)"/><circle class="cls-10" cx="482.3" cy="681.16" r="13.61"/><path class="cls-31" d="M488.71,669.15A13.61,13.61,0,0,1,469.59,686,13.61,13.61,0,1,0,488.71,669.15Z"/><ellipse class="cls-32" cx="476.8" cy="675.27" rx="4.98" ry="3.19" transform="translate(-344.92 585.3) rotate(-48.53)"/><circle class="cls-10" cx="533.58" cy="681.96" r="13.61"/><path class="cls-31" d="M540,669.95a13.61,13.61,0,0,1-19.12,16.87A13.61,13.61,0,1,0,540,669.95Z"/><ellipse class="cls-32" cx="528.08" cy="676.07" rx="4.98" ry="3.19" transform="translate(-328.2 623.98) rotate(-48.53)"/><circle class="cls-10" cx="584.45" cy="680.13" r="13.61"/><path class="cls-31" d="M590.85,668.12A13.61,13.61,0,0,1,571.73,685,13.61,13.61,0,1,0,590.85,668.12Z"/><ellipse class="cls-32" cx="578.95" cy="674.24" rx="4.98" ry="3.19" transform="translate(-309.65 661.47) rotate(-48.53)"/><circle class="cls-10" cx="635.37" cy="676.86" r="13.61"/><path class="cls-31" d="M641.77,664.85a13.61,13.61,0,0,1-19.12,16.87A13.61,13.61,0,1,0,641.77,664.85Z"/><ellipse class="cls-32" cx="629.87" cy="670.97" rx="4.98" ry="3.19" transform="translate(-290.01 698.57) rotate(-48.53)"/><circle class="cls-10" cx="685.55" cy="670.17" r="13.61"/><path class="cls-31" d="M692,658.16A13.61,13.61,0,0,1,672.84,675,13.61,13.61,0,1,0,692,658.16Z"/><ellipse class="cls-32" cx="680.05" cy="664.28" rx="4.98" ry="3.19" transform="translate(-268.05 733.85) rotate(-48.52)"/><circle class="cls-10" cx="733.98" cy="656.95" r="13.61"/><path class="cls-31" d="M740.38,644.94a13.61,13.61,0,0,1-19.12,16.87A13.61,13.61,0,1,0,740.38,644.94Z"/><ellipse class="cls-32" cx="728.47" cy="651.06" rx="4.98" ry="3.19" transform="translate(-241.79 765.72) rotate(-48.53)"/><circle class="cls-10" cx="774.55" cy="643.34" r="13.61"/><path class="cls-31" d="M780.95,631.33a13.61,13.61,0,0,1-19.12,16.87A13.61,13.61,0,1,0,780.95,631.33Z"/><ellipse class="cls-32" cx="769.04" cy="637.45" rx="4.98" ry="3.19" transform="translate(-217.89 791.52) rotate(-48.53)"/><circle class="cls-10" cx="402.52" cy="463.51" r="13.61"/><path class="cls-31" d="M408.92,451.5a13.61,13.61,0,0,1-19.12,16.87A13.61,13.61,0,1,0,408.92,451.5Z"/><ellipse class="cls-32" cx="397.01" cy="457.62" rx="4.98" ry="3.19" transform="translate(-208.79 452.02) rotate(-48.53)"/><circle class="cls-10" cx="554.67" cy="280.43" r="13.61"/><path class="cls-31" d="M561.08,268.42A13.61,13.61,0,0,1,542,285.29,13.61,13.61,0,1,0,561.08,268.42Z"/><ellipse class="cls-32" cx="549.17" cy="274.54" rx="4.98" ry="3.19" transform="translate(-20.24 504.18) rotate(-48.53)"/><circle class="cls-10" cx="581.9" cy="265.96" r="13.61"/><path class="cls-31" d="M588.3,253.95a13.61,13.61,0,0,1-19.12,16.87A13.61,13.61,0,1,0,588.3,253.95Z"/><ellipse class="cls-32" cx="576.39" cy="260.07" rx="4.98" ry="3.19" transform="translate(-0.19 519.72) rotate(-48.53)"/><circle class="cls-10" cx="492.69" cy="267.56" r="13.61"/><path class="cls-31" d="M499.09,255.55A13.61,13.61,0,0,1,480,272.42,13.61,13.61,0,1,0,499.09,255.55Z"/><ellipse class="cls-32" cx="487.18" cy="261.67" rx="4.98" ry="3.19" transform="translate(-31.53 453.39) rotate(-48.52)"/><ellipse class="cls-32" cx="528.2" cy="155.11" rx="4.98" ry="3.19" transform="translate(62.18 448.15) rotate(-48.53)"/><circle class="cls-10" cx="522.01" cy="281.17" r="13.61"/><path class="cls-31" d="M528.42,269.16A13.61,13.61,0,0,1,509.3,286,13.61,13.61,0,1,0,528.42,269.16Z"/><ellipse class="cls-32" cx="516.51" cy="275.28" rx="4.98" ry="3.19" transform="translate(-31.81 479.98) rotate(-48.53)"/><circle class="cls-10" cx="441.25" cy="472.56" r="13.61"/><path class="cls-31" d="M447.65,460.55a13.61,13.61,0,0,1-19.12,16.87A13.61,13.61,0,1,0,447.65,460.55Z"/><ellipse class="cls-32" cx="435.74" cy="466.67" rx="4.98" ry="3.19" transform="translate(-202.5 484.09) rotate(-48.53)"/><circle class="cls-10" cx="479.74" cy="479.09" r="13.61"/><path class="cls-31" d="M486.14,467.08A13.61,13.61,0,0,1,467,483.95,13.61,13.61,0,1,0,486.14,467.08Z"/><ellipse class="cls-32" cx="474.23" cy="473.2" rx="4.98" ry="3.19" transform="translate(-194.39 515.11) rotate(-48.52)"/><circle class="cls-10" cx="525.66" cy="481.12" r="13.61"/><path class="cls-31" d="M532.06,469.11A13.61,13.61,0,0,1,512.94,486,13.61,13.61,0,1,0,532.06,469.11Z"/><ellipse class="cls-32" cx="520.15" cy="475.23" rx="4.98" ry="3.19" transform="translate(-180.4 550.21) rotate(-48.52)"/><circle class="cls-10" cx="571.26" cy="481.12" r="13.61"/><path class="cls-31" d="M577.66,469.11A13.61,13.61,0,0,1,558.54,486,13.61,13.61,0,1,0,577.66,469.11Z"/><ellipse class="cls-32" cx="565.75" cy="475.23" rx="4.98" ry="3.19" transform="translate(-165 584.37) rotate(-48.52)"/><circle class="cls-10" cx="615.46" cy="475.23" r="13.61"/><path class="cls-31" d="M621.86,463.21a13.61,13.61,0,0,1-19.12,16.87A13.61,13.61,0,1,0,621.86,463.21Z"/><ellipse class="cls-32" cx="609.96" cy="469.33" rx="4.98" ry="3.19" transform="translate(-145.66 615.51) rotate(-48.53)"/><circle class="cls-10" cx="661.35" cy="465.48" r="13.61"/><path class="cls-31" d="M667.75,453.46a13.61,13.61,0,0,1-19.12,16.87A13.61,13.61,0,1,0,667.75,453.46Z"/><ellipse class="cls-32" cx="655.84" cy="459.58" rx="4.98" ry="3.19" transform="translate(-122.85 646.64) rotate(-48.53)"/><circle class="cls-10" cx="695.45" cy="449.6" r="13.61"/><path class="cls-31" d="M701.85,437.59a13.61,13.61,0,0,1-19.12,16.87A13.61,13.61,0,1,0,701.85,437.59Z"/><ellipse class="cls-32" cx="689.94" cy="443.71" rx="4.98" ry="3.19" transform="translate(-99.43 666.82) rotate(-48.53)"/><path class="cls-17" d="M528.11,334.69c-25.33-1.4-29.12,25.54-32.49,37.33s-7.3,35.64-29.47,37c-7,.44-12.51-3.59-16.85-9.76,4.85,11.38,12,20.52,22.33,19.87,22.17-1.4,26.1-25.26,29.47-37s7.16-38.73,32.49-37.33c10.5-.58,17.29,3.71,21.89,9.77C551.31,344,543.89,333.82,528.11,334.69Z"/><path class="cls-17" d="M416.2,320.66c-12.35-.56-31.71,47.71-44.34,51.64a4.63,4.63,0,0,1-4.12-.56c2.08,7.49,5.14,12.05,9.6,10.67,12.63-3.93,32-52.2,44.34-51.64a13.52,13.52,0,0,1,9.81,5.15C428.55,327.62,423.73,321,416.2,320.66Z"/><path class="cls-17" d="M703.59,319.54c-0.28-23-8.14-30.45-8.14-30.45l-0.22,0a69.77,69.77,0,0,1,2.88,20.33c0.28,23-1.12,66.79-13.75,62.87s-32-52.2-44.34-51.64-17.4,18-18.8,32-9,57.81-31.15,56.41a24.61,24.61,0,0,1-19-10.24c3.93,9.93,10.66,19.47,24.44,20.34,22.17,1.4,29.75-42.38,31.15-56.41s6.46-31.43,18.8-32,31.71,47.71,44.34,51.64S703.87,342.55,703.59,319.54Z"/><path class="cls-17" d="M378.94,510.23c-37,7.27-24.42,53.77-58.09,54.14-10.29.12-16.47-9.84-20.09-23.72,3.13,18.69,9.57,33.54,22.12,33.4,33.68-.38,21-46.87,58.09-54.14,0,0,7.15.16,11.5,15C388.95,510.44,378.94,510.23,378.94,510.23Z"/><path class="cls-17" d="M454.44,521.81c-15.44.62-17.4,25.76-17.4,25.76-5.05,40.83-18.94,39.57-18.94,39.57s-15.44,4.33-21.77-15.47c3.8,30.76,23.8,25.15,23.8,25.15s13.89,1.26,18.94-39.57c0,0,2-25.14,17.4-25.76,4.08-.16,6.26,1.28,7.51,3.61C463.18,528.12,462.93,521.47,454.44,521.81Z"/><path class="cls-17" d="M767.86,468.13c5.48,38-12.37,93.46-24.91,96.23-13.75,3-19.93-5.57-33.12-31.11s-28.06-22.17-28.06-22.17-14.31,2.81-13.75,32.27-8.42,44.9-23.57,45.19S629,559.64,620.58,537.47s-17.12-24.14-24.7-25S568.94,530.17,568.66,558s-13.47,64.27-34.8,66.23c-16.72,1.54-30-15.38-35.08-31.82,1.94,18.59,17,43.34,37.12,41.5,21.33-2,34.52-38.45,34.8-66.23s19.65-46.31,27.22-45.47,16.28,2.81,24.7,25,8.7,51.36,23.86,51.08S670.61,582.51,670,553s13.75-32.27,13.75-32.27,14.87-3.37,28.06,22.17S731.23,577.09,745,574,778.59,505.59,767.86,468.13Z"/><path class="cls-17" d="M482.78,547.57c-6.74,3.09-10.95,1.68-10.95,1.68a10.72,10.72,0,0,1-6-5.82c0.67,6.09,1.34,12.78,8,15.5,0,0,4.21,1.4,10.95-1.68,4.18-1.92,8.36,3.52,11,12.41C493.87,555.42,488.33,545,482.78,547.57Z"/><path class="cls-20" d="M367.42,292.14l15.88-.65-1.4-8.75-3.43,0-8.65,4.58S367,290,367,290.14A12.84,12.84,0,0,0,367.42,292.14Z"/><path class="cls-33" d="M367.42,292.14l-2.78.15a1.28,1.28,0,0,1-.84-2.32l14.33-10.48a1.13,1.13,0,0,1,1.58.25l2.19,3C370.14,286.68,367.52,290,367.42,292.14Z"/><path class="cls-20" d="M465.17,294.81l-13.28-8.75-4,1.95v6l2.8,2,9.7,1.33s3.78-.5,3.95-0.61A12.82,12.82,0,0,0,465.17,294.81Z"/><path class="cls-33" d="M465.17,294.81l2.35,1.5a1.28,1.28,0,0,1-.67,2.37l-17.75.15a1.13,1.13,0,0,1-1.14-1.12l0-3.71C459.77,297.66,463.85,296.48,465.17,294.81Z"/><path class="cls-21" d="M433.19,224.8s36.29-10.25,43.77-4.71,2.49,37.4-18.84,69.81H447.59S452.86,258,459,246.68l-25.76,5V224.8Z"/><path class="cls-34" d="M445.95,221.65L415.81,220c-7.42,22.93,10.53,57.06,10.53,57.06l-45.21,2.22a89.68,89.68,0,0,0,.39,13.37c16.93,1.16,47.37,2.62,57.56-.91C453.49,286.78,445.95,221.65,445.95,221.65Z"/><path class="cls-34" d="M454.06,164.86s5.47,14.25,5.47,22.27a11.13,11.13,0,0,1-7,1.37c-4.13-.51-0.66-16.79-0.81-17.22S454.06,164.86,454.06,164.86Z"/><path class="cls-9" d="M457.21,208s-1.1-38.72-3.15-43.17-9.28-5.31-9.28-5.31-18.86-2.8-23.76,1.83c-0.37.35-12.3,13.67-10.94,67.33,0,0,35.86,0,47.12-8.69V208Z"/><path class="cls-35" d="M437.76,146.8a5.72,5.72,0,0,0,.67.47,5.64,5.64,0,0,0,.71.38,4.88,4.88,0,0,0,1.54.42,4.16,4.16,0,0,0,1.58-.17,5.86,5.86,0,0,0,1.45-.72,5,5,0,0,1-.66.5,4.59,4.59,0,0,1-.75.37,3.89,3.89,0,0,1-.81.2,4.13,4.13,0,0,1-.84,0,4.31,4.31,0,0,1-1.59-.48A4.72,4.72,0,0,1,437.76,146.8Z"/><path class="cls-22" d="M451.29,126.86c-1.85-3.63-5.29-5.61-8.24-6.67a15.79,15.79,0,0,0-11.23.15c-10.09,4.07-7.71,15-7.17,17a2.81,2.81,0,0,1,2,.27,4.64,4.64,0,0,1,.86.54c2-.65,2.47-3.89,3.45-5.48,1.33-2.15,6.8-.31,9.09-1.88a6,6,0,0,0,2.63-3.13c9,1.11,8.67,11,8.67,11a5.42,5.42,0,0,0,1.24-1.55S454.69,133.54,451.29,126.86Z"/><polygon class="cls-20" points="433.57 150.06 433.48 160.16 442.68 160.16 442.04 150.3 433.57 150.06"/><path class="cls-35" d="M442.38,155.6L442,150.3l-8.47-.24,0,4.21C435.33,155.81,437.84,157.56,442.38,155.6Z"/><path class="cls-22" d="M425.48,133.37a8.18,8.18,0,0,0-8.24.26c-4.3,2.66-4,11.16-2.25,13.14s0.06,4.79,3.6,7.34,9.07,3.35,12.11.15,0.52-10.05.52-10.05Z"/><ellipse class="cls-35" cx="451.38" cy="140.69" rx="2.88" ry="2.3" transform="translate(154.95 509.02) rotate(-68.48)"/><path class="cls-20" d="M448.92,148.46a12,12,0,0,0,.9-2,22.75,22.75,0,0,0,1.17-5.67c0-.38.09-0.75,0.15-1.12a12.3,12.3,0,1,0-24.43-1.84,2.66,2.66,0,0,0-2.4-.16c-1.45.67-2,2.68-1.12,4.5s2.69,2.74,4.14,2.07a2.34,2.34,0,0,0,.55-0.35,11.53,11.53,0,0,0,11.58,10.44,11,11,0,0,0,7.45-3.2,5.43,5.43,0,0,0,.41-0.39A10.65,10.65,0,0,0,448.92,148.46Z"/><path class="cls-35" d="M441.79,138.61c0.08,0.7.13,1.39,0.22,2.05a4.58,4.58,0,0,0,.52,1.79l0.06,0.07,0.07,0.09a1.66,1.66,0,0,1,.2.25,1.39,1.39,0,0,1,.23.63,1.45,1.45,0,0,1-.45,1.18,2.37,2.37,0,0,1-2.08.57,2.93,2.93,0,0,0,1.66-.93,0.93,0.93,0,0,0,.2-0.72,0.78,0.78,0,0,0-.14-0.32,1,1,0,0,0-.13-0.15l-0.1-.11-0.11-.13a2.74,2.74,0,0,1-.42-1.1,5.75,5.75,0,0,1-.08-1.08A7.36,7.36,0,0,1,441.79,138.61Z"/><circle class="cls-22" cx="436.72" cy="139.87" r="1.07" transform="translate(-3.76 12.32) rotate(-1.61)"/><circle class="cls-22" cx="445.95" cy="140.22" r="1.07" transform="translate(-3.76 12.58) rotate(-1.61)"/><path class="cls-22" d="M439,137.32a11,11,0,0,0-1.59-.26,5.45,5.45,0,0,0-1.49.08,5,5,0,0,0-1.4.49c-0.24.1-.45,0.26-0.69,0.38s-0.44.31-.7,0.45a4.5,4.5,0,0,1,.42-0.75,3.66,3.66,0,0,1,.6-0.63,3.46,3.46,0,0,1,1.61-.76,3.62,3.62,0,0,1,1.78.1A3.3,3.3,0,0,1,439,137.32Z"/><path class="cls-22" d="M443.71,137.5a3.3,3.3,0,0,1,1.5-.84,3.62,3.62,0,0,1,1.78,0,3.47,3.47,0,0,1,1.57.84,3.68,3.68,0,0,1,.57.66,4.51,4.51,0,0,1,.39.77c-0.25-.15-0.46-0.33-0.68-0.48s-0.43-.31-0.67-0.41a5,5,0,0,0-1.38-.55,5.45,5.45,0,0,0-1.48-.15A11.08,11.08,0,0,0,443.71,137.5Z"/><path class="cls-36" d="M438.74,147.42a2.65,2.65,0,0,1,2.18.3,2,2,0,0,1,2,0,2.18,2.18,0,0,1-2.31,1.58A2,2,0,0,1,438.74,147.42Z"/><path class="cls-20" d="M433.48,160.16s4.72,2.8,9.2,0l-2.39-.66Z"/><circle class="cls-22" cx="452.04" cy="169.53" r="0.95"/><circle class="cls-22" cx="452.04" cy="181.5" r="0.95"/><circle class="cls-22" cx="452.04" cy="193.48" r="0.95"/><circle class="cls-22" cx="437.71" cy="169.53" r="0.95"/><circle class="cls-22" cx="437.71" cy="181.5" r="0.95"/><circle class="cls-22" cx="437.71" cy="193.48" r="0.95"/><path class="cls-20" d="M429.53,197.41l6.82,9.51a9.56,9.56,0,0,0,12.83,2.54L475.54,193l-4-5.89s-21.21,12.74-23,13.1-6.73-11.17-6.73-11.17Z"/><path class="cls-34" d="M420.92,171.69c1.1,6,4,19.94,8.14,26.37,0,0,10.06-.74,15.73-7.62,0,0-7.75-19.14-9.77-23.06-1.62-3.15-9.46-12.52-13.33-3.23A13.35,13.35,0,0,0,420.92,171.69Z"/><path class="cls-22" d="M420,228.38s5.48,28.42,5,33.74c0,0,13.56,1,20.82-3.71s14-34.9,29.77-39.07c0,0-4.35-2.77-18.83-.89Z"/><polygon class="cls-22" points="420.7 230.58 412.93 230.58 412.93 228.71 420.7 228.34 420.7 230.58"/><path class="cls-34" d="M832.64,530.29s-8.4,10-28.2,11.75-5,12.21-5,12.21,23.85,3.43,32.18-2.16S832.64,530.29,832.64,530.29Z"/><path class="cls-20" d="M833.49,530.39s5.12,3,9.11,0h0L841.66,523l-7.94-1.64-0.23,9h0Z"/><path class="cls-37" d="M833.6,526.18l0.12-4.83,8.05,2.5,0.23,1.81A14.41,14.41,0,0,1,833.6,526.18Z"/><polygon class="cls-20" points="838.27 712.2 838.27 706.6 831.87 704.82 830.44 705.45 830.2 712.2 832.22 718.07 838.27 712.2"/><path class="cls-38" d="M757,584.21c0.4-.4,18.92-34.16,45.36-41.91s37,2.78,41,18.09,5.37,37.18-12.92,36.58-35.86-15.8-55.9-2.73S757,584.21,757,584.21Z"/><path class="cls-39" d="M843.33,560.39c-1.61-6.2-4.3-11.62-8.69-15.36,5.12,11.48,6.44,23.78-6.64,27.73-17.52,5.29-39-3.48-53.83,15.31-8.59,10.91-13.87,7.84-16.79,3.35,1.17,5.42,5,10.68,17.12,2.81,20-13.07,37.61,2.13,55.9,2.73S847.3,575.69,843.33,560.39Z"/><path class="cls-20" d="M797.42,567.51a0.31,0.31,0,0,1-.12.54c-1.87.51-7.74,2.14-7.72,2.64s5.31-.73,5.61-0.26-4.87,1.63-4.74,2.27,4.82-.58,5-0.33-4.22,1.9-4.37,2.32,4.73-.77,5-0.52-2.83,2.2-2.69,2.48,0.18,0.5,8.4-1.88l3.19-1.08,2.13-2.29-1.6-3.4s-10.29-3.91-10.66-3.65S794.54,565,797.42,567.51Z"/><polygon class="cls-21" points="824.34 597.37 828.89 708.14 839.47 708.14 848.8 624.42 836.57 586.9 824.34 597.37"/><polygon class="cls-20" points="879.2 712.2 879.2 706.6 872.8 704.82 871.37 705.45 871.13 712.2 873.15 718.07 879.2 712.2"/><path class="cls-34" d="M828.89,597.61l41.46,110.54,10.15-.83S867.86,606,860.3,596.33s-24.14-7.56-24.14-7.56Z"/><path class="cls-33" d="M838.89,711.49l0.65,5.48a1.05,1.05,0,0,1-.79,1.29H821.49a1.26,1.26,0,0,1-1.13-.81,2.4,2.4,0,0,1,.48-2.45c1.5-2.12,6.34-2.69,8.89-4.44a0.89,0.89,0,0,1,.5-0.15H838A1.06,1.06,0,0,1,838.89,711.49Z"/><path class="cls-33" d="M879.6,711.49l0.65,5.48a1.05,1.05,0,0,1-.79,1.29H862.2a1.26,1.26,0,0,1-1.13-.81,2.4,2.4,0,0,1,.48-2.45c1.5-2.12,6.34-2.69,8.89-4.44a0.88,0.88,0,0,1,.5-0.15h7.76A1.06,1.06,0,0,1,879.6,711.49Z"/><path class="cls-9" d="M802.69,564.21c4.06,1,13.61.49,20.84-.08a137.71,137.71,0,0,1,.81-15.46c1.87-13.89,8.3-18.38,8.3-18.38a16,16,0,0,0,10.87-2.66,21.29,21.29,0,0,1,13.57,4.77c13.21,11.4,3.21,34.71,3.21,34.71l3.63,30.8c-8.19,2.8-40.47,1.08-40.47,1.08s0.45-9.78.21-19.76c-10.61-.59-21-2.28-21-2.28C802.27,574.68,802.69,564.21,802.69,564.21Z"/><path class="cls-21" d="M802.69,577a116.65,116.65,0,0,0,15.22,2.32,103.29,103.29,0,0,0,15.43.27,54,54,0,0,0,15.17-2.92,26.34,26.34,0,0,0,6.83-3.65,17,17,0,0,0,5-5.86,17.65,17.65,0,0,1-5.23,5.49,27.41,27.41,0,0,1-6.81,3.34,47,47,0,0,1-7.39,1.82,71.71,71.71,0,0,1-7.59.85,123.46,123.46,0,0,1-15.31-.06q-3.83-.24-7.65-0.64C807.76,577.67,805.22,577.34,802.69,577Z"/><ellipse class="cls-35" cx="827.02" cy="509.6" rx="2.23" ry="2.78" transform="translate(-60.5 114.68) rotate(-7.65)"/><path class="cls-20" d="M827.54,517.45a11.58,11.58,0,0,1-.38-2.1,21.93,21.93,0,0,1,.22-5.58c0.06-.36.09-0.72,0.12-1.09a11.88,11.88,0,1,1,23.36,3.92,2.57,2.57,0,0,1,2.29.4c1.21,1,1.21,3,0,4.47s-3.16,1.95-4.37,1a2.25,2.25,0,0,1-.43-0.46,11.15,11.15,0,0,1-13.28,7.1,10.67,10.67,0,0,1-6.25-4.72,5.18,5.18,0,0,1-.29-0.46A10.27,10.27,0,0,1,827.54,517.45Z"/><circle class="cls-22" cx="840.78" cy="511.7" r="1.04" transform="translate(123.89 1186.11) rotate(-74.58)"/><circle class="cls-22" cx="832.02" cy="509.88" r="1.04" transform="translate(119.18 1176.28) rotate(-74.57)"/><path class="cls-22" d="M839.12,509.12a9.77,9.77,0,0,1,1.56-.08,5.12,5.12,0,0,1,1.43.25,4.75,4.75,0,0,1,1.29.65l0.16,0.1,0.15,0.12,0.3,0.24c0.2,0.16.38,0.35,0.61,0.52a4.55,4.55,0,0,0-.33-0.76,3.76,3.76,0,0,0-.51-0.67,3.38,3.38,0,0,0-1.45-.91,3.53,3.53,0,0,0-1.7-.12A3.27,3.27,0,0,0,839.12,509.12Z"/><path class="cls-22" d="M835,508.21a3.27,3.27,0,0,0-1.09-1.24,3.54,3.54,0,0,0-1.6-.61,3.38,3.38,0,0,0-1.7.22,3.74,3.74,0,0,0-.74.39,4.57,4.57,0,0,0-.62.55c0.28-.06.52-0.15,0.77-0.22l0.38-.09,0.18,0,0.19,0a4.76,4.76,0,0,1,1.44,0,5.12,5.12,0,0,1,1.4.38A9.73,9.73,0,0,1,835,508.21Z"/><path class="cls-35" d="M836.64,508.44a8,8,0,0,1-.25,2.23,6.12,6.12,0,0,1-.38,1.09,2.91,2.91,0,0,1-.72,1l-0.15.1-0.13.09a1.14,1.14,0,0,0-.17.12,0.84,0.84,0,0,0-.24.3,1,1,0,0,0,0,.81,3.09,3.09,0,0,0,1.47,1.41,2.54,2.54,0,0,1-2-1.16,1.53,1.53,0,0,1-.14-1.32,1.19,1.19,0,0,1,.17-0.31,1.35,1.35,0,0,1,.23-0.26,1.78,1.78,0,0,1,.28-0.2l0.1-.07,0.08-.06a2.77,2.77,0,0,0,.57-0.76,9.46,9.46,0,0,0,.45-1C836.14,509.83,836.38,509.14,836.64,508.44Z"/><path class="cls-22" d="M830,492.62a24.49,24.49,0,0,1,11.2-1.2c-0.91-.82-1.45-1.46-1.17-1.61,2.27-1.24,8.44,3.57,10.4,5.18,0.48-.48,2.1-1.95,3.46-1,1.61,1.14-1.86,2.1-1.86,2.1s2.3,0.58,2.68,1.89c0.28,1-1.13.61-1.88,0.36a3,3,0,0,1,.87.69h0s2.88,3.08,2.38,4.58c-0.12.36-.45,0.35-0.87,0.13,0.17,1.64.41,4.74-.21,5.06a0.66,0.66,0,0,1-.86-0.35,31.05,31.05,0,0,1-1.68,4.19c-2.75-.84-5.5,1.87-5.5,1.87,1.15-3.67-.66-11.16-0.66-11.16s-11.32,3-9.13.12c0,0-13.14,2.53-9.67-3.16,0,0-4.74-1,1.54-4.95C829.08,495.35,825.62,494.49,830,492.62Z"/><path class="cls-35" d="M834.63,517.87a5.3,5.3,0,0,0,2.25,0,6.57,6.57,0,0,0,1.06-.35,2.37,2.37,0,0,0,.26-0.12l0.26-.12c0.17-.09.34-0.18,0.54-0.26a4.36,4.36,0,0,1-.39.46,3.85,3.85,0,0,1-.48.38,3.44,3.44,0,0,1-1.14.49,3.13,3.13,0,0,1-1.24,0A2.31,2.31,0,0,1,834.63,517.87Z"/><circle class="cls-22" cx="840.29" cy="543.19" r="0.75"/><circle class="cls-22" cx="840.29" cy="552.67" r="0.75"/><circle class="cls-22" cx="828.97" cy="543.19" r="0.75"/><circle class="cls-22" cx="828.97" cy="552.67" r="0.75"/><circle class="cls-22" cx="828.97" cy="562.14" r="0.75"/><path class="cls-21" d="M846.86,543.45a17.37,17.37,0,0,1-5.19,12.23,22.61,22.61,0,0,1-5.44,4,31.2,31.2,0,0,1-6.3,2.52c-0.27.08-.54,0.18-0.82,0.24l-0.83.2c-0.55.13-1.1,0.28-1.66,0.4l-1.68.31-0.84.16-0.85.12c-1.13.16-2.26,0.33-3.4,0.42l-1.71.16c-0.57,0-1.14.06-1.71,0.1a134.63,134.63,0,0,1-13.76-.08,89.37,89.37,0,0,0,13.79.81,53.29,53.29,0,0,0,13.72-1.94,31.32,31.32,0,0,0,6.46-2.65,22.29,22.29,0,0,0,5.54-4.25,18.43,18.43,0,0,0,2.15-2.77,19.05,19.05,0,0,0,1.55-3.13,18.06,18.06,0,0,0,.86-3.37A13.16,13.16,0,0,0,846.86,543.45Z"/><path class="cls-22" d="M823.53,586.91s23.73,2.67,38.9-1.7v2.25S852,590.38,844.62,591l7,67.07S832,663,820.2,657Z"/><path class="cls-16" d="M747.1,605.48s-9.28,9.54-6,11.53c0,0-8.08,11.53-2,19.35s12.46,2.65,13.52-2.25-3.71-19.22.66-26.24S747.1,605.48,747.1,605.48Z"/><path class="cls-9" d="M746.31,604.92s5-18.89,15.31-24.25c0,0,2.78,2,1.59,7,0,0,6.56-1,8-.6s-1.59,5.77-1.59,5.77a7.33,7.33,0,0,1,5.17,0c3.18,1-18.89,15.9-21.07,16.9S746.71,608.89,746.31,604.92Z"/><path class="cls-20" d="M637.39,269.39l0.3,10.44,6.93,5s2.63-5,2.57-5.63,0-12.59,0-12.59Z"/><path class="cls-20" d="M606.17,269.39l-0.3,10.44-6.93,5s-2.27-5-2.2-5.63-0.36-12.59-.36-12.59Z"/><path class="cls-40" d="M657,288.74H637.37a1.1,1.1,0,0,1-1.1-1.1h0a1.1,1.1,0,0,1,1.1-1.1H657a1.1,1.1,0,0,1,1.1,1.1h0A1.1,1.1,0,0,1,657,288.74Z"/><path class="cls-9" d="M637.28,279.86l-0.73,6.1a1.17,1.17,0,0,0,.88,1.44h19.22a1.4,1.4,0,0,0,1.26-.9,2.67,2.67,0,0,0-.54-2.72c-1.67-2.37-7.06-3-9.9-4.94a1,1,0,0,0-.56-0.17h-8.64A1.19,1.19,0,0,0,637.28,279.86Z"/><path class="cls-4" d="M645.88,282.23h0a0.41,0.41,0,0,1-.11-0.5c0.38-.84,1.56-2.87,4-2.45a0.34,0.34,0,0,1,.21.4h0a0.27,0.27,0,0,1-.28.28,3.2,3.2,0,0,0-3.46,2.13A0.22,0.22,0,0,1,645.88,282.23Z"/><path class="cls-4" d="M647.87,283h0a0.41,0.41,0,0,1-.11-0.5c0.38-.84,1.56-2.87,4-2.45a0.34,0.34,0,0,1,.21.4h0a0.27,0.27,0,0,1-.28.28,3.2,3.2,0,0,0-3.46,2.13A0.22,0.22,0,0,1,647.87,283Z"/><path class="cls-4" d="M649.73,283.75h0a0.41,0.41,0,0,1-.11-0.5c0.38-.84,1.56-2.87,4-2.45a0.34,0.34,0,0,1,.21.4h0a0.27,0.27,0,0,1-.28.28,3.2,3.2,0,0,0-3.46,2.13A0.22,0.22,0,0,1,649.73,283.75Z"/><path class="cls-40" d="M587.06,288.74h19.62a1.1,1.1,0,0,0,1.1-1.1h0a1.1,1.1,0,0,0-1.1-1.1H587.06a1.1,1.1,0,0,0-1.1,1.1h0A1.1,1.1,0,0,0,587.06,288.74Z"/><path class="cls-9" d="M606.77,279.86l0.73,6.1a1.17,1.17,0,0,1-.88,1.44H587.39a1.4,1.4,0,0,1-1.26-.9,2.67,2.67,0,0,1,.54-2.72c1.67-2.37,7.06-3,9.9-4.94a1,1,0,0,1,.56-0.17h8.64A1.19,1.19,0,0,1,606.77,279.86Z"/><path class="cls-4" d="M598.17,282.23h0a0.41,0.41,0,0,0,.11-0.5c-0.38-.84-1.56-2.87-4-2.45a0.34,0.34,0,0,0-.21.4h0a0.27,0.27,0,0,0,.28.28,3.2,3.2,0,0,1,3.46,2.13A0.22,0.22,0,0,0,598.17,282.23Z"/><path class="cls-4" d="M596.18,283h0a0.41,0.41,0,0,0,.11-0.5c-0.38-.84-1.56-2.87-4-2.45a0.34,0.34,0,0,0-.21.4h0a0.27,0.27,0,0,0,.28.28,3.2,3.2,0,0,1,3.46,2.13A0.22,0.22,0,0,0,596.18,283Z"/><path class="cls-4" d="M594.32,283.75h0a0.41,0.41,0,0,0,.11-0.5c-0.38-.84-1.56-2.87-4-2.45a0.34,0.34,0,0,0-.21.4h0a0.27,0.27,0,0,0,.28.28,3.2,3.2,0,0,1,3.46,2.13A0.22,0.22,0,0,0,594.32,283.75Z"/><rect class="cls-20" x="619.03" y="110.15" width="18.15" height="7.49" transform="matrix(0.13, -0.99, 0.99, 0.13, 432.62, 721.58)"/><path class="cls-20" d="M616,87.38a2.78,2.78,0,0,1,2.47.43,13.32,13.32,0,0,1,26.41,3.5,2.78,2.78,0,0,1,2.5.23c1.39,0.93,1.57,3.08.41,4.82s-3.23,2.38-4.62,1.45a2.46,2.46,0,0,1-.51-0.46A12,12,0,0,1,619,94.23a2.45,2.45,0,0,1-.61.31c-1.58.53-3.41-.63-4.08-2.61S614.37,87.92,616,87.38Z"/><circle class="cls-22" cx="635.73" cy="92.81" r="1.12" transform="translate(426.62 700.3) rotate(-79.31)"/><circle class="cls-22" cx="626.15" cy="91.64" r="1.12" transform="translate(420.06 689.96) rotate(-79.32)"/><path class="cls-22" d="M633.71,90.17a10.59,10.59,0,0,1,1.67-.22,5.54,5.54,0,0,1,1.56.14,5.14,5.14,0,0,1,1.45.58l0.18,0.1,0.17,0.11,0.35,0.23c0.23,0.16.44,0.35,0.7,0.51a4.92,4.92,0,0,0-.42-0.79,4.07,4.07,0,0,0-.61-0.68,3.65,3.65,0,0,0-1.64-.86,3.82,3.82,0,0,0-1.85,0A3.53,3.53,0,0,0,633.71,90.17Z"/><path class="cls-22" d="M629.23,89.56a3.54,3.54,0,0,0-1.29-1.24,3.82,3.82,0,0,0-1.77-.51,3.65,3.65,0,0,0-1.81.39,4,4,0,0,0-.76.49,5,5,0,0,0-.61.65c0.29-.08.55-0.21,0.81-0.3l0.4-.13,0.19-.06,0.2,0a5.14,5.14,0,0,1,1.55-.17,5.55,5.55,0,0,1,1.54.28A10.61,10.61,0,0,1,629.23,89.56Z"/><path class="cls-41" d="M619.17,73.33c2.71-4.33,12.46-6.67,18.3-5.07a5.62,5.62,0,0,1-.78,2.28c0.7-.69,3.38-2.7,9.14-0.52,0,0-1.06,1.84-1.59,2.52a10.15,10.15,0,0,0,3.88-.33s1.46,3.43-.42,6.32l2.12-.54s-1.58,6.9-3,11.08h0c-0.26,1.29-.48,2.1-0.48,2.1s-1.26-.33-3.06,1.06L643,92c-1.24-.85-0.71-6.87-2.5-9.55-3.43-2-11.43-3.34-14.38-2.8-3.45.63-4.62,8.7-6.28,9.28l-0.36.13a3,3,0,0,0-2.68-1.81S616.45,77.66,619.17,73.33Z"/><path class="cls-35" d="M631.48,88.88a16.33,16.33,0,0,0-1.25,1.79,15.39,15.39,0,0,0-1,1.94,5.8,5.8,0,0,0-.35,1.07,2.09,2.09,0,0,0,0,.3c0,0.05,0,.11,0,0.17a0.73,0.73,0,0,0,.06.19l0.06,0.1,0,0.06,0.1,0.11,0.22,0.19a5.27,5.27,0,0,0,.94.59,7.08,7.08,0,0,0,1,.41,11.91,11.91,0,0,1-1.73-1.27l-0.18-.19-0.08-.1,0,0v0a0.83,0.83,0,0,1,0-.41,5.87,5.87,0,0,1,.34-1c0.28-.65.6-1.3,0.92-1.94S631.17,89.55,631.48,88.88Z"/><path class="cls-4" d="M626.95,97.88a3.55,3.55,0,0,0,6.28.9Z"/><path class="cls-20" d="M637.88,110.17l-18.28-2.42,3.87,8.81s8.14,1.46,8.94,1.19S637.88,110.17,637.88,110.17Z"/><path class="cls-21" d="M642.41,166.8s8,81.57,6.69,106.69l-14.28,1.7L620,182.31l-1.88.07-9.66,93.37h-13s-2.06-93.22,4.93-116.82S642.41,166.8,642.41,166.8Z"/><path class="cls-20" d="M658.53,124.5l-4.64-13.6,3.86-.86c8.17-.25,15.88-4.06,17.13-5.36,2.64-2.75-6.68-21.17-6.68-21.17L675.41,82s16.6,22.24,9.52,29.85-24.42,12.42-24.42,12.42Z"/><path class="cls-20" d="M596,116.2l8-11.92-3.5-1.84c-7.83-2.37-14.27-8.06-15.14-9.64-1.83-3.35,12-18.7,12-18.7l-6.59-3.29s-21.82,17.15-17,26.33,20.34,18.36,20.34,18.36Z"/><path class="cls-9" d="M592.68,116.08l7.72-14.54c4.74,2.15,12.16,4.09,15.95,5a15.12,15.12,0,0,1,4.44,1.87l0.15,0.1a19,19,0,0,0,15.47,2.05l0.17-.05a15.12,15.12,0,0,1,4.77-.65c3.9,0.1,11.56.17,16.7-.67l3.66,16a65,65,0,0,1-15,1.33l-2.33,46.19h0a107.73,107.73,0,0,1-47-6.15l-0.37-.14,9.79-45.2A65,65,0,0,1,592.68,116.08Z"/><path class="cls-5" d="M708.65,86.36C674.9,81.78,603.17,72.22,565.08,67.15A58.77,58.77,0,0,1,565,57C567.63,21.13,602.49-4.12,642.81.56S713.65,38.06,711,73.88A57.38,57.38,0,0,1,708.65,86.36Z"/><path class="cls-6" d="M709.91,86.53C676.46,82,602.55,72.14,564.22,67c0-.4,0-0.81.07-1.21C567,30,601.82,4.75,642.15,9.42S713,46.93,710.32,82.75C710.22,84,710.08,85.28,709.91,86.53Z"/><path class="cls-42" d="M704.94,85.85c-33.73-4.56-98-13.13-135.57-18.14,0-.43,0-0.87.08-1.3,2.49-33.34,34.93-56.83,72.45-52.48s65.93,34.9,63.44,68.24C705.26,83.42,705.12,84.64,704.94,85.85Z"/><path class="cls-7" d="M580.6,65.48l50.86,5.9L597.89,35.26a6.6,6.6,0,0,0-9.23-.45,50.69,50.69,0,0,0-13.59,23.76C574.27,61.78,576.88,65,580.6,65.48Z"/><path class="cls-7" d="M635.22,68.66l3.36-45c0.25-3.4-3-6.4-6.79-6.33a65.75,65.75,0,0,0-28.66,7,5.14,5.14,0,0,0-1.34,8.32Z"/><path class="cls-7" d="M640.19,69.24l38.45-27.85c2.75-2,2.7-5.81-.08-8.08A71.11,71.11,0,0,0,650.82,19.5c-3.57-.89-7,1.19-7.25,4.43Z"/><path class="cls-7" d="M643.48,72.77l49.81,5.78c4.31,0.5,7.85-2.57,7.41-6.43a55.55,55.55,0,0,0-9.12-24.52,7.68,7.68,0,0,0-10.56-2Z"/><path class="cls-20" d="M667.58,81s-2.07-.82-2.13-2.54-1.21-.92-1.31-0.17-1.31,4.15,4.05,5.21S675.41,82,675.41,82Z"/><path class="cls-20" d="M598.58,71.86s2.22-.26,2.72-1.9,1.4-.57,1.31.17,0.18,4.34-5.27,4-6.59-3.29-6.59-3.29Z"/><circle class="cls-22" cx="632.58" cy="119.2" r="0.81" transform="translate(412.45 724.11) rotate(-80.67)"/><circle class="cls-22" cx="630.93" cy="129.26" r="0.81" transform="translate(401.14 730.91) rotate(-80.67)"/><circle class="cls-22" cx="629.28" cy="139.32" r="0.81" transform="translate(389.8 737.7) rotate(-80.67)"/><circle class="cls-22" cx="620.55" cy="117.23" r="0.81" transform="translate(404.3 710.57) rotate(-80.67)"/><circle class="cls-22" cx="618.9" cy="127.29" r="0.81" transform="translate(393 717.38) rotate(-80.67)"/><circle class="cls-22" cx="617.25" cy="137.35" r="0.81" transform="translate(381.69 724.18) rotate(-80.67)"/><polygon class="cls-20" points="253.22 939.04 253.32 933.76 247.31 931.97 245.96 932.53 245.6 938.89 247.4 944.47 253.22 939.04"/><path class="cls-21" d="M235.76,947.9l19.22-.22a1,1,0,0,0,1-1.06v-0.05a1,1,0,0,0-1.06-1l-19.22.22a1,1,0,0,0-1,1.06v0.05A1,1,0,0,0,235.76,947.9Z"/><path class="cls-22" d="M255,939l0.77,6a1.14,1.14,0,0,1-.85,1.41l-18.78.21a1.37,1.37,0,0,1-1.24-.86,2.61,2.61,0,0,1,.5-2.67c1.64-2.37,7.06-3,9.77-5a0.33,0.33,0,0,1,.19-0.06l8.64-.1A1.16,1.16,0,0,1,255,939Z"/><path class="cls-4" d="M246.57,941.42h0a0.4,0.4,0,0,0,.1-0.49c-0.38-.81-1.55-2.79-3.89-2.35a0.34,0.34,0,0,0-.2.39h0a0.27,0.27,0,0,0,.28.27,3.13,3.13,0,0,1,3.4,2A0.21,0.21,0,0,0,246.57,941.42Z"/><path class="cls-4" d="M244.63,942.21h0a0.4,0.4,0,0,0,.1-0.49c-0.38-.81-1.55-2.79-3.89-2.35a0.34,0.34,0,0,0-.2.39h0a0.27,0.27,0,0,0,.28.27,3.13,3.13,0,0,1,3.4,2A0.21,0.21,0,0,0,244.63,942.21Z"/><path class="cls-4" d="M242.83,943h0a0.4,0.4,0,0,0,.1-0.49c-0.38-.81-1.55-2.79-3.89-2.35a0.34,0.34,0,0,0-.2.39h0a0.27,0.27,0,0,0,.28.27,3.13,3.13,0,0,1,3.4,2A0.21,0.21,0,0,0,242.83,943Z"/><polygon class="cls-20" points="275.98 939.04 275.88 933.76 281.88 931.97 283.24 932.53 283.6 938.89 281.8 944.47 275.98 939.04"/><path class="cls-21" d="M293.44,947.9l-19.22-.22a1,1,0,0,1-1-1.06v-0.05a1,1,0,0,1,1.06-1l19.22,0.22a1,1,0,0,1,1,1.06v0.05A1,1,0,0,1,293.44,947.9Z"/><path class="cls-22" d="M274.25,939l-0.77,6a1.14,1.14,0,0,0,.85,1.41l18.78,0.21a1.37,1.37,0,0,0,1.24-.86,2.61,2.61,0,0,0-.5-2.67c-1.64-2.37-7.06-3-9.77-5a0.32,0.32,0,0,0-.19-0.06l-8.64-.1A1.16,1.16,0,0,0,274.25,939Z"/><path class="cls-4" d="M282.63,941.42h0a0.4,0.4,0,0,1-.1-0.49c0.38-.81,1.55-2.79,3.89-2.35a0.34,0.34,0,0,1,.2.39h0a0.27,0.27,0,0,1-.28.27,3.13,3.13,0,0,0-3.4,2A0.21,0.21,0,0,1,282.63,941.42Z"/><path class="cls-4" d="M284.57,942.21h0a0.4,0.4,0,0,1-.1-0.49c0.38-.81,1.55-2.79,3.89-2.35a0.34,0.34,0,0,1,.2.39h0a0.27,0.27,0,0,1-.28.27,3.13,3.13,0,0,0-3.4,2A0.21,0.21,0,0,1,284.57,942.21Z"/><path class="cls-4" d="M286.37,943h0a0.4,0.4,0,0,1-.1-0.49c0.38-.81,1.55-2.79,3.89-2.35a0.34,0.34,0,0,1,.2.39h0a0.27,0.27,0,0,1-.28.27,3.13,3.13,0,0,0-3.4,2A0.21,0.21,0,0,1,286.37,943Z"/><path class="cls-22" d="M248.56,747.1a7.62,7.62,0,0,0-7.67.3c-4,2.5-3.68,10.42-2,12.25s0.09,4.46,3.4,6.81,8.46,3.06,11.27.05,0.42-9.36.42-9.36Z"/><path class="cls-20" d="M251.81,772.08a89.19,89.19,0,0,1,22.23,0c13.05,1.5-7.23,13.06-9.25,12.31s-11.64-3.13-12-3.88S251.81,772.08,251.81,772.08Z"/><path class="cls-20" d="M318.79,777l-2.22-5.26-3.81-5.27-0.25.31a5,5,0,0,0-.91-2.3L311,763.7a0.43,0.43,0,0,0-.75.39,8.83,8.83,0,0,1,.18,2.64,9.39,9.39,0,0,0-.21,5.23,29.08,29.08,0,0,1,1.1,4.2,9,9,0,0,1,.17,3.16c-0.52,1.77-5,9.39-5,9.39s1.14,14.4,3.73,10.76c2.16-3,5.7-13.27,6.6-17.53h0Z"/><path class="cls-9" d="M295.26,701.38c-7.34.95-14.45,5.21-14.45,5.21s-7.43,3.65-12.22,9.3a3.64,3.64,0,0,0-.22,4.38l17.22,25.54a6.27,6.27,0,0,0,5.46,2.76l10.14-.42L337,813.92l3.46-1.88-35.79-65.76L310.5,738a6.27,6.27,0,0,0,.65-6.08l-12.09-28.33A3.64,3.64,0,0,0,295.26,701.38Zm-11.79,13.06a1.15,1.15,0,0,1,.46-1.56l0.48-.26a1.15,1.15,0,0,1,1.56.46l12.54,23a1.15,1.15,0,0,1-.46,1.56l-0.48.26a1.15,1.15,0,0,1-1.56-.46Zm6.68,27.43-0.45.31a1.15,1.15,0,0,1-1.6-.29l-14.88-21.62a1.15,1.15,0,0,1,.29-1.6l0.45-.31a1.15,1.15,0,0,1,1.6.29l14.88,21.62A1.15,1.15,0,0,1,290.14,741.87Zm15.57-9.57a1.15,1.15,0,0,1-.62,1.5l-0.51.21a1.15,1.15,0,0,1-1.5-.62L293,709.16a1.15,1.15,0,0,1,.62-1.5l0.51-.21a1.15,1.15,0,0,1,1.5.62Z"/><path class="cls-33" d="M339.4,807.61a1.16,1.16,0,0,0-1.49-.33l-1.57.86-0.42.23-1.57.86a1.16,1.16,0,0,0-.53,1.43l3.52,9.18a1.16,1.16,0,0,0,1.63.6l2.71-1.48,0.42-.23,2.71-1.48a1.16,1.16,0,0,0,.38-1.7Z"/><path class="cls-35" d="M232.12,839.61s-0.42,1.15-2.24.28-3,1-.09,1.34S232.12,839.61,232.12,839.61Z"/><path class="cls-21" d="M259,846.35s9.85,46.1,12.87,86.71a36.6,36.6,0,0,0,15.85,0s4.42-74-1.6-98.93S259,846.35,259,846.35Z"/><path class="cls-20" d="M225.44,820.89l6.61,6a2.67,2.67,0,0,1,.4,3.5,4.71,4.71,0,0,0-.92,2.87c0.09,2.65,1.83,7.85-2.26,7.7a1.55,1.55,0,0,0-1.19.48c-0.34.37-.48,0.87,0.6,1.25,2,0.69,5.8.2,6.68-2.85s2.85-9.92,2.85-9.92l1.18-8.55-5.6-5.8Z"/><path class="cls-21" d="M237.75,832.5s-8.92,48.3,4.83,100.69a41.27,41.27,0,0,0,13.95,0s-2.65-55.74,5-79.7c0,0,10.81-10.53,13.75-16.06S237.75,832.5,237.75,832.5Z"/><path class="cls-20" d="M319.4,768.17a10.78,10.78,0,0,0-.86-1.25,1.65,1.65,0,0,0-1.6-.5l-0.67.16,0.72,1.33h0c0.63,1,.61.89-0.37,2.27-1.4,2,0,2.54,0,2.54s1,0.42,2.59-2.16A2.75,2.75,0,0,0,319.4,768.17Z"/><path class="cls-20" d="M320.25,769.16a10.18,10.18,0,0,0-.82-1.19,1.56,1.56,0,0,0-1.52-.48l-0.63.15,0.68,1.27h0c0.6,0.92.58,0.84-.36,2.16-1.34,1.88,0,2.41,0,2.41s0.91,0.4,2.46-2.05A2.62,2.62,0,0,0,320.25,769.16Z"/><path class="cls-20" d="M320.84,770.82a8.74,8.74,0,0,0-.69-1,1.32,1.32,0,0,0-1.29-.4l-0.54.13,0.58,1.07h0c0.51,0.78.49,0.71-.3,1.83-1.13,1.59,0,2,0,2s0.77,0.34,2.08-1.74A2.21,2.21,0,0,0,320.84,770.82Z"/><path class="cls-20" d="M318,766.81a10.77,10.77,0,0,0-.86-1.25,1.65,1.65,0,0,0-1.6-.5l-0.67.16,0.72,1.33h0c0.63,1,.61.89-0.37,2.27-1.4,2,0,2.54,0,2.54s1,0.42,2.59-2.16A2.75,2.75,0,0,0,318,766.81Z"/><path class="cls-35" d="M315.63,766.55a3.91,3.91,0,0,1,.4.65,0.61,0.61,0,0,1,0,.39,1.36,1.36,0,0,1-.16.36c-0.26.44-.59,0.84-0.84,1.27-0.06.11-.12,0.22-0.17,0.33l-0.07.17,0,0.09,0,0.09a1.38,1.38,0,0,0,0,.72,1,1,0,0,0,.39.58l0.15,0.09a0.47,0.47,0,0,0,.16,0,1.06,1.06,0,0,0,.35-0.08,2.25,2.25,0,0,0,.63-0.39c0.1-.07.19-0.17,0.28-0.25l0.26-.27a10.17,10.17,0,0,0,.89-1.22,3.07,3.07,0,0,0,.38-1.44,2,2,0,0,0-.14-0.74,1.83,1.83,0,0,0-.17-0.34l-0.2-.32,0.22,0.31a1.8,1.8,0,0,1,.19.33,2.06,2.06,0,0,1,.18.75,3.14,3.14,0,0,1-.35,1.49,9.09,9.09,0,0,1-.89,1.25l-0.26.28c-0.1.09-.18,0.18-0.28,0.26a2.37,2.37,0,0,1-.66.41,1.19,1.19,0,0,1-.39.08,0.58,0.58,0,0,1-.21,0l-0.17-.1a1.12,1.12,0,0,1-.44-0.66,1.5,1.5,0,0,1,0-.78l0-.09,0-.09,0.07-.18c0.06-.12.12-0.23,0.18-0.34,0.27-.44.6-0.83,0.87-1.25a1.31,1.31,0,0,0,.16-0.33,0.57,0.57,0,0,0,0-.36A4.42,4.42,0,0,0,315.63,766.55Z"/><path class="cls-35" d="M316.09,771.15a2,2,0,0,0-.08.57,1.11,1.11,0,0,0,.16.54,1.09,1.09,0,0,0,.41.38,0.29,0.29,0,0,0,.12,0h0.14a1.06,1.06,0,0,0,.27-0.06A2.79,2.79,0,0,0,318,772a7.19,7.19,0,0,0,.74-0.9c0.12-.15.22-0.32,0.33-0.48a2.5,2.5,0,0,0,.25-0.51,2.93,2.93,0,0,0,.2-1.12,2.09,2.09,0,0,0-.1-0.56l-0.05-.13a0.72,0.72,0,0,0-.06-0.13l-0.15-.25c-0.2-.33-0.42-0.66-0.66-1,0.13,0.14.25,0.3,0.37,0.46s0.23,0.31.34,0.48l0.16,0.25a0.79,0.79,0,0,1,.07.13l0.06,0.14a2.17,2.17,0,0,1,.12.58,2.86,2.86,0,0,1-.19,1.17,2.63,2.63,0,0,1-.26.54c-0.11.16-.21,0.33-0.33,0.49a7.27,7.27,0,0,1-.76.9,2.73,2.73,0,0,1-1,.67,1.14,1.14,0,0,1-.3.06h-0.16l-0.08,0-0.07,0a1.15,1.15,0,0,1-.42-0.42,1.17,1.17,0,0,1-.13-0.58A1.85,1.85,0,0,1,316.09,771.15Z"/><path class="cls-35" d="M317,772.74a1,1,0,0,0,.47.66,0.46,0.46,0,0,0,.18.08,0.67,0.67,0,0,0,.2,0,1.3,1.3,0,0,0,.38-0.14,2.91,2.91,0,0,0,.65-0.5c0.1-.09.19-0.2,0.29-0.3l0.26-.32,0.25-.33,0.24-.35c0-.06.08-0.11,0.11-0.17l0.09-.18a3.62,3.62,0,0,0,.15-0.39,2.28,2.28,0,0,0,0-1.62,1.89,1.89,0,0,1,.23.81,2.72,2.72,0,0,1-.1.84,2.68,2.68,0,0,1-.14.4l-0.09.19c0,0.07-.08.12-0.11,0.18l-0.23.35-0.25.34-0.27.32c-0.1.1-.19,0.21-0.3,0.31a2.68,2.68,0,0,1-.69.5,1.4,1.4,0,0,1-.41.13,0.74,0.74,0,0,1-.22,0,0.53,0.53,0,0,1-.2-0.1A1,1,0,0,1,317,772.74Z"/><path class="cls-35" d="M318.11,773.45a1.33,1.33,0,0,0,0,.38,0.85,0.85,0,0,0,.41.58l0.08,0h0.08l0.18,0a1.65,1.65,0,0,0,.64-0.35,3.85,3.85,0,0,0,.52-0.54c0.08-.1.16-0.19,0.23-0.3l0.22-.31a3.4,3.4,0,0,0,.2-0.32,3.13,3.13,0,0,0,.15-0.34,2.29,2.29,0,0,0,.15-0.73,1.67,1.67,0,0,0-.13-0.74,1.6,1.6,0,0,1,.2.74,2.35,2.35,0,0,1-.11.76,2.29,2.29,0,0,1-.14.36,3.36,3.36,0,0,1-.2.33c-0.07.11-.14,0.21-0.22,0.32s-0.15.21-.23,0.31a4,4,0,0,1-.55.55,1.63,1.63,0,0,1-.69.36,0.71,0.71,0,0,1-.2,0l-0.11,0-0.09,0a0.91,0.91,0,0,1-.28-0.28,0.9,0.9,0,0,1-.12-0.37A1.18,1.18,0,0,1,318.11,773.45Z"/><rect class="cls-20" x="258.53" y="765.35" width="8.46" height="14.82"/><path class="cls-35" d="M267,767.88v-5.05h-8.44v4.3C260.35,768.1,263,768.66,267,767.88Z"/><path class="cls-9" d="M307,787.09l-3.54,1.83s-17.18-15.42-29.57-17.9a14.08,14.08,0,0,1-11.75,6.12c-6.27,0-8.88-3.47-9.92-5.88A28.29,28.29,0,0,0,240,777.66c-6,5.76-22.92,26.59-22.92,31.57s7.73,16,7.73,16a60.66,60.66,0,0,0,12.05-7.73l-4.32-7.6,9.43-12.44s-6.29,34.71-6.81,37.07c0,0,15.72,5.89,22.27,7.73l3.27-6.42,4.45,6.42,23.18-6.55s-1.7-34.84-4.06-40.21c0,0,13.1,9.17,18.21,9.82s9.3-4.19,9.3-4.19S310,791.42,307,787.09Z"/><path class="cls-21" d="M225.18,825.41a51.27,51.27,0,0,0,12.16-7.8,1,1,0,0,0,.22-1.27l-2-3.45a1,1,0,0,0-1.51-.3,93.68,93.68,0,0,1-11.78,7.94,1,1,0,0,0-.38,1.46l2,3.05A1,1,0,0,0,225.18,825.41Z"/><path class="cls-33" d="M232.29,809.68a12,12,0,0,1-1-1.24,13.47,13.47,0,0,1-.87-1.37,12.36,12.36,0,0,1-.71-1.46,15.08,15.08,0,0,1-.54-1.55,8.87,8.87,0,0,0,.35,1.62c0.08,0.27.18,0.53,0.28,0.79s0.22,0.51.34,0.76a11,11,0,0,0,.86,1.44,10,10,0,0,0,.84,1.05,6,6,0,0,1-.86.11,6.1,6.1,0,0,1-1.19-.06c-0.2,0-.39-0.07-0.59-0.11s-0.39-.1-0.58-0.18a6.48,6.48,0,0,1-1.1-.53A5,5,0,0,0,229.7,810a5.47,5.47,0,0,0,1.25.13,5.18,5.18,0,0,0,1.26-.16l0.3-.08Z"/><path class="cls-33" d="M303.39,789.2a10.65,10.65,0,0,0-.49,1.34,11.92,11.92,0,0,0-.32,1.4,10.94,10.94,0,0,0-.16,1.43,13.33,13.33,0,0,0,0,1.45,7.82,7.82,0,0,1-.19-1.45c0-.25,0-0.49,0-0.74s0-.49.06-0.73a9.68,9.68,0,0,1,.29-1.45,8.72,8.72,0,0,1,.39-1.12,5.25,5.25,0,0,0-.74.16,5.34,5.34,0,0,0-1,.4c-0.16.08-.31,0.17-0.46,0.27s-0.29.2-.43,0.32a5.7,5.7,0,0,0-.76.76,4.42,4.42,0,0,1,1.53-1.56,4.84,4.84,0,0,1,1-.47,4.57,4.57,0,0,1,1.1-.24l0.28,0Z"/><path class="cls-21" d="M308,786.74a39.39,39.39,0,0,1,4.55,14,1.09,1.09,0,0,1-.27.89,13.32,13.32,0,0,1-1.73,1.58,1.09,1.09,0,0,1-1.71-.59c-0.86-3.16-3-10.68-4.68-13.81a1.09,1.09,0,0,1,.46-1.49l1.93-1A1.09,1.09,0,0,1,308,786.74Z"/><path class="cls-22" d="M246.33,751.54s-3.56-10.87,2.83-15.47a18.92,18.92,0,0,1,18.49-2.48c5,2.15,8.47,10.6,6.65,15.7L258,745.67Z"/><path class="cls-35" d="M272.35,751.39a2.59,2.59,0,0,0,1.45,3.4,2.76,2.76,0,0,0,3.14-2.13,2.59,2.59,0,0,0-1.45-3.4A2.76,2.76,0,0,0,272.35,751.39Z"/><path class="cls-20" d="M272.81,760a11.71,11.71,0,0,0,.75-2.1,22,22,0,0,0,.68-5.76c0-.38,0-0.76,0-1.13a11.84,11.84,0,0,0-.59-4.7,12.72,12.72,0,0,0-12.46-8.43,12.55,12.55,0,0,0-12.42,13.59,2.86,2.86,0,0,0-2.5.07c-1.44.8-1.77,2.85-.74,4.58s3,2.48,4.48,1.68a2.45,2.45,0,0,0,.53-0.4,11.85,11.85,0,0,0,13,9.3A11.68,11.68,0,0,0,271,762.8a5.62,5.62,0,0,0,.39-0.43A10.65,10.65,0,0,0,272.81,760Z"/><ellipse class="cls-22" cx="259.57" cy="752.48" rx="1.2" ry="1.16" transform="translate(-86.61 35.71) rotate(-6.75)"/><ellipse class="cls-22" cx="269.92" cy="752.26" rx="1.11" ry="1.06" transform="translate(-86.37 36.85) rotate(-6.74)"/><path class="cls-22" d="M261.64,750.35a7.62,7.62,0,0,0-1.73-.51,5.56,5.56,0,0,0-1.76,0,4.7,4.7,0,0,0-.85.21c-0.14,0-.27.1-0.41,0.16l-0.2.09-0.2.1a9.07,9.07,0,0,0-1.47,1,4.76,4.76,0,0,1,1.29-1.3,4.36,4.36,0,0,1,1.76-.7,4.54,4.54,0,0,1,1.9.1,4.91,4.91,0,0,1,.88.33A3.81,3.81,0,0,1,261.64,750.35Z"/><path class="cls-22" d="M267.21,750.62a3.48,3.48,0,0,1,.65-0.55,4.53,4.53,0,0,1,.76-0.41,4.2,4.2,0,0,1,1.72-.33,3.92,3.92,0,0,1,.88.12,3.88,3.88,0,0,1,.82.3,4.39,4.39,0,0,1,1.34,1,8.34,8.34,0,0,0-1.47-.76l-0.19-.07-0.19-.06-0.39-.09a4.33,4.33,0,0,0-.8-0.09,5.13,5.13,0,0,0-1.6.23A7,7,0,0,0,267.21,750.62Z"/><path class="cls-22" d="M248.82,751.47s8.45-4,12.71-9.41c0,0,.09,2.82-0.82,3.87,0.32,0.18,6.16-2.53,7.24-7s-7-2.24-7-2.24-4.72-.42-4.92-0.31-3.4,2.27-3.54,2.42-4.1,6.43-4.1,6.43l-1,2.3-1.1,4.05Z"/><path class="cls-36" d="M262.46,759a3.43,3.43,0,0,1,2.75.16,2.52,2.52,0,0,1,2.55-.21A2.7,2.7,0,0,1,265,761,2.38,2.38,0,0,1,262.46,759Z"/><path class="cls-35" d="M261.18,758.32a8.2,8.2,0,0,0,1.8.9,6.29,6.29,0,0,0,2,.36,5.4,5.4,0,0,0,2-.35,7.44,7.44,0,0,0,1.75-1,6.18,6.18,0,0,1-.78.66,5.78,5.78,0,0,1-.9.51,5,5,0,0,1-1,.32,5.33,5.33,0,0,1-1,.1,5.55,5.55,0,0,1-2-.43A5.88,5.88,0,0,1,261.18,758.32Z"/><path class="cls-35" d="M265.16,751.51a13.64,13.64,0,0,1,1,1.57,12.7,12.7,0,0,1,.79,1.69,4.72,4.72,0,0,1,.24.92,1.69,1.69,0,0,1,0,.26s0,0.09,0,.14a0.61,0.61,0,0,1-.06.15l-0.05.08,0,0-0.09.09-0.2.15a4.7,4.7,0,0,1-.86.45,6.43,6.43,0,0,1-.91.3,10.64,10.64,0,0,0,1.59-1l0.16-.15,0.07-.08,0,0v0a0.68,0.68,0,0,0,0-.35,4.81,4.81,0,0,0-.25-0.85c-0.2-.57-0.45-1.13-0.69-1.69S265.39,752.08,265.16,751.51Z"/><circle class="cls-22" cx="269.07" cy="782.21" r="0.88"/><circle class="cls-22" cx="269.07" cy="793.26" r="0.88"/><circle class="cls-22" cx="269.07" cy="804.31" r="0.88"/><circle class="cls-22" cx="255.85" cy="782.21" r="0.88"/><circle class="cls-22" cx="255.85" cy="793.26" r="0.88"/><circle class="cls-22" cx="255.85" cy="804.31" r="0.88"/><path class="cls-14" d="M236.89,824l-0.12.64Z"/><path class="cls-14" d="M237,823.43l0,0.13,0-.13h0Z"/><path class="cls-22" d="M288,824.59h0a88.35,88.35,0,0,1-26.38,4.06,83.17,83.17,0,0,1-11-.72,70.06,70.06,0,0,1-14-3.24c-2,11.19-7.29,43.27-5.54,57,0,0,18.87.26,28.94,0.05h0c9.34,0.3,33.49-.05,33.49-0.05C295.32,867.92,290,835.67,288,824.59Z"/><path class="cls-14" d="M237,823.56l0,0.12Z"/><path class="cls-14" d="M237,823.69l-0.06.35Z"/><path class="cls-22" d="M506,607.43s3.42,5.15,5.17,7.19c4.39,5.14,5,3.52,7.69,7.94,2.95,4.77,0,7.75-1.73,9.13s1.14,6.46-2,9.31c-4.13,3.73-8,.21-10.8,2.3s-3.47,5.19-10.21,4.6-6.67-22.62-6.67-22.62,5.52-11.69,5.74-11.78Z"/><polygon class="cls-20" points="462.66 756.84 460.96 752.32 455.25 752.83 454.29 753.76 456.14 759.29 459.55 763.42 462.66 756.84"/><rect class="cls-21" x="448.83" y="765.04" width="19.48" height="1.96" rx="0.79" ry="0.79" transform="translate(-256.69 231.73) rotate(-22.33)"/><path class="cls-22" d="M464.12,756.24l2.67,4.8a1,1,0,0,1-.24,1.49l-15.88,6.52a1.25,1.25,0,0,1-1.34-.32,2.39,2.39,0,0,1-.48-2.43c0.59-2.57,5-5,6.6-7.58a0.29,0.29,0,0,1,.14-0.12l7.31-3A1.06,1.06,0,0,1,464.12,756.24Z"/><path class="cls-4" d="M457.82,761.11h0a0.37,0.37,0,0,0-.08-0.45,3.32,3.32,0,0,0-4.1-.68,0.31,0.31,0,0,0,0,.4h0a0.25,0.25,0,0,0,.33.14,2.86,2.86,0,0,1,3.58.58A0.19,0.19,0,0,0,457.82,761.11Z"/><path class="cls-4" d="M456.44,762.44h0a0.37,0.37,0,0,0-.08-0.45,3.32,3.32,0,0,0-4.1-.69,0.31,0.31,0,0,0,0,.4h0a0.25,0.25,0,0,0,.33.14,2.86,2.86,0,0,1,3.58.58A0.19,0.19,0,0,0,456.44,762.44Z"/><path class="cls-4" d="M455.15,763.68h0a0.37,0.37,0,0,0-.08-0.45,3.32,3.32,0,0,0-4.1-.69,0.31,0.31,0,0,0,0,.4h0a0.25,0.25,0,0,0,.33.14,2.86,2.86,0,0,1,3.58.58A0.19,0.19,0,0,0,455.15,763.68Z"/><polygon class="cls-20" points="476.58 756.35 474.88 751.83 469.18 752.34 468.21 753.28 470.06 758.8 473.47 762.93 476.58 756.35"/><rect class="cls-21" x="462.75" y="764.55" width="19.48" height="1.96" rx="0.79" ry="0.79" transform="translate(-255.45 236.96) rotate(-22.33)"/><path class="cls-22" d="M478,755.75l2.67,4.8a1,1,0,0,1-.24,1.49l-15.88,6.52a1.25,1.25,0,0,1-1.34-.32,2.39,2.39,0,0,1-.48-2.43c0.59-2.57,5-5,6.6-7.58a0.29,0.29,0,0,1,.14-0.12l7.31-3A1.06,1.06,0,0,1,478,755.75Z"/><path class="cls-4" d="M471.74,760.62h0a0.37,0.37,0,0,0-.08-0.45,3.32,3.32,0,0,0-4.1-.69,0.31,0.31,0,0,0,0,.4h0a0.25,0.25,0,0,0,.33.14,2.86,2.86,0,0,1,3.58.58A0.19,0.19,0,0,0,471.74,760.62Z"/><path class="cls-4" d="M470.36,762h0a0.37,0.37,0,0,0-.08-0.45,3.32,3.32,0,0,0-4.1-.69,0.31,0.31,0,0,0,0,.4h0a0.25,0.25,0,0,0,.33.14,2.86,2.86,0,0,1,3.58.58A0.19,0.19,0,0,0,470.36,762Z"/><path class="cls-4" d="M469.07,763.19h0a0.37,0.37,0,0,0-.08-0.45,3.32,3.32,0,0,0-4.1-.69,0.31,0.31,0,0,0,0,.4h0a0.25,0.25,0,0,0,.33.14,2.86,2.86,0,0,1,3.58.59A0.19,0.19,0,0,0,469.07,763.19Z"/><path class="cls-22" d="M487.11,601.52s-11.74-2-15.68,11.13l4.86,7.28s10.19-3.92,10.23-4.3S487.11,601.52,487.11,601.52Z"/><path class="cls-22" d="M471.43,612.65a19.79,19.79,0,0,1-1.74,6.37c-3.36,5.86-5.18,3.94-7,8.79-2,5.23,1.47,7.61,3.39,8.65s0.08,6.56,3.71,8.77c4.75,2.9,7.86-1.27,11,.26s4.37,4.45,10.88,2.63S494,624.65,494,624.65s-7.59-10.46-7.82-10.51S471.43,612.65,471.43,612.65Z"/><path class="cls-20" d="M488.46,638.75s11.25-2.07,16.42-1.9-3.14,13.63-3.14,13.63l-8.45.19s-5.18-5.78-4.84-6.46,0-5.09,0-5.09Z"/><path class="cls-20" d="M498.49,628l3,9s-2.58,5.34-10.5,3c0,0,.9-1.87-0.31-5.71S498.49,628,498.49,628Z"/><path class="cls-43" d="M498.49,628l1.39,4.21c-0.83,3.08-3.52,5.17-8.6,5.82a12.23,12.23,0,0,0-.63-3.69C489.42,630.43,498.49,628,498.49,628Z"/><ellipse class="cls-35" cx="478.28" cy="622.35" rx="2.31" ry="2.89" transform="translate(-209.81 244.72) rotate(-23.7)"/><path class="cls-20" d="M481,630.06a12,12,0,0,1-1-2,22.87,22.87,0,0,1-1.39-5.65c0-.38-0.12-0.75-0.19-1.12a12.36,12.36,0,1,1,24.46-2.79,2.67,2.67,0,0,1,2.4-.25c1.48,0.62,2.06,2.62,1.29,4.47s-2.6,2.86-4.08,2.24a2.36,2.36,0,0,1-.56-0.33,11.59,11.59,0,0,1-11.23,10.92,11.09,11.09,0,0,1-7.6-2.93,5.41,5.41,0,0,1-.43-0.38A10.69,10.69,0,0,1,481,630.06Z"/><path class="cls-35" d="M487.82,618.79a7.58,7.58,0,0,1,.4,2.08,5.85,5.85,0,0,1,0,1.09,2.75,2.75,0,0,1-.37,1.11l-0.1.13-0.09.11a1.08,1.08,0,0,0-.12.16,0.8,0.8,0,0,0-.13.34,1,1,0,0,0,.24.73,2.93,2.93,0,0,0,1.72.86,2.39,2.39,0,0,1-2.1-.5,1.45,1.45,0,0,1-.49-1.15,1.14,1.14,0,0,1,.07-0.33,1.29,1.29,0,0,1,.14-0.3,1.66,1.66,0,0,1,.19-0.26l0.07-.09,0.06-.07a2.62,2.62,0,0,0,.31-0.84,8.83,8.83,0,0,0,.14-1C487.76,620.18,487.78,619.49,487.82,618.79Z"/><circle class="cls-22" cx="492.97" cy="619.86" r="1.08" transform="translate(-6.15 4.94) rotate(-0.57)"/><circle class="cls-22" cx="483.71" cy="620.56" r="1.08" transform="translate(-6.29 4.95) rotate(-0.58)"/><path class="cls-36" d="M492.08,628.07a3.63,3.63,0,0,0-3,.4,2.67,2.67,0,0,0-2.81,0,3,3,0,0,0,3.15,2.18A2.66,2.66,0,0,0,492.08,628.07Z"/><path class="cls-35" d="M493.43,627.24a8.9,8.9,0,0,1-1.9,1.16,6.69,6.69,0,0,1-2.12.57,5.7,5.7,0,0,1-2.17-.24,8,8,0,0,1-2-1,6.81,6.81,0,0,0,.9.69,6.28,6.28,0,0,0,1,.51,5.34,5.34,0,0,0,1.11.29,5.66,5.66,0,0,0,1.15,0,5.91,5.91,0,0,0,2.19-.65A6.46,6.46,0,0,0,493.43,627.24Z"/><path class="cls-22" d="M490.62,617.39a11.09,11.09,0,0,1,1.59-.32,5.48,5.48,0,0,1,1.5,0,5.06,5.06,0,0,1,1.43.44c0.25,0.09.46,0.24,0.7,0.36s0.46,0.29.72,0.42a4.51,4.51,0,0,0-.45-0.74,3.68,3.68,0,0,0-.63-0.61,3.48,3.48,0,0,0-1.65-.7,3.63,3.63,0,0,0-1.78.17A3.32,3.32,0,0,0,490.62,617.39Z"/><path class="cls-22" d="M485.86,617.75a3.32,3.32,0,0,0-1.54-.79,3.64,3.64,0,0,0-1.79,0,3.48,3.48,0,0,0-1.55.9,3.68,3.68,0,0,0-.55.68,4.53,4.53,0,0,0-.36.79c0.25-.16.45-0.35,0.67-0.51s0.42-.32.66-0.44a5.06,5.06,0,0,1,1.36-.61,5.48,5.48,0,0,1,1.48-.2A11.13,11.13,0,0,1,485.86,617.75Z"/><path class="cls-21" d="M508,693.78s3.32,15.61-11.74,19.32-34.05,4.08-34.05,4.08l-0.35,36.37-7.92.91s-23.64-49,4.19-58.66l25.47-1.48,10.44-1.41s10.44-3.29,10.6-2.8S507.8,694,508,693.78Z"/><path class="cls-34" d="M522,693s3.32,15.61-11.74,19.32-34.05,4.08-34.05,4.08l-0.35,36.37-7.92.91s-23.64-49,4.19-58.66l25.47-1.48,10.44-1.41s10.44-3.29,10.6-2.8S521.8,693.25,522,693Z"/><path class="cls-20" d="M475.68,660.67s-1,25.51-3.89,29.51l15.78-3.59V658.83Z"/><path class="cls-9" d="M488.46,638.75s7.65,8.93,16.42-1.9c0,0,9.59-.78,16.66,4.24s11.3,16.3,11.3,16.3-12.81,6.45-16,6.76H481.31a31.57,31.57,0,0,1-10.65-3.07S471.56,643.16,488.46,638.75Z"/><path class="cls-33" d="M484.14,648.08q-0.75,2-1.36,4a34.7,34.7,0,0,0-1,4,19.4,19.4,0,0,0-.27,2,14.93,14.93,0,0,0-.05,2.05,54.4,54.4,0,0,0,2.68,9.08c-0.84-1.13-3.05-7.62-3.2-9a14.76,14.76,0,0,1,.19-4.26c0.13-.7.29-1.39,0.48-2.07s0.42-1.35.67-2A21.61,21.61,0,0,1,484.14,648.08Z"/><path class="cls-9" d="M482.4,664.15A66.73,66.73,0,0,1,485,674c1,8.47-.09,14.44-1.84,19.26-2.46,6.76,17.62,4.3,18,4.1s17.62-6.86,17.62-6.86l3.28-9.53v-16.8l-0.92-7.68Z"/><path class="cls-8" d="M428.84,651.66s1.67,10.51,6,13.68l-3,.64s1.63,7.55,6.53,12l-2.83.6s2.53,6,7.73,8.52l-3.21,1.25s5.64,7.55,11,8.38L447.84,698s5.43,4.31,11,4l-2.64,2.84s6.27,3.61,11.75,2.87l-2.89,3S484.49,720,502,701.91l12-1.19-0.28-1.31L503.21,697s1.27-11-8.88-20.55l-0.35,5s-4.71-11.56-11-15.43l-0.24,4.85s-4.16-6.31-9.8-8.93l0.72,4.08s-7.09-6.82-13.46-9.56l0.58,5.41s-6.06-5.94-12.3-7.44l0.48,4.27s-2.8-3.21-9.48-5.46l1.08,4.43S437.48,654.48,428.84,651.66Z"/><path class="cls-24" d="M428.84,651.66s1.67,10.51,6,13.68l-3,.64s1.63,7.55,6.53,12l-2.83.6s2.53,6,7.73,8.52l-3.21,1.25s5.64,7.55,11,8.38L447.84,698s5.43,4.31,11,4l-2.64,2.84s6.27,3.61,11.75,2.87l-2.89,3S484.49,720,502,701.91l12-1.19C469.93,697.41,428.84,651.66,428.84,651.66Z"/><path class="cls-22" d="M502.95,618.5s-13.14-3.17-19.41-12.09c0,0-.11-8.13,11.95-6.28C507.2,601.92,509.95,613.32,502.95,618.5Z"/><path class="cls-33" d="M530.62,658.52l-2.25,1.09-2.27,1c-0.77.31-1.52,0.66-2.3,0.95l-1.16.45-1.17.41c-0.39.14-.79,0.25-1.18,0.38l-0.59.18-0.6.16c-0.79.22-1.6,0.38-2.41,0.52-0.4.06-.81,0.12-1.21,0.14a7.78,7.78,0,0,1-.95,0c-0.18-1.06-.39-2.11-0.62-3.16s-0.53-2.25-.81-3.37-0.59-2.23-.92-3.34-0.65-2.21-1-3.31l0.75,3.38,0.73,3.38c0.48,2.25.94,4.51,1.29,6.77l0,0.25,0.23,0a7.17,7.17,0,0,0,1.32,0c0.43,0,.85-0.08,1.27-0.14s0.84-.14,1.25-0.24l0.62-.14,0.61-.16a36.07,36.07,0,0,0,4.75-1.67c0.39-.15.77-0.33,1.15-0.51l1.14-.53c0.75-.37,1.49-0.75,2.23-1.15s1.46-.82,2.18-1.24,1.43-.87,2.13-1.31C532.1,657.76,531.36,658.14,530.62,658.52Z"/><circle class="cls-22" cx="502.5" cy="651.43" r="0.95"/><circle class="cls-22" cx="502.5" cy="663.41" r="0.95"/><circle class="cls-22" cx="502.5" cy="675.39" r="0.95"/><circle class="cls-22" cx="488.18" cy="651.43" r="0.95"/><circle class="cls-22" cx="488.18" cy="663.41" r="0.95"/><path class="cls-44" d="M453,129.2s46.55,17.21,2.38,25.15c-6.62,1.19-20.62,13.37,3.31,26.69,0,0,4.84,3.54,24.94,9.27,3.54,1,8.09-3.27,4.81-4.93l-3.58-.45s-5.37,1.09-28.62-12.41c0,0-11-8.5,4.25-13.75,0,0,40.75-5.75,6.5-30,0,0-10.25-5.25-14-4.5v4.93Z"/><path class="cls-20" d="M530.72,658.71q-1.08.63-2.18,1.24c-0.74.39-1.48,0.77-2.23,1.15l-1.14.53c-0.38.18-.76,0.36-1.15,0.51a36.07,36.07,0,0,1-4.75,1.67l-0.61.16-0.47.11c0.58,5.85,1.67,17.65,1.16,19.79-0.58,2.45-9.75,7.33-15.55,10.06a5.91,5.91,0,0,1-1,.36l-3.11,1c-1.16-.44-6.78-2.55-7-2.39s-0.19.42,1.76,2.15a0.21,0.21,0,0,1-.08.37c-1.27.34-5.24,1.45-5.23,1.79s3.59-.49,3.8-0.18-3.3,1.1-3.21,1.54,3.26-.4,3.36-0.23-2.86,1.29-3,1.57,3.2-.52,3.38-0.35-1.91,1.49-1.82,1.68,0.12,0.34,5.68-1.28l1.1-.37c6-.29,29.46-2.33,31.48-15.4a108.76,108.76,0,0,0,.79-25.5h0Z"/><path class="cls-20" d="M486.32,187c-0.11-.51-6.4-0.62-8.4-0.64a0.31,0.31,0,0,1-.18-0.06l-0.42-.13v-0.87a0.79,0.79,0,0,0-1.17-.7c-1.54.84-3.53,1.77-4.68,2.58,0,0-1.42,1.11-1.34,1.71s2.32,1.08,2.32,1.76a13.13,13.13,0,0,1-.18,2,9.37,9.37,0,0,1-.35,1.29l3.28,0.23c8.83,0.25,8.69-1.47,8.76-1.79s-3.41,0-3.21-.28,4.63-1.13,4.38-1.51-4.3-.16-4.22-0.45,4.35-.63,4.31-1.3-4.78-.15-4.59-0.69S486.45,187.64,486.32,187Z"/><path class="cls-7" d="M176.92,459.46c25.9-2.88,48.93,13.82,52.38,37.42,2.88,23.6-15,44.9-40.87,47.78S139.5,530.84,136,507.24,151,462.34,176.92,459.46Z"/><path class="cls-4" d="M866.3,203c14.28-1.59,27,7.62,28.89,20.63,1.59,13-8.25,24.76-22.54,26.35s-27-7.62-28.89-20.63S852,204.56,866.3,203Z"/><path class="cls-4" d="M323.33,189.19c8.77-1,16.57,4.68,17.74,12.67,1,8-5.07,15.21-13.84,16.18s-16.57-4.68-17.74-12.67S314.56,190.16,323.33,189.19Z"/><polygon class="cls-16" points="772.69 257.39 783.08 276.3 806 279.5 789.21 294.15 793.21 314.94 772.69 305.08 752.44 314.94 756.17 294.15 739.65 279.5 762.57 276.3 772.69 257.39"/><polygon class="cls-18" points="217.49 233.43 227.88 252.35 250.79 255.55 234.01 270.2 238.01 290.98 217.49 281.12 197.24 290.98 200.97 270.2 184.45 255.55 207.37 252.35 217.49 233.43"/><polygon class="cls-28" points="281.69 353.88 292.08 372.79 314.99 375.99 298.21 390.64 302.2 411.43 281.69 401.57 261.44 411.43 265.17 390.64 248.65 375.99 271.56 372.79 281.69 353.88"/><polygon class="cls-4" points="546.79 111.91 557.18 130.83 580.09 134.03 563.31 148.68 567.3 169.46 546.79 159.6 526.54 169.46 530.27 148.68 513.75 134.03 536.66 130.83 546.79 111.91"/><path class="cls-3" d="M926.66,368.76a16.49,16.49,0,0,0,1.2-14.05c-3-7.47-11.36-12.26-20-11.06-9.27,1.2-15.84,7.77-16.44,15.84-4.48-6.58-13.75-9.87-22.42-6.88-8.07,2.69-13.15,10.46-12.26,18.24,0.6,5.08,3.89,9.27,8.07,12h0l1.79,0.9,38,21.22,21.82-35v-0.3l0.3-.9h0Z"/><path class="cls-17" d="M777,197.9a16.49,16.49,0,0,0,9.19-10.69c2-7.81-2-16.59-9.76-20.69-8.21-4.46-17.4-3-22.61,3.22,0.21-8-5.37-16-14.15-18.7-8.12-2.54-16.79.78-20.61,7.61-2.49,4.47-2.27,9.79-.46,14.42h0l0.93,1.78,18.35,39.43L776,198.69l0.18-.24,0.77-.55h0Z"/><path class="cls-34" d="M345.66,291a16.49,16.49,0,0,0,1.2-14.05c-3-7.47-11.36-12.26-20-11.06-9.27,1.2-15.84,7.77-16.44,15.84-4.48-6.58-13.75-9.87-22.42-6.88-8.07,2.69-13.15,10.46-12.26,18.24,0.6,5.08,3.89,9.27,8.07,12h0l1.79,0.9,38,21.22,21.82-35v-0.3l0.3-.9h0Z"/></g></g></svg>