<?xml version="1.0" encoding="utf-8"?>
<!-- Generator: Adobe Illustrator 19.2.1, SVG Export Plug-In . SVG Version: 6.00 Build 0)  -->
<svg version="1.1" id="Capa_1" xmlns="http://www.w3.org/2000/svg" xmlns:xlink="http://www.w3.org/1999/xlink" x="0px" y="0px"
	 viewBox="0 0 138.3 298.3" style="enable-background:new 0 0 138.3 298.3;" xml:space="preserve">
<style type="text/css">
	.st0{fill:#FFFFFF;}
	.st1{fill:#C6C6C5;}
	.st2{fill:#E7E7E7;}
	.st3{fill:#009EE2;}
	.st4{opacity:0.5;}
	.st5{fill:#A9AAAA;}
	.st6{opacity:0.7;fill:url(#SVGID_1_);enable-background:new    ;}
	.st7{fill:#1D1D1B;}
	.st8{opacity:0.7;fill:url(#SVGID_2_);enable-background:new    ;}
</style>
<title>termometro-frio2</title>
<g>
	<g id="Layer_1">
		<path class="st0" d="M69.2,297.8c-37.9,0-68.7-30.7-68.7-68.6c0-30,19.5-56.5,48.1-65.5V21.1c-0.3-11.4,8.7-20.8,20.1-21
			c11.4-0.3,20.8,8.8,21.1,20.2c0,0.3,0,0.6,0,0.9v142.5c36.2,11.4,56.2,50,44.8,86.2C125.5,278.3,99.1,297.7,69.2,297.8z"/>
		<path class="st1" d="M69.2,298.3C31,298.3,0,267.2,0.1,229c0-30,19.4-56.5,47.9-65.7V21.1C47.8,9.5,57-0.2,68.7-0.5
			s21.3,9,21.6,20.7c0,0.3,0,0.6,0,0.9v142.2c36.4,11.7,56.4,50.6,44.8,87C125.9,278.9,99.2,298.3,69.2,298.3z M69.2,1
			C58.1,1,49.1,10,49,21.1V164l-0.4,0.1C12.7,175.4-7.3,213.7,4,249.6s49.6,55.9,85.5,44.6s55.9-49.6,44.6-85.5
			c-6.7-21.2-23.3-37.9-44.6-44.6l-0.4-0.1V21.1C89.3,10,80.3,1,69.2,1L69.2,1z"/>
		<path class="st2" d="M84.8,167.4V21.1c0.2-8.6-6.6-15.8-15.2-16s-15.8,6.6-16,15.2c0,0.3,0,0.5,0,0.8v146.3
			C19.5,176-1.1,210.7,7.5,244.7c8.6,34.1,43.3,54.7,77.3,46.1s54.7-43.3,46.1-77.3C125.2,190.9,107.5,173.2,84.8,167.4z"/>
		<path class="st2" d="M84.8,26.3v-5.1c0.2-8.6-6.6-15.8-15.2-16s-15.8,6.6-16,15.2c0,0.3,0,0.5,0,0.8v5.1
			C53.6,26.3,84.8,26.3,84.8,26.3z"/>
		<path class="st3" d="M84.8,167.4v-37.8H53.6v37.8C19.5,176-1.1,210.7,7.5,244.8s43.3,54.7,77.4,46.1s54.7-43.3,46.1-77.4
			C125.2,190.9,107.5,173.2,84.8,167.4z"/>
		<g class="st4">
			<path class="st5" d="M84.8,167.4V21.1c0.2-8.6-6.6-15.8-15.2-16s-15.8,6.6-16,15.2c0,0.3,0,0.5,0,0.8v146.3
				C19.5,176-1.1,210.7,7.5,244.7c8.6,34.1,43.3,54.7,77.3,46.1s54.7-43.3,46.1-77.3C125.2,190.9,107.5,173.2,84.8,167.4z
				 M69.2,287.6c-31.9,0-57.8-26-57.8-57.9c0-27.5,19.4-51.2,46.4-56.6V25.2c0-6.3,5.1-11.4,11.4-11.4s11.4,5.1,11.4,11.4v147.9
				c31.3,6.3,51.6,36.8,45.3,68.1C120.4,268.2,96.7,287.6,69.2,287.6z"/>
		</g>
		
			<linearGradient id="SVGID_1_" gradientUnits="userSpaceOnUse" x1="224.69" y1="-220.65" x2="224.69" y2="-100.44" gradientTransform="matrix(1 0 0 1 -161.19 243.79)">
			<stop  offset="0" style="stop-color:#FFFFFF"/>
			<stop  offset="1" style="stop-color:#0096D0"/>
		</linearGradient>
		<path class="st6" d="M65.1,156.8c0,1.6-0.7,2.9-1.6,2.9l0,0c-0.9,0-1.6-1.3-1.6-2.9V24.9c0-1.6,0.7-2.9,1.6-2.9l0,0
			c0.9,0,1.6,1.3,1.6,2.9V156.8z"/>
		<path class="st7" d="M83.9,159.3h-7.3c-0.3-0.2-0.7-0.1-0.9,0.2c-0.2,0.3-0.1,0.7,0.2,0.9c0.2,0.1,0.5,0.1,0.7,0h7.3
			c0.3,0.2,0.7,0.1,0.9-0.2c0.2-0.3,0.1-0.7-0.2-0.9C84.4,159.1,84.1,159.1,83.9,159.3z"/>
		<path class="st7" d="M79.1,157.4h4.7c0.2,0.1,0.4,0.1,0.5-0.1c0.1-0.2,0.1-0.4-0.1-0.5c-0.1-0.1-0.3-0.1-0.4,0h-4.7
			c-0.2-0.1-0.4-0.1-0.5,0.1c-0.1,0.2-0.1,0.4,0.1,0.5C78.9,157.5,79,157.5,79.1,157.4z"/>
		<path class="st7" d="M79.1,154.8h4.7c0.2,0,0.5-0.1,0.6-0.3c-0.1-0.2-0.3-0.3-0.6-0.3h-4.7c-0.2,0-0.5,0.1-0.6,0.3
			C78.7,154.7,78.9,154.8,79.1,154.8z"/>
		<path class="st7" d="M79.1,152.1h4.7c0.2,0.1,0.4,0.1,0.5-0.1c0.1-0.2,0.1-0.4-0.1-0.5c-0.1-0.1-0.3-0.1-0.4,0h-4.7
			c-0.2-0.1-0.4-0.1-0.5,0.1c-0.1,0.2-0.1,0.4,0.1,0.5C78.8,152.2,79,152.2,79.1,152.1z"/>
		<path class="st7" d="M79.1,149.5h4.7c0.2,0.1,0.4,0.1,0.5-0.1c0.1-0.2,0.1-0.4-0.1-0.5c-0.1-0.1-0.3-0.1-0.4,0h-4.7
			c-0.2-0.1-0.4-0.1-0.5,0.1c-0.1,0.2-0.1,0.4,0.1,0.5C78.9,149.6,79,149.6,79.1,149.5z"/>
		<path class="st7" d="M83.9,146h-7.3c-0.3-0.2-0.7-0.1-0.9,0.2c-0.2,0.3-0.1,0.7,0.2,0.9c0.2,0.1,0.5,0.1,0.7,0h7.3
			c0.3,0.2,0.7,0.1,0.9-0.2c0.2-0.3,0.1-0.7-0.2-0.9C84.4,145.8,84.1,145.8,83.9,146z"/>
		<path class="st7" d="M79.1,144.2h4.7c0.2,0.1,0.4,0.1,0.5-0.1c0.1-0.2,0.1-0.4-0.1-0.5c-0.1-0.1-0.3-0.1-0.4,0h-4.7
			c-0.2-0.1-0.4-0.1-0.5,0.1c-0.1,0.2-0.1,0.4,0.1,0.5C78.9,144.2,79,144.2,79.1,144.2z"/>
		<path class="st7" d="M79.1,141.5h4.7c0.2,0.1,0.4,0.1,0.5-0.1c0.1-0.2,0.1-0.4-0.1-0.5c-0.1-0.1-0.3-0.1-0.4,0h-4.7
			c-0.2-0.1-0.4-0.1-0.5,0.1c-0.1,0.2-0.1,0.4,0.1,0.5C78.9,141.6,79,141.6,79.1,141.5z"/>
		<path class="st7" d="M79.1,138.8h4.7c0.2,0.1,0.4,0.1,0.5-0.1c0.1-0.2,0.1-0.4-0.1-0.5c-0.1-0.1-0.3-0.1-0.4,0h-4.7
			c-0.2-0.1-0.4-0.1-0.5,0.1c-0.1,0.2-0.1,0.4,0.1,0.5C78.9,138.9,79,138.9,79.1,138.8z"/>
		<path class="st7" d="M79.1,136.2h4.7c0.2,0.1,0.4,0.1,0.5-0.1c0.1-0.2,0.1-0.4-0.1-0.5c-0.1-0.1-0.3-0.1-0.4,0h-4.7
			c-0.2-0.1-0.4-0.1-0.5,0.1c-0.1,0.2-0.1,0.4,0.1,0.5C78.8,136.3,79,136.3,79.1,136.2z"/>
		<path class="st7" d="M83.9,132.7h-7.3c-0.3-0.2-0.7-0.1-0.9,0.2c-0.2,0.3-0.1,0.7,0.2,0.9c0.2,0.1,0.5,0.1,0.7,0h7.3
			c0.3,0.2,0.7,0.1,0.9-0.2s0.1-0.7-0.2-0.9C84.4,132.5,84.1,132.5,83.9,132.7z"/>
		<path class="st7" d="M79.1,130.9h4.7c0.2,0.1,0.4,0.1,0.5-0.1c0.1-0.2,0.1-0.4-0.1-0.5c-0.1-0.1-0.3-0.1-0.4,0h-4.7
			c-0.2-0.1-0.4-0.1-0.5,0.1c-0.1,0.2-0.1,0.4,0.1,0.5C78.9,130.9,79,130.9,79.1,130.9z"/>
		<path class="st7" d="M79.1,128.2h4.7c0.2,0.1,0.4,0.1,0.5-0.1c0.1-0.2,0.1-0.4-0.1-0.5c-0.1-0.1-0.3-0.1-0.4,0h-4.7
			c-0.2-0.1-0.4-0.1-0.5,0.1s-0.1,0.4,0.1,0.5C78.9,128.3,79,128.3,79.1,128.2z"/>
		<path class="st7" d="M79.1,125.5h4.7c0.2,0.1,0.4,0.1,0.5-0.1s0.1-0.4-0.1-0.5c-0.1-0.1-0.3-0.1-0.4,0h-4.7
			c-0.2-0.1-0.4-0.1-0.5,0.1s-0.1,0.4,0.1,0.5C78.8,125.6,79,125.6,79.1,125.5z"/>
		<path class="st7" d="M79.1,122.9h4.7c0.2,0.1,0.4,0.1,0.5-0.1s0.1-0.4-0.1-0.5c-0.1-0.1-0.3-0.1-0.4,0h-4.7
			c-0.2-0.1-0.4-0.1-0.5,0.1s-0.1,0.4,0.1,0.5C78.8,123,79,123,79.1,122.9z"/>
		<path class="st7" d="M83.9,119.4h-7.3c-0.3-0.2-0.7-0.1-0.9,0.2c-0.2,0.3-0.1,0.7,0.2,0.9c0.2,0.1,0.5,0.1,0.7,0h7.3
			c0.3,0.2,0.7,0.1,0.9-0.2c0.2-0.3,0.1-0.7-0.2-0.9C84.4,119.2,84.1,119.2,83.9,119.4z"/>
		<path class="st7" d="M79.1,117.6h4.7c0.2,0.1,0.4,0.1,0.5-0.1s0.1-0.4-0.1-0.5c-0.1-0.1-0.3-0.1-0.4,0h-4.7
			c-0.2-0.1-0.4-0.1-0.5,0.1s-0.1,0.4,0.1,0.5C78.9,117.6,79,117.6,79.1,117.6z"/>
		<path class="st7" d="M79.1,114.9h4.7c0.2,0.1,0.4,0.1,0.5-0.1s0.1-0.4-0.1-0.5c-0.1-0.1-0.3-0.1-0.4,0h-4.7
			c-0.2-0.1-0.4-0.1-0.5,0.1s-0.1,0.4,0.1,0.5C78.9,115,79,115,79.1,114.9z"/>
		<path class="st7" d="M79.1,112.2h4.7c0.2,0.1,0.4,0.1,0.5-0.1s0.1-0.4-0.1-0.5c-0.1-0.1-0.3-0.1-0.4,0h-4.7
			c-0.2-0.1-0.4-0.1-0.5,0.1s-0.1,0.4,0.1,0.5C78.9,112.3,79,112.3,79.1,112.2z"/>
		<path class="st7" d="M79.1,109.6h4.7c0.2,0.1,0.4,0.1,0.5-0.1s0.1-0.4-0.1-0.5c-0.1-0.1-0.3-0.1-0.4,0h-4.7
			c-0.2-0.1-0.4-0.1-0.5,0.1s-0.1,0.4,0.1,0.5C78.9,109.7,79,109.7,79.1,109.6z"/>
		<path class="st7" d="M83.9,106.1h-7.3c-0.3-0.2-0.7-0.1-0.9,0.2c-0.2,0.3-0.1,0.7,0.2,0.9c0.2,0.1,0.5,0.1,0.7,0h7.3
			c0.3,0.2,0.7,0.1,0.9-0.2c0.2-0.3,0.1-0.7-0.2-0.9C84.4,105.9,84.1,105.9,83.9,106.1z"/>
		<path class="st7" d="M79.1,104.3h4.7c0.2,0.1,0.4,0.1,0.5-0.1s0.1-0.4-0.1-0.5c-0.1-0.1-0.3-0.1-0.4,0h-4.7
			c-0.2-0.1-0.4-0.1-0.5,0.1s-0.1,0.4,0.1,0.5C78.9,104.3,79,104.3,79.1,104.3z"/>
		<path class="st7" d="M79.1,101.6h4.7c0.2,0.1,0.4,0.1,0.5-0.1s0.1-0.4-0.1-0.5c-0.1-0.1-0.3-0.1-0.4,0h-4.7
			c-0.2-0.1-0.4-0.1-0.5,0.1s-0.1,0.4,0.1,0.5C78.9,101.7,79,101.7,79.1,101.6z"/>
		<path class="st7" d="M79.1,98.9h4.7c0.2,0.1,0.4,0.1,0.5-0.1s0.1-0.4-0.1-0.5c-0.1-0.1-0.3-0.1-0.4,0h-4.7
			c-0.2-0.1-0.4-0.1-0.5,0.1s-0.1,0.4,0.1,0.5C78.8,99,79,99,79.1,98.9z"/>
		<path class="st7" d="M79.1,96.3h4.7c0.2,0.1,0.4,0.1,0.5-0.1s0.1-0.4-0.1-0.5c-0.1-0.1-0.3-0.1-0.4,0h-4.7
			c-0.2-0.1-0.4-0.1-0.5,0.1s-0.1,0.4,0.1,0.5C78.9,96.4,79,96.4,79.1,96.3z"/>
		<path class="st7" d="M83.9,92.8h-7.3c-0.3-0.2-0.7-0.1-0.9,0.2c-0.2,0.3-0.1,0.7,0.2,0.9c0.2,0.1,0.5,0.1,0.7,0h7.3
			c0.3,0.2,0.7,0.1,0.9-0.2c0.2-0.3,0.1-0.7-0.2-0.9C84.4,92.7,84.1,92.7,83.9,92.8z"/>
		<path class="st7" d="M79.1,91h4.7c0.2,0.1,0.4,0.1,0.5-0.1s0.1-0.4-0.1-0.5c-0.1-0.1-0.3-0.1-0.4,0h-4.7c-0.2-0.1-0.4-0.1-0.5,0.1
			s-0.1,0.4,0.1,0.5C78.9,91,79,91,79.1,91z"/>
		<path class="st7" d="M79.1,88.3h4.7c0.2,0.1,0.4,0.1,0.5-0.1s0.1-0.4-0.1-0.5c-0.1-0.1-0.3-0.1-0.4,0h-4.7
			c-0.2-0.1-0.4-0.1-0.5,0.1s-0.1,0.4,0.1,0.5C78.9,88.4,79,88.4,79.1,88.3z"/>
		<path class="st7" d="M79.1,85.6h4.7c0.2,0.1,0.4,0.1,0.5-0.1s0.1-0.4-0.1-0.5c-0.1-0.1-0.3-0.1-0.4,0h-4.7c-0.1,0-0.3,0-0.4,0.2
			c-0.1,0.2-0.1,0.4,0.1,0.5C78.9,85.7,79,85.7,79.1,85.6z"/>
		<path class="st7" d="M79.1,83h4.7c0.2,0.1,0.4,0.1,0.5-0.1s0.1-0.4-0.1-0.5c-0.1-0.1-0.3-0.1-0.4,0h-4.7c-0.2-0.1-0.4-0.1-0.5,0.1
			s-0.1,0.4,0.1,0.5C78.9,83.1,79,83.1,79.1,83z"/>
		<path class="st7" d="M83.9,79.5h-7.3c-0.3-0.2-0.7-0.1-0.9,0.2c-0.2,0.3-0.1,0.7,0.2,0.9c0.2,0.1,0.5,0.1,0.7,0h7.3
			c0.3,0.2,0.7,0.1,0.9-0.2c0.2-0.3,0.1-0.7-0.2-0.9C84.4,79.3,84.1,79.3,83.9,79.5z"/>
		<path class="st7" d="M83.9,77.1h-4.7C79,77,78.8,77,78.6,77.2s-0.1,0.4,0.1,0.5c0.1,0.1,0.3,0.1,0.4,0h4.7
			c0.2,0.1,0.4,0.1,0.5-0.1s0.1-0.4-0.1-0.5C84.2,77,84,77,83.9,77.1z"/>
		<path class="st7" d="M83.9,74.4h-4.7c-0.2-0.1-0.4-0.1-0.5,0.1s-0.1,0.4,0.1,0.5c0.1,0.1,0.3,0.1,0.4,0h4.7
			c0.2,0.1,0.4,0.1,0.5-0.1s0.1-0.4-0.1-0.5C84.2,74.4,84,74.4,83.9,74.4z"/>
		<path class="st7" d="M83.9,71.8h-4.7c-0.2-0.1-0.4-0.1-0.5,0.1s-0.1,0.4,0.1,0.5c0.1,0.1,0.3,0.1,0.4,0h4.7
			c0.2,0.1,0.4,0.1,0.5-0.1s0.1-0.4-0.1-0.5C84.2,71.7,84,71.7,83.9,71.8z"/>
		<path class="st7" d="M83.9,69.1h-4.7C79,69,78.8,69,78.6,69.2s-0.1,0.4,0.1,0.5c0.1,0.1,0.3,0.1,0.4,0h4.7
			c0.2,0.1,0.4,0.1,0.5-0.1s0.1-0.4-0.1-0.5C84.2,69,84,69,83.9,69.1z"/>
		<path class="st7" d="M79.1,64.4h4.7c0.2,0.1,0.4,0.1,0.5-0.1s0.1-0.4-0.1-0.5c-0.1-0.1-0.3-0.1-0.4,0h-4.7
			c-0.2-0.1-0.4-0.1-0.5,0.1s-0.1,0.4,0.1,0.5C78.9,64.5,79,64.5,79.1,64.4z"/>
		<path class="st7" d="M79.1,61.7h4.7c0.2,0.1,0.4,0.1,0.5-0.1c0.1-0.2,0.1-0.4-0.1-0.5c-0.1-0.1-0.3-0.1-0.4,0h-4.7
			c-0.2-0.1-0.4-0.1-0.5,0.1c-0.1,0.2-0.1,0.4,0.1,0.5C78.9,61.8,79,61.8,79.1,61.7z"/>
		<path class="st7" d="M79.1,59h4.7c0.2,0.1,0.4,0.1,0.5-0.1c0.1-0.2,0.1-0.4-0.1-0.5c-0.1-0.1-0.3-0.1-0.4,0h-4.7
			c-0.2-0.1-0.4-0.1-0.5,0.1c-0.1,0.2-0.1,0.4,0.1,0.5C78.8,59.1,79,59.1,79.1,59z"/>
		<path class="st7" d="M79.1,56.4h4.7c0.2,0.1,0.4,0.1,0.5-0.1c0.1-0.2,0.1-0.4-0.1-0.5c-0.1-0.1-0.3-0.1-0.4,0h-4.7
			c-0.2-0.1-0.4-0.1-0.5,0.1c-0.1,0.2-0.1,0.4,0.1,0.5C78.9,56.5,79,56.5,79.1,56.4z"/>
		<path class="st7" d="M83.9,52.9h-7.3c-0.4-0.1-0.8,0.2-1,0.5c0.2,0.4,0.6,0.6,1,0.6h7.3c0.4,0.1,0.8-0.2,1-0.6
			C84.7,53.1,84.3,52.8,83.9,52.9z"/>
		<path class="st7" d="M83.9,66.2h-7.3c-0.3-0.2-0.7-0.1-0.9,0.2c-0.2,0.3-0.1,0.7,0.2,0.9c0.2,0.1,0.5,0.1,0.7,0h7.3
			c0.3,0.2,0.7,0.1,0.9-0.2c0.2-0.3,0.1-0.7-0.2-0.9C84.4,66,84.1,66,83.9,66.2z"/>
		<path class="st7" d="M79.1,51.1h4.7c0.2,0,0.5-0.1,0.6-0.3c-0.1-0.2-0.3-0.3-0.6-0.3h-4.7c-0.2,0-0.5,0.1-0.6,0.3
			C78.7,51,78.9,51.1,79.1,51.1z"/>
		<path class="st7" d="M79.1,48.4h4.7c0.2,0.1,0.4,0.1,0.5-0.1c0.1-0.2,0.1-0.4-0.1-0.5c-0.1-0.1-0.3-0.1-0.4,0h-4.7
			c-0.2-0.1-0.4-0.1-0.5,0.1c-0.1,0.2-0.1,0.4,0.1,0.5C78.9,48.5,79,48.5,79.1,48.4z"/>
		<path class="st7" d="M79.1,45.8h4.7c0.2,0.1,0.4,0.1,0.5-0.1c0.1-0.2,0.1-0.4-0.1-0.5c-0.1-0.1-0.3-0.1-0.4,0h-4.7
			c-0.2-0.1-0.4-0.1-0.5,0.1c-0.1,0.2-0.1,0.4,0.1,0.5C78.9,45.9,79,45.9,79.1,45.8z"/>
		<path class="st7" d="M79.1,43.1h4.7c0.2,0.1,0.4,0.1,0.5-0.1c0.1-0.2,0.1-0.4-0.1-0.5c-0.1-0.1-0.3-0.1-0.4,0h-4.7
			c-0.2-0.1-0.4-0.1-0.5,0.1c-0.1,0.2-0.1,0.4,0.1,0.5C78.9,43.2,79,43.2,79.1,43.1z"/>
		<path class="st7" d="M79.1,35.1h4.7c0.2,0,0.5-0.1,0.6-0.3c-0.1-0.2-0.3-0.3-0.6-0.3h-4.7c-0.2,0-0.5,0.1-0.6,0.3
			C78.7,35.1,78.9,35.2,79.1,35.1z"/>
		<path class="st7" d="M79.1,29.8h4.7c0.2,0,0.5-0.1,0.6-0.3c-0.1-0.2-0.3-0.3-0.6-0.3h-4.7c-0.2,0-0.5,0.1-0.6,0.3
			C78.7,29.7,78.9,29.8,79.1,29.8z"/>
		<path class="st7" d="M83.9,39.6h-7.3c-0.4-0.1-0.8,0.2-1,0.5c0.2,0.4,0.6,0.6,1,0.5h7.3c0.4,0.1,0.8-0.2,1-0.5
			C84.7,39.8,84.3,39.5,83.9,39.6z"/>
		<path class="st7" d="M83.9,26.3h-7.3c-0.4-0.1-0.8,0.2-1,0.5c0.2,0.4,0.6,0.6,1,0.5h7.3c0.4,0.1,0.8-0.2,1-0.5
			C84.7,26.5,84.3,26.2,83.9,26.3z"/>
		<path class="st7" d="M79.1,37.8h4.7c0.2,0.1,0.4,0.1,0.5-0.1c0.1-0.2,0.1-0.4-0.1-0.5c-0.1-0.1-0.3-0.1-0.4,0h-4.7
			c-0.2-0.1-0.4-0.1-0.5,0.1c-0.1,0.2-0.1,0.4,0.1,0.5C78.8,37.9,79,37.9,79.1,37.8z"/>
		<path class="st7" d="M79.1,32.5h4.7c0.2,0,0.5-0.1,0.6-0.3c-0.1-0.2-0.3-0.3-0.6-0.3h-4.7c-0.2,0-0.5,0.1-0.6,0.3
			C78.7,32.4,78.9,32.5,79.1,32.5z"/>
		
			<linearGradient id="SVGID_2_" gradientUnits="userSpaceOnUse" x1="176.8511" y1="-2.2306" x2="210.6261" y2="-2.2306" gradientTransform="matrix(1 0 0 1 -161.19 243.79)">
			<stop  offset="0" style="stop-color:#FFFFFF"/>
			<stop  offset="1" style="stop-color:#0096D0"/>
		</linearGradient>
		<path class="st8" d="M39.5,275.3c-5.3-5.1-9.7-11-13.2-17.5c-0.7-1.3-1.3-2.7-1.9-4.1c-8.4-16.6-7-37,1.3-53.3
			c0.1-0.3-0.2-0.4-0.4-0.1c-5.3,8.7-9.1,16.9-9.7,27.2c-0.5,10.1,1.5,20.2,6,29.3c5.9,11.7,15.7,21,27.7,26.2
			C45.8,280.8,42.5,278.2,39.5,275.3z"/>
		<g>
			<path class="st0" d="M62.2,218.9l-0.1-0.2l-3.7,6.4l0.6,1.1h9l-4.3-7.3H62.2L62.2,218.9z M61.4,224.2l1.5-2.6l1.5,2.6H61.4
				L61.4,224.2z"/>
			<path class="st0" d="M69.6,225.6l4.3-7.4l-1-1.7l0.1-0.1h-6.7l0.1,0.1l-1,1.8L69.6,225.6z M71.4,218.5l-1.8,3l-1.8-3H71.4z"/>
			<path class="st0" d="M65,214.1l0.8,1.4h7.7l0.8-1.4h2l5.7-9.6H57.3l5.6,9.6H65L65,214.1z M78.4,206.5l-3.2,5.5h-2l-0.6,1
				l-0.2,0.4H67l-0.2-0.4l-0.6-1h-2.1l-3.2-5.5H78.4L78.4,206.5z"/>
			<path class="st0" d="M69.6,229l-4.1,7l0.9,1.5l-0.2,0.4h7l-0.2-0.4l0.8-1.4L69.6,229z M68,235.8l1.6-2.7l1.6,2.7H68z"/>
			<path class="st0" d="M74.4,239.9l-0.7-1.2h-8l-0.7,1.2h-1.8l-5.8,9.9h24.4l-5.8-9.9H74.4L74.4,239.9z M61,247.7l3.4-5.7h1.8
				l0.6-1l0.1-0.1h5.6l0.1,0.1l0.6,1h1.6l3.4,5.7H61L61,247.7z"/>
			<path class="st0" d="M77.8,215.1l0.8,1.4l-0.8,1.4l4,6.9h1.9l0.8,1.4h10.9l-12-20.7L77.8,215.1z M85.7,224.2l-0.2-0.4l-0.6-1H83
				l-2.8-4.8l0.2-0.4l0.6-1l-0.6-1l-0.2-0.3l3.2-5.5l8.4,14.4H85.7L85.7,224.2z"/>
			<path class="st0" d="M83.6,229.7h-2l-3.8,6.6l0.7,1.3l-1,1.7l5.7,9.7l12.1-21H84.6L83.6,229.7z M85.4,230.7l0.4-0.6h6l-8.6,14.8
				l-3.3-5.6l0.4-0.6l0.6-1l-0.6-1l-0.1-0.2l2.6-4.5h2L85.4,230.7z"/>
			<path class="st0" d="M111.2,227.3l1.5-2.1c0.9-1.3,0.6-3.2-0.7-4.1c-0.8-0.6-1.9-0.7-2.8-0.3c0-0.1,0-0.2,0-0.3
				c-0.3-1.6-1.8-2.7-3.4-2.4c-0.1,0-0.3,0.1-0.4,0.1c-0.3-1.6-1.9-2.6-3.5-2.3c-0.7,0.1-1.4,0.6-1.8,1.2l-3,4.3l-8.5-14.7l5.4-0.1
				c1.6,0,2.9-1.4,2.9-3l0,0c0-0.8-0.4-1.6-1-2.2c1.2-1.1,1.4-2.9,0.3-4.1c-0.2-0.2-0.4-0.4-0.6-0.6c1.4-0.9,1.8-2.7,0.9-4.1
				c-0.5-0.8-1.4-1.3-2.3-1.3l-2.7-0.1l-0.9-2.1c-0.5-1.1-1.5-1.8-2.7-1.8c-1.4,0-2.7,1.1-2.9,2.5c-1.4-0.8-3.2-0.2-4,1.2
				c-0.1,0.2-0.2,0.4-0.3,0.7c-0.3-0.1-0.7-0.2-1-0.2c-1.6,0-2.9,1.3-2.9,2.9c0,0.4,0.1,0.8,0.2,1.2l2.2,5.1H60.8l2.2-5.1
				c0.6-1.5-0.1-3.2-1.6-3.9c-0.4-0.2-0.8-0.2-1.1-0.2s-0.7,0.1-1,0.2c-0.2-0.9-0.9-1.6-1.7-2c-0.8-0.3-1.7-0.3-2.5,0.1
				c-0.2-1.6-1.8-2.7-3.4-2.5c-1,0.2-1.9,0.8-2.3,1.8l-0.9,2.1l-2.7,0.1c-1.6,0.1-2.9,1.5-2.8,3.1c0.1,0.9,0.6,1.8,1.3,2.3
				c-1.4,0.9-1.7,2.7-0.9,4.1c0.2,0.2,0.3,0.4,0.6,0.6c-1.2,1.1-1.4,2.9-0.3,4.2c0.5,0.6,1.3,1,2.2,1l5,0.1l-9,15.6l-3.5-5.1
				c-0.9-1.3-2.8-1.7-4.1-0.7c-0.6,0.4-1,1.1-1.2,1.8c-0.3-0.1-0.6-0.2-0.9-0.1c-1.5,0-2.8,1.2-2.9,2.7c-1.5-0.6-3.2,0.1-3.9,1.6
				c-0.4,0.9-0.3,2,0.3,2.8l1.3,1.9l-1.3,2.4c-0.8,1.4-0.2,3.2,1.1,4c0.4,0.2,0.9,0.4,1.4,0.4c0.4,0,0.9-0.1,1.3-0.3
				c0,0.2,0,0.4,0.1,0.5c0.2,0.8,0.6,1.4,1.3,1.9c0.5,0.3,1,0.5,1.6,0.5c0.3,0,0.6,0,0.9-0.1c0.2,1.6,1.7,2.7,3.3,2.5
				c0.8-0.1,1.6-0.6,2-1.3l3.4-5.2l8.8,15.2l-5.2,0.4c-1.6,0.1-2.8,1.6-2.7,3.2c0.1,0.8,0.4,1.5,1,2c-1.2,1.1-1.3,3-0.2,4.2
				c0.2,0.2,0.3,0.3,0.5,0.5c-1.3,1-1.5,2.8-0.6,4.1c0.5,0.7,1.4,1.2,2.3,1.2h0.3l2.4-0.3l1.1,2.1c0.7,1.4,2.5,2,4,1.3
				c0.9-0.5,1.5-1.4,1.6-2.4c0.4,0.2,0.9,0.4,1.4,0.4c1.4,0,2.6-1,2.9-2.3c1.5,0.6,3.2-0.1,3.8-1.6c0.3-0.8,0.3-1.7-0.1-2.4
				l-2.1-4.2h17l-2.4,4.7c-0.7,1.5-0.1,3.2,1.3,3.9c0.4,0.2,0.9,0.3,1.3,0.3s0.7-0.1,1.1-0.2c0.2,0.9,0.8,1.6,1.6,2
				c0.4,0.2,0.9,0.3,1.3,0.3c0.5,0,1-0.1,1.4-0.4c0,0.2,0.1,0.5,0.1,0.7c0.5,1.5,2.2,2.4,3.7,1.9c0.7-0.2,1.3-0.8,1.7-1.5l1.1-2.1
				l2.5,0.2h0.3c1.6,0,2.9-1.3,2.9-3c0-0.9-0.4-1.8-1.2-2.3c1.3-0.9,1.7-2.7,0.8-4.1c-0.1-0.2-0.3-0.4-0.5-0.6
				c1.2-1.1,1.3-2.9,0.3-4.1c-0.5-0.6-1.2-0.9-2-1l-5.5-0.5l8.6-14.8l2.8,4.3c0.9,1.4,2.7,1.7,4.1,0.9c0.7-0.4,1.1-1.1,1.3-1.9v-0.2
				c1.5,0.5,3.2-0.3,3.7-1.9c0.1-0.3,0.1-0.6,0.1-0.8c0.4,0.2,0.8,0.3,1.3,0.3c1.6,0,2.9-1.3,2.9-2.9c0-0.6-0.2-1.1-0.5-1.6
				L111.2,227.3z M111,224.1l-2.3,3.2l2.1,3.2c0.3,0.4,0.1,0.9-0.3,1.2s-0.9,0.1-1.2-0.3l0,0l-2.2-3.4h-3.8l3.3,5
				c0.3,0.4,0.1,0.9-0.3,1.2s-0.9,0.1-1.2-0.3l-3.9-6H98l4.8,7.4c0.3,0.4,0.1,0.9-0.3,1.2c-0.1,0.1-0.3,0.1-0.5,0.1
				c-0.3,0-0.6-0.1-0.7-0.4l-4.7-7.2l-11.9,20.6l8.7,0.7c0.5,0,0.8,0.4,0.8,0.9s-0.4,0.8-0.9,0.8l0,0h-0.1l-8.6-0.7l1.6,2.8l7.1,0.6
				c0.5,0,0.8,0.4,0.8,0.9s-0.4,0.8-0.9,0.8h-0.1l-5.9-0.5l1.9,3.2l4,0.3c0.5,0,0.8,0.4,0.8,0.9s-0.4,0.8-0.9,0.8h-0.1l-3.9-0.3
				l-1.7,3.4c-0.2,0.4-0.7,0.6-1.2,0.4c-0.4-0.2-0.6-0.7-0.4-1.2l1.8-3.5l-1.9-3.3l-2.6,5.2c-0.1,0.3-0.4,0.5-0.8,0.5
				c-0.1,0-0.3,0-0.4-0.1c-0.4-0.2-0.6-0.7-0.4-1.2l0,0l3.1-6.2l-1.7-2.8l-3.9,7.7c-0.1,0.3-0.4,0.5-0.8,0.5c-0.1,0-0.3,0-0.4-0.1
				c-0.4-0.2-0.6-0.7-0.4-1.2l0,0l3.9-7.7H57.9l3.7,7.3c0.2,0.4,0,0.9-0.4,1.2c-0.4,0.2-0.9,0-1.2-0.4l0,0l-3.9-7.7l-1.7,2.8
				l3.1,6.2c0.2,0.4,0,0.9-0.4,1.2c-0.4,0.2-0.9,0-1.2-0.4l0,0l-2.6-5.2l-1.9,3.3l1.8,3.5c0.2,0.4,0,0.9-0.4,1.2l0,0
				c-0.1,0.1-0.3,0.1-0.4,0.1c-0.3,0-0.6-0.2-0.8-0.5l-1.7-3.4l-3.9,0.3h0c-0.4,0-0.8-0.4-0.8-0.8c0-0.5,0.3-0.9,0.8-0.9l0,0l4-0.3
				l1.9-3.2L46,256l0,0c-0.4,0-0.8-0.3-0.9-0.8c0-0.5,0.3-0.9,0.8-0.9l0,0l7.1-0.6l1.6-2.8l-8.6,0.7h-0.1c-0.5,0-0.9-0.3-0.9-0.8
				s0.3-0.9,0.8-0.9l0,0l8.5-0.7l-12.1-20.9l-5.3,8.1c-0.2,0.2-0.4,0.4-0.7,0.4c-0.2,0-0.3,0-0.5-0.1c-0.4-0.3-0.5-0.8-0.3-1.2
				l4.9-7.5H37l-4,6.1c-0.3,0.4-0.8,0.5-1.2,0.3c-0.4-0.3-0.5-0.8-0.3-1.2l0,0L35,228h-4.2l-1.9,3.4c-0.1,0.3-0.4,0.4-0.8,0.4
				c-0.1,0-0.3,0-0.4-0.1c-0.4-0.2-0.6-0.8-0.3-1.2l0,0l1.9-3.5l-2.1-3c-0.3-0.4-0.2-0.9,0.2-1.2c0.4-0.3,0.9-0.2,1.2,0.2l2.2,3.1
				h3.7l-3.2-4.6c-0.3-0.4-0.2-0.9,0.2-1.2s0.9-0.2,1.2,0.2l3.9,5.6H40l-4.8-6.8c-0.3-0.4-0.2-0.9,0.2-1.2l0,0
				c0.1-0.1,0.3-0.2,0.5-0.1c0.3,0,0.5,0.1,0.7,0.4l5.4,7.8l12.4-21.5l-8.5-0.2c-0.5,0-0.9-0.4-0.8-0.9l0,0c0-0.5,0.4-0.8,0.8-0.8
				l0,0l0,0l8.4,0.2l-1.6-2.8l-6.8-0.1c-0.5,0-0.8-0.4-0.8-0.9s0.4-0.8,0.8-0.8l0,0l5.7,0.1l-2.1-3.5l-3.7,0.2l0,0
				c-0.5,0-0.9-0.4-0.9-0.9s0.4-0.9,0.9-0.9l0,0l4-0.2l1.4-3.3c0.1-0.3,0.4-0.5,0.8-0.5c0.1,0,0.2,0,0.3,0.1
				c0.4,0.2,0.6,0.7,0.5,1.1l0,0l-1.6,3.7l1.9,3.3l2.4-5.6c0.1-0.3,0.4-0.5,0.8-0.5c0.1,0,0.2,0,0.3,0.1c0.4,0.2,0.6,0.7,0.5,1.1
				l0,0l-2.9,6.7l1.7,2.9l3.5-8.2c0.1-0.3,0.4-0.5,0.8-0.5c0.1,0,0.2,0,0.3,0.1c0.4,0.2,0.6,0.7,0.4,1.1l-3.4,8h24.4l-3.4-8
				c-0.2-0.4,0-0.9,0.5-1.1c0.1,0,0.2-0.1,0.3-0.1c0.3,0,0.7,0.2,0.8,0.5l3.3,7.8l1.7-2.9l-2.7-6.3c-0.2-0.4,0-0.9,0.4-1.1l0,0
				c0.1,0,0.2-0.1,0.3-0.1c0.3,0,0.7,0.2,0.8,0.5l2.2,5.1l1.8-3.1l0.1-0.1l-1.5-3.4c-0.2-0.4,0-0.9,0.4-1.1l0,0
				c0.1,0,0.2-0.1,0.3-0.1c0.3,0,0.7,0.2,0.8,0.5l1.4,3.3l4,0.2c0.5,0,0.9,0.4,0.9,0.9s-0.4,0.9-0.9,0.9l0,0l-4.1-0.2l-2.1,3.6
				l6.2-0.1l0,0c0.5,0,0.8,0.4,0.9,0.8c0,0.5-0.4,0.9-0.8,0.9l0,0l-7.2,0.2l-1.6,2.8l8.8-0.2l0,0c0.5,0,0.9,0.4,0.9,0.9
				s-0.4,0.9-0.9,0.9l-8.9,0.2l11.9,20.6l4.9-7c0.3-0.4,0.8-0.5,1.2-0.2c0.4,0.3,0.5,0.8,0.2,1.2l-4.9,6.9h3.3l4-5.7
				c0.3-0.4,0.8-0.5,1.2-0.2c0.4,0.3,0.5,0.8,0.2,1.2l-3.3,4.7h3.7l2.2-3.2c0.3-0.4,0.8-0.5,1.2-0.2S111.3,223.7,111,224.1
				L111,224.1z"/>
			<path class="st0" d="M77.2,235.1l0.2,0.3l3.4-5.9l-0.8-1.4h-9l4.1,7.1h2.1V235.1z M78,230.1l-1.6,2.9l-1.7-2.9H78L78,230.1z"/>
			<path class="st0" d="M77.3,218.8l-0.1,0.1h-1.6l-4.3,7.3H80l0.8-1.3L77.3,218.8z M74.8,224.2l1.6-2.7l1.6,2.7H74.8z"/>
			<path class="st0" d="M62.2,235.1H64l4.2-7.1h-9l-0.7,1.2l3.5,6.1L62.2,235.1z M64.6,230.1l-1.6,2.7l-1.6-2.7H64.6L64.6,230.1z"/>
			<path class="st0" d="M55.5,224.8h2.2l4-6.9l-0.8-1.4l0.8-1.3l-5.6-9.6L44,226.2h10.6L55.5,224.8z M53.7,223.8l-0.2,0.4h-5.8
				l8.4-14.5l3.2,5.5l-0.1,0.3l-0.6,1l0.6,1l0.2,0.4l-2.8,4.9h-2.2L53.7,223.8z"/>
			<path class="st0" d="M60.8,237.5l0.7-1.3l-3.8-6.6h-2.3l-1-1.7H44l12,20.8l5.7-9.7L60.8,237.5z M56,244.6L47.6,230h5.7l0.4,0.6
				l0.6,1h2.3l2.6,4.5l-0.1,0.2l-0.6,1l0.6,1l0.3,0.5L56,244.6z"/>
		</g>
	</g>
</g>
<g>
	<path class="st3" d="M109.7,21.6L109.7,21.6l-1,3.2l0.4,0.4l4-0.9l-2.7-2.8L109.7,21.6L109.7,21.6z M109.9,24.1l0.4-1.3l1,1
		L109.9,24.1L109.9,24.1z"/>
	<path class="st3" d="M113.7,23.8l1.2-3.8l-0.6-0.7v-0.1l-3,0.7l0,0L111,21L113.7,23.8z M113.8,20.5l-0.5,1.5l-1.1-1.2L113.8,20.5z"
		/>
	<path class="st3" d="M110.4,19.2l0.5,0.6l3.5-0.8l0.2-0.7l0.9-0.2l1.5-4.9l-11.1,2.6l3.6,3.7L110.4,19.2L110.4,19.2z M115.6,14.4
		l-0.9,2.8l-0.9,0.2l-0.2,0.5l-0.1,0.2l-2.4,0.6l-0.1-0.2l-0.4-0.4l-0.9,0.2l-2-2.1L115.6,14.4L115.6,14.4z"/>
	<path class="st3" d="M114.1,25.4L113,29l0.6,0.6l-0.1,0.2l3.1-0.7l-0.1-0.1l0.2-0.7L114.1,25.4z M114.1,28.6l0.4-1.4l1,1
		L114.1,28.6z"/>
	<path class="st3" d="M117.4,29.8l-0.4-0.5l-3.6,0.8l-0.2,0.6l-0.8,0.2l-1.6,5.1l11-2.6l-3.6-3.8L117.4,29.8L117.4,29.8z
		 M112.2,34.7l0.9-2.9l0.8-0.2l0.2-0.5V31l2.5-0.6l0.1,0.1l0.4,0.4l0.7-0.2l2.1,2.2L112.2,34.7L112.2,34.7z"/>
	<path class="st3" d="M116.3,18.3l0.5,0.5l-0.2,0.7l2.5,2.7L120,22l0.5,0.6l4.9-1.2l-7.6-8L116.3,18.3z M120.8,21.5l-0.1-0.2
		l-0.4-0.4l-0.9,0.2l-1.8-1.9l0.1-0.2l0.2-0.5l-0.4-0.4l-0.1-0.1l0.9-2.8l5.3,5.6L120.8,21.5L120.8,21.5z"/>
	<path class="st3" d="M120.5,24.2l-0.9,0.2l-1,3.3l0.5,0.5l-0.3,0.9l3.6,3.8l3.2-10.7l-4.8,1.1L120.5,24.2z M121.4,24.5l0.1-0.3
		l2.7-0.6l-2.3,7.5l-2.1-2.2l0.1-0.3l0.2-0.5l-0.4-0.4l-0.1-0.1l0.7-2.3l0.9-0.2L121.4,24.5z"/>
	<path class="st3" d="M132.6,20.2l0.4-1.1c0.3-0.7-0.1-1.5-0.8-1.8c-0.4-0.2-0.9-0.1-1.3,0.2v-0.1c-0.3-0.7-1.1-1-1.8-0.7
		c-0.1,0-0.1,0.1-0.2,0.1c-0.3-0.7-1.1-1-1.8-0.7c-0.3,0.1-0.6,0.4-0.7,0.7l-0.9,2.3l-5.4-5.7l2.4-0.6c0.7-0.2,1.2-0.9,1-1.7l0,0
		c-0.1-0.4-0.3-0.7-0.7-0.9c0.4-0.6,0.3-1.5-0.3-1.9c-0.1-0.1-0.2-0.1-0.3-0.2c0.5-0.5,0.5-1.4,0-1.9c-0.3-0.3-0.8-0.4-1.2-0.4
		L119.8,6l-0.6-0.9c-0.3-0.4-0.9-0.6-1.4-0.5c-0.6,0.2-1.1,0.8-1,1.4c-0.7-0.2-1.5,0.2-1.7,1c0,0.1,0,0.2,0,0.3c-0.2,0-0.3,0-0.5,0
		c-0.7,0.2-1.2,0.9-1,1.6c0,0.2,0.1,0.4,0.2,0.5l1.5,2.1l-8.2,1.9l0.4-2.5c0.1-0.7-0.4-1.4-1.1-1.6c-0.2,0-0.4,0-0.5,0
		c-0.2,0-0.3,0.1-0.4,0.2c-0.2-0.4-0.6-0.6-1-0.7c-0.4-0.1-0.8,0-1.1,0.3c-0.3-0.7-1.1-1-1.8-0.7c-0.4,0.2-0.7,0.6-0.8,1l-0.2,1
		L99.4,11c-0.7,0.2-1.1,1-0.9,1.7c0.1,0.4,0.4,0.8,0.9,0.9c-0.5,0.5-0.5,1.4,0,1.9c0.1,0.1,0.2,0.2,0.3,0.2
		c-0.4,0.6-0.3,1.5,0.3,1.9c0.3,0.2,0.7,0.3,1.1,0.2l2.3-0.5l-2.4,8l-2.1-1.9c-0.6-0.5-1.4-0.5-1.9,0.1c-0.2,0.3-0.4,0.6-0.3,0.9
		c-0.1,0-0.3,0-0.4,0c-0.7,0.2-1.1,0.8-1,1.5c-0.7-0.1-1.4,0.4-1.6,1.1c-0.1,0.5,0.1,0.9,0.4,1.2l0.8,0.7l-0.3,1.2
		c-0.2,0.7,0.2,1.5,0.9,1.7c0.2,0.1,0.5,0.1,0.7,0c0.2,0,0.4-0.1,0.5-0.3c0,0.1,0,0.2,0.1,0.2c0.2,0.3,0.4,0.6,0.8,0.7
		c0.2,0.1,0.5,0.1,0.8,0c0.1,0,0.3-0.1,0.4-0.2c0.3,0.7,1.1,1,1.8,0.8c0.4-0.1,0.6-0.4,0.8-0.8l1-2.7l5.5,5.9l-2.3,0.8
		c-0.7,0.2-1.1,1-0.9,1.7c0.1,0.3,0.3,0.6,0.6,0.8c-0.4,0.6-0.3,1.5,0.3,1.9c0.1,0.1,0.2,0.1,0.3,0.2c-0.5,0.6-0.4,1.4,0.2,1.9
		c0.3,0.3,0.8,0.4,1.2,0.3h0.1l1.1-0.4l0.7,0.8c0.5,0.6,1.3,0.6,1.9,0.2c0.4-0.3,0.5-0.8,0.5-1.2c0.2,0.1,0.5,0.1,0.7,0
		c0.6-0.1,1.1-0.7,1-1.3c0.7,0.1,1.4-0.4,1.5-1.1c0.1-0.4-0.1-0.8-0.3-1.1l-1.4-1.7l7.6-1.8l-0.6,2.3c-0.2,0.7,0.3,1.5,1,1.6
		c0.2,0,0.4,0,0.6,0s0.3-0.1,0.5-0.2c0.2,0.4,0.5,0.6,0.9,0.7c0.2,0.1,0.4,0.1,0.6,0s0.4-0.2,0.6-0.3c0,0.1,0.1,0.2,0.1,0.3
		c0.4,0.6,1.2,0.8,1.9,0.4c0.3-0.2,0.5-0.5,0.6-0.8l0.3-1.1l1.1-0.2h0.1c0.7-0.2,1.2-0.9,1-1.6c-0.1-0.4-0.4-0.8-0.8-0.9
		c0.5-0.5,0.5-1.4-0.1-1.9c-0.1-0.1-0.2-0.2-0.3-0.2c0.4-0.6,0.3-1.5-0.3-1.9c-0.3-0.2-0.6-0.3-1-0.2l-2.5,0.4l2.3-7.5l1.7,1.6
		c0.5,0.5,1.4,0.5,1.9,0c0.2-0.3,0.4-0.6,0.4-1v-0.1c0.7,0.1,1.4-0.5,1.5-1.2c0-0.1,0-0.3,0-0.4c0.2,0,0.4,0,0.6,0
		c0.7-0.2,1.2-0.9,1-1.6c-0.1-0.3-0.2-0.5-0.4-0.7L132.6,20.2z M132.1,18.8l-0.7,1.7l1.3,1.2c0.2,0.2,0.2,0.4,0,0.6s-0.4,0.2-0.6,0
		l0,0l-1.4-1.3l-1.7,0.4l2,1.9c0.2,0.2,0.2,0.4,0,0.6s-0.4,0.2-0.6,0l-2.4-2.3l-1.5,0.3l2.9,2.8c0.2,0.2,0.2,0.4,0,0.6
		c-0.1,0.1-0.1,0.1-0.2,0.1c-0.1,0-0.3,0-0.4-0.1l-2.8-2.7l-3.2,10.5l4-0.6c0.2,0,0.4,0.1,0.5,0.3c0,0.2-0.1,0.4-0.3,0.5l0,0l0,0
		l-3.9,0.6l1,1.1l3.3-0.5c0.2,0,0.4,0.1,0.5,0.3c0,0.2-0.1,0.4-0.3,0.5l0,0l-2.7,0.4l1.2,1.2l1.8-0.3c0.2,0,0.4,0.1,0.5,0.3
		c0,0.2-0.1,0.4-0.3,0.5l0,0l-1.8,0.3l-0.4,1.7c-0.1,0.2-0.3,0.3-0.5,0.3c-0.2-0.1-0.3-0.3-0.3-0.5l0.4-1.8l-1.2-1.3l-0.6,2.6
		c0,0.1-0.1,0.3-0.3,0.3c-0.1,0-0.1,0-0.2,0c-0.2-0.1-0.3-0.3-0.3-0.5l0,0l0.8-3.1l-1-1.1l-0.9,3.9c0,0.1-0.2,0.3-0.3,0.3
		c-0.1,0-0.1,0-0.2,0c-0.2-0.1-0.3-0.3-0.3-0.5l0,0l0.9-3.9l-10.6,2.5l2.4,2.9c0.1,0.2,0.1,0.4,0,0.6c-0.2,0.1-0.4,0.1-0.6,0l0,0
		l-2.6-3.1l-0.5,1.4l2.1,2.5c0.1,0.2,0.1,0.4,0,0.6s-0.4,0.1-0.6,0l0,0l-1.7-2.1l-0.5,1.7l1.2,1.4c0.1,0.2,0.1,0.4,0,0.6l0,0
		c0,0-0.1,0.1-0.2,0.1s-0.3,0-0.4-0.1l-1.1-1.3l-1.7,0.6l0,0c-0.2,0-0.4-0.1-0.5-0.3s0-0.4,0.3-0.5l0,0l1.8-0.6l0.5-1.7l-2.6,0.9
		l0,0c-0.2,0-0.4-0.1-0.5-0.3s0-0.4,0.3-0.5l0,0l3.1-1l0.4-1.4l-3.8,1.2l0,0c-0.2,0.1-0.4-0.1-0.5-0.3s0.1-0.4,0.3-0.5l0,0l3.7-1.2
		l-7.6-8.1l-1.5,4.2c0,0.1-0.2,0.2-0.3,0.3c-0.1,0-0.2,0-0.2,0c-0.2-0.1-0.3-0.3-0.2-0.5l1.4-3.9l-1.5,0.3l-1.2,3.1
		c-0.1,0.2-0.3,0.3-0.5,0.2c-0.2-0.1-0.3-0.3-0.2-0.5l0,0l1-2.7L96.6,29l-0.5,1.7c0,0.1-0.1,0.2-0.3,0.3c-0.1,0-0.1,0-0.2,0
		c-0.2-0.1-0.3-0.3-0.3-0.5l0,0l0.5-1.8l-1.2-1.1c-0.2-0.1-0.2-0.4,0-0.6c0.1-0.2,0.4-0.2,0.6,0l1.3,1.2l1.7-0.4l-1.9-1.7
		c-0.2-0.1-0.2-0.4,0-0.6c0.1-0.2,0.4-0.2,0.6,0l2.4,2.1l1.5-0.3l-2.9-2.6c-0.2-0.1-0.2-0.4,0-0.6l0,0C98,24,98,24,98.1,24
		s0.3,0,0.4,0.1l3.2,2.9l3.3-11l-3.8,0.8c-0.2,0-0.4-0.1-0.5-0.3l0,0c-0.1-0.2,0.1-0.4,0.3-0.5l0,0l0,0l3.8-0.8l-1-1.1l-3.1,0.7
		c-0.2,0-0.4-0.1-0.5-0.3c0-0.2,0.1-0.4,0.3-0.5l0,0l2.6-0.5l-1.3-1.4l-1.6,0.5l0,0c-0.2,0.1-0.4-0.1-0.5-0.3s0.1-0.4,0.3-0.5l0,0
		l1.8-0.5l0.3-1.6c0-0.2,0.1-0.3,0.3-0.3c0.1,0,0.1,0,0.2,0c0.2,0,0.4,0.2,0.3,0.5l0,0l-0.3,1.8l1.2,1.3l0.5-2.7
		c0-0.2,0.1-0.3,0.3-0.3c0.1,0,0.1,0,0.2,0c0.2,0,0.4,0.2,0.3,0.5l0,0l-0.6,3.3l1.1,1.1l0.7-4.1c0-0.2,0.1-0.3,0.3-0.3
		c0.1,0,0.1,0,0.2,0c0.2,0,0.4,0.2,0.3,0.5l-0.7,4l11-2.6L114.5,9c-0.1-0.2-0.1-0.4,0.1-0.6l0.1-0.1c0.2,0,0.3,0,0.4,0.2l2.3,3.1
		l0.4-1.5l-1.9-2.6c-0.1-0.2-0.1-0.4,0.1-0.6l0,0l0.1-0.1c0.2,0,0.3,0,0.4,0.2l1.5,2.1l0.5-1.6c0,0,0,0,0-0.1l-1-1.3
		c-0.1-0.2-0.1-0.4,0.1-0.6l0,0l0.1-0.1c0.2,0,0.3,0,0.4,0.2l1,1.3l1.8-0.3c0.2-0.1,0.4,0.1,0.5,0.3c0.1,0.2-0.1,0.4-0.3,0.5l0,0
		l-1.8,0.3l-0.6,1.8l2.8-0.7l0,0c0.2,0,0.4,0.1,0.5,0.3s-0.1,0.4-0.3,0.5l0,0l-3.2,0.8l-0.4,1.4l3.9-1l0,0c0.2-0.1,0.4,0.1,0.5,0.3
		s-0.1,0.4-0.3,0.5l-4,1l7.5,8l1.5-3.7c0.1-0.2,0.3-0.3,0.5-0.2c0.2,0.1,0.3,0.3,0.2,0.5l-1.4,3.6l1.5-0.3l1.2-3
		c0.1-0.2,0.3-0.3,0.5-0.2s0.3,0.3,0.2,0.5l-1,2.5l1.7-0.4l0.7-1.7c0.1-0.2,0.3-0.3,0.5-0.2C132.1,18.4,132.2,18.6,132.1,18.8
		L132.1,18.8z"/>
	<path class="st3" d="M118.1,27.3l0.1,0.1l0.9-3l-0.5-0.6l-4,0.9l2.6,2.7L118.1,27.3L118.1,27.3z M117.9,25l-0.4,1.5l-1.1-1.1
		L117.9,25L117.9,25z"/>
	<path class="st3" d="M116.4,20L116.4,20l-0.8,0.2l-1.2,3.8l4-0.9l0.2-0.7L116.4,20z M115.9,22.7l0.4-1.4l1,1L115.9,22.7z"/>
	<path class="st3" d="M111.4,28.9l0.8-0.2l1.1-3.6l-4,1l-0.2,0.6l2.2,2.4L111.4,28.9z M111.9,26.4l-0.4,1.4l-1-1.1L111.9,26.4
		L111.9,26.4z"/>
	<path class="st3" d="M107.3,25l1-0.2l1.1-3.5l-0.5-0.5L109,20l-3.5-3.7l-3.2,10.5l4.8-1.1L107.3,25z M106.4,24.7l-0.1,0.2l-2.6,0.6
		l2.2-7.4l2,2.1v0.1l-0.2,0.5l0.4,0.4l0.1,0.1l-0.7,2.5l-1,0.2L106.4,24.7z"/>
	<path class="st3" d="M111,30.1l0.2-0.6l-2.4-2.5l-1,0.2l-0.6-0.6l-4.7,1.1l7.6,8l1.5-5L111,30.1z M109.6,33.8l-5.3-5.6l2.6-0.6
		l0.2,0.2l0.4,0.4l1-0.2l1.6,1.7v0.1l-0.2,0.5l0.4,0.4l0.2,0.2L109.6,33.8z"/>
</g>
<g>
	<path class="st3" d="M108.6,145.5L108.6,145.5l-1.3,2.1l0.2,0.4h3.1l-1.5-2.5H108.6L108.6,145.5z M108.3,147.3l0.5-0.9l0.5,0.9
		H108.3L108.3,147.3z"/>
	<path class="st3" d="M111.1,147.8l1.5-2.5l-0.3-0.6l0,0H110l0,0l-0.3,0.6L111.1,147.8z M111.7,145.4l-0.6,1l-0.6-1H111.7z"/>
	<path class="st3" d="M109.5,143.9l0.3,0.5h2.6l0.3-0.5h0.7l1.9-3.3h-8.5l1.9,3.3H109.5L109.5,143.9z M114.1,141.3l-1.1,1.9h-0.7
		l-0.2,0.3l-0.1,0.1h-1.8l-0.1-0.1l-0.2-0.3h-0.7l-1.1-1.9H114.1L114.1,141.3z"/>
	<path class="st3" d="M111.1,149l-1.4,2.4l0.3,0.5l-0.1,0.1h2.4l-0.1-0.1l0.3-0.5L111.1,149z M110.5,151.3l0.5-0.9l0.5,0.9H110.5z"
		/>
	<path class="st3" d="M112.7,152.7l-0.2-0.4h-2.7l-0.2,0.4H109l-2,3.4h8.4l-2-3.4H112.7L112.7,152.7z M108.1,155.4l1.2-2h0.6
		l0.2-0.3V153h1.9v0.1l0.2,0.3h0.6l1.2,2H108.1L108.1,155.4z"/>
	<path class="st3" d="M113.9,144.2l0.3,0.5l-0.3,0.5l1.4,2.4h0.7l0.3,0.5h3.7l-4.1-7.1L113.9,144.2z M116.6,147.3l-0.1-0.1l-0.2-0.3
		h-0.7l-1-1.7l0.1-0.1l0.2-0.3l-0.2-0.3l-0.1-0.1l1.1-1.9l2.9,4.9L116.6,147.3L116.6,147.3z"/>
	<path class="st3" d="M115.9,149.2h-0.7l-1.3,2.2l0.3,0.4l-0.3,0.6l2,3.3l4.1-7.2h-3.7L115.9,149.2z M116.5,149.5l0.1-0.2h2.1
		l-2.9,5.1l-1.1-1.9l0.1-0.2l0.2-0.3l-0.2-0.3v-0.1l0.9-1.5h0.7L116.5,149.5z"/>
	<path class="st3" d="M125.3,148.4l0.5-0.7c0.3-0.5,0.2-1.1-0.3-1.4c-0.3-0.2-0.6-0.2-1-0.1v-0.1c-0.1-0.5-0.6-0.9-1.2-0.8
		c-0.1,0-0.1,0-0.1,0c-0.1-0.5-0.6-0.9-1.2-0.8c-0.3,0.1-0.5,0.2-0.6,0.4l-1,1.5l-2.9-5h1.8c0.6,0,1-0.5,1-1l0,0
		c0-0.3-0.1-0.6-0.3-0.8c0.4-0.4,0.5-1,0.1-1.4c-0.1-0.1-0.1-0.1-0.2-0.2c0.5-0.3,0.6-0.9,0.3-1.4c-0.2-0.3-0.5-0.4-0.8-0.5h-0.9
		l-0.3-0.7c-0.2-0.4-0.5-0.6-0.9-0.6c-0.5,0-0.9,0.4-1,0.8c-0.5-0.3-1.1-0.1-1.4,0.4c0,0.1-0.1,0.2-0.1,0.2c-0.1,0-0.2-0.1-0.3-0.1
		c-0.6,0-1,0.4-1,1c0,0.1,0,0.3,0.1,0.4l0.7,1.7H108l0.7-1.8c0.2-0.5,0-1.1-0.5-1.3c-0.1-0.1-0.3-0.1-0.4-0.1s-0.2,0-0.3,0.1
		c-0.1-0.3-0.3-0.6-0.6-0.7c-0.3-0.1-0.6-0.1-0.9,0c-0.1-0.5-0.6-0.9-1.1-0.8c-0.3,0.1-0.6,0.3-0.8,0.6l-0.3,0.7h-0.9
		c-0.6,0-1,0.5-1,1.1c0,0.3,0.2,0.6,0.5,0.8c-0.5,0.3-0.6,0.9-0.3,1.4c0.1,0.1,0.1,0.2,0.2,0.2c-0.4,0.4-0.5,1-0.1,1.4
		c0.2,0.2,0.5,0.3,0.7,0.4h1.7l-3.1,5.3l-1.2-1.7c-0.3-0.5-0.9-0.6-1.4-0.2c-0.2,0.1-0.4,0.4-0.4,0.6c-0.1,0-0.2-0.1-0.3-0.1
		c-0.5,0-1,0.4-1,0.9c-0.5-0.2-1.1,0-1.3,0.5c-0.1,0.3-0.1,0.7,0.1,1l0.5,0.6l-0.4,0.8c-0.3,0.5-0.1,1.1,0.4,1.4
		c0.1,0.1,0.3,0.1,0.5,0.1c0.1,0,0.3,0,0.4-0.1c0,0.1,0,0.1,0,0.2c0.1,0.3,0.2,0.5,0.4,0.6c0.2,0.1,0.4,0.2,0.6,0.2
		c0.1,0,0.2,0,0.3,0c0.1,0.6,0.6,0.9,1.1,0.9c0.3,0,0.5-0.2,0.7-0.4l1.2-1.8l3,5.2l-1.8,0.2c-0.6,0-1,0.5-0.9,1.1
		c0,0.3,0.1,0.5,0.3,0.7c-0.4,0.4-0.5,1-0.1,1.4c0.1,0.1,0.1,0.1,0.2,0.2c-0.4,0.3-0.5,1-0.2,1.4c0.2,0.2,0.5,0.4,0.8,0.4h0.1
		l0.8-0.1l0.4,0.7c0.3,0.5,0.9,0.7,1.4,0.4c0.3-0.2,0.5-0.5,0.5-0.8c0.1,0.1,0.3,0.1,0.5,0.1c0.5,0,0.9-0.3,1-0.8
		c0.5,0.2,1.1,0,1.3-0.6c0.1-0.3,0.1-0.6,0-0.8l-0.7-1.5h5.8l-0.8,1.6c-0.2,0.5,0,1.1,0.4,1.4c0.1,0.1,0.3,0.1,0.4,0.1
		s0.3,0,0.4-0.1c0.1,0.3,0.3,0.5,0.5,0.7c0.1,0.1,0.3,0.1,0.5,0.1s0.3,0,0.5-0.1c0,0.1,0,0.2,0,0.2c0.2,0.5,0.7,0.8,1.3,0.6
		c0.3-0.1,0.5-0.3,0.6-0.5l0.4-0.7l0.9,0.1h0.1c0.6,0,1-0.5,1-1c0-0.3-0.2-0.6-0.4-0.8c0.5-0.3,0.6-0.9,0.3-1.4
		c0-0.1-0.1-0.1-0.2-0.2c0.4-0.4,0.5-1,0.1-1.4c-0.2-0.2-0.4-0.3-0.7-0.3l-1.9-0.2l2.9-5.1l1,1.5c0.3,0.5,0.9,0.6,1.4,0.3
		c0.2-0.1,0.4-0.4,0.4-0.6v-0.1c0.5,0.2,1.1-0.1,1.3-0.6c0-0.1,0-0.2,0-0.3c0.1,0.1,0.3,0.1,0.4,0.1c0.6,0,1-0.5,1-1
		c0-0.2-0.1-0.4-0.2-0.5L125.3,148.4z M125.3,147.3l-0.8,1.1l0.7,1.1c0.1,0.1,0,0.3-0.1,0.4c-0.1,0.1-0.3,0-0.4-0.1l0,0l-0.8-1.2
		h-1.3l1.1,1.7c0.1,0.1,0.1,0.3-0.1,0.4c-0.1,0.1-0.3,0.1-0.4-0.1l-1.3-2.1h-1.1l1.7,2.5c0.1,0.1,0.1,0.3-0.1,0.4c0,0-0.1,0-0.2,0
		s-0.2-0.1-0.2-0.1l-1.6-2.5l-4.1,7.1l3,0.3c0.2,0,0.3,0.1,0.3,0.3s-0.1,0.3-0.3,0.3l0,0l0,0l-3-0.3l0.6,1l2.4,0.2
		c0.2,0,0.3,0.1,0.3,0.3s-0.1,0.3-0.3,0.3l0,0l-2-0.2l0.6,1.1l1.4,0.1c0.2,0,0.3,0.1,0.3,0.3s-0.1,0.3-0.3,0.3l0,0l-1.3-0.1
		l-0.6,1.2c-0.1,0.1-0.3,0.2-0.4,0.1c-0.1-0.1-0.2-0.3-0.1-0.4l0.6-1.2l-0.7-1.1l-0.9,1.8c0,0.1-0.2,0.2-0.3,0.2h-0.1
		c-0.1-0.1-0.2-0.2-0.1-0.4l0,0l1.1-2.1l-0.6-1l-1.3,2.6c-0.1,0.1-0.2,0.2-0.3,0.2h-0.1c-0.1-0.1-0.2-0.2-0.1-0.4l0,0l1.3-2.6h-8.1
		l1.3,2.5c0.1,0.1,0,0.3-0.1,0.4c-0.1,0.1-0.3,0-0.4-0.1l0,0l-1.3-2.6l-0.6,1l1.1,2.1c0.1,0.1,0,0.3-0.1,0.4c-0.1,0.1-0.3,0-0.4-0.1
		l0,0l-0.9-1.8l-0.7,1.1l0.6,1.2c0.1,0.1,0,0.3-0.1,0.4l0,0h-0.1c-0.1,0-0.2-0.1-0.3-0.2l-0.6-1.2l-1.3,0.1l0,0
		c-0.2,0-0.3-0.1-0.3-0.3s0.1-0.3,0.3-0.3l0,0l1.4-0.1l0.7-1.1l-2,0.2l0,0c-0.2,0-0.3-0.1-0.3-0.3s0.1-0.3,0.3-0.3l0,0l2.4-0.2
		l0.6-1l-3,0.3l0,0c-0.2,0-0.3-0.1-0.3-0.3s0.1-0.3,0.3-0.3l0,0l2.9-0.2l-4.1-7.2l-1.8,2.8c-0.1,0.1-0.1,0.1-0.2,0.1s-0.1,0-0.2,0
		c-0.1-0.1-0.2-0.3-0.1-0.4l1.7-2.6H100l-1.4,2.1c-0.1,0.1-0.3,0.2-0.4,0.1s-0.2-0.3-0.1-0.4l0,0l1.1-1.8h-1.4l-0.6,1.2
		c-0.1,0.1-0.1,0.2-0.3,0.2h-0.1c-0.1-0.1-0.2-0.3-0.1-0.4l0,0l0.7-1.2l-0.7-1c-0.1-0.1-0.1-0.3,0.1-0.4c0.1-0.1,0.3-0.1,0.4,0.1
		l0.7,1.1h1.3l-1.1-1.6c-0.1-0.1-0.1-0.3,0.1-0.4c0.1-0.1,0.3-0.1,0.4,0.1l1.3,1.9h1.1l-1.6-2.3c-0.1-0.1-0.1-0.3,0.1-0.4l0,0
		c0,0,0.1-0.1,0.2-0.1s0.2,0,0.2,0.1l1.9,2.7l4.2-7.4l-2.9-0.1c-0.2,0-0.3-0.1-0.3-0.3l0,0c0-0.2,0.1-0.3,0.3-0.3l0,0l0,0l2.9,0.1
		l-0.6-1L103,139c-0.2,0-0.3-0.1-0.3-0.3s0.1-0.3,0.3-0.3l0,0h2l-0.7-1.2l-1.3,0.1l0,0c-0.2,0-0.3-0.1-0.3-0.3s0.1-0.3,0.3-0.3l0,0
		l1.4-0.1l0.5-1.1c0-0.1,0.2-0.2,0.3-0.2h0.1c0.1,0.1,0.2,0.2,0.2,0.4l0,0L105,137l0.7,1.1l0.8-1.9c0-0.1,0.2-0.2,0.3-0.2h0.1
		c0.2,0.1,0.2,0.2,0.2,0.4l0,0l-1,2.3l0.6,1l1.2-2.8c0-0.1,0.2-0.2,0.3-0.2h0.1c0.1,0.1,0.2,0.2,0.2,0.4L107,140h8.4l-1.2-2.7
		c-0.1-0.2,0-0.3,0.2-0.4h0.1c0.1,0,0.2,0.1,0.3,0.2l1.1,2.7l0.6-1l-0.9-2.2c-0.1-0.1,0-0.3,0.2-0.4l0,0h0.1c0.1,0,0.2,0.1,0.3,0.2
		l0.8,1.8l0.6-1.1l0,0l-0.5-1.1c-0.1-0.1,0-0.3,0.2-0.4l0,0h0.1c0.1,0,0.2,0.1,0.3,0.2l0.5,1.1l1.4,0.1c0.2,0,0.3,0.1,0.3,0.3
		s-0.1,0.3-0.3,0.3l0,0l-1.4-0.1l-0.7,1.2h2.1l0,0c0.2,0,0.3,0.1,0.3,0.3s-0.1,0.3-0.3,0.3l0,0l-2.5,0.1l-0.6,1l3-0.1l0,0
		c0.2,0,0.3,0.1,0.3,0.3s-0.1,0.3-0.3,0.3l-3,0.1l4.1,7.1l1.7-2.4c0.1-0.1,0.3-0.2,0.4-0.1c0.1,0.1,0.2,0.3,0.1,0.4l-1.7,2.4h1.1
		l1.4-2c0.1-0.1,0.3-0.2,0.4-0.1c0.1,0.1,0.2,0.3,0.1,0.4l-1.1,1.6h1.3l0.8-1.1c0.1-0.1,0.3-0.2,0.4-0.1S125.3,147.1,125.3,147.3
		L125.3,147.3z"/>
	<path class="st3" d="M113.7,151L113.7,151l1.2-1.9l-0.3-0.5h-3l1.4,2.4H113.7L113.7,151z M114,149.3l-0.6,1l-0.6-1H114L114,149.3z"
		/>
	<path class="st3" d="M113.7,145.5L113.7,145.5l-0.6,0.1l-1.5,2.5h3l0.3-0.5L113.7,145.5z M112.9,147.3l0.5-0.9l0.5,0.9H112.9z"/>
	<path class="st3" d="M108.6,151h0.6l1.4-2.4h-3.1l-0.2,0.4L108.6,151L108.6,151z M109.4,149.3l-0.5,0.9l-0.5-0.9H109.4L109.4,149.3
		z"/>
	<path class="st3" d="M106.2,147.5h0.7l1.4-2.4l-0.3-0.5l0.3-0.4l-1.9-3.3l-4.1,7.1h3.6L106.2,147.5z M105.6,147.2l-0.1,0.1h-2
		l2.9-5l1.1,1.9v0.1l-0.2,0.3l0.2,0.3l0.1,0.1l-1,1.7h-0.7L105.6,147.2z"/>
	<path class="st3" d="M108.1,151.9l0.3-0.4l-1.3-2.2h-0.8l-0.3-0.6h-3.6l4.1,7.1l2-3.3L108.1,151.9z M106.4,154.3l-2.9-5h2l0.1,0.2
		l0.2,0.3h0.8l0.9,1.5v0.1l-0.2,0.3l0.2,0.3l0.1,0.2L106.4,154.3z"/>
</g>
<g>
	<path class="st3" d="M20.1,141L20.1,141l-0.7,3.3l0.4,0.4l3.9-1.3l-3-2.6L20.1,141L20.1,141z M20.6,143.5l0.3-1.4L22,143
		L20.6,143.5L20.6,143.5z"/>
	<path class="st3" d="M24.4,142.8l0.8-3.9l-0.7-0.6v-0.1l-3,1l0,0l-0.2,0.9L24.4,142.8z M24.1,139.5l-0.3,1.6l-1.2-1.1L24.1,139.5z"
		/>
	<path class="st3" d="M20.7,138.5l0.6,0.5l3.4-1.1l0.2-0.8l0.9-0.3l1.1-5.1L16,135.4l3.9,3.4L20.7,138.5L20.7,138.5z M25.4,133.1
		l-0.6,2.9l-0.9,0.3l-0.1,0.5v0.2l-2.3,0.8l-0.2-0.1l-0.4-0.4l-0.9,0.3l-2.2-1.9L25.4,133.1L25.4,133.1z"/>
	<path class="st3" d="M24.9,144.4l-0.8,3.7l0.6,0.5v0.2l3.1-1l-0.1-0.1l0.1-0.7L24.9,144.4z M25.2,147.6l0.3-1.4l1.1,1L25.2,147.6z"
		/>
	<path class="st3" d="M28.6,148.5l-0.5-0.4l-3.5,1.2l-0.1,0.6l-0.8,0.3l-1.1,5.2l10.8-3.6l-4-3.5L28.6,148.5L28.6,148.5z
		 M23.9,153.9l0.6-3l0.8-0.3l0.1-0.5V150l2.5-0.8l0.1,0.1l0.4,0.4l0.7-0.2l2.3,2L23.9,153.9L23.9,153.9z"/>
	<path class="st3" d="M26.4,137l0.6,0.5l-0.1,0.7l2.8,2.5l0.8-0.3l0.6,0.5l4.8-1.6l-8.4-7.3L26.4,137z M31.3,139.8l-0.2-0.1
		l-0.4-0.4l-0.8,0.3l-2-1.7v-0.2l0.1-0.5l-0.4-0.4l-0.1-0.1l0.6-2.9l5.9,5.1L31.3,139.8L31.3,139.8z"/>
	<path class="st3" d="M31.2,142.6l-0.9,0.3l-0.7,3.5l0.5,0.4l-0.2,0.9l4,3.4l2.2-11l-4.7,1.6L31.2,142.6z M32.1,142.7l0.1-0.3
		l2.6-0.9l-1.6,7.8l-2.3-2L31,147l0.1-0.5l-0.4-0.4l-0.1-0.1l0.5-2.4l0.9-0.3L32.1,142.7z"/>
	<path class="st3" d="M43,137.4l0.3-1.1c0.2-0.7-0.2-1.5-0.9-1.7c-0.4-0.1-0.9,0-1.3,0.3v-0.1c-0.4-0.7-1.2-0.9-1.8-0.5
		c-0.1,0-0.1,0.1-0.2,0.1c-0.4-0.7-1.2-0.9-1.9-0.5c-0.3,0.2-0.5,0.5-0.6,0.8l-0.7,2.3l-5.9-5.2l2.3-0.9c0.7-0.3,1.1-1,0.8-1.8l0,0
		c-0.1-0.4-0.4-0.7-0.8-0.8c0.4-0.6,0.2-1.5-0.5-1.9c-0.1-0.1-0.2-0.1-0.4-0.2c0.5-0.6,0.4-1.5-0.2-1.9c-0.3-0.3-0.8-0.4-1.2-0.3
		l-1.2,0.3l-0.7-0.8c-0.4-0.4-0.9-0.6-1.5-0.4s-1,0.9-0.9,1.5c-0.7-0.1-1.4,0.4-1.6,1.1c0,0.1,0,0.2,0,0.3c-0.2,0-0.3,0-0.5,0.1
		c-0.7,0.2-1.1,1-0.9,1.7c0.1,0.2,0.2,0.3,0.3,0.5l1.7,1.9l-8.1,2.7l0.2-2.6c0.1-0.8-0.5-1.4-1.3-1.5c-0.2,0-0.4,0-0.5,0.1
		c-0.2,0.1-0.3,0.1-0.4,0.2c-0.2-0.4-0.6-0.6-1-0.6s-0.8,0.1-1.1,0.4c-0.3-0.7-1.2-0.9-1.8-0.6c-0.4,0.2-0.7,0.6-0.7,1.1l-0.1,1.1
		L8.7,131c-0.7,0.3-1,1.1-0.8,1.8c0.2,0.4,0.5,0.7,0.9,0.8c-0.5,0.6-0.4,1.5,0.2,1.9c0.1,0.1,0.2,0.1,0.3,0.2
		c-0.4,0.7-0.2,1.5,0.5,1.9c0.3,0.2,0.7,0.2,1.1,0.1l2.2-0.7l-1.6,8.2l-2.3-1.7c-0.6-0.4-1.5-0.3-1.9,0.3c-0.2,0.3-0.3,0.6-0.3,1
		c-0.1,0-0.3,0-0.4,0.1c-0.7,0.2-1.1,0.9-0.9,1.6c-0.8-0.1-1.4,0.5-1.5,1.3c0,0.5,0.2,0.9,0.6,1.2l0.9,0.6l-0.2,1.2
		c-0.1,0.7,0.4,1.4,1.1,1.6c0.2,0,0.5,0,0.7-0.1s0.4-0.2,0.5-0.3c0,0.1,0.1,0.2,0.1,0.2c0.2,0.3,0.5,0.5,0.8,0.6
		c0.3,0.1,0.5,0.1,0.8,0c0.1,0,0.3-0.1,0.4-0.2c0.3,0.7,1.2,0.9,1.8,0.6c0.4-0.2,0.6-0.5,0.7-0.9l0.7-2.8l6.1,5.4l-2.2,1
		c-0.7,0.3-1,1.1-0.7,1.8c0.1,0.3,0.4,0.6,0.7,0.7c-0.4,0.7-0.1,1.5,0.5,1.9c0.1,0.1,0.2,0.1,0.3,0.1c-0.4,0.6-0.3,1.5,0.4,1.9
		c0.3,0.2,0.8,0.3,1.2,0.2h0.1l1-0.5l0.8,0.8c0.5,0.5,1.4,0.5,1.9,0c0.3-0.3,0.5-0.8,0.3-1.3c0.2,0,0.5,0,0.7-0.1
		c0.6-0.2,1-0.8,0.9-1.5c0.8,0,1.4-0.5,1.4-1.3c0-0.4-0.1-0.8-0.4-1l-1.6-1.6l7.5-2.5l-0.3,2.4c-0.1,0.7,0.4,1.4,1.2,1.5
		c0.2,0,0.4,0,0.6-0.1c0.2-0.1,0.3-0.1,0.4-0.3c0.2,0.4,0.6,0.6,1,0.7c0.2,0,0.4,0,0.6-0.1c0.2-0.1,0.4-0.2,0.6-0.4
		c0,0.1,0.1,0.2,0.2,0.3c0.5,0.6,1.3,0.7,1.9,0.3c0.3-0.2,0.5-0.5,0.5-0.9l0.2-1.1l1.1-0.3h0.1c0.7-0.2,1.1-1,0.8-1.7
		c-0.1-0.4-0.5-0.7-0.9-0.9c0.5-0.6,0.4-1.5-0.2-1.9c-0.1-0.1-0.2-0.1-0.3-0.2c0.4-0.7,0.2-1.5-0.5-1.9c-0.3-0.2-0.7-0.2-1-0.1
		l-2.5,0.6l1.6-7.8l1.9,1.5c0.6,0.5,1.5,0.4,1.9-0.2c0.2-0.3,0.3-0.6,0.3-1v-0.1c0.8,0,1.4-0.6,1.4-1.4c0-0.1,0-0.3-0.1-0.4
		c0.2,0,0.4,0,0.6-0.1c0.7-0.2,1.1-1,0.9-1.7c-0.1-0.2-0.2-0.5-0.4-0.6L43,137.4z M42.4,136l-0.5,1.8l1.4,1.1
		c0.2,0.1,0.2,0.4,0.1,0.6c-0.1,0.2-0.4,0.2-0.6,0.1l0,0l-1.5-1.2l-1.7,0.6l2.2,1.7c0.2,0.1,0.2,0.4,0.1,0.6
		c-0.1,0.2-0.4,0.2-0.6,0.1l-2.6-2.1l-1.5,0.5l3.2,2.5c0.2,0.1,0.2,0.4,0.1,0.6c0,0.1-0.1,0.1-0.2,0.1c-0.1,0-0.3,0-0.4-0.1
		l-3.1-2.5l-2.2,10.9l4-1c0.2-0.1,0.4,0.1,0.5,0.3s-0.1,0.4-0.3,0.5l0,0l0,0l-3.9,1l1.1,1l3.2-0.8c0.2-0.1,0.4,0.1,0.5,0.3
		s-0.1,0.4-0.3,0.5l0,0l-2.7,0.7l1.3,1.1l1.8-0.4c0.2-0.1,0.4,0.1,0.5,0.3s-0.1,0.4-0.3,0.5l0,0l-1.8,0.4l-0.2,1.7
		c0,0.2-0.2,0.4-0.5,0.3c-0.2,0-0.4-0.2-0.3-0.5l0.3-1.8l-1.3-1.2l-0.4,2.7c0,0.2-0.1,0.3-0.3,0.3c-0.1,0-0.1,0-0.2,0
		c-0.2,0-0.4-0.2-0.3-0.5l0,0l0.5-3.2l-1.2-1l-0.6,4c0,0.1-0.1,0.3-0.3,0.3c-0.1,0-0.1,0-0.2,0c-0.2,0-0.4-0.2-0.3-0.5l0,0l0.6-4
		L23.1,156l2.7,2.7c0.2,0.2,0.2,0.4,0,0.6c-0.2,0.2-0.4,0.2-0.6,0l0,0l-2.9-2.8L22,158l2.3,2.3c0.2,0.2,0.2,0.4,0,0.6
		c-0.2,0.2-0.4,0.2-0.6,0l0,0l-1.9-1.9l-0.4,1.7l1.3,1.3c0.2,0.2,0.2,0.4,0,0.6l0,0c0,0-0.1,0.1-0.2,0.1s-0.3,0-0.4-0.1l-1.3-1.2
		l-1.7,0.7l0,0c-0.2,0.1-0.4,0-0.5-0.2s0-0.4,0.2-0.5l0,0l1.7-0.7l0.4-1.7l-2.5,1.1l0,0c-0.2,0.1-0.4,0-0.5-0.2s0-0.4,0.2-0.5l0,0
		l3.1-1.3l0.3-1.5l-3.7,1.6l0,0c-0.2,0.1-0.4,0-0.5-0.2s0-0.4,0.2-0.5l0,0l3.6-1.6l-8.4-7.4l-1.1,4.3c0,0.1-0.1,0.2-0.3,0.3
		c-0.1,0-0.2,0-0.2,0c-0.2-0.1-0.3-0.3-0.3-0.5l1-4l-1.5,0.5L9.6,152c-0.1,0.2-0.3,0.3-0.5,0.3c-0.2-0.1-0.3-0.3-0.3-0.5l0,0
		l0.7-2.8l-1.8,0.6l-0.3,1.8c0,0.1-0.1,0.3-0.3,0.3c-0.1,0-0.1,0-0.2,0c-0.2,0-0.4-0.2-0.3-0.5l0,0l0.3-1.8l-1.4-1
		c-0.2-0.1-0.2-0.4-0.1-0.6c0.1-0.2,0.4-0.2,0.6-0.1l1.4,1.1l1.6-0.6l-2-1.4c-0.2-0.1-0.2-0.4-0.1-0.6c0.1-0.2,0.4-0.2,0.6-0.1
		L10,148l1.4-0.5l-3.1-2.3c-0.2-0.1-0.2-0.4-0.1-0.6l0,0c0-0.1,0.1-0.1,0.2-0.1c0.1,0,0.3,0,0.4,0.1l3.5,2.6l2.3-11.3l-3.8,1.2
		c-0.2,0.1-0.4-0.1-0.5-0.3l0,0c-0.1-0.2,0-0.4,0.2-0.5l0,0l0,0l3.7-1.2l-1.1-1l-3,0.9c-0.2,0.1-0.4-0.1-0.5-0.3s0-0.4,0.2-0.5l0,0
		l2.6-0.8l-1.4-1.3l-1.6,0.6l0,0c-0.2,0.1-0.4,0-0.5-0.3c-0.1-0.2,0-0.4,0.3-0.5l0,0l1.7-0.7l0.1-1.7c0-0.2,0.1-0.3,0.3-0.3
		c0.1,0,0.1,0,0.2,0c0.2,0,0.4,0.2,0.4,0.4l0,0l-0.1,1.9l1.3,1.2l0.2-2.8c0-0.2,0.1-0.3,0.3-0.3c0.1,0,0.1,0,0.2,0
		c0.2,0,0.4,0.2,0.4,0.4l0,0l-0.3,3.4l1.2,1l0.3-4.1c0-0.2,0.1-0.3,0.3-0.3c0.1,0,0.1,0,0.2,0c0.2,0,0.4,0.2,0.4,0.4l-0.3,4
		l10.8-3.6l-2.7-3c-0.1-0.2-0.1-0.4,0-0.6l0.1-0.1c0.2-0.1,0.3,0,0.4,0.1l2.6,2.9l0.3-1.5l-2.1-2.4c-0.1-0.2-0.1-0.4,0-0.6l0,0
		l0.1-0.1c0.2-0.1,0.3,0,0.4,0.1l1.7,1.9l0.3-1.7c0,0,0,0,0-0.1l-1.2-1.3c-0.1-0.2-0.1-0.4,0-0.6l0,0l0.1-0.1c0.2,0,0.3,0,0.4,0.1
		l1.1,1.2l1.8-0.5c0.2-0.1,0.4,0,0.5,0.3c0.1,0.2,0,0.4-0.3,0.5l0,0l-1.8,0.5l-0.4,1.9l2.7-1l0,0c0.2-0.1,0.4,0,0.5,0.2
		s0,0.4-0.2,0.5l0,0l-3.2,1.1l-0.3,1.5l3.9-1.4l0,0c0.2-0.1,0.4,0,0.5,0.3c0.1,0.2,0,0.4-0.3,0.5l-3.9,1.4l8.3,7.3l1.1-3.8
		c0.1-0.2,0.3-0.3,0.5-0.3c0.2,0.1,0.3,0.3,0.3,0.5l-1.1,3.8l1.4-0.5l0.9-3.1c0.1-0.2,0.3-0.3,0.5-0.3c0.2,0.1,0.3,0.3,0.3,0.5
		l-0.8,2.6l1.6-0.6l0.5-1.7c0.1-0.2,0.3-0.3,0.5-0.3C42.4,135.6,42.5,135.8,42.4,136L42.4,136z"/>
	<path class="st3" d="M29.1,145.9l0.1,0.1l0.6-3.1l-0.6-0.5l-3.9,1.3l2.9,2.5L29.1,145.9L29.1,145.9z M28.8,143.6l-0.3,1.5l-1.2-1
		L28.8,143.6L28.8,143.6z"/>
	<path class="st3" d="M26.8,138.7L26.8,138.7L26,139l-0.8,3.9l3.9-1.3l0.1-0.7L26.8,138.7z M26.5,141.5l0.3-1.4l1.1,1L26.5,141.5z"
		/>
	<path class="st3" d="M22.6,148.1l0.8-0.3l0.8-3.7l-4,1.3l-0.1,0.6l2.5,2.2L22.6,148.1z M22.8,145.6l-0.3,1.4l-1.1-1L22.8,145.6
		L22.8,145.6z"/>
	<path class="st3" d="M18,144.6l1-0.3l0.7-3.6l-0.6-0.5l0.1-0.7l-3.9-3.4L13.2,147l4.7-1.6L18,144.6z M17.1,144.4v0.2l-2.6,0.9
		l1.5-7.6l2.2,1.9v0.1l-0.1,0.5l0.4,0.4l0.1,0.1l-0.5,2.6l-1,0.3V144.4z"/>
	<path class="st3" d="M22.3,149.4l0.1-0.7l-2.6-2.3l-1,0.3l-0.7-0.6l-4.6,1.6l8.4,7.4L23,150L22.3,149.4z M21.2,153.3l-5.9-5.2
		l2.5-0.8l0.3,0.2l0.4,0.4l1-0.3l1.8,1.6v0.1l-0.1,0.5l0.4,0.4l0.2,0.2L21.2,153.3z"/>
</g>
<g>
	<path class="st3" d="M15.7,108.7L15.7,108.7l-0.8,1.5l0.1,0.3h2l-1-1.7L15.7,108.7L15.7,108.7z M15.5,109.9l0.3-0.6l0.3,0.6H15.5
		L15.5,109.9z"/>
	<path class="st3" d="M17.3,110.2l1-1.7l-0.2-0.4l0,0h-1.5l0,0l-0.2,0.4L17.3,110.2z M17.7,108.6l-0.4,0.7l-0.4-0.7H17.7z"/>
	<path class="st3" d="M16.3,107.5l0.2,0.3h1.7l0.2-0.3h0.4l1.3-2.3h-5.5l1.3,2.3H16.3L16.3,107.5z M19.3,105.8l-0.7,1.3h-0.4
		l-0.1,0.2l-0.1,0.1h-1.2l-0.1-0.1l-0.1-0.2h-0.5l-0.7-1.3H19.3L19.3,105.8z"/>
	<path class="st3" d="M17.3,111l-0.9,1.6l0.2,0.4v0.1h1.6V113l0.2-0.3L17.3,111z M17,112.6l0.4-0.6l0.4,0.6H17z"/>
	<path class="st3" d="M18.4,113.6l-0.2-0.3h-1.8l-0.2,0.3h-0.4l-1.3,2.3H20l-1.3-2.3H18.4L18.4,113.6z M15.4,115.4l0.8-1.3h0.4
		l0.1-0.2l0,0h1.2l0,0l0.1,0.2h0.4l0.7,1.3H15.4L15.4,115.4z"/>
	<path class="st3" d="M19.1,107.8l0.2,0.3l-0.2,0.3L20,110h0.4l0.2,0.3H23l-2.7-4.9L19.1,107.8z M20.9,109.9L20.9,109.9l-0.2-0.3
		h-0.4l-0.6-1.1v-0.1l0.1-0.2l-0.1-0.2v-0.1l0.7-1.3l1.9,3.4L20.9,109.9L20.9,109.9z"/>
	<path class="st3" d="M20.4,111.2H20l-0.9,1.5l0.2,0.3l-0.2,0.4l1.3,2.3l2.7-4.9h-2.4L20.4,111.2z M20.8,111.4l0.1-0.1h1.3l-1.9,3.5
		l-0.7-1.3l0.1-0.2l0.1-0.2l-0.1-0.2v-0.1l0.6-1.1h0.4L20.8,111.4z"/>
	<path class="st3" d="M26.6,110.7l0.3-0.5c0.2-0.3,0.1-0.7-0.2-1c-0.2-0.1-0.4-0.2-0.6-0.1V109c-0.1-0.4-0.4-0.6-0.8-0.6h-0.1
		c-0.1-0.4-0.4-0.6-0.8-0.5c-0.2,0-0.3,0.1-0.4,0.3l-0.7,1l-1.9-3.5h1.2c0.4,0,0.6-0.3,0.6-0.7l0,0c0-0.2-0.1-0.4-0.2-0.5
		c0.3-0.2,0.3-0.7,0.1-1c0-0.1-0.1-0.1-0.1-0.1c0.3-0.2,0.4-0.6,0.2-1c-0.1-0.2-0.3-0.3-0.5-0.3h-0.6l-0.2-0.5
		c-0.1-0.3-0.3-0.4-0.6-0.4c-0.3,0-0.6,0.2-0.6,0.6c-0.3-0.2-0.7-0.1-0.9,0.3c0,0.1,0,0.1-0.1,0.2c-0.1,0-0.1,0-0.2,0
		c-0.4,0-0.7,0.3-0.7,0.7c0,0.1,0,0.2,0.1,0.3l0.5,1.2h-4.1l0.5-1.2c0.1-0.4,0-0.8-0.3-0.9c-0.1,0-0.2-0.1-0.3-0.1s-0.2,0-0.2,0
		c-0.1-0.2-0.2-0.4-0.4-0.5s-0.4-0.1-0.6,0c-0.1-0.4-0.4-0.6-0.7-0.6c-0.2,0-0.4,0.2-0.5,0.4l-0.2,0.5H12c-0.4,0-0.6,0.3-0.6,0.7
		c0,0.2,0.1,0.4,0.3,0.5c-0.3,0.2-0.4,0.6-0.2,1c0,0.1,0.1,0.1,0.1,0.1c-0.3,0.2-0.3,0.7-0.1,1c0.1,0.1,0.3,0.2,0.5,0.2h1.1l-2,3.7
		l-0.8-1.2c-0.2-0.3-0.6-0.4-0.9-0.2c-0.1,0.1-0.2,0.3-0.3,0.4c-0.1,0-0.1,0-0.2,0c-0.3,0-0.6,0.3-0.7,0.6c-0.3-0.1-0.7,0-0.9,0.4
		c-0.1,0.2-0.1,0.5,0.1,0.7l0.3,0.4L7.4,111c-0.2,0.3-0.1,0.7,0.3,0.9C7.8,112,7.9,112,8,112s0.2,0,0.3-0.1v0.1
		c0,0.2,0.1,0.3,0.3,0.4c0.1,0.1,0.2,0.1,0.4,0.1c0.1,0,0.1,0,0.2,0c0.1,0.4,0.4,0.6,0.7,0.6c0.2,0,0.4-0.1,0.5-0.3l0.8-1.2l2,3.6
		l-1.2,0.1c-0.4,0-0.6,0.4-0.6,0.7c0,0.2,0.1,0.3,0.2,0.5c-0.3,0.3-0.3,0.7-0.1,1l0.1,0.1c-0.3,0.2-0.3,0.7-0.1,1
		c0.1,0.2,0.3,0.3,0.5,0.3h0.1l0.5-0.1l0.2,0.5c0.2,0.3,0.6,0.5,0.9,0.3c0.2-0.1,0.3-0.3,0.4-0.6c0.1,0.1,0.2,0.1,0.3,0.1
		c0.3,0,0.6-0.2,0.6-0.5c0.3,0.1,0.7,0,0.9-0.4c0.1-0.2,0.1-0.4,0-0.6l-0.5-1h3.8l-0.5,1.1c-0.2,0.3,0,0.8,0.3,0.9
		c0.1,0,0.2,0.1,0.3,0.1c0.1,0,0.2,0,0.2,0c0,0.2,0.2,0.4,0.3,0.5c0.1,0,0.2,0.1,0.3,0.1c0.1,0,0.2,0,0.3-0.1c0,0.1,0,0.1,0,0.2
		c0.1,0.4,0.5,0.6,0.8,0.4c0.2-0.1,0.3-0.2,0.4-0.3l0.2-0.5h0.6h0.1c0.4,0,0.7-0.3,0.7-0.7c0-0.2-0.1-0.4-0.3-0.5
		c0.3-0.2,0.4-0.6,0.2-1c0-0.1-0.1-0.1-0.1-0.1c0.3-0.3,0.3-0.7,0.1-1c-0.1-0.1-0.3-0.2-0.4-0.2l-1.2-0.1l1.9-3.5l0.6,1
		c0.2,0.3,0.6,0.4,0.9,0.2c0.1-0.1,0.2-0.3,0.3-0.4l0,0c0.3,0.1,0.7-0.1,0.8-0.4c0-0.1,0-0.1,0-0.2c0.1,0,0.2,0.1,0.3,0.1
		c0.4,0,0.7-0.3,0.7-0.7c0-0.1,0-0.3-0.1-0.4L26.6,110.7z M26.5,109.9l-0.5,0.8l0.5,0.7c0.1,0.1,0,0.2-0.1,0.3
		c-0.1,0.1-0.2,0-0.3-0.1l0,0l-0.5-0.8h-0.9l0.7,1.2c0.1,0.1,0,0.2-0.1,0.3c-0.1,0.1-0.2,0-0.3-0.1l-0.9-1.4h-0.7l1.1,1.7
		c0.1,0.1,0,0.2-0.1,0.3h-0.1c-0.1,0-0.1,0-0.2-0.1l-1-1.7l-2.6,4.8l1.9,0.2c0.1,0,0.2,0.1,0.2,0.2s-0.1,0.2-0.2,0.2l0,0l0,0
		l-1.9-0.2L21,117l1.6,0.1c0.1,0,0.2,0.1,0.2,0.2s-0.1,0.2-0.2,0.2l0,0l-1.3-0.1l0.4,0.8l0.9,0.1c0.1,0,0.2,0.1,0.2,0.2
		s-0.1,0.2-0.2,0.2l0,0l-0.9-0.1l-0.4,0.8c0,0.1-0.2,0.1-0.3,0.1c-0.1-0.1-0.1-0.2-0.1-0.3l0.4-0.8l-0.4-0.8l-0.6,1.2
		c0,0.1-0.1,0.1-0.2,0.1H20c-0.1-0.1-0.1-0.2-0.1-0.3l0,0l0.7-1.5l-0.4-0.7l-0.9,1.8c0,0.1-0.1,0.1-0.2,0.1H19
		c-0.1-0.1-0.1-0.2-0.1-0.3l0,0l0.9-1.8h-5.3l0.8,1.7c0,0.1,0,0.2-0.1,0.3c-0.1,0.1-0.2,0-0.3-0.1l0,0l-0.9-1.8l-0.4,0.7l0.7,1.5
		c0,0.1,0,0.2-0.1,0.3c-0.1,0.1-0.2,0-0.3-0.1l0,0l-0.6-1.2l-0.4,0.8l0.4,0.8c0,0.1,0,0.2-0.1,0.3l0,0h-0.1c-0.1,0-0.1,0-0.2-0.1
		l-0.4-0.8l-0.9,0.1l0,0c-0.1,0-0.2-0.1-0.2-0.2s0.1-0.2,0.2-0.2l0,0l0.9-0.1l0.4-0.8l-1.3,0.1l0,0c-0.1,0-0.2-0.1-0.2-0.2
		s0.1-0.2,0.2-0.2l0,0l1.6-0.1l0.4-0.7l-1.9,0.2l0,0c-0.1,0-0.2-0.1-0.2-0.2s0.1-0.2,0.2-0.2l0,0l1.9-0.2l-2.7-4.9l-1.2,1.9
		c0,0.1-0.1,0.1-0.2,0.1H9.4c-0.1-0.1-0.1-0.2-0.1-0.3l1.1-1.8H9.7l-0.9,1.4c-0.1,0.1-0.2,0.1-0.3,0.1c-0.1-0.1-0.1-0.2-0.1-0.3l0,0
		l0.7-1.2H8.7l-0.4,0.8c0,0.1-0.1,0.1-0.2,0.1H8c-0.1-0.1-0.1-0.2-0.1-0.3l0,0l0.4-0.8l-0.5-0.7c-0.1-0.1,0-0.2,0-0.3
		c0.1-0.1,0.2,0,0.3,0l0.5,0.7h0.8l-0.7-1.1c-0.1-0.1,0-0.2,0-0.3c0.1-0.1,0.2,0,0.3,0l0.9,1.3h0.7l-1.1-1.6c-0.1-0.1,0-0.2,0-0.3
		l0,0h0.1c0.1,0,0.1,0,0.2,0.1l1.2,1.8l2.8-5h-1.9c-0.1,0-0.2-0.1-0.2-0.2l0,0c0-0.1,0.1-0.2,0.2-0.2l0,0l0,0h1.9l-0.4-0.7h-1.5
		c-0.1,0-0.2-0.1-0.2-0.2s0.1-0.2,0.2-0.2l0,0h1.3l-0.5-0.8h-0.8l0,0c-0.1,0-0.2-0.1-0.2-0.2s0.1-0.2,0.2-0.2l0,0h0.9l0.3-0.8
		c0-0.1,0.1-0.1,0.2-0.1h0.1c0.1,0,0.1,0.2,0.1,0.3l0,0l-0.4,0.9l0.4,0.8l0.5-1.3c0-0.1,0.1-0.1,0.2-0.1h0.1c0.1,0,0.1,0.2,0.1,0.3
		l0,0l-0.6,1.6l0.4,0.7l0.8-1.9c0-0.1,0.1-0.1,0.2-0.1h0.1c0.1,0,0.1,0.2,0.1,0.3l-0.8,1.9H20l-0.8-1.9c0-0.1,0-0.2,0.1-0.3
		c0,0,0,0,0.1,0s0.1,0,0.2,0.1l0.7,1.8l0.4-0.7l-0.6-1.5c0-0.1,0-0.2,0.1-0.3l0,0c0,0,0,0,0.1,0s0.1,0,0.2,0.1l0.5,1.2l0.4-0.7l0,0
		l-0.3-0.8c0-0.1,0-0.2,0.1-0.3l0,0c0,0,0,0,0.1,0s0.1,0,0.2,0.1l0.3,0.8h0.9c0.1,0,0.2,0.1,0.2,0.2s-0.1,0.2-0.2,0.2l0,0l-0.9-0.1
		l-0.5,0.8h1.4l0,0c0.1,0,0.2,0.1,0.2,0.2s-0.1,0.2-0.2,0.2l0,0h-1.6l-0.4,0.7h2l0,0c0.1,0,0.2,0.1,0.2,0.2s-0.1,0.2-0.2,0.2h-2
		l2.6,4.8l1.1-1.6c0.1-0.1,0.2-0.1,0.3,0c0.1,0.1,0.1,0.2,0,0.3l-1.1,1.6h0.7l0.9-1.3c0.1-0.1,0.2-0.1,0.3,0c0.1,0.1,0.1,0.2,0,0.3
		l-0.7,1.1h0.8l0.5-0.8c0.1-0.1,0.2-0.1,0.3,0C26.6,109.7,26.6,109.8,26.5,109.9L26.5,109.9z"/>
	<path class="st3" d="M19,112.5L19,112.5l0.8-1.3l-0.2-0.3h-2l0.9,1.7L19,112.5L19,112.5z M19.2,111.3l-0.4,0.7l-0.4-0.7H19.2
		L19.2,111.3z"/>
	<path class="st3" d="M19,108.7L19,108.7h-0.4l-1,1.7h2l0.2-0.3L19,108.7z M18.5,109.9l0.4-0.6l0.3,0.6H18.5z"/>
	<path class="st3" d="M15.7,112.5h0.4l0.9-1.7h-2l-0.2,0.3L15.7,112.5L15.7,112.5z M16.2,111.3l-0.4,0.6l-0.3-0.6H16.2L16.2,111.3z"
		/>
	<path class="st3" d="M14.2,110.1h0.5l0.9-1.6l-0.2-0.3l0.2-0.3l-1.3-2.3l-2.7,4.9H14L14.2,110.1z M13.8,109.8L13.8,109.8l-1.3,0.1
		l1.9-3.4l0.7,1.3v0.1l-0.1,0.2l0.1,0.2v0.1l-0.6,1.1H14L13.8,109.8z"/>
	<path class="st3" d="M15.3,113l0.2-0.3l-0.8-1.5h-0.5l-0.2-0.4h-2.3l2.7,4.9l1.3-2.3L15.3,113z M14.3,114.7l-1.9-3.4h1.3l0.1,0.1
		l0.1,0.2h0.5l0.6,1.1v0.1l-0.1,0.2l0.1,0.2l0.1,0.1L14.3,114.7z"/>
</g>
<g>
	<path class="st3" d="M101.2,84.4L101.2,84.4l-1.2,1.2l0.1,0.3l1.9,0.5l-0.5-1.9L101.2,84.4L101.2,84.4z M100.7,85.5l0.5-0.5
		l0.2,0.7L100.7,85.5L100.7,85.5z"/>
	<path class="st3" d="M102.4,86.3l1.4-1.4l-0.1-0.4l0,0l-1.5-0.4l0,0l-0.3,0.4L102.4,86.3z M103.2,84.8l-0.6,0.6l-0.2-0.8
		L103.2,84.8z"/>
	<path class="st3" d="M102,83.4l0.1,0.4l1.7,0.4l0.3-0.3l0.4,0.1l1.8-1.9l-5.4-1.3l0.7,2.5L102,83.4L102,83.4z M105.4,82.4l-1,1.1
		l-0.4-0.1l-0.2,0.2l-0.1,0.1l-1.1-0.3v-0.1l-0.1-0.3l-0.5-0.1l-0.4-1.4L105.4,82.4L105.4,82.4z"/>
	<path class="st3" d="M102.2,87.1l-1.3,1.4l0.1,0.4l-0.1,0.1l1.5,0.4v-0.1l0.3-0.3L102.2,87.1z M101.5,88.5L102,88l0.2,0.7
		L101.5,88.5z"/>
	<path class="st3" d="M102.6,89.8l-0.1-0.3l-1.7-0.4l-0.2,0.2l-0.4-0.1l-1.8,1.9l5.3,1.3l-0.7-2.6H102.6L102.6,89.8z M99.3,90.9
		l1.1-1.1l0.4,0.1l0.2-0.2l0,0l1.2,0.3l0,0l0.1,0.3l0.4,0.1l0.4,1.5L99.3,90.9L99.3,90.9z"/>
	<path class="st3" d="M104.7,84.3l0.1,0.4l-0.3,0.3l0.5,1.8l0.4,0.1l0.1,0.4l2.4,0.6l-1.4-5.4L104.7,84.3z M105.9,86.8L105.9,86.8
		l-0.1-0.4l-0.4-0.1l-0.3-1.3l0.1-0.1l0.2-0.2l-0.1-0.3v-0.1l1-1.1l1,3.7L105.9,86.8L105.9,86.8z"/>
	<path class="st3" d="M105.2,88l-0.4-0.1l-1.2,1.3l0.1,0.3l-0.3,0.3l0.7,2.5l3.8-4.1l-2.3-0.6L105.2,88z M105.5,88.3L105.5,88.3
		l1.4,0.2l-2.7,2.9l-0.4-1.5l0.1-0.1l0.2-0.2l-0.1-0.3v-0.1l0.8-0.9l0.4,0.1L105.5,88.3z"/>
	<path class="st3" d="M111.3,88.9l0.4-0.4c0.3-0.3,0.3-0.7,0.1-1c-0.1-0.2-0.4-0.3-0.6-0.2c0,0,0,0,0-0.1c0-0.4-0.2-0.7-0.6-0.7
		h-0.1c0-0.4-0.3-0.7-0.6-0.7c-0.2,0-0.3,0.1-0.5,0.2l-0.9,0.8l-1-3.8l1.2,0.3c0.4,0.1,0.7-0.2,0.8-0.5l0,0c0-0.2,0-0.4-0.1-0.6
		c0.3-0.2,0.5-0.6,0.3-0.9c0-0.1-0.1-0.1-0.1-0.2c0.3-0.1,0.5-0.5,0.4-0.9c-0.1-0.2-0.2-0.4-0.4-0.4l-0.6-0.2l-0.1-0.5
		c0-0.3-0.2-0.5-0.5-0.6s-0.6,0.1-0.8,0.4c-0.3-0.3-0.7-0.2-0.9,0.1l-0.1,0.1c-0.1,0-0.1-0.1-0.2-0.1c-0.3-0.1-0.7,0.1-0.8,0.5
		c0,0.1,0,0.2,0,0.3l0.2,1.3l-4-1l0.8-1c0.2-0.3,0.2-0.7-0.1-1c-0.1-0.1-0.1-0.1-0.2-0.1s-0.2,0-0.2,0c0-0.2-0.1-0.4-0.3-0.5
		c-0.2-0.1-0.4-0.2-0.6-0.1c0-0.4-0.2-0.7-0.6-0.7c-0.2,0-0.4,0.1-0.6,0.3l-0.3,0.4l-0.6-0.1c-0.4-0.1-0.7,0.2-0.8,0.6
		c0,0.2,0,0.4,0.2,0.6c-0.3,0.1-0.5,0.5-0.4,0.9c0,0.1,0,0.1,0.1,0.2c-0.3,0.2-0.5,0.6-0.3,0.9c0.1,0.2,0.2,0.3,0.4,0.4l1.1,0.3
		L96.6,84l-0.5-1.3c-0.1-0.4-0.5-0.5-0.8-0.4c-0.2,0.1-0.3,0.2-0.4,0.4c-0.1,0-0.1-0.1-0.2-0.1c-0.3-0.1-0.7,0.1-0.8,0.5
		c-0.3-0.2-0.7-0.2-0.9,0.1c-0.1,0.2-0.2,0.4-0.1,0.7l0.2,0.5l-0.4,0.5c-0.2,0.3-0.2,0.7,0,1c0.1,0.1,0.2,0.1,0.3,0.2
		c0.1,0,0.2,0,0.3,0v0.1c0,0.2,0.1,0.4,0.2,0.5s0.2,0.2,0.3,0.2c0.1,0,0.1,0,0.2,0c0,0.4,0.2,0.7,0.6,0.7c0.2,0,0.4-0.1,0.5-0.2l1-1
		l1,3.9L96,90.1c-0.4-0.1-0.7,0.2-0.8,0.6c0,0.2,0,0.4,0.1,0.5c-0.3,0.2-0.5,0.6-0.3,0.9l0.1,0.1c-0.3,0.2-0.5,0.6-0.4,0.9
		c0.1,0.2,0.2,0.3,0.4,0.4h0.1l0.5,0.1l0.1,0.5c0.1,0.4,0.4,0.6,0.8,0.5c0.2-0.1,0.4-0.2,0.5-0.5c0.1,0.1,0.2,0.1,0.3,0.2
		c0.3,0.1,0.6-0.1,0.8-0.4c0.3,0.2,0.7,0.1,0.9-0.2c0.1-0.2,0.2-0.4,0.1-0.6L99,92.2l3.7,0.9l-0.8,0.9c-0.2,0.3-0.2,0.7,0.1,1
		c0.1,0.1,0.2,0.1,0.3,0.1c0.1,0,0.2,0,0.2,0c0,0.2,0.1,0.4,0.2,0.5s0.2,0.1,0.3,0.1c0.1,0,0.2,0,0.3,0c0,0.1,0,0.1,0,0.2
		c0,0.4,0.3,0.7,0.7,0.6c0.2,0,0.3-0.1,0.4-0.2l0.4-0.4l0.5,0.2h0.1c0.4,0.1,0.7-0.1,0.8-0.5c0.1-0.2,0-0.4-0.1-0.6
		c0.3-0.1,0.5-0.5,0.4-0.9c0-0.1,0-0.1-0.1-0.2c0.3-0.2,0.5-0.6,0.3-0.9c-0.1-0.2-0.2-0.3-0.4-0.3l-1.2-0.4l2.7-2.9l0.4,1.1
		c0.1,0.4,0.5,0.5,0.8,0.4c0.2-0.1,0.3-0.2,0.4-0.4l0,0c0.3,0.2,0.7,0.1,0.9-0.2c0-0.1,0.1-0.1,0.1-0.2c0.1,0.1,0.2,0.1,0.3,0.1
		c0.4,0.1,0.7-0.1,0.8-0.5c0-0.1,0-0.3,0-0.4L111.3,88.9z M111.4,88.2l-0.7,0.6l0.3,0.8c0,0.1,0,0.2-0.1,0.3c-0.1,0-0.2,0-0.2-0.1
		l0,0l-0.3-0.9l-0.8-0.2L110,90c0,0.1,0,0.2-0.1,0.3c-0.1,0-0.2,0-0.2-0.1l-0.5-1.6l-0.7-0.2l0.6,1.9c0,0.1,0,0.2-0.1,0.3h-0.1
		c-0.1,0-0.1-0.1-0.1-0.1l-0.6-1.9l-3.7,4.1l1.8,0.6c0.1,0,0.2,0.1,0.1,0.2c0,0.1-0.1,0.2-0.2,0.1l0,0l0,0l-1.8-0.6l0.2,0.7l1.5,0.5
		c0.1,0,0.2,0.1,0.1,0.2c0,0.1-0.1,0.2-0.2,0.1l0,0l-1.2-0.4l0.2,0.8l0.8,0.3c0.1,0,0.2,0.1,0.1,0.2c0,0.1-0.1,0.2-0.2,0.1l0,0
		l-0.8-0.3l-0.6,0.7c-0.1,0.1-0.2,0.1-0.3,0c-0.1-0.1-0.1-0.2,0-0.3l0.6-0.7l-0.2-0.9l-0.9,1c0,0.1-0.1,0.1-0.2,0.1h-0.1
		c-0.1-0.1-0.1-0.2,0-0.3l0,0l1-1.2l-0.2-0.7l-1.3,1.5c0,0.1-0.1,0.1-0.2,0.1h-0.1c-0.1-0.1-0.1-0.2,0-0.3l0,0l1.3-1.5l-5.1-1.3
		l0.4,1.9c0,0.1,0,0.2-0.1,0.2s-0.2,0-0.2-0.1l0,0l-0.4-2L97.8,92l0.3,1.6c0,0.1,0,0.2-0.1,0.2s-0.2,0-0.2-0.1l0,0l-0.3-1.3L96.9,93
		l0.2,0.9c0,0.1,0,0.2-0.1,0.2l0,0h-0.1c-0.1,0-0.1-0.1-0.1-0.2L96.6,93l-0.9-0.1l0,0c-0.1,0-0.2-0.1-0.1-0.2c0-0.1,0.1-0.2,0.2-0.2
		l0,0l0.9,0.1l0.6-0.6l-1.8,0l0,0c-0.1,0-0.2-0.1-0.1-0.2c0-0.1,0.1-0.2,0.2-0.2l0,0l1.6,0.2l0.5-0.6L95.8,91l0,0
		c-0.1,0-0.2-0.1-0.1-0.2c0-0.1,0.1-0.2,0.2-0.2l0,0l1.9,0.3l-1.4-5.4L94.7,87c0,0-0.1,0.1-0.2,0c0,0-0.1,0-0.1-0.1
		c-0.1-0.1-0.1-0.2,0-0.3l1.5-1.4L95.2,85L94,86.2c-0.1,0.1-0.2,0.1-0.3,0c-0.1-0.1-0.1-0.2,0-0.3l0,0l1-1l-0.9-0.2l-0.6,0.7
		c0,0.1-0.1,0.1-0.2,0.1h-0.1c-0.1-0.1-0.1-0.2,0-0.3l0,0l0.6-0.7l-0.3-0.8c0-0.1,0-0.2,0.1-0.3c0.1,0,0.2,0,0.2,0.1l0.3,0.8
		l0.8,0.2l-0.4-1.2c0-0.1,0-0.2,0.1-0.3s0.2,0,0.2,0.1l0.5,1.5l0.7,0.2L95.3,83c0-0.1,0-0.2,0.1-0.3l0,0h0.1c0.1,0,0.1,0.1,0.1,0.1
		l0.7,2.1l3.9-4.2l-1.8-0.5c-0.1,0-0.2-0.1-0.1-0.2l0,0c0-0.1,0.1-0.2,0.2-0.1l0,0l0,0l1.8,0.5l-0.2-0.7l-1.5-0.4
		c-0.1,0-0.2-0.1-0.1-0.2c0-0.1,0.1-0.2,0.2-0.1l0,0l1.2,0.3l-0.2-0.9L99,78.1l0,0c-0.1,0-0.2-0.1-0.1-0.2c0-0.1,0.1-0.2,0.2-0.2
		l0,0l0.9,0.2l0.5-0.7c0-0.1,0.1-0.1,0.2-0.1c0,0,0,0,0.1,0c0.1,0.1,0.1,0.2,0,0.3l0,0l-0.6,0.8l0.2,0.9l0.8-1.1
		c0-0.1,0.1-0.1,0.2-0.1c0,0,0,0,0.1,0c0.1,0.1,0.1,0.2,0,0.3l0,0l-1,1.4l0.2,0.7l1.2-1.7c0-0.1,0.1-0.1,0.2-0.1c0,0,0,0,0.1,0
		c0.1,0.1,0.1,0.2,0,0.3l-1.2,1.6l5.3,1.3l-0.3-2c0-0.1,0.1-0.2,0.2-0.2h0.1c0.1,0,0.1,0.1,0.1,0.2l0.3,2l0.5-0.6l-0.2-1.6
		c0-0.1,0.1-0.2,0.2-0.2l0,0h0.1c0.1,0,0.1,0.1,0.1,0.2l0.2,1.3l0.6-0.6l0,0l-0.1-0.8c0-0.1,0.1-0.2,0.2-0.2l0,0h0.1
		c0.1,0,0.1,0.1,0.1,0.2l0.1,0.8l0.9,0.3c0.1,0,0.2,0.1,0.1,0.2c0,0.1-0.1,0.2-0.2,0.2l0,0l-0.9-0.3l-0.7,0.7l1.3,0.3l0,0
		c0.1,0,0.2,0.1,0.1,0.2c0,0.1-0.1,0.2-0.2,0.2l0,0l-1.6-0.4L107,82l1.9,0.4l0,0c0.1,0,0.2,0.1,0.1,0.2c0,0.1-0.1,0.2-0.2,0.2
		l-1.9-0.4l1.4,5.3l1.5-1.3c0.1-0.1,0.2-0.1,0.3,0c0.1,0.1,0.1,0.2,0,0.3l-1.4,1.3l0.7,0.2l1.2-1.1c0.1-0.1,0.2-0.1,0.3,0
		c0.1,0.1,0.1,0.2,0,0.3l-1,0.9l0.8,0.2l0.7-0.6c0.1-0.1,0.2-0.1,0.3,0C111.5,88,111.5,88.1,111.4,88.2L111.4,88.2z"/>
	<path class="st3" d="M103.5,88.8L103.5,88.8l1.1-1.1l-0.1-0.4l-1.9-0.5l0.5,1.8L103.5,88.8L103.5,88.8z M103.9,87.8l-0.5,0.6
		l-0.2-0.7L103.9,87.8L103.9,87.8z"/>
	<path class="st3" d="M104.4,85.1L104.4,85.1L104,85l-1.4,1.4l1.9,0.5l0.2-0.3L104.4,85.1z M103.6,86.2l0.5-0.5l0.2,0.7L103.6,86.2z
		"/>
	<path class="st3" d="M100.3,88l0.4,0.1l1.3-1.4l-1.9-0.5l-0.2,0.2L100.3,88L100.3,88z M101,87l-0.5,0.5l-0.2-0.7L101,87L101,87z"/>
	<path class="st3" d="M99.4,85.3l0.5,0.1l1.3-1.4l-0.1-0.4l0.2-0.3l-0.7-2.5L96.8,85l2.3,0.6L99.4,85.3z M99,85L99,85l-1.3-0.2
		l2.6-2.8l0.4,1.4l0,0l-0.2,0.2l0.1,0.3V84l-0.9,1l-0.5-0.1L99,85z"/>
	<path class="st3" d="M99.8,88.5l0.2-0.2l-0.4-1.7l-0.5-0.1L99,86l-2.3-0.6l1.4,5.4l1.8-1.9L99.8,88.5z M98.4,89.9l-1-3.8l1.2,0.3
		v0.2l0.1,0.3l0.5,0.1l0.3,1.2l0,0l-0.2,0.2l0.1,0.3v0.1L98.4,89.9z"/>
</g>
<g>
	<path class="st3" d="M21.8,27.5L21.8,27.5l-0.1,2.1l0.3,0.2l2.2-1.1l-2-1.4L21.8,27.5L21.8,27.5z M22.2,29v-0.9l0.7,0.5L22.2,29
		L22.2,29z"/>
	<path class="st3" d="M24.4,28.4l0.1-2.4L24,25.7l0,0l-1.7,0.8l0,0v0.6L24.4,28.4z M24,26.3l-0.1,1l-0.8-0.6L24,26.3z"/>
	<path class="st3" d="M21.8,25.9l0.4,0.3l1.9-0.9v-0.5l0.5-0.2l0.2-3.2l-6.1,3l2.6,1.8L21.8,25.9L21.8,25.9z M24.2,22.3l-0.1,1.8
		l-0.5,0.2v0.3v0.1l-1.3,0.6l-0.1-0.1L21.9,25l-0.5,0.3l-1.5-1L24.2,22.3L24.2,22.3z"/>
	<path class="st3" d="M24.9,29.2l-0.1,2.3l0.4,0.3v0.1l1.7-0.8L26.8,31v-0.5L24.9,29.2z M25.3,31.2v-0.9l0.7,0.5L25.3,31.2z"/>
	<path class="st3" d="M27.4,31.5l-0.3-0.2l-2,1v0.4l-0.4,0.2l-0.2,3.3l6-3l-2.7-1.9L27.4,31.5L27.4,31.5z M25.1,35.2l0.1-1.9
		l0.5-0.2v-0.3l0,0l1.4-0.7l0,0l0.3,0.2l0.4-0.2l1.6,1.1L25.1,35.2L25.1,35.2z"/>
	<path class="st3" d="M25.1,24.7l0.4,0.3v0.5l1.9,1.3l0.5-0.2l0.4,0.3l2.7-1.3l-5.6-3.9L25.1,24.7z M28.2,26h-0.1l-0.3-0.2L27.4,26
		l-1.3-0.9V25v-0.3l-0.3-0.2l-0.1-0.1l0.1-1.8l3.9,2.7L28.2,26L28.2,26z"/>
	<path class="st3" d="M28.4,27.7L27.9,28l-0.1,2.2l0.3,0.2V31l2.7,1.8l0.3-6.9l-2.6,1.3L28.4,27.7z M29,27.8v-0.2l1.5-0.7l-0.2,4.9
		l-1.5-1.1v-0.2v-0.3L28.5,30h-0.1l0.1-1.5l0.5-0.2V27.8z"/>
	<path class="st3" d="M34.9,23.8l0.1-0.7c0.1-0.5-0.3-0.9-0.7-1c-0.3,0-0.6,0-0.7,0.3v-0.1c-0.3-0.4-0.8-0.5-1.1-0.2l-0.1,0.1
		c-0.3-0.4-0.8-0.5-1.1-0.2c-0.2,0.1-0.3,0.3-0.3,0.5L30.7,24l-4-2.8l1.3-0.7c0.4-0.2,0.5-0.7,0.3-1.1l0,0C28.2,19.2,28,19,27.8,19
		c0.2-0.4,0-0.9-0.4-1.1c-0.1,0-0.1-0.1-0.2-0.1c0.2-0.4,0.1-0.9-0.3-1.2c-0.2-0.1-0.5-0.2-0.7-0.1l-0.7,0.3L25,16.4
		c-0.3-0.2-0.6-0.3-0.9-0.1c-0.4,0.2-0.5,0.6-0.4,1c-0.5,0-0.8,0.3-0.8,0.8c0,0.1,0,0.1,0,0.2c-0.1,0-0.2,0-0.3,0.1
		c-0.4,0.2-0.6,0.7-0.4,1.1c0.1,0.1,0.1,0.2,0.2,0.3l1.2,1.1l-4.5,2.2L19,21.3c0-0.5-0.4-0.8-0.9-0.8c-0.1,0-0.2,0-0.3,0.1
		c-0.1,0-0.2,0.1-0.2,0.2c-0.2-0.2-0.4-0.3-0.7-0.3c-0.2,0-0.5,0.1-0.6,0.3c-0.3-0.4-0.8-0.5-1.1-0.2c-0.2,0.2-0.4,0.4-0.3,0.7V22
		l-0.6,0.4c-0.4,0.2-0.5,0.7-0.3,1.1c0.1,0.2,0.4,0.4,0.6,0.4c-0.2,0.4-0.1,0.9,0.3,1.2c0.1,0,0.1,0.1,0.2,0.1
		c-0.2,0.4,0,0.9,0.5,1.1c0.2,0.1,0.5,0.1,0.7,0l1.2-0.6l-0.2,5.2L15.7,30c-0.4-0.2-0.9-0.1-1.1,0.3c-0.1,0.2-0.1,0.4-0.1,0.6
		c-0.1,0-0.2,0-0.2,0.1c-0.4,0.2-0.5,0.7-0.4,1.1c-0.5,0-0.8,0.4-0.8,0.9c0,0.3,0.2,0.6,0.4,0.7l0.6,0.3v0.8c0,0.5,0.3,0.9,0.8,0.9
		c0.1,0,0.3,0,0.4-0.1c0.1-0.1,0.2-0.1,0.3-0.2l0.1,0.1c0.1,0.2,0.3,0.3,0.6,0.3c0.2,0,0.3,0,0.5-0.1c0.1,0,0.1-0.1,0.2-0.1
		c0.3,0.4,0.8,0.5,1.1,0.2c0.2-0.1,0.3-0.3,0.3-0.6l0.2-1.8l4.1,2.9l-1.2,0.8c-0.4,0.2-0.5,0.7-0.3,1.2c0.1,0.2,0.3,0.3,0.5,0.4
		c-0.2,0.4,0.1,0.9,0.5,1.1c0.1,0,0.1,0,0.2,0.1c-0.2,0.4,0,0.9,0.4,1.1c0.2,0.1,0.5,0.1,0.7,0h0.1l0.6-0.4l0.5,0.4
		c0.4,0.3,0.9,0.2,1.1-0.1c0.2-0.2,0.2-0.5,0.1-0.8c0.1,0,0.3,0,0.4-0.1c0.3-0.2,0.5-0.6,0.4-1c0.4,0,0.8-0.4,0.7-0.9
		c0-0.2-0.1-0.5-0.3-0.6L26,36.7l4.2-2.1v1.5c0,0.5,0.4,0.9,0.8,0.9c0.1,0,0.3,0,0.4-0.1c0.1,0,0.2-0.1,0.2-0.2
		c0.2,0.2,0.4,0.3,0.6,0.3c0.1,0,0.3,0,0.4-0.1c0.1-0.1,0.2-0.2,0.3-0.3c0,0.1,0.1,0.1,0.1,0.2c0.3,0.3,0.8,0.4,1.2,0
		c0.1-0.2,0.2-0.4,0.2-0.6v-0.7l0.6-0.2h0.1c0.4-0.2,0.6-0.7,0.3-1.1c-0.1-0.2-0.3-0.4-0.6-0.5c0.2-0.4,0.1-0.9-0.3-1.2
		c-0.1,0-0.1-0.1-0.2-0.1c0.2-0.4,0-0.9-0.5-1.1c-0.2-0.1-0.4-0.1-0.6,0l-1.4,0.5l0.2-4.9l1.3,0.8c0.4,0.2,0.9,0.1,1.1-0.3
		c0.1-0.2,0.1-0.4,0.1-0.6l0,0c0.4-0.1,0.7-0.5,0.7-0.9c0-0.1,0-0.2-0.1-0.2c0.1,0,0.2,0,0.4-0.1c0.4-0.2,0.6-0.7,0.3-1.1
		c-0.1-0.1-0.2-0.3-0.3-0.4L34.9,23.8z M34.5,23l-0.1,1.1l0.9,0.6c0.1,0.1,0.2,0.2,0.1,0.3s-0.2,0.2-0.3,0.1l0,0l-1-0.6L33.2,25
		l1.4,0.9c0.1,0.1,0.2,0.2,0.1,0.3c-0.1,0.1-0.2,0.2-0.3,0.1l-1.7-1.1l-0.8,0.4l2.1,1.3c0,0.1,0,0.2,0,0.3l-0.1,0.1
		c-0.1,0-0.2,0-0.2,0L31.6,26l-0.3,6.8l2.3-0.9c0.1-0.1,0.3,0,0.3,0.1c0.1,0.1,0,0.3-0.1,0.3l0,0l0,0l-2.2,0.9l0.8,0.5l1.8-0.7
		c0.1-0.1,0.3,0,0.3,0.1c0.1,0.1,0,0.3-0.1,0.3l0,0L32.9,34l0.9,0.6l1-0.4c0.1-0.1,0.3,0,0.3,0.1c0.1,0.1,0,0.3-0.1,0.3l0,0L34,35
		v1.1c0,0.1-0.1,0.2-0.2,0.2c-0.1,0-0.2-0.1-0.2-0.3v-1.1l-0.9-0.6V36c0,0.1,0,0.2-0.1,0.2h-0.1c-0.1,0-0.2-0.1-0.2-0.3l0,0v-2
		l-0.8-0.5v2.5c0,0.1,0,0.2-0.1,0.2h-0.1c-0.1,0-0.2-0.1-0.2-0.3l0,0v-2.5l-5.9,2.9l1.8,1.4c0.1,0.1,0.1,0.2,0.1,0.3
		c-0.1,0.1-0.2,0.1-0.3,0l0,0l-1.9-1.5l-0.1,0.9L26,39c0.1,0.1,0.1,0.2,0.1,0.3c-0.1,0.1-0.2,0.1-0.3,0l0,0l-1.3-1l-0.1,1.1l0.9,0.7
		c0.1,0.1,0.1,0.2,0.1,0.3l0,0l-0.1,0.1c-0.1,0-0.2,0-0.3,0l-0.9-0.7l-0.9,0.6l0,0c-0.1,0.1-0.2,0-0.3-0.1c-0.1-0.1,0-0.3,0.1-0.3
		l0,0l0.9-0.6l0.1-1.1l-1.4,0.9l0,0c-0.1,0.1-0.2,0-0.3-0.1c-0.1-0.1,0-0.3,0.1-0.3l0,0l1.7-1v-0.9l-2,1.2l0,0
		c-0.1,0.1-0.3,0-0.3-0.1c-0.1-0.1,0-0.3,0.1-0.3l0,0l2-1.2l-5.7-4l-0.3,2.7c0,0.1-0.1,0.2-0.1,0.2h-0.1c-0.1,0-0.2-0.1-0.2-0.3
		l0.3-2.5L17,33l-0.5,2c0,0.1-0.1,0.2-0.3,0.2c-0.1,0-0.2-0.1-0.2-0.3l0,0l0.2-1.7l-1,0.5v1.1c0,0.1-0.1,0.2-0.1,0.2H15
		c-0.1,0-0.2-0.1-0.2-0.3l0,0v-1.1l-0.9-0.5c-0.1-0.1-0.2-0.2-0.1-0.3c0.1-0.1,0.2-0.2,0.3-0.1l0.9,0.5l0.9-0.5L14.5,32
		c-0.1-0.1-0.2-0.2-0.1-0.3c0.1-0.1,0.2-0.2,0.3-0.1l1.7,1l0.8-0.4L15.1,31C15,30.8,15,30.7,15,30.6l0,0l0.1-0.1c0.1,0,0.2,0,0.2,0
		l2.3,1.4l0.3-7.1l-2.1,1c-0.1,0.1-0.3,0-0.3-0.1l0,0c-0.1-0.1,0-0.3,0.1-0.3l0,0l0,0l2.1-1L17,23.8l-1.7,0.8
		c-0.1,0.1-0.3,0-0.3-0.1c-0.1-0.1,0-0.3,0.1-0.3l0,0l1.4-0.7l-1-0.7l-0.9,0.5l0,0c-0.1,0.1-0.3,0-0.3-0.1c-0.1-0.1,0-0.3,0.1-0.3
		l0,0l1-0.5l-0.1-1c0-0.1,0-0.2,0.1-0.2h0.1c0.1,0,0.2,0.1,0.3,0.2l0,0l0.1,1.2l0.9,0.6l-0.1-1.7c0-0.1,0-0.2,0.1-0.2h0.1
		c0.1,0,0.2,0.1,0.3,0.2l0,0l0.1,2.1l0.8,0.5l-0.2-2.6c0-0.1,0-0.2,0.1-0.2h0.1c0.1,0,0.2,0.1,0.3,0.2l0.2,2.5l6-3l-1.9-1.7
		c-0.1-0.1-0.1-0.2,0-0.4c0,0,0,0,0.1-0.1c0.1,0,0.2,0,0.3,0l1.8,1.6v-0.9l-1.5-1.3c-0.1-0.1-0.1-0.2,0-0.3l0,0c0,0,0,0,0.1-0.1
		c0.1,0,0.2,0,0.3,0l1.2,1.1l0.1-1l0,0l-0.8-0.7c-0.1-0.1-0.1-0.2,0-0.3l0,0c0,0,0,0,0.1-0.1c0.1,0,0.2,0,0.3,0l0.8,0.7l1-0.4
		c0.1-0.1,0.3,0,0.3,0.1c0.1,0.1,0,0.3-0.1,0.3l0,0l-1,0.4l-0.1,1.2l1.5-0.8l0,0c0.1-0.1,0.3,0,0.3,0.1c0.1,0.1,0,0.3-0.1,0.3l0,0
		l-1.8,0.9l-0.1,0.9l2.2-1.1l0,0c0.1-0.1,0.3,0,0.3,0.1c0.1,0.1,0,0.3-0.1,0.3l-2.2,1.1l5.6,3.9l0.3-2.4c0-0.1,0.1-0.2,0.3-0.2
		c0.1,0,0.2,0.2,0.2,0.3l-0.3,2.4l0.8-0.4l0.3-2c0-0.1,0.1-0.2,0.3-0.2c0.1,0,0.2,0.2,0.2,0.3l-0.2,1.6l0.9-0.5l0.1-1.1
		c0-0.1,0.1-0.2,0.3-0.2S34.5,22.8,34.5,23L34.5,23z"/>
	<path class="st3" d="M27.5,29.9L27.5,29.9l0.2-1.9l-0.4-0.3l-2.2,1.1l1.9,1.3L27.5,29.9L27.5,29.9z M27.1,28.5v0.9l-0.8-0.5
		L27.1,28.5L27.1,28.5z"/>
	<path class="st3" d="M25.5,25.7L25.5,25.7L25,25.9l-0.1,2.4l2.2-1.1v-0.4L25.5,25.7z M25.5,27.4v-0.9l0.7,0.5L25.5,27.4z"/>
	<path class="st3" d="M23.8,31.7l0.4-0.2l0.1-2.3l-2.2,1.1v0.4L23.8,31.7L23.8,31.7z M23.8,30.1V31L23,30.5L23.8,30.1L23.8,30.1z"/>
	<path class="st3" d="M20.8,29.9l0.5-0.3l0.1-2.3L21,27v-0.4l-2.6-1.8l-0.3,6.8l2.6-1.3L20.8,29.9z M20.3,29.8v0.1l-1.4,0.7l0.2-4.8
		l1.5,1v0.1v0.3l0.3,0.2l0.1,0.1l-0.1,1.6l-0.5,0.3L20.3,29.8z"/>
	<path class="st3" d="M23.8,32.5v-0.4L22,30.9l-0.6,0.3L21,30.8l-2.6,1.3l5.6,4l0.2-3.2L23.8,32.5z M23.5,35l-3.9-2.8l1.4-0.7
		l0.2,0.1l0.3,0.2l0.6-0.3l1.2,0.9v0.1v0.3l0.3,0.2l0.1,0.1L23.5,35z"/>
</g>
<g>
	<path class="st3" d="M31.7,67.7L31.7,67.7l-0.8,1.5l0.1,0.3h2l-1-1.7L31.7,67.7L31.7,67.7z M31.5,68.9l0.3-0.6l0.3,0.6H31.5
		L31.5,68.9z"/>
	<path class="st3" d="M33.3,69.2l1-1.7l-0.2-0.4l0,0h-1.5l0,0l-0.2,0.4L33.3,69.2z M33.7,67.6l-0.4,0.7l-0.4-0.7H33.7z"/>
	<path class="st3" d="M32.3,66.5l0.2,0.3h1.7l0.2-0.3h0.4l1.3-2.3h-5.5l1.3,2.3H32.3L32.3,66.5z M35.3,64.8l-0.7,1.3h-0.4L34,66.3
		l-0.1,0.1h-1.2l-0.1-0.1l-0.1-0.2H32l-0.7-1.3H35.3L35.3,64.8z"/>
	<path class="st3" d="M33.3,70l-0.9,1.6l0.2,0.4v0.1h1.6V72l0.2-0.3L33.3,70z M33,71.6l0.4-0.6l0.4,0.6H33z"/>
	<path class="st3" d="M34.4,72.6l-0.2-0.3h-1.8l-0.2,0.3h-0.4l-1.3,2.3H36l-1.3-2.3H34.4L34.4,72.6z M31.4,74.4l0.8-1.3h0.4l0.1-0.2
		l0,0h1.2l0,0l0.1,0.2h0.4l0.7,1.3H31.4L31.4,74.4z"/>
	<path class="st3" d="M35.1,66.8l0.2,0.3l-0.2,0.3L36,69h0.4l0.2,0.3H39l-2.7-4.9L35.1,66.8z M36.9,68.9L36.9,68.9l-0.2-0.3h-0.4
		l-0.6-1.1v-0.1l0.1-0.2L35.7,67v-0.1l0.7-1.3l1.9,3.4L36.9,68.9L36.9,68.9z"/>
	<path class="st3" d="M36.4,70.2H36l-0.9,1.5l0.2,0.3l-0.2,0.4l1.3,2.3l2.7-4.9h-2.4L36.4,70.2z M36.8,70.4L36.8,70.4l1.4-0.1
		l-1.9,3.5l-0.7-1.3l0.1-0.2l0.1-0.2l-0.1-0.2v-0.1l0.6-1.1h0.4L36.8,70.4z"/>
	<path class="st3" d="M42.6,69.7l0.3-0.5c0.2-0.3,0.1-0.7-0.2-1c-0.2-0.1-0.4-0.2-0.6-0.1V68c-0.1-0.4-0.4-0.6-0.8-0.6h-0.1
		c-0.1-0.4-0.4-0.6-0.8-0.5c-0.2,0-0.3,0.1-0.4,0.3l-0.7,1l-1.9-3.5h1.2c0.4,0,0.6-0.3,0.6-0.7l0,0c0-0.2-0.1-0.4-0.2-0.5
		c0.3-0.2,0.3-0.7,0.1-1c0-0.1-0.1-0.1-0.1-0.1c0.3-0.2,0.4-0.6,0.2-1c-0.1-0.2-0.3-0.3-0.5-0.3h-0.6l-0.2-0.5
		c-0.1-0.3-0.3-0.4-0.6-0.4s-0.6,0.2-0.6,0.6c-0.3-0.2-0.7-0.1-0.9,0.3c0,0.1,0,0.1-0.1,0.2c-0.1,0-0.1,0-0.2,0
		c-0.4,0-0.7,0.3-0.7,0.7c0,0.1,0,0.2,0.1,0.3l0.5,1.2h-4.1l0.5-1.2c0.1-0.4,0-0.8-0.3-0.9c-0.1,0-0.2-0.1-0.3-0.1
		c-0.1,0-0.2,0-0.2,0c-0.1-0.2-0.2-0.4-0.4-0.5c-0.2-0.1-0.4-0.1-0.6,0c-0.1-0.4-0.4-0.6-0.7-0.6c-0.2,0-0.4,0.2-0.5,0.4l-0.2,0.5
		H28c-0.4,0-0.6,0.3-0.6,0.7c0,0.2,0.1,0.4,0.3,0.5c-0.3,0.2-0.4,0.6-0.2,1c0,0.1,0.1,0.1,0.1,0.1c-0.3,0.2-0.3,0.7-0.1,1
		c0.1,0.1,0.3,0.2,0.5,0.2h1.1l-2,3.7l-0.8-1.2c-0.2-0.3-0.6-0.4-0.9-0.2c-0.1,0.1-0.2,0.3-0.3,0.4c-0.1,0-0.1,0-0.2,0
		c-0.3,0-0.6,0.3-0.7,0.6c-0.3-0.1-0.7,0-0.9,0.4c-0.1,0.2-0.1,0.5,0.1,0.7l0.3,0.4L23.4,70c-0.2,0.3-0.1,0.7,0.3,0.9
		C23.8,71,23.9,71,24,71c0.1,0,0.2,0,0.3-0.1V71c0,0.2,0.1,0.3,0.3,0.4c0.1,0.1,0.2,0.1,0.4,0.1c0.1,0,0.1,0,0.2,0
		c0.1,0.4,0.4,0.6,0.7,0.6c0.2,0,0.4-0.1,0.5-0.3l0.8-1.2l2,3.6L28,74.5c-0.4,0-0.6,0.4-0.6,0.7c0,0.2,0.1,0.3,0.2,0.5
		c-0.3,0.3-0.3,0.7-0.1,1l0.1,0.1c-0.3,0.2-0.3,0.7-0.1,1c0.1,0.2,0.3,0.3,0.5,0.3h0.1l0.5-0.1l0.2,0.5c0.2,0.3,0.6,0.5,0.9,0.3
		c0.2-0.1,0.3-0.3,0.4-0.6c0.1,0.1,0.2,0.1,0.3,0.1c0.3,0,0.6-0.2,0.6-0.5c0.3,0.1,0.7,0,0.9-0.4c0.1-0.2,0.1-0.4,0-0.6l-0.5-1h3.8
		l-0.5,1.1c-0.2,0.3,0,0.8,0.3,0.9c0.1,0,0.2,0.1,0.3,0.1s0.2,0,0.2,0c0,0.2,0.2,0.4,0.3,0.5c0.1,0,0.2,0.1,0.3,0.1s0.2,0,0.3-0.1
		c0,0.1,0,0.1,0,0.2c0.1,0.4,0.5,0.6,0.8,0.4c0.2-0.1,0.3-0.2,0.4-0.3l0.2-0.5h0.6h0.1c0.4,0,0.7-0.3,0.7-0.7c0-0.2-0.1-0.4-0.3-0.5
		c0.3-0.2,0.4-0.6,0.2-1c0-0.1-0.1-0.1-0.1-0.1c0.3-0.3,0.3-0.7,0.1-1c-0.1-0.1-0.3-0.2-0.4-0.2l-1.2-0.1l1.9-3.5l0.6,1
		c0.2,0.3,0.6,0.4,0.9,0.2c0.1-0.1,0.2-0.3,0.3-0.4l0,0c0.3,0.1,0.7-0.1,0.8-0.4c0-0.1,0-0.1,0-0.2c0.1,0,0.2,0.1,0.3,0.1
		c0.4,0,0.7-0.3,0.7-0.7c0-0.1,0-0.3-0.1-0.4L42.6,69.7z M42.5,68.9L42,69.6l0.5,0.7c0.1,0.1,0,0.2-0.1,0.3s-0.2,0-0.3-0.1l0,0
		l-0.5-0.8h-0.9l0.7,1.2c0.1,0.1,0,0.2-0.1,0.3c-0.1,0.1-0.2,0-0.3-0.1l-0.9-1.4h-0.7l1.1,1.7c0.1,0.1,0,0.2-0.1,0.3h-0.1
		c-0.1,0-0.1,0-0.2-0.1l-1-1.7l-2.6,4.8l1.9,0.2c0.1,0,0.2,0.1,0.2,0.2s-0.1,0.2-0.2,0.2l0,0l0,0l-1.9-0.2L37,76l1.6,0.1
		c0.1,0,0.2,0.1,0.2,0.2s-0.1,0.2-0.2,0.2l0,0l-1.3-0.1l0.4,0.8l0.9,0.1c0.1,0,0.2,0.1,0.2,0.2s-0.1,0.2-0.2,0.2l0,0l-0.9-0.1
		l-0.4,0.8c0,0.1-0.2,0.1-0.3,0.1c-0.1-0.1-0.1-0.2-0.1-0.3l0.4-0.8l-0.4-0.8l-0.6,1.2c0,0.1-0.1,0.1-0.2,0.1H36c0,0,0-0.2,0-0.3
		l0,0l0.7-1.5l-0.4-0.7l-0.9,1.8c0,0.1-0.1,0.1-0.2,0.1h-0.1C35,77.2,35,77.1,35,77l0,0l0.9-1.8h-5.3l0.8,1.7c0,0.1,0,0.2-0.1,0.3
		c-0.1,0.1-0.2,0-0.3-0.1l0,0l-0.9-1.8L29.7,76l0.7,1.5c0,0.1,0,0.2-0.1,0.3c-0.1,0.1-0.2,0-0.3-0.1l0,0l-0.6-1.2L29,77.3l0.4,0.8
		c0,0.1,0,0.2-0.1,0.3l0,0h-0.1c-0.1,0-0.1,0-0.2-0.1l-0.4-0.8l-0.9,0.1l0,0c-0.1,0-0.2-0.1-0.2-0.2s0.1-0.2,0.2-0.2l0,0l0.9-0.1
		l0.4-0.8l-1,0.1l0,0c-0.1,0-0.2-0.1-0.2-0.2S27.9,76,28,76l0,0l1.6-0.1l0.4-0.7l-2,0.2l0,0c-0.1,0-0.2-0.1-0.2-0.2S27.9,75,28,75
		l0,0l1.9-0.2l-2.7-4.9L26,71.8c0,0.1-0.1,0.1-0.2,0.1h-0.1c-0.1-0.1-0.1-0.2-0.1-0.3l1.1-1.8H26l-0.9,1.4c-0.1,0.1-0.2,0.1-0.3,0.1
		c-0.1-0.1-0.1-0.2-0.1-0.3l0,0l0.7-1.2h-0.9l-0.4,0.8c0,0.1-0.1,0.1-0.2,0.1h-0.1c-0.1-0.1-0.1-0.2-0.1-0.3l0,0l0.4-0.8l-0.5-0.7
		c-0.1-0.1,0-0.2,0-0.3c0.1-0.1,0.2,0,0.3,0l0.5,0.7h0.8l-0.7-1.1c-0.1-0.1,0-0.2,0-0.3c0.1-0.1,0.2,0,0.3,0l0.9,1.3h0.7l-1.1-1.6
		c-0.1-0.1,0-0.2,0-0.3l0,0h0.1c0.1,0,0.1,0,0.2,0.1l1.2,1.8l2.8-5h-1.9c-0.1,0-0.2-0.1-0.2-0.2l0,0c0-0.1,0.1-0.2,0.2-0.2l0,0l0,0
		h1.9l-0.4-0.7h-1.5c-0.1,0-0.2-0.1-0.2-0.2c0-0.1,0.1-0.2,0.2-0.2l0,0H29L28.8,62H28l0,0c-0.1,0-0.2-0.1-0.2-0.2
		c0-0.1,0.1-0.2,0.2-0.2l0,0h0.9l0.3-0.8c0-0.1,0.1-0.1,0.2-0.1h0.1c0.1,0,0.1,0.2,0.1,0.3l0,0l-0.4,0.9l0.4,0.8l0.5-1.3
		c0-0.1,0.1-0.1,0.2-0.1h0.1c0.1,0,0.1,0.2,0.1,0.3l0,0l-0.6,1.6l0.4,0.7l0.8-1.9c0-0.1,0.1-0.1,0.2-0.1h0.1c0.1,0,0.1,0.2,0.1,0.3
		l-0.8,1.9h5.4L35.3,62c0-0.1,0-0.2,0.1-0.3c0,0,0,0,0.1,0s0.1,0,0.2,0.1l0.7,1.8l0.4-0.7l-0.6-1.5c0-0.1,0-0.2,0.1-0.3l0,0
		c0,0,0,0,0.1,0s0.1,0,0.2,0.1l0.5,1.2l0.4-0.7l0,0L37.1,61c0-0.1,0-0.2,0.1-0.3l0,0c0,0,0,0,0.1,0s0.1,0,0.2,0.1l0.3,0.8h0.9
		c0.1,0,0.2,0.1,0.2,0.2c0,0.1-0.1,0.2-0.2,0.2l0,0h-0.9l-0.5,0.8h1.4l0,0c0.1,0,0.2,0.1,0.2,0.2c0,0.1-0.1,0.2-0.2,0.2l0,0h-1.6
		l-0.4,0.7h2l0,0c0.1,0,0.2,0.1,0.2,0.2s-0.1,0.2-0.2,0.2h-2l2.6,4.8l1.1-1.6c0.1-0.1,0.2-0.1,0.3,0s0.1,0.2,0,0.3l-1.1,1.6h0.7
		l0.9-1.3c0.1-0.1,0.2-0.1,0.3,0s0.1,0.2,0,0.3l-0.7,1.1h0.8l0.5-0.8c0.1-0.1,0.2-0.1,0.3,0C42.6,68.7,42.6,68.8,42.5,68.9
		L42.5,68.9z"/>
	<path class="st3" d="M35,71.5L35,71.5l0.8-1.3l-0.2-0.3h-2l0.9,1.7L35,71.5L35,71.5z M35.2,70.3L34.8,71l-0.4-0.7H35.2L35.2,70.3z"
		/>
	<path class="st3" d="M35,67.7L35,67.7h-0.4l-1,1.7h2l0.2-0.3L35,67.7z M34.5,68.9l0.4-0.6l0.3,0.6H34.5z"/>
	<path class="st3" d="M31.7,71.5h0.4l0.9-1.7h-2l-0.2,0.3L31.7,71.5L31.7,71.5z M32.2,70.3l-0.4,0.6l-0.3-0.6H32.2L32.2,70.3z"/>
	<path class="st3" d="M30.2,69.1h0.5l0.9-1.6l-0.2-0.3l0.2-0.3l-1.3-2.3l-2.7,4.9H30L30.2,69.1z M29.8,68.8L29.8,68.8l-1.3,0.1
		l1.9-3.4l0.7,1.3v0.1L31,67.1l0.1,0.2v0.1l-0.6,1.1H30L29.8,68.8z"/>
	<path class="st3" d="M31.3,72l0.2-0.3l-0.8-1.5h-0.5L30,69.8h-2.3l2.7,4.9l1.3-2.3L31.3,72z M30.3,73.7l-1.9-3.4h1.3l0.1,0.1
		l0.1,0.2h0.5l0.6,1.1v0.1L30.8,72l0.1,0.2l0.1,0.1L30.3,73.7z"/>
</g>
<g>
	<path class="st3" d="M126,114.6L126,114.6l-0.8,0.8l0.1,0.2l1.2,0.3l-0.3-1.2L126,114.6L126,114.6z M125.6,115.3l0.3-0.3l0.1,0.5
		L125.6,115.3L125.6,115.3z"/>
	<path class="st3" d="M126.7,115.9l0.9-0.9l-0.1-0.3l0,0l-1-0.3l0,0l-0.2,0.3L126.7,115.9z M127.3,114.9l-0.4,0.4l-0.1-0.5
		L127.3,114.9z"/>
	<path class="st3" d="M126.5,114l0.1,0.3l1.1,0.3l0.2-0.2l0.3,0.1l1.2-1.2l-3.5-0.8l0.5,1.6L126.5,114L126.5,114z M128.7,113.3
		L128,114l-0.3-0.1l-0.1,0.1l-0.1,0.1l-0.7-0.2v-0.1l-0.1-0.2l-0.3-0.1l-0.3-0.9L128.7,113.3L128.7,113.3z"/>
	<path class="st3" d="M126.6,116.4l-0.8,0.9l0.1,0.3l-0.1,0.1l1,0.3v-0.1l0.2-0.2L126.6,116.4z M126.1,117.3l0.3-0.3l0.1,0.5
		L126.1,117.3z"/>
	<path class="st3" d="M126.9,118.1l-0.1-0.2l-1.1-0.3l-0.1,0.1l-0.3-0.1l-1.2,1.2l3.4,0.8l-0.5-1.7H126.9L126.9,118.1z M124.7,118.9
		l0.7-0.7l0.3,0.1l0.1-0.1l0,0l0.8,0.2l0,0l0.1,0.2l0.3,0.1l0.3,1L124.7,118.9L124.7,118.9z"/>
	<path class="st3" d="M128.2,114.6l0.1,0.3l-0.2,0.2l0.3,1.2l0.3,0.1l0.1,0.3l1.6,0.4l-0.9-3.5L128.2,114.6z M129,116.2L129,116.2
		l-0.1-0.3l-0.3-0.1l-0.2-0.8l0.1-0.1l0.1-0.1l-0.1-0.2v-0.1l0.7-0.7l0.7,2.4L129,116.2L129,116.2z"/>
	<path class="st3" d="M128.6,117l-0.3-0.1l-0.8,0.8l0.1,0.2l-0.2,0.2l0.5,1.6l2.5-2.7l-1.5-0.4L128.6,117z M128.7,117.2L128.7,117.2
		l0.9,0.1l-1.8,1.9l-0.3-1l0.1-0.1l0.1-0.1l-0.1-0.2v-0.1l0.5-0.6l0.3,0.1L128.7,117.2z"/>
	<path class="st3" d="M132.5,117.6l0.3-0.3c0.2-0.2,0.2-0.5,0.1-0.7c-0.1-0.1-0.3-0.2-0.4-0.1c0,0,0,0,0-0.1c0-0.3-0.1-0.5-0.4-0.5
		H132c0-0.3-0.2-0.5-0.4-0.5c-0.1,0-0.2,0.1-0.3,0.1l-0.6,0.5l-0.7-2.5l0.8,0.2c0.3,0.1,0.5-0.1,0.5-0.3l0,0c0-0.1,0-0.3-0.1-0.4
		c0.2-0.1,0.3-0.4,0.2-0.6c0-0.1-0.1-0.1-0.1-0.1c0.2-0.1,0.3-0.3,0.3-0.6c-0.1-0.1-0.1-0.3-0.3-0.3l-0.4-0.1l-0.1-0.3
		c0-0.2-0.1-0.3-0.3-0.4c-0.2-0.1-0.4,0.1-0.5,0.3c-0.2-0.2-0.5-0.1-0.6,0.1l-0.1,0.1c-0.1,0-0.1-0.1-0.1-0.1
		c-0.2-0.1-0.5,0.1-0.5,0.3c0,0.1,0,0.1,0,0.2l0.1,0.8l-2.6-0.7l0.5-0.7c0.1-0.2,0.1-0.5-0.1-0.7c-0.1-0.1-0.1-0.1-0.1-0.1
		s-0.1,0-0.1,0c0-0.1-0.1-0.3-0.2-0.3c-0.1-0.1-0.3-0.1-0.4-0.1c0-0.3-0.1-0.5-0.4-0.5c-0.1,0-0.3,0.1-0.4,0.2l-0.2,0.3l-0.4-0.1
		c-0.3-0.1-0.5,0.1-0.5,0.4c0,0.1,0,0.3,0.1,0.4c-0.2,0.1-0.3,0.3-0.3,0.6c0,0.1,0,0.1,0.1,0.1c-0.2,0.1-0.3,0.4-0.2,0.6
		c0.1,0.1,0.1,0.2,0.3,0.3l0.7,0.2l-1.8,1.8l-0.3-0.8c-0.1-0.3-0.3-0.3-0.5-0.3c-0.1,0.1-0.2,0.1-0.3,0.3c-0.1,0-0.1-0.1-0.1-0.1
		c-0.2-0.1-0.5,0.1-0.5,0.3c-0.2-0.1-0.5-0.1-0.6,0.1c-0.1,0.1-0.1,0.3-0.1,0.5l0.1,0.3l-0.3,0.3c-0.1,0.2-0.1,0.5,0,0.7
		c0.1,0.1,0.1,0.1,0.2,0.1c0.1,0,0.1,0,0.2,0v0.1c0,0.1,0.1,0.3,0.1,0.3s0.1,0.1,0.2,0.1s0.1,0,0.1,0c0,0.3,0.1,0.5,0.4,0.5
		c0.1,0,0.3-0.1,0.3-0.1l0.7-0.7l0.7,2.5l-0.7-0.1c-0.3-0.1-0.5,0.1-0.5,0.4c0,0.1,0,0.3,0.1,0.3c-0.2,0.1-0.3,0.4-0.2,0.6l0.1,0.1
		c-0.2,0.1-0.3,0.4-0.3,0.6c0.1,0.1,0.1,0.2,0.3,0.3h0.1l0.3,0.1l0.1,0.3c0.1,0.3,0.3,0.4,0.5,0.3c0.1-0.1,0.3-0.1,0.3-0.3
		c0.1,0.1,0.1,0.1,0.2,0.1c0.2,0.1,0.4-0.1,0.5-0.3c0.2,0.1,0.5,0.1,0.6-0.1c0.1-0.1,0.1-0.3,0.1-0.4l-0.1-0.6l2.4,0.6l-0.5,0.6
		c-0.1,0.2-0.1,0.5,0.1,0.7c0.1,0.1,0.1,0.1,0.2,0.1s0.1,0,0.1,0c0,0.1,0.1,0.3,0.1,0.3s0.1,0.1,0.2,0.1c0.1,0,0.1,0,0.2,0
		c0,0.1,0,0.1,0,0.1c0,0.3,0.2,0.5,0.5,0.4c0.1,0,0.2-0.1,0.3-0.1l0.3-0.3l0.3,0.1h0.1c0.3,0.1,0.5-0.1,0.5-0.3
		c0.1-0.1,0-0.3-0.1-0.4c0.2-0.1,0.3-0.3,0.3-0.6c0-0.1,0-0.1-0.1-0.1c0.2-0.1,0.3-0.4,0.2-0.6c-0.1-0.1-0.1-0.2-0.3-0.2l-0.8-0.3
		l1.8-1.9l0.3,0.7c0.1,0.3,0.3,0.3,0.5,0.3c0.1-0.1,0.2-0.1,0.3-0.3l0,0c0.2,0.1,0.5,0.1,0.6-0.1c0-0.1,0.1-0.1,0.1-0.1
		c0.1,0.1,0.1,0.1,0.2,0.1c0.3,0.1,0.5-0.1,0.5-0.3c0-0.1,0-0.2,0-0.3L132.5,117.6z M132.6,117.1l-0.5,0.4l0.2,0.5
		c0,0.1,0,0.1-0.1,0.2c-0.1,0-0.1,0-0.1-0.1l0,0l-0.2-0.6l-0.5-0.1l0.3,0.8c0,0.1,0,0.1-0.1,0.2c-0.1,0-0.1,0-0.1-0.1l-0.3-1
		l-0.5-0.1l0.4,1.2c0,0.1,0,0.1-0.1,0.2H131c-0.1,0-0.1-0.1-0.1-0.1l-0.4-1.2l-2.4,2.7l1.2,0.4c0.1,0,0.1,0.1,0.1,0.1
		c0,0.1-0.1,0.1-0.1,0.1l0,0l0,0l-1.2-0.4l0.1,0.5l1,0.3c0.1,0,0.1,0.1,0.1,0.1c0,0.1-0.1,0.1-0.1,0.1l0,0l-0.8-0.3l0.1,0.5l0.5,0.2
		c0.1,0,0.1,0.1,0.1,0.1c0,0.1-0.1,0.1-0.1,0.1l0,0l-0.5-0.2l-0.4,0.5c-0.1,0.1-0.1,0.1-0.2,0c-0.1-0.1-0.1-0.1,0-0.2l0.4-0.5
		l-0.1-0.6l-0.6,0.7c0,0.1-0.1,0.1-0.1,0.1h-0.1c-0.1-0.1-0.1-0.1,0-0.2l0,0l0.7-0.8l-0.1-0.5l-0.8,1c0,0.1-0.1,0.1-0.1,0.1h-0.1
		c-0.1-0.1-0.1-0.1,0-0.2l0,0l0.8-1l-3.3-0.8l0.3,1.2c0,0.1,0,0.1-0.1,0.1s-0.1,0-0.1-0.1l0,0l-0.3-1.3l-0.3,0.4l0.2,1
		c0,0.1,0,0.1-0.1,0.1s-0.1,0-0.1-0.1l0,0l-0.2-0.8l-0.4,0.4l0.1,0.6c0,0.1,0,0.1-0.1,0.1l0,0h-0.1c-0.1,0-0.1-0.1-0.1-0.1l-0.1-0.6
		l-0.6-0.1l0,0c-0.1,0-0.1-0.1-0.1-0.1c0-0.1,0.1-0.1,0.1-0.1l0,0l0.6,0.1l0.4-0.4l-1.2,0l0,0c-0.1,0-0.1-0.1-0.1-0.1
		c0-0.1,0.1-0.1,0.1-0.1l0,0l1,0.1l0.3-0.4l-1.2-0.1l0,0c-0.1,0-0.1-0.1-0.1-0.1c0-0.1,0.1-0.1,0.1-0.1l0,0l1.2,0.2l-0.9-3.5l-1.1,1
		c0,0-0.1,0.1-0.1,0c0,0-0.1,0-0.1-0.1c-0.1-0.1-0.1-0.1,0-0.2l1-0.9L122,115l-0.8,0.8c-0.1,0.1-0.1,0.1-0.2,0
		c-0.1-0.1-0.1-0.1,0-0.2l0,0l0.7-0.7l-0.6-0.1l-0.4,0.5c0,0.1-0.1,0.1-0.1,0.1h-0.1c-0.1-0.1-0.1-0.1,0-0.2l0,0l0.4-0.5l-0.2-0.5
		c0-0.1,0-0.1,0.1-0.2c0.1,0,0.1,0,0.1,0.1l0.2,0.5l0.5,0.1l-0.3-0.8c0-0.1,0-0.1,0.1-0.2c0.1-0.1,0.1,0,0.1,0.1l0.3,1l0.5,0.1
		l-0.3-1.2c0-0.1,0-0.1,0.1-0.2l0,0h0.1c0.1,0,0.1,0.1,0.1,0.1l0.5,1.4l2.5-2.7l-1.2-0.3c-0.1,0-0.1-0.1-0.1-0.1l0,0
		c0-0.1,0.1-0.1,0.1-0.1l0,0l0,0l1.2,0.3l-0.1-0.5l-1-0.3c-0.1,0-0.1-0.1-0.1-0.1c0-0.1,0.1-0.1,0.1-0.1l0,0l0.8,0.2l-0.1-0.6
		l-0.5-0.2l0,0c-0.1,0-0.1-0.1-0.1-0.1c0-0.1,0.1-0.1,0.1-0.1l0,0l0.6,0.1l0.3-0.5c0-0.1,0.1-0.1,0.1-0.1c0,0,0,0,0.1,0
		c0.1,0.1,0.1,0.1,0,0.2l0,0l-0.4,0.5l0.1,0.6l0.5-0.7c0-0.1,0.1-0.1,0.1-0.1c0,0,0,0,0.1,0c0.1,0.1,0.1,0.1,0,0.2l0,0l-0.7,0.9
		l0.1,0.5l0.8-1.1c0-0.1,0.1-0.1,0.1-0.1c0,0,0,0,0.1,0c0.1,0.1,0.1,0.1,0,0.2l-0.8,1l3.4,0.8l-0.2-1.3c0-0.1,0.1-0.1,0.1-0.1h0.1
		c0.1,0,0.1,0.1,0.1,0.1l0.2,1.3l0.3-0.4l-0.1-1c0-0.1,0.1-0.1,0.1-0.1l0,0h0.1c0.1,0,0.1,0.1,0.1,0.1l0.1,0.8l0.4-0.4l0,0l-0.1-0.5
		c0-0.1,0.1-0.1,0.1-0.1l0,0h0.1c0.1,0,0.1,0.1,0.1,0.1l0.1,0.5l0.6,0.2c0.1,0,0.1,0.1,0.1,0.1c0,0.1-0.1,0.1-0.1,0.1l0,0l-0.6-0.2
		l-0.5,0.5l0.8,0.2l0,0c0.1,0,0.1,0.1,0.1,0.1c0,0.1-0.1,0.1-0.1,0.1l0,0l-1-0.3l-0.3,0.3l1.2,0.3l0,0c0.1,0,0.1,0.1,0.1,0.1
		c0,0.1-0.1,0.1-0.1,0.1l-1.2-0.3l0.9,3.4l1-0.8c0.1-0.1,0.1-0.1,0.2,0s0.1,0.1,0,0.2l-0.9,0.8l0.5,0.1l0.8-0.7
		c0.1-0.1,0.1-0.1,0.2,0s0.1,0.1,0,0.2l-0.7,0.6l0.5,0.1l0.5-0.4c0.1-0.1,0.1-0.1,0.2,0C132.7,117,132.7,117,132.6,117.1
		L132.6,117.1z"/>
	<path class="st3" d="M127.4,117.5L127.4,117.5l0.7-0.7l-0.1-0.3l-1.2-0.3l0.3,1.2L127.4,117.5L127.4,117.5z M127.7,116.8l-0.3,0.4
		l-0.1-0.5L127.7,116.8L127.7,116.8z"/>
	<path class="st3" d="M128,115.1L128,115.1l-0.3-0.1l-0.9,0.9l1.2,0.3l0.1-0.2L128,115.1z M127.5,115.8l0.3-0.3l0.1,0.5L127.5,115.8
		z"/>
	<path class="st3" d="M125.4,117l0.3,0.1l0.8-0.9l-1.2-0.3l-0.1,0.1L125.4,117L125.4,117z M125.8,116.3l-0.3,0.3l-0.1-0.5
		L125.8,116.3L125.8,116.3z"/>
	<path class="st3" d="M124.8,115.2l0.3,0.1l0.8-0.9l-0.1-0.3l0.1-0.2l-0.5-1.6l-2.5,2.7l1.5,0.4L124.8,115.2z M124.5,115L124.5,115
		l-0.8-0.1l1.7-1.8l0.3,0.9l0,0l-0.1,0.1l0.1,0.2v0.1L125,115l-0.3-0.1L124.5,115z"/>
	<path class="st3" d="M125,117.3l0.1-0.1l-0.3-1.1l-0.3-0.1l-0.1-0.3l-1.5-0.4l0.9,3.5l1.2-1.2L125,117.3z M124.1,118.2l-0.7-2.5
		l0.8,0.2v0.1l0.1,0.2l0.3,0.1l0.2,0.8l0,0l-0.1,0.1l0.1,0.2v0.1L124.1,118.2z"/>
</g>
<g>
	<path class="st3" d="M10.5,51.3L10.5,51.3l-0.6,0.6l0,0.1l0.9,0.2l-0.2-0.9L10.5,51.3L10.5,51.3z M10.2,51.8l0.2-0.2l0.1,0.3
		L10.2,51.8L10.2,51.8z"/>
	<path class="st3" d="M11,52.2l0.7-0.7l0-0.2l0,0l-0.7-0.2l0,0l-0.1,0.2L11,52.2z M11.4,51.5l-0.3,0.3L11,51.4L11.4,51.5z"/>
	<path class="st3" d="M10.8,50.8l0,0.2l0.8,0.2l0.1-0.1l0.2,0l0.9-0.9l-2.6-0.6l0.3,1.2L10.8,50.8L10.8,50.8z M12.5,50.3L12,50.9
		l-0.2,0l-0.1,0.1l0,0l-0.5-0.1v0l0-0.1l-0.2,0l-0.2-0.7L12.5,50.3L12.5,50.3z"/>
	<path class="st3" d="M10.9,52.6l-0.6,0.7l0,0.2l0,0l0.7,0.2v0l0.1-0.1L10.9,52.6z M10.6,53.3l0.2-0.2l0.1,0.3L10.6,53.3z"/>
	<path class="st3" d="M11.1,53.9l0-0.1l-0.8-0.2l-0.1,0.1l-0.2,0l-0.9,0.9l2.5,0.6l-0.3-1.2H11.1L11.1,53.9z M9.5,54.4l0.5-0.5
		l0.2,0l0.1-0.1l0,0l0.6,0.1l0,0l0,0.1l0.2,0l0.2,0.7L9.5,54.4L9.5,54.4z"/>
	<path class="st3" d="M12.1,51.3l0,0.2L12,51.6l0.2,0.9l0.2,0l0,0.2l1.1,0.3L13,50.4L12.1,51.3z M12.7,52.5L12.7,52.5l0-0.2l-0.2,0
		l-0.1-0.6l0,0l0.1-0.1l0-0.1v0l0.5-0.5l0.5,1.8L12.7,52.5L12.7,52.5z"/>
	<path class="st3" d="M12.4,53l-0.2,0l-0.6,0.6l0,0.1l-0.1,0.1l0.3,1.2l1.8-2l-1.1-0.3L12.4,53z M12.5,53.2L12.5,53.2l0.7,0.1
		l-1.3,1.4l-0.2-0.7l0,0l0.1-0.1l0-0.1v0l0.4-0.4l0.2,0L12.5,53.2z"/>
	<path class="st3" d="M15.3,53.5l0.2-0.2c0.1-0.1,0.1-0.3,0-0.5c0-0.1-0.2-0.1-0.3-0.1c0,0,0,0,0,0c0-0.2-0.1-0.3-0.3-0.3h0
		c0-0.2-0.1-0.3-0.3-0.3c-0.1,0-0.1,0-0.2,0.1L14,52.5l-0.5-1.8l0.6,0.1c0.2,0,0.3-0.1,0.4-0.2l0,0c0-0.1,0-0.2,0-0.3
		c0.1-0.1,0.2-0.3,0.1-0.4c0,0,0,0,0-0.1c0.1,0,0.2-0.2,0.2-0.4c0-0.1-0.1-0.2-0.2-0.2L14.2,49l0-0.2c0-0.1-0.1-0.2-0.2-0.3
		c-0.1,0-0.3,0-0.4,0.2c-0.1-0.1-0.3-0.1-0.4,0l0,0c0,0,0,0-0.1,0c-0.1,0-0.3,0-0.4,0.2c0,0,0,0.1,0,0.1l0.1,0.6l-1.9-0.5l0.4-0.5
		c0.1-0.1,0.1-0.3,0-0.5c0,0,0,0-0.1,0s-0.1,0-0.1,0c0-0.1,0-0.2-0.1-0.2c-0.1,0-0.2-0.1-0.3,0c0-0.2-0.1-0.3-0.3-0.3
		c-0.1,0-0.2,0-0.3,0.1L9.7,48l-0.3,0c-0.2,0-0.3,0.1-0.4,0.3c0,0.1,0,0.2,0.1,0.3c-0.1,0-0.2,0.2-0.2,0.4c0,0,0,0,0,0.1
		c-0.1,0.1-0.2,0.3-0.1,0.4c0,0.1,0.1,0.1,0.2,0.2l0.5,0.1l-1.3,1.3L8,50.5c0-0.2-0.2-0.2-0.4-0.2c-0.1,0-0.1,0.1-0.2,0.2
		c0,0,0,0-0.1,0c-0.1,0-0.3,0-0.4,0.2c-0.1-0.1-0.3-0.1-0.4,0c0,0.1-0.1,0.2,0,0.3l0.1,0.2l-0.2,0.2c-0.1,0.1-0.1,0.3,0,0.5
		c0,0,0.1,0,0.1,0.1c0,0,0.1,0,0.1,0v0c0,0.1,0,0.2,0.1,0.2c0,0,0.1,0.1,0.1,0.1c0,0,0,0,0.1,0c0,0.2,0.1,0.3,0.3,0.3
		c0.1,0,0.2,0,0.2-0.1L8,52.3l0.5,1.9L8,54c-0.2,0-0.3,0.1-0.4,0.3c0,0.1,0,0.2,0,0.2c-0.1,0.1-0.2,0.3-0.1,0.4l0,0
		c-0.1,0.1-0.2,0.3-0.2,0.4c0,0.1,0.1,0.1,0.2,0.2h0l0.2,0l0,0.2c0,0.2,0.2,0.3,0.4,0.2c0.1,0,0.2-0.1,0.2-0.2c0,0,0.1,0,0.1,0.1
		c0.1,0,0.3,0,0.4-0.2c0.1,0.1,0.3,0,0.4-0.1c0-0.1,0.1-0.2,0-0.3L9.4,55l1.8,0.4l-0.4,0.4c-0.1,0.1-0.1,0.3,0,0.5c0,0,0.1,0,0.1,0
		c0,0,0.1,0,0.1,0c0,0.1,0,0.2,0.1,0.2s0.1,0,0.1,0c0,0,0.1,0,0.1,0c0,0,0,0,0,0.1c0,0.2,0.1,0.3,0.3,0.3c0.1,0,0.1,0,0.2-0.1
		l0.2-0.2l0.2,0.1h0c0.2,0,0.3,0,0.4-0.2c0-0.1,0-0.2,0-0.3c0.1,0,0.2-0.2,0.2-0.4c0,0,0,0,0-0.1c0.1-0.1,0.2-0.3,0.1-0.4
		c0-0.1-0.1-0.1-0.2-0.1l-0.6-0.2l1.3-1.4l0.2,0.5c0,0.2,0.2,0.2,0.4,0.2c0.1,0,0.1-0.1,0.2-0.2l0,0c0.1,0.1,0.3,0,0.4-0.1
		c0,0,0,0,0-0.1c0,0,0.1,0,0.1,0c0.2,0,0.3,0,0.4-0.2c0,0,0-0.1,0-0.2L15.3,53.5z M15.3,53.1L15,53.4l0.1,0.4c0,0,0,0.1,0,0.1
		c0,0-0.1,0-0.1,0l0,0l-0.1-0.4l-0.4-0.1l0.2,0.6c0,0,0,0.1,0,0.1c0,0-0.1,0-0.1,0l-0.2-0.8L14,53.2l0.3,0.9c0,0,0,0.1,0,0.1h0
		c0,0,0,0,0,0l-0.3-0.9l-1.8,2l0.9,0.3c0,0,0.1,0,0,0.1c0,0,0,0.1-0.1,0l0,0l0,0L12,55.4l0.1,0.3l0.7,0.2c0,0,0.1,0,0,0.1
		c0,0,0,0.1-0.1,0l0,0l-0.6-0.2l0.1,0.4l0.4,0.1c0,0,0.1,0,0,0.1c0,0,0,0.1-0.1,0l0,0l-0.4-0.1l-0.3,0.3c0,0-0.1,0-0.1,0
		c0,0,0-0.1,0-0.1l0.3-0.3L12,55.9l-0.4,0.5c0,0,0,0-0.1,0h0c0,0,0-0.1,0-0.1l0,0l0.5-0.6l-0.1-0.3l-0.6,0.7c0,0,0,0-0.1,0h0
		c0,0,0-0.1,0-0.1l0,0l0.6-0.7l-2.4-0.6l0.2,0.9c0,0,0,0.1,0,0.1s-0.1,0-0.1,0l0,0l-0.2-1l-0.2,0.3L9,55.7c0,0,0,0.1,0,0.1
		s-0.1,0-0.1,0l0,0l-0.1-0.6l-0.3,0.3l0.1,0.4c0,0,0,0.1,0,0.1l0,0h0c0,0,0,0,0-0.1l-0.1-0.4l-0.4,0l0,0c0,0-0.1,0,0-0.1
		c0,0,0-0.1,0.1-0.1l0,0l0.4,0l0.3-0.3l-0.9,0l0,0c0,0-0.1,0,0-0.1c0,0,0-0.1,0.1-0.1l0,0l0.8,0.1l0.2-0.3l-0.9-0.1l0,0
		c0,0-0.1,0,0-0.1c0,0,0-0.1,0.1-0.1l0,0l0.9,0.1l-0.7-2.6l-0.8,0.7c0,0,0,0-0.1,0c0,0,0,0,0,0c0,0,0-0.1,0-0.1l0.7-0.7l-0.3-0.1
		L7,52.2c0,0-0.1,0-0.1,0c0,0,0-0.1,0-0.1l0,0l0.5-0.5l-0.4-0.1l-0.3,0.3c0,0,0,0-0.1,0h0c0,0,0-0.1,0-0.1l0,0l0.3-0.3L6.6,51
		c0,0,0-0.1,0-0.1c0,0,0.1,0,0.1,0l0.1,0.4l0.4,0.1l-0.2-0.6c0,0,0-0.1,0-0.1s0.1,0,0.1,0l0.2,0.7l0.3,0.1l-0.2-0.9c0,0,0-0.1,0-0.1
		l0,0h0c0,0,0,0,0,0l0.3,1l1.9-2l-0.9-0.2c0,0-0.1,0,0-0.1l0,0c0,0,0-0.1,0.1,0l0,0l0,0l0.9,0.2l-0.1-0.3l-0.7-0.2c0,0-0.1,0,0-0.1
		c0,0,0-0.1,0.1,0l0,0l0.6,0.1l-0.1-0.4l-0.3-0.1l0,0c0,0-0.1,0,0-0.1c0,0,0-0.1,0.1-0.1l0,0l0.4,0.1l0.2-0.3c0,0,0,0,0.1,0
		c0,0,0,0,0,0c0,0,0,0.1,0,0.1l0,0L10,48.3l0.1,0.4l0.4-0.5c0,0,0,0,0.1,0c0,0,0,0,0,0c0,0,0,0.1,0,0.1l0,0L10.1,49l0.1,0.3l0.6-0.8
		c0,0,0,0,0.1,0c0,0,0,0,0,0c0,0,0,0.1,0,0.1l-0.6,0.8l2.5,0.6l-0.1-1c0,0,0-0.1,0.1-0.1h0c0,0,0,0,0,0.1l0.1,1l0.2-0.3L13.2,49
		c0,0,0-0.1,0.1-0.1l0,0h0c0,0,0,0,0,0.1l0.1,0.6l0.3-0.3l0,0l0-0.4c0,0,0-0.1,0.1-0.1l0,0h0c0,0,0,0,0,0.1l0,0.4l0.4,0.1
		c0,0,0.1,0,0,0.1c0,0,0,0.1-0.1,0.1l0,0L14,49.5l-0.3,0.3l0.6,0.1l0,0c0,0,0.1,0,0,0.1c0,0,0,0.1-0.1,0.1l0,0L13.4,50l-0.2,0.2
		l0.9,0.2l0,0c0,0,0.1,0,0,0.1c0,0,0,0.1-0.1,0.1l-0.9-0.2l0.7,2.5l0.7-0.6c0,0,0.1,0,0.1,0c0,0,0,0.1,0,0.1L14,53l0.3,0.1l0.6-0.5
		c0,0,0.1,0,0.1,0c0,0,0,0.1,0,0.1l-0.5,0.4l0.4,0.1l0.3-0.3c0,0,0.1,0,0.1,0C15.4,53,15.4,53.1,15.3,53.1L15.3,53.1z"/>
	<path class="st3" d="M11.6,53.4L11.6,53.4l0.5-0.5l0-0.2l-0.9-0.2l0.2,0.9L11.6,53.4L11.6,53.4z M11.8,52.9l-0.2,0.3l-0.1-0.3
		L11.8,52.9L11.8,52.9z"/>
	<path class="st3" d="M12,51.6L12,51.6l-0.2,0l-0.7,0.7l0.9,0.2l0.1-0.1L12,51.6z M11.6,52.2l0.2-0.2l0.1,0.3L11.6,52.2z"/>
	<path class="st3" d="M10,53l0.2,0l0.6-0.7l-0.9-0.2l-0.1,0.1L10,53L10,53z M10.4,52.5l-0.2,0.2L10,52.5L10.4,52.5L10.4,52.5z"/>
	<path class="st3" d="M9.6,51.7l0.2,0l0.6-0.7l0-0.2l0.1-0.1l-0.3-1.2l-1.8,2l1.1,0.3L9.6,51.7z M9.4,51.6L9.4,51.6l-0.6-0.1
		l1.2-1.3l0.2,0.7l0,0l-0.1,0.1l0,0.1v0l-0.4,0.5H9.4L9.4,51.6z"/>
	<path class="st3" d="M9.8,53.3L9.8,53.3l-0.1-0.9l-0.2,0l0-0.2l-1.1-0.3L9,54.4l0.9-0.9L9.8,53.3z M9.1,53.9l-0.5-1.8l0.6,0.1v0.1
		l0,0.1l0.2,0l0.1,0.6l0,0l-0.1,0.1l0,0.1v0L9.1,53.9z"/>
</g>
<g>
	<path class="st3" d="M123.2,57.3L123.2,57.3l-0.6,0.6l0,0.1l0.9,0.2l-0.2-0.9L123.2,57.3L123.2,57.3z M122.9,57.8l0.2-0.2l0.1,0.3
		L122.9,57.8L122.9,57.8z"/>
	<path class="st3" d="M123.7,58.2l0.7-0.7l0-0.2l0,0l-0.7-0.2l0,0l-0.1,0.2L123.7,58.2z M124.1,57.5l-0.3,0.3l-0.1-0.4L124.1,57.5z"
		/>
	<path class="st3" d="M123.5,56.8l0,0.2l0.8,0.2l0.1-0.1l0.2,0l0.9-0.9l-2.6-0.6l0.3,1.2L123.5,56.8L123.5,56.8z M125.2,56.3
		l-0.5,0.5l-0.2,0l-0.1,0.1l0,0l-0.5-0.1v0l0-0.1l-0.2,0l-0.2-0.7L125.2,56.3L125.2,56.3z"/>
	<path class="st3" d="M123.6,58.6l-0.6,0.7l0,0.2l0,0l0.7,0.2v0l0.1-0.1L123.6,58.6z M123.3,59.3l0.2-0.2l0.1,0.3L123.3,59.3z"/>
	<path class="st3" d="M123.8,59.9l0-0.1l-0.8-0.2l-0.1,0.1l-0.2,0l-0.9,0.9l2.5,0.6l-0.3-1.2H123.8L123.8,59.9z M122.3,60.4l0.5-0.5
		l0.2,0l0.1-0.1l0,0l0.6,0.1l0,0l0,0.1l0.2,0l0.2,0.7L122.3,60.4L122.3,60.4z"/>
	<path class="st3" d="M124.8,57.3l0,0.2l-0.1,0.1l0.2,0.9l0.2,0l0,0.2l1.1,0.3l-0.7-2.6L124.8,57.3z M125.4,58.5L125.4,58.5l0-0.2
		l-0.2,0l-0.1-0.6l0,0l0.1-0.1l0-0.1v0l0.5-0.5l0.5,1.8L125.4,58.5L125.4,58.5z"/>
	<path class="st3" d="M125.1,59l-0.2,0l-0.6,0.6l0,0.1l-0.1,0.1l0.3,1.2l1.8-2l-1.1-0.3L125.1,59z M125.2,59.2L125.2,59.2l0.7,0.1
		l-1.3,1.4l-0.2-0.7l0,0l0.1-0.1l0-0.1v0l0.4-0.4l0.2,0L125.2,59.2z"/>
	<path class="st3" d="M128,59.5l0.2-0.2c0.1-0.1,0.1-0.3,0-0.5c0-0.1-0.2-0.1-0.3-0.1c0,0,0,0,0,0c0-0.2-0.1-0.3-0.3-0.3h0
		c0-0.2-0.1-0.3-0.3-0.3c-0.1,0-0.1,0-0.2,0.1l-0.4,0.4l-0.5-1.8l0.6,0.1c0.2,0,0.3-0.1,0.4-0.2l0,0c0-0.1,0-0.2,0-0.3
		c0.1-0.1,0.2-0.3,0.1-0.4c0,0,0,0,0-0.1c0.1,0,0.2-0.2,0.2-0.4c0-0.1-0.1-0.2-0.2-0.2l-0.3-0.1l0-0.2c0-0.1-0.1-0.2-0.2-0.3
		c-0.1,0-0.3,0-0.4,0.2c-0.1-0.1-0.3-0.1-0.4,0l0,0c0,0,0,0-0.1,0c-0.1,0-0.3,0-0.4,0.2c0,0,0,0.1,0,0.1l0.1,0.6l-1.9-0.5l0.4-0.5
		c0.1-0.1,0.1-0.3,0-0.5c0,0,0,0-0.1,0s-0.1,0-0.1,0c0-0.1,0-0.2-0.1-0.2c-0.1,0-0.2-0.1-0.3,0c0-0.2-0.1-0.3-0.3-0.3
		c-0.1,0-0.2,0-0.3,0.1l-0.1,0.2l-0.3,0c-0.2,0-0.3,0.1-0.4,0.3c0,0.1,0,0.2,0.1,0.3c-0.1,0-0.2,0.2-0.2,0.4c0,0,0,0,0,0.1
		c-0.1,0.1-0.2,0.3-0.1,0.4c0,0.1,0.1,0.1,0.2,0.2l0.5,0.1l-1.3,1.3l-0.2-0.6c0-0.2-0.2-0.2-0.4-0.2c-0.1,0-0.1,0.1-0.2,0.2
		c0,0,0,0-0.1,0c-0.1,0-0.3,0-0.4,0.2c-0.1-0.1-0.3-0.1-0.4,0c0,0.1-0.1,0.2,0,0.3l0.1,0.2l-0.2,0.2c-0.1,0.1-0.1,0.3,0,0.5
		c0,0,0.1,0,0.1,0.1c0,0,0.1,0,0.1,0v0c0,0.1,0,0.2,0.1,0.2s0.1,0.1,0.1,0.1c0,0,0,0,0.1,0c0,0.2,0.1,0.3,0.3,0.3
		c0.1,0,0.2,0,0.2-0.1l0.5-0.5l0.5,1.9l-0.5-0.1c-0.2,0-0.3,0.1-0.4,0.3c0,0.1,0,0.2,0,0.2c-0.1,0.1-0.2,0.3-0.1,0.4l0,0
		c-0.1,0.1-0.2,0.3-0.2,0.4c0,0.1,0.1,0.1,0.2,0.2h0l0.2,0l0,0.2c0,0.2,0.2,0.3,0.4,0.2c0.1,0,0.2-0.1,0.2-0.2c0,0,0.1,0,0.1,0.1
		c0.1,0,0.3,0,0.4-0.2c0.1,0.1,0.3,0,0.4-0.1c0-0.1,0.1-0.2,0-0.3l-0.1-0.4l1.8,0.4l-0.4,0.4c-0.1,0.1-0.1,0.3,0,0.5
		c0,0,0.1,0,0.1,0s0.1,0,0.1,0c0,0.1,0,0.2,0.1,0.2s0.1,0,0.1,0c0,0,0.1,0,0.1,0c0,0,0,0,0,0.1c0,0.2,0.1,0.3,0.3,0.3
		c0.1,0,0.1,0,0.2-0.1l0.2-0.2l0.2,0.1h0c0.2,0,0.3,0,0.4-0.2c0-0.1,0-0.2,0-0.3c0.1,0,0.2-0.2,0.2-0.4c0,0,0,0,0-0.1
		c0.1-0.1,0.2-0.3,0.1-0.4c0-0.1-0.1-0.1-0.2-0.1l-0.6-0.2l1.3-1.4l0.2,0.5c0,0.2,0.2,0.2,0.4,0.2c0.1,0,0.1-0.1,0.2-0.2l0,0
		c0.1,0.1,0.3,0,0.4-0.1c0,0,0,0,0-0.1c0,0,0.1,0,0.1,0c0.2,0,0.3,0,0.4-0.2c0,0,0-0.1,0-0.2L128,59.5z M128,59.1l-0.3,0.3l0.1,0.4
		c0,0,0,0.1,0,0.1c0,0-0.1,0-0.1,0l0,0l-0.1-0.4l-0.4-0.1l0.2,0.6c0,0,0,0.1,0,0.1c0,0-0.1,0-0.1,0l-0.2-0.8l-0.3-0.1l0.3,0.9
		c0,0,0,0.1,0,0.1h0c0,0,0,0,0,0l-0.3-0.9l-1.8,2l0.9,0.3c0,0,0.1,0,0,0.1c0,0,0,0.1-0.1,0l0,0l0,0l-0.9-0.3l0.1,0.3l0.7,0.2
		c0,0,0.1,0,0,0.1c0,0,0,0.1-0.1,0l0,0l-0.6-0.2l0.1,0.4l0.4,0.1c0,0,0.1,0,0,0.1c0,0,0,0.1-0.1,0l0,0l-0.4-0.1l-0.3,0.3
		c0,0-0.1,0-0.1,0s0-0.1,0-0.1l0.3-0.3l-0.1-0.4l-0.4,0.5c0,0,0,0-0.1,0h0c0,0,0-0.1,0-0.1l0,0l0.5-0.6l-0.1-0.3l-0.6,0.7
		c0,0,0,0-0.1,0h0c0,0,0-0.1,0-0.1l0,0l0.6-0.7l-2.4-0.6l0.2,0.9c0,0,0,0.1,0,0.1s-0.1,0-0.1,0l0,0l-0.2-1l-0.2,0.3l0.1,0.8
		c0,0,0,0.1,0,0.1s-0.1,0-0.1,0l0,0l-0.1-0.6l-0.3,0.3l0.1,0.4c0,0,0,0.1,0,0.1l0,0h0c0,0,0,0,0-0.1l-0.1-0.4l-0.4,0l0,0
		c0,0-0.1,0,0-0.1c0,0,0-0.1,0.1-0.1l0,0l0.4,0l0.3-0.3l-0.9,0l0,0c0,0-0.1,0,0-0.1c0,0,0-0.1,0.1-0.1l0,0l0.8,0.1l0.2-0.3l-0.9-0.1
		l0,0c0,0-0.1,0,0-0.1c0,0,0-0.1,0.1-0.1l0,0l0.9,0.1l-0.7-2.6l-0.8,0.7c0,0,0,0-0.1,0c0,0,0,0,0,0c0,0,0-0.1,0-0.1l0.7-0.7
		l-0.3-0.1l-0.6,0.6c0,0-0.1,0-0.1,0s0-0.1,0-0.1l0,0l0.5-0.5l-0.4-0.1l-0.3,0.3c0,0,0,0-0.1,0h0c0,0,0-0.1,0-0.1l0,0l0.3-0.3
		l-0.1-0.4c0,0,0-0.1,0-0.1c0,0,0.1,0,0.1,0l0.1,0.4l0.4,0.1l-0.2-0.6c0,0,0-0.1,0-0.1s0.1,0,0.1,0l0.2,0.7l0.3,0.1l-0.2-0.9
		c0,0,0-0.1,0-0.1l0,0h0c0,0,0,0,0,0l0.3,1l1.9-2l-0.9-0.2c0,0-0.1,0,0-0.1l0,0c0,0,0-0.1,0.1,0l0,0l0,0l0.9,0.2l-0.1-0.3l-0.7-0.2
		c0,0-0.1,0,0-0.1c0,0,0-0.1,0.1,0l0,0l0.6,0.1l-0.1-0.4l-0.3-0.1l0,0c0,0-0.1,0,0-0.1c0,0,0-0.1,0.1-0.1l0,0l0.4,0.1l0.2-0.3
		c0,0,0,0,0.1,0c0,0,0,0,0,0c0,0,0,0.1,0,0.1l0,0l-0.3,0.4l0.1,0.4l0.4-0.5c0,0,0,0,0.1,0c0,0,0,0,0,0c0,0,0,0.1,0,0.1l0,0l-0.5,0.7
		l0.1,0.3l0.6-0.8c0,0,0,0,0.1,0c0,0,0,0,0,0c0,0,0,0.1,0,0.1l-0.6,0.8l2.5,0.6l-0.1-1c0,0,0-0.1,0.1-0.1h0c0,0,0,0,0,0.1l0.1,1
		l0.2-0.3l-0.1-0.8c0,0,0-0.1,0.1-0.1l0,0h0c0,0,0,0,0,0.1l0.1,0.6l0.3-0.3l0,0l0-0.4c0,0,0-0.1,0.1-0.1l0,0h0c0,0,0,0,0,0.1l0,0.4
		l0.4,0.1c0,0,0.1,0,0,0.1c0,0,0,0.1-0.1,0.1l0,0l-0.4-0.1l-0.3,0.3l0.6,0.1l0,0c0,0,0.1,0,0,0.1c0,0,0,0.1-0.1,0.1l0,0l-0.8-0.2
		l-0.2,0.2l0.9,0.2l0,0c0,0,0.1,0,0,0.1c0,0,0,0.1-0.1,0.1l-0.9-0.2l0.7,2.5l0.7-0.6c0,0,0.1,0,0.1,0c0,0,0,0.1,0,0.1l-0.7,0.6
		l0.3,0.1l0.6-0.5c0,0,0.1,0,0.1,0s0,0.1,0,0.1l-0.5,0.4l0.4,0.1L128,59c0,0,0.1,0,0.1,0C128.1,59,128.1,59.1,128,59.1L128,59.1z"/>
	<path class="st3" d="M124.3,59.4L124.3,59.4l0.5-0.5l0-0.2l-0.9-0.2l0.2,0.9L124.3,59.4L124.3,59.4z M124.5,58.9l-0.2,0.3l-0.1-0.3
		L124.5,58.9L124.5,58.9z"/>
	<path class="st3" d="M124.7,57.6L124.7,57.6l-0.2,0l-0.7,0.7l0.9,0.2l0.1-0.1L124.7,57.6z M124.3,58.2l0.2-0.2l0.1,0.3L124.3,58.2z
		"/>
	<path class="st3" d="M122.7,59l0.2,0l0.6-0.7l-0.9-0.2l-0.1,0.1L122.7,59L122.7,59z M123.1,58.5l-0.2,0.2l-0.1-0.3L123.1,58.5
		L123.1,58.5z"/>
	<path class="st3" d="M122.3,57.7l0.2,0l0.6-0.7l0-0.2l0.1-0.1l-0.3-1.2l-1.8,2l1.1,0.3L122.3,57.7z M122.1,57.6L122.1,57.6
		l-0.6-0.1l1.2-1.3l0.2,0.7l0,0l-0.1,0.1l0,0.1v0l-0.4,0.5H122.1L122.1,57.6z"/>
	<path class="st3" d="M122.5,59.3L122.5,59.3l-0.1-0.9l-0.2,0l0-0.2l-1.1-0.3l0.7,2.6l0.9-0.9L122.5,59.3z M121.8,59.9l-0.5-1.8
		l0.6,0.1v0.1l0,0.1l0.2,0l0.1,0.6l0,0l-0.1,0.1l0,0.1v0L121.8,59.9z"/>
</g>
</svg>
