<?xml version="1.0" encoding="utf-8"?>
<!-- Generator: Adobe Illustrator 19.2.1, SVG Export Plug-In . SVG Version: 6.00 Build 0)  -->
<svg version="1.1" id="Capa_1" xmlns="http://www.w3.org/2000/svg" xmlns:xlink="http://www.w3.org/1999/xlink" x="0px" y="0px"
	 viewBox="0 0 299.7 309.1" style="enable-background:new 0 0 299.7 309.1;" xml:space="preserve">
<style type="text/css">
	.st0{fill:#02BC0F;}
	.st1{fill:#09D80E;}
	.st2{fill:#F9DCDC;}
	.st3{fill:#F7C1C1;}
	.st4{fill:#E8C2D8;}
	.st5{fill:#B1B6E1;}
	.st6{fill:#D789B9;}
	.st7{fill:#F6E06E;}
	.st8{fill:#3C122C;}
	.st9{fill:#FFFFFF;}
</style>
<title>unicornio-r</title>
<path class="st0" d="M146.8,195.9L132.5,62.3c-53-24.3-39.1,50.3-39.1,50.3c-55.1-22.8-43.8,32.6-43.8,32.6s-27.9,6.8-30.9,48.4
	s27,51.3,27,51.3s-14.8,10.2-12.2,29S58.1,303,58.1,303L146.8,195.9z"/>
<path class="st1" d="M34.2,275.4c3.1,19.5,26.8,29.8,26.8,29.8l62.2-75.9c-2.8,0.8-12.7-19.9-14.8-17.8
	c-39.7,39.5-85.2,17.9-83-44.4c-1.9,5.7-7.9,16.9-8.4,24.7c-2.6,43.6,29.7,52.9,29.7,52.9S31.1,255.8,34.2,275.4z"/>
<path class="st2" d="M214.6,302.9c0-13-3.7-37.9-9.5-57.2l1.5-0.7c9.9-1.9,27.1-8.9,36.4-17.6c10.6-9.9,17.2-22.2,18.2-36.8
	c1.2-17.7-8.6-34.8-26.7-44.3c0,0-8.3-19.1-17.7-32.1c-5.2-7-11.6-13-19-17.7c2.8-4.1,4.6-8.7,5.4-13.5c2.9-16.6-10.5-37-15.7-37.9
	s-24.7,13.7-27.6,30.4c-0.7,3.8-0.8,7.8-0.2,11.6c-2.7,0.3-5.5,0.9-8.1,1.6L115,99c-5.2,1.5-10.2,3.6-14.9,6.4
	c-0.3-0.6-0.7-1.1-1.1-1.7c-9.7-14-33.8-19.1-38.2-16.1s-8,27.4,1.7,41.4c2.7,4.1,6.4,7.6,10.6,10.1c-3.9,11.7-4.1,24.2-0.8,36.1
	l10.3,34.2c4.8,17.3,10.1,28.1,16.8,37.6v-0.1c-16.6,12.5-30.9,31.6-40,56"/>
<path class="st3" d="M99,246.9L99,246.9c-16.6,12.5-30.8,31.6-39.9,55.9h155c0-4-0.2-7.9-0.8-11.9l-90,2c-2.1,0.1-4.2-0.2-6.2-0.9
	c-7.7-2.9-11.7-11.6-8.7-19.3c3.3-9.1,7.9-17.6,13.6-25.4c3.9-5.3,4.2-12.4,0.7-17.9c-4.9-8.2-9.1-16.8-12.4-25.7l-13.1-32.2
	c-4.3-11-5.7-22.9-3.9-34.6c-4-2.3-7.5-5.4-10.3-9.1c-9.6-12.3-10-34.2-7.2-38.9c-7.1-2.1-13.3-2.5-15.3-1.1c-4.4,3-8,27.4,1.7,41.4
	c2.7,4.1,6.4,7.6,10.6,10.1c-3.9,11.7-4.1,24.2-0.8,36.1l10.3,34.2C87.1,226.6,92.3,237.4,99,246.9L99,246.9z"/>
<path class="st4" d="M163.9,111c0-3.8,0.6-11.9-5.5-18.9c1.1-8.6-1.1-17.2-6.1-24.3c1.8-8.9-0.5-16.5-5.9-23.2
	c-0.5-10-4-21.8-8.6-34.3c-0.2-0.9-1-1.5-1.9-1.6c-1.2-0.1-2.3,0.7-2.4,2c-3,16.3-4.7,31.5-4.6,45.3c-5.7,7.5-6.1,17.3-2.9,28.9
	c-5.1,9-5.6,18.8-3,29.2c0,0.3,0.1,0.6,0.1,0.8C125.7,126.8,163.2,123.9,163.9,111z"/>
<path class="st5" d="M123,114.9L123,114.9c2.6,12,40.1,9,40.8-3.9c0-3.5,0.5-10.7-4.2-17.3c0,0.9,0,1.6,0,2.3
	c-0.7,11-33.7,13.8-35.9,3.6c-0.1-0.2-0.1-0.5-0.1-0.7c-0.5-2-0.9-4-1.1-6c-1.8,6.7-1.5,13.8,0.3,21.2
	C122.9,114.3,123,114.6,123,114.9L123,114.9z"/>
<path class="st0" d="M215.6,99.7L215.6,99.7c1.7,0.4,3.1,1.5,4.1,2.9c2.1,3.2,1.2,7.6-2,9.7c-10.7,6.8-24.8,15.4-31.4,17.6
	c-12.4,4.2-26,1.7-36.1-6.6c-1.7-1.4-3.2-3-4.5-4.7c-9.6-12.7-7.1-30.8,5.6-40.5s30.8-7.1,40.5,5.6C197.5,91.6,206,97.3,215.6,99.7
	L215.6,99.7z"/>
<path class="st1" d="M146.4,82.6c-10.2,12.3-8.6,30.5,3.7,40.7c10.1,8.3,23.8,10.8,36.1,6.6c6.6-2.2,20.8-10.8,31.4-17.6
	c1.4-1,2.5-2.4,2.9-4.1c1-3.7-1.3-7.6-5-8.5c-9.6-2.4-18-8.1-23.9-16c-0.9-1.2-1.9-2.3-2.9-3.3C177.3,69.3,159,69.5,147.9,81
	C147.4,81.5,146.9,82,146.4,82.6z M154.3,107.7c-7.6-9.3-5.5-23.4,4.7-30.5c8.5-6,20.2-4.9,27.4,2.6c1.4,1.5,2.6,3.3,3.5,5.1
	c3,6.5,8.2,11.6,14.7,14.6c1.2,0.6,2.1,1.6,2.6,2.8c1,2.6-0.4,5.5-3,6.5c-8.7,3.4-20.1,7.8-25.1,8.4
	C169.8,118.6,160.4,115,154.3,107.7L154.3,107.7z"/>
<path class="st6" d="M161.3,194L161.3,194c-2.2-1.7-2.7-4.9-1-7.1c1.7-2.3,4.9-2.9,7.3-1.2c2.4,1.7,6.7,7.9,5,10.2
	S163.7,195.7,161.3,194L161.3,194z"/>
<path class="st7" d="M282.9,81.8L296,89l-13.1,7.2l-7.1,13.1l-7.1-13.1L255.6,89l13.1-7.1l7.1-13.1L282.9,81.8z"/>
<circle class="st6" cx="260.2" cy="37.4" r="7.5"/>
<path class="st4" d="M72.9,22.8L72.9,22.8c0-3.2,2.6-5.8,5.8-5.8c3.2,0,5.8,2.6,5.8,5.8s-2.6,5.8-5.8,5.8
	C75.4,28.6,72.8,26,72.9,22.8L72.9,22.8z"/>
<path class="st8" d="M26.8,239.1L26.8,239.1c2.6,2.8,5.6,5.3,8.8,7.4c-6.5,7.9-9.4,18.2-7.9,28.3c3.1,21.8,27.1,33.3,28.1,33.8
	c1.1,0.5,2.4,0.7,3.6,0.5h0.5c2.6,0,4.9-1.6,5.8-4c8.2-22,20.9-40.1,36.9-52.5c2.2-1.1,3.5-3.3,3.4-5.8v-0.1c-0.1-1.5-0.7-2.9-1.7-4
	c-6.5-9.5-11.1-20-15.3-34.9v-0.1l-10.3-34.1c-3-10.6-2.8-21.9,0.7-32.4c0.9-2.8-0.3-5.8-2.8-7.3c-3.4-2.1-6.4-4.9-8.6-8.3
	c-7.1-10.2-5.4-27.8-3.1-32.6c5.1-0.5,22.1,4,29.2,14.2c0.3,0.4,0.6,0.9,0.9,1.4c1.8,2.8,5.5,3.7,8.4,2c4.2-2.5,8.7-4.5,13.4-5.8
	l1.1-0.3c0.2,3.4,0.7,6.8,1.5,10.1c0,0.2,0.1,0.5,0.1,0.7c0,0.1,0,0.1,0,0.2l0,0v0.1v0.1c1.8,7.6,11.6,10.2,20.7,10.2
	c1.3,0,2.6-0.1,3.9-0.2c1-0.1,2-0.2,3-0.3l0.6,0.5c7.4,6.1,16.6,9.5,26.2,9.4c4.6,0,9.1-0.7,13.4-2.2c4.8-1.6,13.4-6.2,25.8-13.9
	c8.4,12.3,15.7,29,15.8,29.2c0.6,1.3,1.6,2.4,2.8,3c15.5,8.1,24.5,22.8,23.4,38.4c-0.8,12.5-6.3,23.5-16.3,32.7
	c-8.6,7.9-24.9,14.4-33.4,16.1c-0.5,0.1-1,0.3-1.5,0.5l-1.5,0.7c-2.7,1.3-4.1,4.4-3.2,7.3c5.8,19.3,9.3,43.4,9.3,55.4l0,0
	c0,3.4,2.7,6.1,6.1,6.1l0,0c3.4,0,6.1-2.7,6.1-6c0-11.7-3-33.8-8.1-53.1c10.3-2.9,25.4-9.4,34.6-18c12.3-11.4,19.1-25.2,20.1-40.9
	c1.4-19.9-9.4-38.5-28.1-49.1c-2.3-5.1-8.8-18.9-16.3-29.8c0.6-1,1-2,1.3-3.1c1.4-5.7-2.1-11.5-7.8-12.9c-3.3-0.8-6.5-2.1-9.4-3.7
	c1.1-2.7,1.8-5.5,2.3-8.4c2-11.5-2.5-22.9-5.4-28.6c-1.8-3.5-8-15.1-15.3-16.3s-17.1,7.5-19.9,10.2c-3.7,3.6-7,7.6-9.7,12
	c-0.2-6.8-2.5-13.3-6.5-18.7c-0.7-8.9-3.5-19.5-8.8-34c-1-3-3.6-5.2-6.7-5.7c-4.6-0.7-8.8,2.4-9.5,7c-2.7,14.1-4.3,28.4-4.7,42.7
	c-9.9-2.3-18-1-24.4,4C90,63,86.8,74.7,85.9,85.9c-2-0.9-4-1.7-6-2.4c-3.8-1.3-16.5-5.1-22.6-0.9s-7,17.5-7.1,21.5
	c0,1.5,0,3.3,0.1,5.3c-8.3,9.4-8.2,24.1-7.4,31.9c-9.3,4.4-27.7,17.3-30.3,51.9c-1.7,23.7,6.7,38.1,14,45.9H26.8z M140.4,45.5
	l-5.3,3.7c0.2-6.7,0.9-13.9,1.9-21.7c1.7,5.7,2.8,11.6,3.3,17.5c0,0,0,0,0,0.1S140.3,45.3,140.4,45.5
	C140.4,45.4,140.4,45.5,140.4,45.5z M144,51.9L144,51.9c2.6,4.5,3.4,9.7,2.3,14.7c-0.1,0.3-0.1,0.7-0.1,1l-13.7,9.6
	c-2.2-8.3-1.8-13.5,1.3-17.5l0.1-0.2l0.2-0.3l0.1-0.2l0.2-0.3v-0.1L144,51.9L144,51.9z M186.5,51.3c4.1,3.4,12.9,18.4,10.8,30.5
	c-0.1,0.8-0.3,1.5-0.5,2.3c-0.8-0.8-1.5-1.7-2.2-2.6c-2-2.6-4.3-4.9-7-6.8c-5.5-3.9-12-6.1-18.8-6.1
	C173.7,59.8,182.6,52.8,186.5,51.3L186.5,51.3z M152.4,120.4L152.4,120.4c-5.4-4.5-8.6-11-9-18c-0.3-5.7,1.4-11.4,4.7-16.1
	c8.1-11.3,23.9-13.9,35.2-5.7c2,1.5,3.9,3.2,5.4,5.3c6.4,8.6,15.6,14.7,26,17.4c0.8,0.2,1.5,0.7,2,1.4c1,1.5,0.5,3.5-1,4.5
	c-14.9,9.5-25.7,15.6-30.6,17.2C173.9,130.2,161.6,128,152.4,120.4L152.4,120.4z M141.2,118.7c-6,0.1-10.8-1.1-13.1-2.7l9.2-5.9
	C138.2,113.1,139.5,116,141.2,118.7L141.2,118.7z M125.6,108.8L125.6,108.8c-1.2-7.3-0.5-13.7,2.2-19.6c0.3-0.1,0.5-0.2,0.8-0.4
	l21.8-15.2l0.5,0.1c-9.5,6.2-15.2,16.9-14.8,28.3L125.6,108.8L125.6,108.8z M101.9,97.4c-1.2-1.4-2.6-2.7-4-4
	c0-10.7,1.7-22.5,8-27.4c3.1-2.4,7.5-3.1,13.1-1.9c-1,6.9,0.7,13.8,2.5,19.7c0.1,0.2,0.2,0.5,0.3,0.7c-1.1,2.2-2,4.5-2.7,6.8
	l-5.8,1.7C109.4,94.2,105.6,95.6,101.9,97.4L101.9,97.4z M47.6,239.1L47.6,239.1c-1-0.4-25.4-9-22.7-45
	c2.7-36.3,25.3-42.6,26.3-42.9c3.2-0.8,5.2-4,4.5-7.2c-0.9-5-1.1-10.2-0.5-15.3c0.7,1.3,1.5,2.6,2.3,3.9c2.4,3.5,5.2,6.5,8.5,9.1
	c-2.9,11.6-2.8,23.7,0.5,35.2v0.1l10.3,34.1c4,14.3,8.4,25,14.4,34.5c-14.7,12.4-26.7,29.2-35.1,49.1C50.3,291,41,283.4,39.5,273
	c-2.1-14.6,9.2-22.8,9.6-23.1c1.1-0.8,1.9-1.9,2.3-3.2C52.6,243.5,50.8,240.1,47.6,239.1L47.6,239.1z"/>
<path class="st9" d="M181,100.6L181,100.6c-1.7,0-3.4-0.7-4.5-2c-4.7-5.2-9.8-5.3-10-5.3c0,0-7-0.6-6.5-6.6s6.5-5.7,6.5-5.7
	c1.1,0,10.7,0.1,19.1,9.3c1,1.1,1.6,2.6,1.6,4.2C187.1,97.8,184.4,100.5,181,100.6L181,100.6z"/>
<ellipse transform="matrix(0.9995 -3.297928e-002 3.297928e-002 0.9995 -5.0843 6.7643)" class="st8" cx="202.5" cy="157.5" rx="7.6" ry="7.6"/>
<path class="st8" d="M138,187.9L138,187.9c-1,0-2-0.4-2.7-1.2c-1.4-1.5-1.3-3.8,0.2-5.2c2.1-1.9,4.1-4.6,4.5-5.8
	c-1.9-1.3-4-2.2-6.2-2.7c-2-0.5-3.2-2.5-2.7-4.5s2.5-3.2,4.5-2.7c3.4,0.9,11.5,3.5,11.8,9.1c0.3,5-5.3,10.4-7,12
	C139.8,187.6,138.9,188,138,187.9L138,187.9z"/>
<path class="st8" d="M157.4,184.6L157.4,184.6c-2.9,3.9-2.1,9.5,1.8,12.4c3.2,2.1,6.9,3.3,10.7,3.5c0.6,0,1.3-0.1,1.9-0.2
	c0.4,0.3,0.8,0.6,1.3,0.9c2.1,1.3,4.4,2,6.9,2c1.1,0,2.3-0.2,3.4-0.5c3.5-1,6.4-3.4,8-6.6c1.6-3.2,2-7,1-10.5
	c-0.6-2-2.6-3.1-4.6-2.6c-2,0.6-3.1,2.6-2.6,4.6c0.5,1.7,0.3,3.6-0.5,5.2c-0.1,0.2-0.2,0.5-0.4,0.7c-1.6,2.5-5,3.1-7.4,1.5l-0.4-0.3
	c-0.1-2.1-0.7-4.2-1.8-6c-1.3-2.3-3-4.3-5-6C165.9,179.8,160.3,180.6,157.4,184.6L157.4,184.6z M163.6,191.1L163.6,191.1
	c-0.6-0.5-0.7-1.3-0.3-2c0.5-0.7,1.4-0.9,2.1-0.5c1.4,1.2,2.5,2.7,3.4,4.4C166.9,192.7,165.2,192.1,163.6,191.1L163.6,191.1z"/>
<path class="st8" d="M272.5,111l-6.6-12.1l-12.1-6.6c-0.6-0.3-1.1-0.9-1.5-1.5c-1-1.8-0.3-4,1.5-5l12.1-6.6l6.6-12.1
	c0.3-0.6,0.9-1.1,1.5-1.5c1.8-1,4-0.3,5,1.5l6.6,12.1l12.1,6.6c0.6,0.3,1.1,0.9,1.5,1.5c1,1.8,0.3,4-1.5,5l-12.1,6.6L279,111
	c-0.6,1.2-1.9,1.9-3.2,1.9C274.4,112.9,273.2,112.2,272.5,111z M281.1,85.1c-0.6-0.3-1.1-0.9-1.5-1.5l-3.9-7.2l-3.9,7.1
	c-0.3,0.6-0.8,1.1-1.5,1.5l-7.2,3.9l7.1,4c0.6,0.3,1.1,0.8,1.5,1.4l3.9,7.2l3.9-7.2c0.3-0.6,0.9-1.1,1.5-1.4l7.2-4L281.1,85.1z"/>
<path class="st8" d="M244.3,125.1c-2.6-2.2-2.9-6.1-0.7-8.7l9.1-10.8l0,0c2.2-2.6,6.1-2.9,8.7-0.7c2.6,2.2,2.9,6.1,0.7,8.7
	l-9.1,10.8c-1.2,1.4-2.9,2.2-4.7,2.2C246.8,126.6,245.4,126.1,244.3,125.1z"/>
<polygon class="st4" points="16.2,89.2 24.8,90.4 18.6,95.9 20.1,103.7 12.4,100 4.7,103.7 6.2,95.9 0,90.4 8.6,89.2 12.4,82.1 "/>
<polygon class="st4" points="201.3,7.1 209.9,8.2 203.7,13.8 205.2,21.6 197.5,17.9 189.8,21.6 191.3,13.8 185.1,8.2 193.6,7.1 
	197.5,0 "/>
<path class="st6" d="M51.1,57.5l14.7,1.7l1.4-13.5c0.1-0.2,0.1-0.4,0.1-0.6l0,0c0.1-1.7-0.6-3.3-1.9-4.4c-2.2-1.9-5.3-2.1-7.8-0.7
	c-2.5,1.3-3.6,4.3-2.5,6.9c-2.6-1.4-5.7-1.1-7.9,0.9c-2,1.8-2.3,4.9-0.7,7.1c1,1.4,2.6,2.4,4.4,2.6H51.1z"/>
<path class="st4" d="M230.7,65.4l0.1,0.2v0.1L237,78l13.3-6l0.6-0.3l0,0c1.5-0.8,2.7-2.1,3.1-3.8c0.5-2.7-0.9-5.4-3.5-6.4
	c-2.7-1.2-5.8-0.5-7.7,1.7c-0.1-2.9-2.2-5.2-5-5.7c-2.8-0.6-5.6,0.7-7,3.2C230,62.2,229.9,63.9,230.7,65.4L230.7,65.4z"/>
</svg>
