<?xml version="1.0" encoding="utf-8"?>
<!-- Generator: Adobe Illustrator 19.2.1, SVG Export Plug-In . SVG Version: 6.00 Build 0)  -->
<svg version="1.1" id="Capa_1" xmlns="http://www.w3.org/2000/svg" xmlns:xlink="http://www.w3.org/1999/xlink" x="0px" y="0px"
	 viewBox="0 0 326.5 307.2" style="enable-background:new 0 0 326.5 307.2;" xml:space="preserve">
<style type="text/css">
	.st0{fill:#DDDD05;}
	.st1{fill:#F9F32B;}
	.st2{fill:#F9DCDC;}
	.st3{fill:#F7C1C1;}
	.st4{fill:#E8C2D8;}
	.st5{fill:#D392D8;}
	.st6{fill:#D789B9;}
	.st7{fill:#3C122C;}
	.st8{fill:#FFFFFF;}
</style>
<g>
	<g>
		<path class="st0" d="M36.3,300.5c0,0-23.7-13.8-23.7-33.4c0-19.7,18.8-28,18.8-28s-33.2-14.2-22.8-56.6
			c10.4-42.3,43.6-45.2,43.6-45.2s-4.1-58.6,55.9-27.1c0,0-3.8-78.7,53.5-46l-5.3,139.3L36.3,300.5z"/>
		<path class="st1" d="M31.2,239.9c0,0-28.5-13.1-24.2-39.8c3.2,12.3,29.9,57.4,83.9-6c2-2.4,21.9,43,25.1,42.7l-79.9,64.6
			c0,0-23.7-13.8-23.7-33.4S31.2,239.9,31.2,239.9L31.2,239.9z"/>
		<path class="st2" d="M36.3,300.7c7.9-26.1,22-53.4,44.5-70c-4.2-10.9-6.5-22.7-6.5-40.5l-0.7-35.5c0-12.7,4.2-24.5,11.5-34.3
			c-3.3-3.1-6.1-7.2-8.1-12.5c-6-16,5-38.3,10.5-40s29.2,9.7,35.2,25.7c0.2,0.6,0.4,1.3,0.6,1.9c5.6-1.4,11.5-2.1,17.5-2.1h41.5
			c3.1,0,6.1,0.2,8.9,0.6c0.4-3.5,1.6-7.2,3.6-11.1c7.9-15.1,32.7-23.8,37.9-21.5c5.1,2.3,13.2,25.3,5.2,40.4
			c-2.6,5-5.9,8.8-9.6,11.5c7.3,7.6,12.1,15.8,14.6,22.1c6,15,9,35.5,9,35.5c16.2,13.9,21.3,33,14.9,49.5
			c-5.3,13.7-15.9,23.7-29.9,30.3c-12.3,5.8-32.4,7.9-43.3,7c6.1,12.2,9.3,29.9,11.5,43H36.3L36.3,300.7z"/>
		<path class="st3" d="M252.6,165.7c0,0-0.9-29.5-11.1-42.4c-4.2-5.4,3.4-12.7-5.9-18.2c2.7-3.5,4.8-8,5.8-13.4
			c3.1-16.5-3.8-35.3-9.4-36.1c-2.5-0.4-8.1,2.3-13.9,6.8c0.4,0,0.8,0,1.1,0c5,1,9.6,18.4,6,33.2c-1.2,4.9-3.3,8.9-5.9,11.9
			c8.1,5.3-0.5,12.3,3.1,17.3c8.6,12.1,9.2,44.4,9.2,44.4c15.8,14,15.2,26.5,13.3,34.5c-3,12.8-9.1,22.1-22.2,29.5
			c-9.3,5.2-24.1,5.5-32.6,8.4c-6.6,2.3-12.3,5.8-11.8,12.4c0.4,5.9,0.7,10.4,0.2,18.7c-0.5,7.7-7.2,14.3-15.7,13.9l-117.6-0.3
			c-4.4,6.8-4,6.3-7.3,14.3h168.6c0-12.9-2.2-24-8.5-43.1l1.7-0.7c10.8-1.9,39.9-6.7,50.1-15.3c11.6-9.8,17.2-19.9,19.9-34.2
			C272,194.6,271.2,182.5,252.6,165.7L252.6,165.7z"/>
		<path class="st4" d="M143.2,103.6c0-0.3,0.1-0.5,0.1-0.8c0.4-10.6,4-19.9,12.1-27c0.2-11.9,3.7-21.2,11.9-26.7
			c4.2-13.2,10.6-27.2,18.7-41.9c1-2.3,4.7-1.5,4.6,0.9c1,13.2,1.1,25.5-1.5,35.1c3.5,7.8,3.5,15.7-1,23.7
			c2.8,7.9,2.9,16.2-1.1,24.8c4.2,8.3,1.1,15.9-0.1,19.5C182.3,123.5,142.2,115.7,143.2,103.6L143.2,103.6z"/>
		<path class="st5" d="M143.2,103.6c0-0.3,0.1-0.5,0.1-0.8c0.3-7.6,2.2-14.4,6.1-20.3c-0.4,1.9-0.6,4-0.7,6.1
			c-0.1,0.2-0.1,0.5-0.1,0.7c-0.9,10.3,34.4,16.9,38.6,6.6c0.2-0.6,0.5-1.3,0.7-2.1c2.9,7.6,0.1,14.3-0.9,17.6
			C182.3,123.5,142.2,115.7,143.2,103.6L143.2,103.6z"/>
		<path class="st0" d="M244.3,115.1c-9.3-4.9-16.2-12.8-20-21.9c-1.1-2.6-2.6-5.1-4.6-7.5c-9.5-11.2-26.8-14.4-40.3-7.4
			c-16.1,8.3-20.7,27.2-10.6,40.9c8.7,11.8,22.7,16.8,35.7,16.4c7.5-0.2,25-4.5,38.2-8C249.1,126,250.1,118.1,244.3,115.1
			L244.3,115.1z"/>
		<path class="st1" d="M244.3,115.1c-4.3-2.3-8.2-5.2-11.4-8.6c-0.6,1.2-1.3,2.3-2,3.4c0.7,0.7,1.4,1.3,2.2,1.9
			c3.7,2.9,1.6,8.3-3.3,8.8c-10.1,0.9-23.3,1.8-28.8,1c-9.4-1.3-18.7-6.5-23-16c-5-11,1.4-23.8,14.3-27.8c0.8-0.2,1.6-0.4,2.4-0.6
			c-0.6-0.8-1.1-1.6-1.5-2.5c-4.7,0.2-9.4,1.4-13.8,3.7c-16.1,8.3-20.7,27.2-10.6,40.9c8.7,11.8,22.7,16.8,35.7,16.4
			c7.5-0.2,25-4.5,38.2-8C249.1,126,250.1,118.1,244.3,115.1L244.3,115.1z"/>
		<path class="st2" d="M242.7,256.5c0,20.8-18.9,36.4-37.3,36.4c0.5-2.7-5.9-26.2-6.9-28.5c-1.6-3.7,10.3-0.4,12.6-11.4
			c1.1-5.6-12-28,5.1-33.3C233.2,214.4,242.7,235.7,242.7,256.5z"/>
		<path class="st1" d="M241.1,241.9c-3.4-14.8-12-26.3-25-22.2c-14.1,4.4-7.5,20.5-5.5,29.1C220.8,246.5,231.1,244.6,241.1,241.9
			L241.1,241.9z"/>
		<g>
			<path class="st6" d="M125.5,34.3c4.5-0.5,8.5,2.4,9.1,6.5c0.5,4.1-2.6,7.8-7.1,8.3s-8.5-2.4-9.1-6.5
				C117.8,38.5,121,34.8,125.5,34.3z"/>
			<path class="st6" d="M262.7,29.2c0,3.2-2.8,5.8-6.3,5.8s-6.3-2.6-6.3-5.8s2.8-5.8,6.3-5.8C259.9,23.4,262.7,26,262.7,29.2z"/>
			<path class="st6" d="M262.1,29.2c0,3.2-2.8,5.8-6.3,5.8s-6.3-2.6-6.3-5.8s2.8-5.8,6.3-5.8C259.3,23.4,262.1,26,262.1,29.2z"/>
			<path class="st6" d="M135.7,13.5c0,3.2-2.8,5.8-6.3,5.8s-6.3-2.6-6.3-5.8s2.8-5.8,6.3-5.8C132.9,7.7,135.7,10.3,135.7,13.5z"/>
		</g>
	</g>
	<g>
		<g>
			<path class="st7" d="M208.1,171.5c1.7-3.8,6.6-5.7,10.8-4.1c4.2,1.6,6.2,6,4.5,9.8s-6.6,5.7-10.8,4.1S206.3,175.3,208.1,171.5z"
				/>
			<path class="st7" d="M130.1,166.9c4.4-1,8.9,1.5,9.9,5.6c1,4-1.7,8.1-6.1,9.1c-4.4,1-8.9-1.5-9.9-5.6S125.7,167.9,130.1,166.9z"
				/>
			<path class="st7" d="M191.9,199.2c-1.4,0-2.7-0.7-3.5-1.8c-0.8-1.2-2.2-2-3.8-1.9c-1.3,0-2.5,0.6-3.3,1.5
				c-1.3,1.6-3.8,1.9-5.6,0.7s-2.1-3.5-0.8-5.1c2.3-2.7,5.7-4.4,9.5-4.4c4.5-0.1,8.7,2.1,10.9,5.6c1.1,1.8,0.4,4-1.5,5
				C193.2,199,192.6,199.2,191.9,199.2L191.9,199.2z"/>
			<path class="st7" d="M258.1,168c-0.9-5.7-3.9-21.9-9-34.6c-0.5-1.3-1.1-2.5-1.7-3.8c2.5-1.7,4.2-4.2,4.6-7.2
				c0.6-4.3-1.6-8.3-5.7-10.4l0,0c-1.7-0.9-3.4-2-5-3.1c0.9-1.3,1.8-2.8,2.5-4.2c5.5-10.5,4.1-22.6,2.8-28.8
				c-0.8-3.8-4-16.6-11.2-19.8s-20.1,2.5-23.9,4.4c-4.1,2-10.3,5.5-15.6,10.7c-0.9,0-1.8,0-2.6,0c0-0.1,0-0.1,0-0.2
				c0.3-0.3,0.5-0.6,0.7-1c4.9-8.7,5.6-17.7,2-27c2-8.7,2.4-19.6,1.2-34.8c-0.1-3.8-3-7.2-7.1-8c-4.2-0.8-8.4,1.1-10.2,4.7
				c-8.4,15.2-14.4,28.6-18.5,40.9c-3.1,2.4-5.2,5.3-6.8,8.3c-12.3-4.9-22.9-5-31.6-0.3c-6,3.2-10.8,8.5-14.3,15.8
				c-0.1,0-0.2-0.1-0.2-0.1c-3.6-2.2-15.7-9.3-23.4-6.9C77.5,65,72.7,77.4,71.4,81.2c-1.2,3.6-2.7,9.1-3,15.3
				c-2.2,0.6-4.2,1.5-6.1,2.6c-13.8,7.8-16.3,25-16.7,33.7c-3.9,1-9.3,3-15,6.6c-9.8,6.1-22.6,18.4-28.4,42.2
				c-5.9,24.1,1.4,40,8.6,49.1c3,3.8,6.2,6.7,9.1,8.9C13.5,244.8,6,253.9,6,267.5c0,20.2,20.2,34.4,25.5,37.8c0.8,0.8,1.8,1.4,3,1.7
				c0.6,0.1,1.2,0.2,1.8,0.2c2.9,0,5.6-1.8,6.4-4.5c8.9-29.6,23.9-53.3,42.2-66.8c2.2-1.6,3-4.3,2.1-6.8
				c-4.3-11.1-6.1-22.6-6.1-38.5v-0.1l-0.7-35.4c0-11,3.6-21.7,10.3-30.8c1.8-2.4,1.5-5.6-0.8-7.7c-2.8-2.6-5-6-6.6-10.2
				c-4.4-11.7,2.6-28,6.4-32c5.7,1,22.2,9.9,26.6,21.6c0.2,0.5,0.4,1,0.6,1.6c1,3.2,4.6,5,8.1,4.2c4.7-1.2,9.6-1.8,14.5-1.9
				c-0.1,1.3-0.2,2.7-0.4,4.1c-0.5,8.9,11.8,14.4,22.6,16.5c1.1,0.2,2.2,0.4,3.3,0.5c0.2,0.2,0.3,0.4,0.4,0.6
				c8.3,11.4,22.3,18,37.6,18c0.5,0,1,0,1.5,0c5.4-0.2,15.5-2.1,30.2-5.8c0.9,1.7,1.4,3.1,1.8,4c5.7,14.2,8.6,34,8.6,34.2
				c0.2,1.4,0.9,2.7,2,3.6c13.8,11.9,18.9,28.4,13.2,43c-2.9,7.3-7.4,13.5-13.6,18.7c-2.5-8.5-6.8-16.3-13.6-20.7
				c-5.7-3.7-12.3-4.5-19.2-2.4c-7.9,2.5-12.7,8.2-13.3,16.3c-0.4,5.8,1.2,11.8,2.5,16.6c0.4,1.6,1,3.6,1.2,4.8
				c-4,0.2-7.7,0.3-10.4,0c-2.4-0.2-4.7,0.8-6,2.6c-1.4,1.8-1.6,4.1-0.6,6c5.5,11,8.6,27.1,11,41.4c0.5,3.3,3.9,5.6,7.6,5.1
				c3.5-0.5,6-3.4,5.7-6.6c8.7-1.8,17.3-6.5,24.2-13.2c8.8-8.7,13.7-19.5,13.7-30.4c0-1.8-0.1-3.7-0.2-5.6
				c11.2-7.2,19.2-16.8,23.8-28.4C280.3,203.8,274.6,183.1,258.1,168L258.1,168z M66.9,154.9l0.7,35.4c0,15.5,1.6,27.2,5.4,38.5
				c-20.8,16.9-33.1,41.2-40.2,61.4c-6-5-13.5-13.3-13.5-23.1c0-15.5,14.5-22.3,15.1-22.5c2.3-1,3.8-3.2,3.8-5.5s-1.5-4.5-3.8-5.5
				c-0.3-0.1-28.2-12.6-19.1-49.7s36.6-40.3,37.8-40.5c3.6-0.3,6.3-3.2,6-6.4c-0.4-5.9,0.7-22.4,10.5-27.9c0.2-0.1,0.5-0.2,0.7-0.4
				c0.1,0.4,0.3,0.9,0.5,1.3c1.6,4.2,3.6,7.9,6.2,11c-6.5,10.2-9.9,21.8-9.9,33.7C66.9,154.8,66.9,154.8,66.9,154.9L66.9,154.9z
				 M229.6,67.2c3.2,4.4,8,20.9,2.4,31.8c-1.5-2.2-2.8-4.7-3.9-7.2c-1.2-3-3-5.8-5.2-8.4c-3.1-3.7-7.1-6.6-11.4-8.7
				C218.3,70.2,226.1,67.4,229.6,67.2L229.6,67.2z M184.5,24.3c-0.1,6.1-0.5,12.3-1.9,17.6V42c0,0.1-0.1,0.2-0.1,0.4v0.1l-6.6,2
				C178.2,38.1,181.1,31.4,184.5,24.3L184.5,24.3z M171.2,54.1c0.4-0.2,0.7-0.5,1-0.8l12.1-3.7c1.3,5.1,0.6,9.8-2.1,14.7
				c-0.2,0.3-0.3,0.6-0.4,0.9l-17.3,5.3C164.7,61.9,166.7,57,171.2,54.1L171.2,54.1z M140.7,87.3c-4.5,0-8.9,0.4-13.3,1.1
				c-2.1-4.1-4.9-7.6-7.9-10.6c2.3-6.1,5.6-11.2,10.3-13.7c5.3-2.8,12.5-2.2,21.6,1.8c-0.3,2.7-0.3,5.3-0.3,7.8c0,0.3,0,0.5,0.1,0.8
				c-3.8,3.7-6.7,8-8.7,12.9h-1.8V87.3z M155.9,80.6c0.3,0,0.6-0.1,0.9-0.2l27.5-8.4c0.1,0.1,0.3,0.2,0.5,0.3
				c-2.5,0.7-4.9,1.6-7.3,2.8c-8.5,4.4-14.4,11.5-16.8,20l-13,3.5C148.6,91.4,151.4,85.4,155.9,80.6L155.9,80.6z M148.1,106.1
				l11.4-3.1c0,3.2,0.5,6.3,1.4,9.3C154.6,110.8,150,108.3,148.1,106.1z M204.4,132c-13.1,0.4-25.1-5.1-32.2-14.8
				c-4.2-5.8-5.7-12.9-3.9-19.7c1.8-6.8,6.5-12.5,13.2-16c4.2-2.2,8.8-3.2,13.4-3.2c8.2,0,16.4,3.4,21.7,9.6c1.7,2,3,4.2,4,6.5
				c4.2,10.2,11.9,18.6,21.8,23.8c1.9,1,1.8,2.7,1.7,3.2s-0.4,2.2-2.5,2.7C223.1,129,209.9,131.8,204.4,132L204.4,132z M218.3,225.5
				c2.8-0.9,4.9-0.6,7.1,0.8c3.5,2.3,6.5,7.4,8.4,13.8l-17.4,4.3c-0.1-0.2-0.1-0.4-0.2-0.6C212.8,231.3,213.3,227,218.3,225.5
				L218.3,225.5z M209.4,288.1c-1.5-7.5-3.2-15.2-5.5-22.1c1.7-0.2,3.6-0.6,5.5-1.4c3.1-1.3,7-4.2,8.3-10.5c0.2-0.8,0.2-1.6,0.2-2.5
				l17.5-4.3c0.5,3,0.7,6.1,0.7,9.2C236.1,271.8,222.6,284.9,209.4,288.1L209.4,288.1z"/>
			<path class="st7" d="M280.9,120.1c3.9,1.1,6.1,5,4.8,8.5c-1.2,3.6-5.4,5.5-9.3,4.4s-6.1-5-4.8-8.5
				C272.8,120.9,277,119,280.9,120.1z"/>
			<path class="st7" d="M283.4,112.8c-3.5-1-5.5-4.4-4.3-7.7l6.7-19.4c1.1-3.2,4.9-5,8.4-4c3.9,1.1,7.9,0.8,11.5-1
				c3.5-1.8,6.1-4.7,7.1-8.3c1.9-6.7-2.2-13.7-9.4-16c-7-2.2-14.7,0.8-17.9,6.8c-0.3,0.6-0.5,1.1-0.8,1.7c-1.1,3.2-4.9,5-8.4,4
				s-5.5-4.4-4.3-7.7c0.4-1.1,0.9-2.2,1.4-3.3c6.1-11.6,20.9-17.3,34.2-13.1c13.8,4.3,21.7,17.7,18,30.6c-2,6.9-6.8,12.5-13.6,15.9
				c-4.7,2.4-10.1,3.4-15.4,3.1l-5,14.3C290.7,112,286.9,113.8,283.4,112.8L283.4,112.8z"/>
			<path class="st7" d="M127.1,155.2c-1.1,0-2.2-0.4-3-1.3c-1.4-1.5-1.3-3.8,0.4-5.2c4.6-3.6,11.4-3.6,16,0c1.7,1.3,1.9,3.6,0.4,5.2
				c-1.4,1.5-4,1.7-5.7,0.4c-1.5-1.2-4-1.2-5.5,0C128.9,154.9,128,155.2,127.1,155.2L127.1,155.2z"/>
			<path class="st7" d="M212.1,156.6c-2.8,0-5.5-0.8-7.8-2.5c-1.7-1.3-2-3.6-0.6-5.1c1.4-1.6,3.9-1.8,5.6-0.5c1.6,1.2,4,1.1,5.5-0.1
				c1.6-1.4,4.2-1.2,5.7,0.3s1.4,3.8-0.3,5.2C218,155.6,215,156.6,212.1,156.6z"/>
		</g>
		<path class="st8" d="M209.9,106.4c-2.5,0-4.8-1.2-6-3.4c-3.4-6.2-8.6-7.8-8.8-7.9c0,0-7.2-2.2-4.9-8s8.6-3.7,8.6-3.7
			c1.1,0.3,11.1,3.1,17.1,14.2c1.6,3,0.3,6.7-3,8.2C211.9,106.2,210.9,106.4,209.9,106.4L209.9,106.4z"/>
	</g>
</g>
<polygon class="st4" points="276.1,145.8 279.9,152.9 288.5,154.1 282.3,159.6 283.8,167.4 276.1,163.7 268.4,167.4 269.9,159.6 
	263.7,154.1 272.3,152.9 "/>
<polygon class="st4" points="61.8,51.5 65.7,58.6 74.3,59.8 68,65.3 69.5,73.1 61.8,69.4 54.2,73.1 55.6,65.3 49.4,59.8 58,58.6 "/>
<polygon class="st4" points="288.5,2.7 292.4,9.8 300.9,10.9 294.7,16.5 296.2,24.3 288.5,20.6 280.8,24.3 282.3,16.5 276.1,10.9 
	284.7,9.8 "/>
<path class="st6" d="M272.1,100.8c1.7-0.2,3.3-1.1,4.4-2.6c1.6-2.2,1.3-5.2-0.7-7.1c-2.2-2-5.5-2.3-7.9-0.9c1-2.4,0.2-5.4-2.5-6.9
	c-2.4-1.4-5.7-1.2-7.8,0.7c-1.4,1.2-2,2.8-1.9,4.4l0,0l0,0c0,0.2,0,0.4,0.1,0.6l1.4,13.5l14.7-1.7H272.1L272.1,100.8L272.1,100.8z"
	/>
<path class="st4" d="M100.3,26.7c0.8-1.4,1-3.1,0.4-4.7c-1-2.5-3.8-4.1-6.7-3.7c-3.1,0.4-5.3,2.6-5.5,5.3c-1.5-2.2-4.6-3.3-7.5-2.3
	c-2.7,0.9-4.4,3.5-4.1,6.1c0.2,1.7,1.3,3.1,2.7,4l0,0l0,0c0.2,0.1,0.4,0.2,0.6,0.3l12.7,7.1l7.3-11.7c0,0,0,0,0-0.1L100.3,26.7
	L100.3,26.7z"/>
<path class="st4" d="M234.3,15.9c0.7-1.4,0.7-3.1-0.1-4.7c-1.2-2.4-4.2-3.8-7-3.2c-3,0.6-5,3-5,5.7c-1.7-2.1-4.9-2.9-7.7-1.7
	c-2.6,1.1-4.1,3.8-3.5,6.4c0.4,1.7,1.6,3,3.1,3.8l0,0l0,0c0.2,0.1,0.4,0.2,0.6,0.3l13.3,6l6.2-12.3v-0.1L234.3,15.9L234.3,15.9z"/>
</svg>
