<svg id="Capa_1_copia" data-name="Capa 1 copia" xmlns="http://www.w3.org/2000/svg" viewBox="0 0 64 69.96"><defs><style>.cls-1{fill:#1c852d;}.cls-2{fill:#13681d;}.cls-3{fill:#269f2e;}.cls-4{fill:none;stroke:#fff;stroke-linecap:round;stroke-linejoin:round;stroke-width:3px;}.cls-5{fill:#fff;}</style></defs><title>whatsapp_icon_globo</title><path class="cls-1" d="M40.46,68.15c-0.14-.28-2.19-0.16-2.38-0.43a1.38,1.38,0,0,1-.88.33A1.41,1.41,0,0,1,36.26,68c-0.11.28-2.11,0.7-2.17,1a0.68,0.68,0,0,0-.41.53c0.07,0.48,1.75.66,3.76,0.38S41,69,41,68.49A0.59,0.59,0,0,0,40.46,68.15Zm-3,1.5c-1.51.21-2.78,0.09-2.83-.27s1.13-.83,2.64-1,2.78-.09,2.83.27S38.94,69.44,37.42,69.65Z" transform="translate(0 -0.04)"/><ellipse class="cls-2" cx="37.33" cy="69" rx="2.76" ry="0.66" transform="translate(-9.26 5.84) rotate(-8.02)"/><path class="cls-2" d="M37.2,68.05a1.38,1.38,0,0,0,.88-0.33,0.11,0.11,0,0,0,0,0h0a1.28,1.28,0,0,0-1-.08,1.27,1.27,0,0,0-.89.34h0l0,0A1.41,1.41,0,0,0,37.2,68.05Z" transform="translate(0 -0.04)"/><path class="cls-1" d="M63.44,25.5a32.09,32.09,0,0,0-.93-3.69,31.55,31.55,0,0,0-2.56-5.73A32.23,32.23,0,0,0,39.81.95a31.57,31.57,0,0,0-6.1-.89A31,31,0,0,0,30,.26,20.27,20.27,0,0,0,27.7.67H27.61A32.07,32.07,0,0,0,29.4,64.4a8.85,8.85,0,0,1,5,2L36.25,68a1.24,1.24,0,0,1,.89-0.36,1.29,1.29,0,0,1,.95.07l1.18-1.88a8.91,8.91,0,0,1,4.37-3.54,32,32,0,0,0,20-34.41V27.77A21.39,21.39,0,0,0,63.44,25.5Z" transform="translate(0 -0.04)"/><path class="cls-3" d="M62.92,25.29v0.09A28.9,28.9,0,1,1,30.2.71h0.09A17.59,17.59,0,0,1,32.36.48a28,28,0,0,1,3.38,0,28.72,28.72,0,0,1,4.09.49A32.27,32.27,0,0,1,60,16.07,28.08,28.08,0,0,1,61.66,20h0a28.74,28.74,0,0,1,.91,3.3A19.21,19.21,0,0,1,62.92,25.29Z" transform="translate(0 -0.04)"/><path class="cls-4" d="M48.79,10.6a26.68,26.68,0,0,1,2.53,2.24" transform="translate(0 -0.04)"/><path class="cls-4" d="M35.71,5.1a27.84,27.84,0,0,1,9.12,3" transform="translate(0 -0.04)"/><path class="cls-5" d="M32.19,15.34a14.44,14.44,0,0,0-10.9,22l-2.57,7.53,7.85-2.48A14.47,14.47,0,1,0,32.19,15.34Zm2,26.14a11.64,11.64,0,0,1-6.66-1.64,0.73,0.73,0,0,0-.6-0.07l-4.52,1.45,1.45-4.36a0.73,0.73,0,0,0-.09-0.63,11.75,11.75,0,1,1,10.4,5.19v0.06Z" transform="translate(0 -0.04)"/><path class="cls-5" d="M37.8,31.72l2.91,1.52c0.3,0.15.5,0.25,0.3,1.05a2.36,2.36,0,0,1-1,1.83,4.49,4.49,0,0,1-1.55.73c-0.4.07-.81,0.41-2.59-0.26a13.88,13.88,0,0,1-6.55-4.5c-2.57-3-3.34-5.33-2.63-7.17a5.13,5.13,0,0,1,.85-1.45,1.8,1.8,0,0,1,1.33-.67c0.55-.09,1.09-0.41,1.6,1s0.82,2.18.92,2.39a0.94,0.94,0,0,1-.29,1.13,9,9,0,0,0-.8.87,0.65,0.65,0,0,0,0,.8,10.91,10.91,0,0,0,2.46,3A14.07,14.07,0,0,0,35,33.4c0.26,0.12.44,0.29,0.92-.2s0.73-.87,1-1.19S37.5,31.53,37.8,31.72Z" transform="translate(0 -0.04)"/></svg>